<svg width="161" height="52" viewBox="0 0 161 52" fill="none" xmlns="http://www.w3.org/2000/svg">
<path d="M10.2919 51.9972C9.87772 51.9972 9.4736 51.9919 9.06272 51.9827C8.21154 51.9716 7.36235 51.8975 6.52212 51.761C5.73865 51.626 4.97967 51.375 4.27023 51.0161C3.56729 50.6603 2.92616 50.1937 2.37138 49.6342C1.80858 49.0813 1.34002 48.44 0.984274 47.7358C0.624607 47.0269 0.375695 46.2672 0.246211 45.4829C0.106379 44.6403 0.0307246 43.7882 0.0198992 42.9341C0.0112817 42.6474 0 41.6928 0 41.6928V10.2897C0 10.2897 0.0120157 9.34984 0.0199672 9.0737C0.0303324 8.22092 0.105547 7.37017 0.244961 6.5288C0.374684 5.74241 0.623788 4.98046 0.983649 4.26933C1.33809 3.56558 1.80405 2.92383 2.36346 2.36895C2.92224 1.80879 3.56543 1.33978 4.26956 0.978997C4.97738 0.621315 5.73492 0.372053 6.51681 0.239561C7.3598 0.101672 8.21193 0.0271218 9.06606 0.0165373L10.2925 -6.10352e-05H149.979L151.22 0.0172035C152.066 0.027262 152.911 0.101147 153.746 0.238229C154.536 0.372382 155.301 0.623384 156.017 0.98298C157.428 1.71005 158.575 2.86035 159.3 4.27265C159.654 4.97887 159.899 5.7346 160.027 6.5142C160.168 7.36247 160.247 8.21991 160.263 9.07968C160.267 9.46467 160.267 9.8782 160.267 10.2897C160.278 10.7995 160.278 11.2847 160.278 11.7739V40.2245C160.278 40.7184 160.278 41.2003 160.267 41.6861C160.267 42.1282 160.267 42.5332 160.262 42.95C160.246 43.7944 160.168 44.6365 160.03 45.4696C159.903 46.2595 159.655 47.0252 159.296 47.7398C158.937 48.4364 158.471 49.0721 157.915 49.6236C157.36 50.1861 156.718 50.6554 156.013 51.0136C155.299 51.3752 154.535 51.6271 153.746 51.761C152.906 51.8982 152.056 51.9723 151.205 51.9827C150.807 51.9919 150.39 51.9972 149.985 51.9972L148.512 51.9999L10.2919 51.9972Z" fill="black"/>
<path d="M32.4831 26.407C32.4977 25.2723 32.7991 24.1598 33.3591 23.173C33.9191 22.1861 34.7197 21.357 35.6862 20.7627C35.0722 19.8856 34.2622 19.1639 33.3204 18.6547C32.3787 18.1455 31.3313 17.863 30.2613 17.8295C27.9788 17.5899 25.7661 19.1955 24.6029 19.1955C23.4173 19.1955 21.6265 17.8533 19.6982 17.893C18.4508 17.9333 17.2352 18.296 16.1697 18.9459C15.1043 19.5958 14.2253 20.5106 13.6184 21.6012C10.9897 26.1531 12.9505 32.8428 15.4686 36.5222C16.7285 38.3239 18.2009 40.3364 20.1276 40.265C22.0129 40.1868 22.717 39.0627 24.9928 39.0627C27.2474 39.0627 27.9081 40.265 29.8738 40.2197C31.8968 40.1868 33.1715 38.41 34.3871 36.5912C35.2923 35.3075 35.9889 33.8886 36.451 32.3872C35.2757 31.8901 34.2727 31.0579 33.5671 29.9944C32.8615 28.931 32.4845 27.6833 32.4831 26.407Z" fill="white"/>
<path d="M28.7698 15.4099C29.873 14.0856 30.4165 12.3833 30.2849 10.6647C28.5995 10.8418 27.0426 11.6473 25.9245 12.9208C25.3778 13.543 24.9591 14.2668 24.6924 15.0508C24.4256 15.8349 24.316 16.6639 24.3697 17.4903C25.2128 17.499 26.0468 17.3163 26.8089 16.9559C27.5711 16.5955 28.2416 16.0669 28.7698 15.4099Z" fill="white"/>
<path d="M56.3114 35.7046H49.8776L48.3325 40.2674H45.6074L51.7014 23.3863H54.5327L60.6267 40.2674H57.8551L56.3114 35.7046ZM50.5439 33.5991H55.6438L53.1297 26.1941H53.0594L50.5439 33.5991Z" fill="white"/>
<path d="M73.7893 34.114C73.7893 37.9386 71.7422 40.3959 68.653 40.3959C67.8705 40.4369 67.0922 40.2566 66.4074 39.8758C65.7225 39.4949 65.1587 38.929 64.7806 38.2426H64.7221V44.3387H62.1958V27.9595H64.6412V30.0066H64.6876C65.0832 29.3235 65.6565 28.7604 66.3465 28.3773C67.0366 27.9942 67.8177 27.8053 68.6066 27.8307C71.7302 27.8307 73.7893 30.2999 73.7893 34.114ZM71.1926 34.114C71.1926 31.6222 69.9049 29.984 67.9401 29.984C66.0099 29.984 64.7115 31.6567 64.7115 34.114C64.7115 36.5938 66.0099 38.2546 67.9401 38.2546C69.9049 38.2546 71.1926 36.6284 71.1926 34.114Z" fill="white"/>
<path d="M87.3342 34.1141C87.3342 37.9388 85.2871 40.396 82.1979 40.396C81.4154 40.437 80.6371 40.2567 79.9523 39.8759C79.2674 39.4951 78.7036 38.9291 78.3255 38.2427H78.267V44.3388H75.7407V27.9596H78.1861V30.0067H78.2325C78.628 29.3236 79.2013 28.7606 79.8914 28.3774C80.5815 27.9943 81.3625 27.8054 82.1514 27.8308C85.2752 27.8308 87.3342 30.3 87.3342 34.1141ZM84.7375 34.1141C84.7375 31.6223 83.4498 29.9841 81.485 29.9841C79.5548 29.9841 78.2565 31.6568 78.2565 34.1141C78.2565 36.5939 79.5548 38.2547 81.485 38.2547C83.4498 38.2547 84.7375 36.6285 84.7375 34.1141Z" fill="white"/>
<path d="M96.2845 35.5638C96.4717 37.2379 98.0977 38.337 100.32 38.337C102.449 38.337 103.981 37.2378 103.981 35.7284C103.981 34.4181 103.057 33.6335 100.869 33.0959L98.6817 32.5688C95.5823 31.8201 94.1434 30.3704 94.1434 28.018C94.1434 25.1053 96.6814 23.1047 100.285 23.1047C103.852 23.1047 106.297 25.1053 106.379 28.018H103.829C103.677 26.3333 102.284 25.3164 100.249 25.3164C98.2145 25.3164 96.8221 26.3453 96.8221 27.8428C96.8221 29.0362 97.7114 29.7385 99.887 30.2761L101.747 30.7328C105.21 31.5519 106.649 32.9432 106.649 35.4124C106.649 38.5706 104.133 40.5486 100.133 40.5486C96.3893 40.5486 93.862 38.6171 93.6987 35.5637L96.2845 35.5638Z" fill="white"/>
<path d="M112.099 25.0469V27.9596H114.44V29.9602H112.099V36.7453C112.099 37.7993 112.568 38.2905 113.597 38.2905C113.875 38.2857 114.152 38.2662 114.428 38.2321V40.2207C113.965 40.3072 113.495 40.3463 113.025 40.3376C110.533 40.3376 109.561 39.4016 109.561 37.0147V29.9602H107.771V27.9596H109.561V25.0469H112.099Z" fill="white"/>
<path d="M115.793 34.1142C115.793 30.2418 118.074 27.8084 121.631 27.8084C125.199 27.8084 127.469 30.2417 127.469 34.1142C127.469 37.9973 125.211 40.4201 121.631 40.4201C118.052 40.4201 115.793 37.9973 115.793 34.1142ZM124.895 34.1142C124.895 31.4578 123.678 29.89 121.631 29.89C119.584 29.89 118.368 31.4698 118.368 34.1142C118.368 36.7813 119.584 38.3372 121.631 38.3372C123.678 38.3372 124.895 36.7813 124.895 34.1142Z" fill="white"/>
<path d="M129.553 27.9597H131.963V30.0545H132.021C132.184 29.4002 132.567 28.822 133.107 28.4171C133.646 28.0122 134.308 27.8051 134.982 27.8309C135.273 27.8299 135.563 27.8615 135.847 27.9251V30.2882C135.48 30.1759 135.096 30.1243 134.712 30.1355C134.345 30.1206 133.979 30.1853 133.64 30.3252C133.3 30.4651 132.995 30.6768 132.744 30.9458C132.494 31.2148 132.305 31.5347 132.191 31.8837C132.076 32.2326 132.038 32.6022 132.08 32.9671V40.2673H129.553L129.553 27.9597Z" fill="white"/>
<path d="M147.494 36.6523C147.154 38.8866 144.978 40.4199 142.194 40.4199C138.614 40.4199 136.392 38.021 136.392 34.1725C136.392 30.312 138.626 27.8082 142.088 27.8082C145.493 27.8082 147.635 30.1474 147.635 33.8791V34.7446H138.942V34.8973C138.902 35.3503 138.958 35.8066 139.108 36.2359C139.258 36.6653 139.497 37.0579 139.811 37.3876C140.124 37.7173 140.503 37.9766 140.924 38.1483C141.346 38.32 141.798 38.4002 142.253 38.3834C142.85 38.4394 143.449 38.3011 143.961 37.9892C144.473 37.6773 144.871 37.2084 145.095 36.6523L147.494 36.6523ZM138.954 32.979H145.107C145.13 32.5717 145.068 32.1642 144.926 31.7819C144.783 31.3996 144.563 31.0509 144.28 30.7576C143.997 30.4643 143.656 30.2327 143.278 30.0774C142.901 29.9222 142.496 29.8465 142.088 29.8553C141.677 29.8528 141.269 29.9319 140.888 30.0879C140.508 30.2439 140.161 30.4737 139.87 30.7641C139.579 31.0545 139.348 31.3998 139.19 31.7799C139.033 32.1601 138.953 32.5676 138.954 32.979Z" fill="white"/>
<path d="M50.2292 10.6792C50.7588 10.6412 51.2903 10.7212 51.7853 10.9135C52.2803 11.1057 52.7264 11.4054 53.0915 11.791C53.4566 12.1766 53.7316 12.6384 53.8967 13.1431C54.0617 13.6478 54.1127 14.1828 54.0459 14.7096C54.0459 17.301 52.6453 18.7905 50.2292 18.7905H47.2993V10.6792H50.2292ZM48.5591 17.6434H50.0885C50.4669 17.666 50.8457 17.604 51.1971 17.4618C51.5486 17.3196 51.8639 17.1008 52.1202 16.8213C52.3764 16.5419 52.5671 16.2088 52.6784 15.8464C52.7897 15.4839 52.8187 15.1012 52.7635 14.7261C52.8147 14.3525 52.7827 13.9722 52.6697 13.6124C52.5567 13.2526 52.3656 12.9223 52.1099 12.6451C51.8543 12.3678 51.5404 12.1506 51.191 12.0089C50.8415 11.8672 50.465 11.8046 50.0885 11.8255H48.5591V17.6434Z" fill="white"/>
<path d="M55.4692 15.727C55.4307 15.3247 55.4768 14.9188 55.6043 14.5354C55.7319 14.1519 55.9382 13.7994 56.21 13.5004C56.4818 13.2013 56.8131 12.9624 57.1827 12.7989C57.5522 12.6354 57.9519 12.5509 58.356 12.5509C58.7601 12.5509 59.1597 12.6354 59.5293 12.7989C59.8988 12.9624 60.2301 13.2013 60.5019 13.5004C60.7737 13.7994 60.98 14.1519 61.1076 14.5354C61.2352 14.9188 61.2812 15.3247 61.2427 15.727C61.2819 16.1297 61.2365 16.5361 61.1092 16.9202C60.982 17.3042 60.7758 17.6574 60.504 17.9571C60.2321 18.2567 59.9005 18.4961 59.5306 18.66C59.1607 18.8239 58.7606 18.9085 58.356 18.9085C57.9514 18.9085 57.5513 18.8239 57.1813 18.66C56.8114 18.4961 56.4799 18.2567 56.208 17.9571C55.9361 17.6574 55.7299 17.3042 55.6027 16.9202C55.4755 16.5361 55.43 16.1297 55.4692 15.727ZM60.0001 15.727C60.0001 14.4001 59.404 13.6242 58.358 13.6242C57.3079 13.6242 56.7172 14.4001 56.7172 15.727C56.7172 17.0645 57.3079 17.8345 58.358 17.8345C59.4041 17.8345 60.0001 17.0592 60.0001 15.727Z" fill="white"/>
<path d="M68.9171 18.7905H67.6639L66.3987 14.2822H66.3032L65.0433 18.7905H63.8021L62.1147 12.6692H63.3401L64.4366 17.3401H64.5269L65.7854 12.6692H66.9444L68.2029 17.3401H68.2985L69.3897 12.6692H70.5978L68.9171 18.7905Z" fill="white"/>
<path d="M72.0142 12.6692H73.1771V13.6416H73.2674C73.4205 13.2923 73.6788 12.9996 74.0062 12.8041C74.3337 12.6086 74.714 12.5201 75.0941 12.551C75.3919 12.5286 75.691 12.5735 75.9691 12.6824C76.2472 12.7913 76.4973 12.9614 76.7008 13.18C76.9043 13.3987 77.056 13.6603 77.1446 13.9455C77.2332 14.2308 77.2565 14.5323 77.2128 14.8277V18.7904H76.0048V15.1311C76.0048 14.1474 75.5773 13.6582 74.6839 13.6582C74.4816 13.6488 74.2798 13.6832 74.0921 13.7591C73.9044 13.835 73.7354 13.9506 73.5965 14.0979C73.4577 14.2452 73.3524 14.4209 73.2878 14.6127C73.2232 14.8046 73.2008 15.0081 73.2222 15.2094V18.7905H72.0142L72.0142 12.6692Z" fill="white"/>
<path d="M79.1362 10.2795H80.3443V18.7904H79.1362V10.2795Z" fill="white"/>
<path d="M82.0244 15.7272C81.9859 15.3249 82.032 14.919 82.1596 14.5356C82.2872 14.1521 82.4935 13.7995 82.7653 13.5005C83.0371 13.2014 83.3685 12.9625 83.7381 12.799C84.1076 12.6355 84.5073 12.551 84.9114 12.551C85.3156 12.551 85.7153 12.6355 86.0848 12.799C86.4544 12.9625 86.7857 13.2014 87.0576 13.5005C87.3294 13.7995 87.5357 14.1521 87.6633 14.5356C87.7909 14.919 87.837 15.3249 87.7985 15.7272C87.8377 16.1299 87.7922 16.5364 87.6649 16.9204C87.5376 17.3045 87.3314 17.6577 87.0595 17.9573C86.7876 18.2569 86.4561 18.4964 86.0861 18.6602C85.7162 18.8241 85.316 18.9087 84.9114 18.9087C84.5068 18.9087 84.1067 18.8241 83.7368 18.6602C83.3668 18.4964 83.0353 18.2569 82.7634 17.9573C82.4915 17.6577 82.2853 17.3045 82.158 16.9204C82.0307 16.5364 81.9852 16.1299 82.0244 15.7272ZM86.5553 15.7272C86.5553 14.4004 85.9592 13.6244 84.9131 13.6244C83.863 13.6244 83.2723 14.4004 83.2723 15.7272C83.2723 17.0647 83.8631 17.8347 84.9131 17.8347C85.9592 17.8347 86.5553 17.0594 86.5553 15.7272Z" fill="white"/>
<path d="M89.0693 17.0593C89.0693 15.9574 89.8898 15.3222 91.3461 15.2319L93.0042 15.1364V14.608C93.0042 13.9615 92.5767 13.5964 91.751 13.5964C91.0766 13.5964 90.6093 13.844 90.4752 14.2768H89.3056C89.4291 13.2254 90.4181 12.551 91.8067 12.551C93.3414 12.551 94.2069 13.315 94.2069 14.608V18.7904H93.044V17.9302H92.9484C92.7544 18.2387 92.482 18.4903 92.159 18.6592C91.8359 18.828 91.4739 18.9081 91.1098 18.8913C90.8528 18.918 90.5931 18.8906 90.3473 18.8108C90.1016 18.731 89.8753 18.6006 89.6831 18.428C89.4909 18.2554 89.3369 18.0444 89.2312 17.8087C89.1255 17.5729 89.0703 17.3177 89.0693 17.0593ZM93.0042 16.5362V16.0245L91.5094 16.1201C90.6664 16.1765 90.284 16.4632 90.284 17.0029C90.284 17.5538 90.7619 17.8744 91.4191 17.8744C91.6117 17.8939 91.8062 17.8744 91.9911 17.8172C92.176 17.76 92.3475 17.6662 92.4953 17.5413C92.6432 17.4165 92.7645 17.2632 92.8519 17.0905C92.9393 16.9178 92.9911 16.7293 93.0042 16.5362Z" fill="white"/>
<path d="M95.7935 15.7271C95.7935 13.7929 96.7878 12.5676 98.3344 12.5676C98.7169 12.55 99.0966 12.6416 99.429 12.8318C99.7614 13.0219 100.033 13.3028 100.212 13.6415H100.302V10.2795H101.51V18.7904H100.352V17.8233H100.257C100.064 18.1597 99.7833 18.4371 99.4445 18.6254C99.1056 18.8136 98.7217 18.9056 98.3344 18.8913C96.7772 18.8914 95.7935 17.666 95.7935 15.7271ZM97.0414 15.7271C97.0414 17.0255 97.6534 17.8067 98.6769 17.8067C99.6951 17.8067 100.324 17.0142 100.324 15.7325C100.324 14.4567 99.6885 13.6529 98.6769 13.6529C97.66 13.6529 97.0414 14.4394 97.0414 15.7271Z" fill="white"/>
<path d="M106.508 15.7272C106.47 15.3249 106.516 14.919 106.643 14.5356C106.771 14.1521 106.977 13.7996 107.249 13.5005C107.521 13.2015 107.852 12.9626 108.222 12.799C108.591 12.6355 108.991 12.5511 109.395 12.5511C109.799 12.5511 110.199 12.6355 110.568 12.799C110.938 12.9626 111.269 13.2015 111.541 13.5005C111.813 13.7996 112.019 14.1521 112.147 14.5356C112.274 14.919 112.32 15.3249 112.282 15.7272C112.321 16.1299 112.276 16.5363 112.148 16.9204C112.021 17.3044 111.815 17.6576 111.543 17.9573C111.271 18.2569 110.94 18.4963 110.57 18.6602C110.2 18.824 109.8 18.9087 109.395 18.9087C108.99 18.9087 108.59 18.824 108.22 18.6602C107.85 18.4963 107.519 18.2569 107.247 17.9573C106.975 17.6576 106.769 17.3044 106.642 16.9204C106.515 16.5363 106.469 16.1299 106.508 15.7272ZM111.039 15.7272C111.039 14.4003 110.443 13.6243 109.397 13.6243C108.347 13.6243 107.756 14.4003 107.756 15.7272C107.756 17.0647 108.347 17.8347 109.397 17.8347C110.443 17.8346 111.039 17.0594 111.039 15.7272Z" fill="white"/>
<path d="M113.901 12.6692H115.064V13.6417H115.155C115.308 13.2924 115.566 12.9996 115.893 12.8041C116.221 12.6086 116.601 12.5202 116.981 12.5511C117.279 12.5287 117.578 12.5736 117.856 12.6825C118.134 12.7914 118.385 12.9614 118.588 13.1801C118.791 13.3987 118.943 13.6604 119.032 13.9456C119.12 14.2308 119.144 14.5323 119.1 14.8278V18.7905H117.892V15.1312C117.892 14.1475 117.465 13.6583 116.571 13.6583C116.369 13.6488 116.167 13.6833 115.979 13.7591C115.792 13.835 115.623 13.9506 115.484 14.098C115.345 14.2453 115.24 14.4209 115.175 14.6128C115.11 14.8046 115.088 15.0082 115.109 15.2095V18.7905H113.901V12.6692Z" fill="white"/>
<path d="M125.925 11.1451V12.697H127.252V13.7146H125.925V16.8622C125.925 17.5034 126.189 17.7842 126.791 17.7842C126.945 17.7837 127.099 17.7744 127.252 17.7563V18.7626C127.035 18.8014 126.815 18.822 126.594 18.8243C125.251 18.8243 124.716 18.3517 124.716 17.1715V13.7146H123.744V12.697H124.716V11.1451H125.925Z" fill="white"/>
<path d="M128.898 10.2795H130.096V13.6528H130.191C130.352 13.3003 130.617 13.0058 130.951 12.8096C131.285 12.6134 131.672 12.5249 132.058 12.5562C132.354 12.5401 132.65 12.5896 132.925 12.7011C133.2 12.8126 133.447 12.9835 133.649 13.2014C133.85 13.4194 134.001 13.6791 134.09 13.9621C134.18 14.245 134.206 14.5442 134.166 14.8383V18.7904H132.957V15.1363C132.957 14.1586 132.501 13.6634 131.648 13.6634C131.44 13.6464 131.231 13.6749 131.036 13.747C130.84 13.8191 130.663 13.9331 130.516 14.0809C130.37 14.2287 130.257 14.4068 130.186 14.6028C130.115 14.7987 130.088 15.0078 130.107 15.2153V18.7904H128.898L128.898 10.2795Z" fill="white"/>
<path d="M141.21 17.1379C141.046 17.6973 140.691 18.1812 140.206 18.505C139.721 18.8287 139.138 18.9717 138.558 18.9088C138.155 18.9194 137.754 18.8422 137.383 18.6824C137.013 18.5227 136.682 18.2842 136.413 17.9836C136.144 17.683 135.943 17.3274 135.825 16.9416C135.708 16.5557 135.675 16.1489 135.73 15.7492C135.677 15.3484 135.71 14.9406 135.827 14.5537C135.945 14.1667 136.144 13.8095 136.412 13.5062C136.679 13.203 137.009 12.9608 137.378 12.796C137.748 12.6312 138.148 12.5477 138.553 12.5512C140.256 12.5512 141.283 13.7148 141.283 15.637V16.0586H136.961V16.1263C136.942 16.3509 136.97 16.577 137.044 16.7901C137.117 17.0032 137.235 17.1986 137.388 17.3637C137.542 17.5288 137.728 17.66 137.935 17.7489C138.142 17.8378 138.366 17.8824 138.591 17.8799C138.88 17.9146 139.173 17.8626 139.432 17.7304C139.691 17.5983 139.906 17.392 140.047 17.1378L141.21 17.1379ZM136.961 15.1651H140.053C140.068 14.9597 140.04 14.7533 139.971 14.5593C139.901 14.3653 139.792 14.1879 139.65 14.0386C139.509 13.8892 139.337 13.7712 139.147 13.6922C138.957 13.6131 138.752 13.5747 138.546 13.5794C138.337 13.5768 138.13 13.616 137.936 13.6947C137.743 13.7735 137.567 13.8902 137.419 14.038C137.271 14.1858 137.155 14.3617 137.076 14.5552C136.997 14.7488 136.958 14.9562 136.961 15.1651Z" fill="white"/>
</svg>
