<svg width="1440" height="1027" viewBox="0 0 1440 1027" fill="none" xmlns="http://www.w3.org/2000/svg">
<path opacity="0.6" d="M-58.4706 -211L-58.4706 1027M136.088 -211L136.088 1027M330.647 -211V1027M525.206 -211L525.206 1027M719.765 -211V1027M914.323 -211L914.323 1027M1108.88 -211L1108.88 1027M1303.44 -211L1303.44 1027M1498 -211L1498 1027M-59 992.385H1497.47M-59 797.616L1497.47 797.617M-59 602.848L1497.47 602.848M-59 408.079L1497.47 408.079M-59 213.31L1497.47 213.31M-59 18.5408L1497.47 18.5409M-59 -176.228L1497.47 -176.228" stroke="url(#paint0_radial_234_4212)" stroke-opacity="0.3"/>
<defs>
<radialGradient id="paint0_radial_234_4212" cx="0" cy="0" r="1" gradientUnits="userSpaceOnUse" gradientTransform="translate(719.5 408) rotate(90) scale(619 778.5)">
<stop stop-color="white"/>
<stop offset="1" stop-color="white" stop-opacity="0"/>
</radialGradient>
</defs>
</svg>
