<svg width="107" height="46" viewBox="0 0 107 46" fill="none" xmlns="http://www.w3.org/2000/svg">
<path d="M7.06571 27.3646V20.8574H9.33171V19.6501H3.59521V20.8574H5.86232V27.3646H7.06571Z" fill="white"/>
<path d="M10.5312 19.5607V27.3656H11.7346V24.0507H15.8112V27.3656H17.0146V19.5607H15.8112V22.8435H11.7346V19.5607H10.5312Z" fill="white"/>
<path d="M23.9979 19.7031H18.5991V20.9103H23.9979V19.7031Z" fill="white"/>
<path d="M18.6009 23.1025H18.5767V27.3652H19.7801V27.3542H23.9997V26.147H19.7801V24.0503H23.6554V22.8431H18.6009V23.1025Z" fill="white"/>
<path d="M28.5137 19.5607V24.2151C28.5137 25.9465 29.9173 27.3545 31.6432 27.3545C33.3691 27.3545 34.7727 25.9465 34.7727 24.2151V19.5607H33.5693V24.2151C33.5693 25.28 32.7058 26.1473 31.6432 26.1473C30.5806 26.1473 29.7171 25.2811 29.7171 24.2151V19.5607H28.5137Z" fill="white"/>
<path d="M37.771 19.5607H37.4718H36.5786V27.3656H37.7831V21.6418L41.9334 27.4196H43.238V19.5607H42.0346V25.4952L37.7831 19.5761V19.5607H37.771Z" fill="white"/>
<path d="M46.2058 19.5607H45.0024V27.3656H46.2058V19.5607Z" fill="white"/>
<path d="M54.4607 19.7031H53.2309L50.6965 25.5571L48.3678 19.7848L46.9873 19.7594L50.2895 27.4186H51.1596L54.4607 19.7031Z" fill="white"/>
<path d="M60.8514 19.7031H55.4526V20.9103H60.8514V19.7031Z" fill="white"/>
<path d="M82.0023 19.7031H76.6035V20.9103H82.0023V19.7031Z" fill="white"/>
<path d="M77.7879 27.3542H82.0075V26.147H77.7879V24.0503H81.6643V22.8431H76.6087V23.1025H76.5845V27.3652H77.7879V27.3542Z" fill="white"/>
<path d="M92.0648 19.7031H86.666V20.9103H92.0648V19.7031Z" fill="white"/>
<path d="M91.7223 24.0503V22.8431H86.6667V23.1025H86.6436V27.3652H87.847V27.3542H92.0666V26.147H87.847V24.0503H91.7223Z" fill="white"/>
<path d="M106.37 19.7031H100.971V20.9103H106.37V19.7031Z" fill="white"/>
<path d="M106.031 24.0503V22.8431H100.976V23.1025H100.952V27.3652H102.155V27.3542H106.375V26.147H102.155V24.0503H106.031Z" fill="white"/>
<path d="M60.507 22.8431H55.4514V23.1025H55.4272V27.3652H56.6306V27.3542H60.8502V26.147H56.6306V24.0503H60.507V22.8431Z" fill="white"/>
<path d="M69.8742 20.4739C69.5013 20.8821 69.3187 21.4118 69.3726 21.9249C69.5233 23.3462 70.7674 23.6375 71.7684 23.8704C72.3932 24.016 73.0389 24.1672 73.4349 24.5468C73.6417 24.7454 73.9684 25.1349 73.821 25.5068C73.6879 25.8445 73.1632 26.1899 72.292 26.1987C71.6122 26.1954 70.4088 25.6668 70.0051 25.4583L69.454 26.5319C69.6278 26.6224 71.1777 27.4059 72.281 27.4059C72.2887 27.4059 72.2975 27.4059 72.3052 27.4059C73.5834 27.3916 74.5932 26.8343 74.9408 25.9493C75.2367 25.1978 74.9914 24.3691 74.2665 23.6739C73.6329 23.0659 72.787 22.8684 72.0412 22.694C70.9478 22.438 70.6222 22.2891 70.5694 21.7969C70.5518 21.6281 70.6211 21.4427 70.7619 21.2893C71.0479 20.9759 71.5924 20.8104 72.2865 20.8237C73.6285 20.8479 74.0839 21.6755 74.1026 21.7108L74.6383 21.4361L75.1773 21.169C75.1465 21.1072 74.4084 19.6551 72.3085 19.6164C70.9599 19.5988 70.2438 20.0689 69.8742 20.4739Z" fill="white"/>
<path d="M93.0601 20.1369L95.6165 23.7519V27.3139H96.8199V23.5908L99.3686 20.1479L98.4028 19.4285L96.1687 22.4454L94.0424 19.4384L93.0601 20.1369Z" fill="white"/>
<path d="M66.5271 24.2237C67.6623 24.1089 68.5522 23.1445 68.5522 21.9616C68.5522 20.7168 67.5424 19.7039 66.3016 19.7039H63.2425H62.0391V24.2358V27.4083H63.2425V24.2358H65.0674L65.0223 24.2723L67.8163 27.4083H69.2606L66.5271 24.2237ZM63.2425 20.91H66.3016C66.8791 20.91 67.3488 21.3811 67.3488 21.977C67.3488 22.5563 66.8791 23.0275 66.3016 23.0275H63.2425V20.91Z" fill="white"/>
<path d="M23.5123 44.631C11.5597 44.631 1.83572 34.8762 1.83572 22.8858C1.83572 15.9736 5.06752 9.80519 10.0934 5.81942C10.4839 6.1615 10.9932 6.37006 11.552 6.37006C12.7785 6.37006 13.7729 5.37252 13.7729 4.14214C13.7729 3.92144 13.7399 3.70957 13.6805 3.50874C16.6329 1.99587 19.9736 1.14068 23.5112 1.14068C33.8534 1.14068 42.5269 8.4457 44.6752 18.1817H45.9072C43.7391 7.77479 34.5211 -0.0665283 23.5123 -0.0665283C19.7382 -0.0665283 16.1753 0.85598 13.0348 2.48582C12.641 2.1316 12.1229 1.91422 11.5531 1.91422C10.3266 1.91422 9.33222 2.91176 9.33222 4.14214C9.33222 4.37387 9.36742 4.59677 9.43232 4.80643C4.07862 9.01179 0.632324 15.5521 0.632324 22.8858C0.632324 35.5416 10.8964 45.8382 23.5123 45.8382C34.1185 45.8382 43.0615 38.5607 45.6421 28.7221H44.3947C41.846 37.8865 33.4497 44.631 23.5123 44.631Z" fill="white"/>
</svg>
