<svg width="270" height="115" viewBox="0 0 270 115" fill="none" xmlns="http://www.w3.org/2000/svg">
<g clip-path="url(#clip0_30_207)">
<path d="M21.0205 66.9587V51.0368H26.5825V48.083H12.502V51.0368H18.0667V66.9587H21.0205Z" fill="white"/>
<path d="M29.5312 47.8618V66.9589H32.485V58.8481H42.4912V66.9589H45.445V47.8618H42.4912V55.8943H32.485V47.8618H29.5312Z" fill="white"/>
<path d="M62.5797 48.2129H49.3281V51.1667H62.5797V48.2129Z" fill="white"/>
<path d="M49.327 56.529H49.2676V66.9591H52.2214V66.9321H62.5786V63.9783H52.2214V58.8483H61.7335V55.8945H49.327V56.529Z" fill="white"/>
<path d="M73.668 47.8618V59.2504C73.668 63.4867 77.1132 66.9319 81.3495 66.9319C85.5858 66.9319 89.031 63.4867 89.031 59.2504V47.8618H86.0772V59.2504C86.0772 61.8559 83.9577 63.9781 81.3495 63.9781C78.7413 63.9781 76.6218 61.8586 76.6218 59.2504V47.8618H73.668Z" fill="white"/>
<path d="M96.3799 47.8618H95.6455H93.4531V66.9589H96.4096V52.954L106.597 67.0912H109.799V47.8618H106.845V62.3824L96.4096 47.8996V47.8618H96.3799Z" fill="white"/>
<path d="M117.089 47.8618H114.135V66.9589H117.089V47.8618Z" fill="white"/>
<path d="M137.354 48.2129H134.335L128.114 62.5364L122.398 48.4127L119.01 48.3506L127.115 67.0913H129.251L137.354 48.2129Z" fill="white"/>
<path d="M153.037 48.2129H139.785V51.1667H153.037V48.2129Z" fill="white"/>
<path d="M204.961 48.2129H191.709V51.1667H204.961V48.2129Z" fill="white"/>
<path d="M194.604 66.9321H204.961V63.9783H194.604V58.8483H204.119V55.8945H191.71V56.529H191.65V66.9591H194.604V66.9321Z" fill="white"/>
<path d="M229.658 48.2129H216.406V51.1667H229.658V48.2129Z" fill="white"/>
<path d="M228.816 58.8483V55.8945H216.406V56.529H216.35V66.9591H219.303V66.9321H229.661V63.9783H219.303V58.8483H228.816Z" fill="white"/>
<path d="M264.771 48.2129H251.52V51.1667H264.771V48.2129Z" fill="white"/>
<path d="M263.93 58.8483V55.8945H251.52V56.529H251.461V66.9591H254.415V66.9321H264.772V63.9783H254.415V58.8483H263.93Z" fill="white"/>
<path d="M152.195 55.8945H139.786V56.529H139.727V66.9591H142.68V66.9321H153.038V63.9783H142.68V58.8483H152.195V55.8945Z" fill="white"/>
<path d="M175.186 50.1001C174.27 51.0991 173.822 52.3951 173.954 53.6506C174.324 57.1282 177.378 57.841 179.835 58.4107C181.369 58.7671 182.954 59.137 183.926 60.0658C184.433 60.5518 185.235 61.5049 184.873 62.4148C184.547 63.241 183.259 64.0861 181.12 64.1077C179.452 64.0996 176.498 62.8063 175.507 62.296L174.154 64.9231C174.581 65.1445 178.385 67.0614 181.093 67.0614C181.112 67.0614 181.134 67.0614 181.153 67.0614C184.29 67.0263 186.769 65.6629 187.622 63.4975C188.348 61.6588 187.746 59.6311 185.967 57.9301C184.412 56.4424 182.335 55.9591 180.505 55.5325C177.821 54.9061 177.022 54.5416 176.892 53.3374C176.849 52.9243 177.019 52.4707 177.365 52.0954C178.067 51.3286 179.403 50.9236 181.107 50.956C184.401 51.0154 185.519 53.0404 185.564 53.1268L186.879 52.4545L188.202 51.8011C188.127 51.6499 186.315 48.0967 181.161 48.0022C177.851 47.959 176.093 49.1092 175.186 50.1001Z" fill="white"/>
<path d="M232.094 49.2739L238.369 58.1191V66.8347H241.322V57.7249L247.578 49.3009L245.208 47.5405L239.724 54.9223L234.505 47.5648L232.094 49.2739Z" fill="white"/>
<path d="M166.975 59.2745C169.761 58.9937 171.946 56.6339 171.946 53.7395C171.946 50.6939 169.467 48.2153 166.421 48.2153H158.913H155.959V59.3042V67.0667H158.913V59.3042H163.392L163.281 59.3933L170.139 67.0667H173.684L166.975 59.2745ZM158.913 51.1664H166.421C167.839 51.1664 168.992 52.3193 168.992 53.7773C168.992 55.1948 167.839 56.3477 166.421 56.3477H158.913V51.1664Z" fill="white"/>
<path d="M61.3905 109.206C32.0523 109.206 8.18427 85.3381 8.18427 55.9998C8.18427 39.087 16.1169 23.994 28.4532 14.2416C29.4117 15.0786 30.6618 15.5889 32.0334 15.5889C35.0439 15.5889 37.4847 13.1481 37.4847 10.1376C37.4847 9.59765 37.4037 9.07924 37.2579 8.58784C44.5047 4.88614 52.7046 2.79364 61.3878 2.79364C86.7732 2.79364 108.063 20.6676 113.336 44.4897H116.36C111.038 19.026 88.4121 -0.160156 61.3905 -0.160156C52.1268 -0.160156 43.3815 2.09704 35.673 6.08495C34.7064 5.21825 33.4347 4.68635 32.0361 4.68635C29.0256 4.68635 26.5848 7.12715 26.5848 10.1376C26.5848 10.7046 26.6712 11.25 26.8305 11.763C13.6896 22.0527 5.23047 38.0556 5.23047 55.9998C5.23047 86.9661 30.4242 112.16 61.3905 112.16C87.4239 112.16 109.375 94.3534 115.709 70.2802H112.647C106.391 92.7037 85.7823 109.206 61.3905 109.206Z" fill="white"/>
</g>
<defs>
<clipPath id="clip0_30_207">
<rect width="270" height="115" fill="white"/>
</clipPath>
</defs>
</svg>
