<svg width="161" height="52" viewBox="0 0 161 52" fill="none" xmlns="http://www.w3.org/2000/svg">
<path d="M10.5301 51.9972C10.116 51.9972 9.71188 51.9919 9.301 51.9827C8.44982 51.9716 7.60064 51.8975 6.7604 51.761C5.97693 51.626 5.21795 51.375 4.50851 51.0161C3.80557 50.6603 3.16444 50.1937 2.60966 49.6342C2.04686 49.0813 1.5783 48.44 1.22256 47.7358C0.862888 47.0269 0.613977 46.2672 0.484492 45.4829C0.344661 44.6403 0.269006 43.7882 0.25818 42.9341C0.249563 42.6474 0.238281 41.6928 0.238281 41.6928V10.2897C0.238281 10.2897 0.250297 9.34984 0.258248 9.0737C0.268614 8.22092 0.343829 7.37017 0.483242 6.5288C0.612965 5.74241 0.862069 4.98046 1.22193 4.26933C1.57637 3.56558 2.04233 2.92383 2.60174 2.36895C3.16052 1.80879 3.80371 1.33978 4.50784 0.978997C5.21566 0.621315 5.9732 0.372053 6.75509 0.239561C7.59808 0.101672 8.45022 0.0271218 9.30434 0.0165373L10.5308 -6.10352e-05H150.217L151.458 0.0172035C152.305 0.027262 153.149 0.101147 153.984 0.238229C154.774 0.372382 155.539 0.623384 156.255 0.98298C157.666 1.71005 158.814 2.86035 159.538 4.27265C159.892 4.97887 160.137 5.7346 160.265 6.5142C160.406 7.36247 160.485 8.21991 160.502 9.07968C160.505 9.46467 160.505 9.8782 160.505 10.2897C160.516 10.7995 160.516 11.2847 160.516 11.7739V40.2245C160.516 40.7184 160.516 41.2003 160.505 41.6861C160.505 42.1282 160.505 42.5332 160.5 42.95C160.484 43.7944 160.407 44.6365 160.268 45.4696C160.141 46.2595 159.893 47.0252 159.534 47.7398C159.176 48.4364 158.71 49.0721 158.153 49.6236C157.598 50.1861 156.956 50.6554 156.251 51.0136C155.537 51.3752 154.773 51.6271 153.984 51.761C153.144 51.8982 152.295 51.9723 151.443 51.9827C151.045 51.9919 150.628 51.9972 150.224 51.9972L148.75 51.9999L10.5301 51.9972Z" fill="black"/>
<path d="M43.3251 28.3333C43.4184 27.5633 43.4884 26.7933 43.4884 25.9999C43.4884 25.2066 43.4184 24.4366 43.3251 23.6666H47.2684C47.4551 24.4133 47.5718 25.1949 47.5718 25.9999C47.5718 26.8049 47.4551 27.5866 47.2684 28.3333M41.2601 34.8199C41.9601 33.5249 42.4968 32.1249 42.8701 30.6666H46.3118C45.1815 32.6129 43.3882 34.0872 41.2601 34.8199ZM40.9684 28.3333H35.5084C35.3918 27.5633 35.3218 26.7933 35.3218 25.9999C35.3218 25.2066 35.3918 24.4249 35.5084 23.6666H40.9684C41.0734 24.4249 41.1551 25.2066 41.1551 25.9999C41.1551 26.7933 41.0734 27.5633 40.9684 28.3333ZM38.2384 35.2866C37.2701 33.8866 36.4884 32.3349 36.0101 30.6666H40.4668C39.9884 32.3349 39.2068 33.8866 38.2384 35.2866ZM33.5718 21.3333H30.1651C31.2838 19.3817 33.0757 17.905 35.2051 17.1799C34.5051 18.4749 33.9801 19.8749 33.5718 21.3333ZM30.1651 30.6666H33.5718C33.9801 32.1249 34.5051 33.5249 35.2051 34.8199C33.0802 34.0869 31.2908 32.6123 30.1651 30.6666ZM29.2084 28.3333C29.0218 27.5866 28.9051 26.8049 28.9051 25.9999C28.9051 25.1949 29.0218 24.4133 29.2084 23.6666H33.1518C33.0584 24.4366 32.9884 25.2066 32.9884 25.9999C32.9884 26.7933 33.0584 27.5633 33.1518 28.3333M38.2384 16.7016C39.2068 18.1016 39.9884 19.6649 40.4668 21.3333H36.0101C36.4884 19.6649 37.2701 18.1016 38.2384 16.7016ZM46.3118 21.3333H42.8701C42.505 19.8883 41.9643 18.4935 41.2601 17.1799C43.4068 17.9149 45.1918 19.3966 46.3118 21.3333ZM38.2384 14.3333C31.7868 14.3333 26.5718 19.5833 26.5718 25.9999C26.5718 29.0941 27.8009 32.0616 29.9889 34.2495C31.0722 35.3328 32.3583 36.1922 33.7738 36.7785C35.1893 37.3648 36.7064 37.6666 38.2384 37.6666C41.3326 37.6666 44.3001 36.4374 46.488 34.2495C48.6759 32.0616 49.9051 29.0941 49.9051 25.9999C49.9051 24.4678 49.6033 22.9507 49.017 21.5353C48.4307 20.1198 47.5714 18.8337 46.488 17.7503C45.4047 16.667 44.1186 15.8076 42.7031 15.2213C41.2876 14.635 39.7705 14.3333 38.2384 14.3333Z" fill="white"/>
<path d="M63.5781 17.9999L60.6543 9.54486H62.3184L64.4102 16.2538H64.5098L66.6074 9.54486H68.2715L65.3418 17.9999H63.5781ZM69.2957 17.9999V11.5956H70.7488V17.9999H69.2957ZM70.0281 10.5234C69.7898 10.5234 69.5848 10.4394 69.4129 10.2714C69.241 10.1035 69.1551 9.90228 69.1551 9.66791C69.1551 9.42572 69.241 9.2226 69.4129 9.05853C69.5848 8.89056 69.7898 8.80658 70.0281 8.80658C70.2664 8.80658 70.4695 8.89056 70.6375 9.05853C70.8094 9.2226 70.8953 9.42572 70.8953 9.66791C70.8953 9.90228 70.8094 10.1035 70.6375 10.2714C70.4695 10.4394 70.2664 10.5234 70.0281 10.5234ZM74.6676 18.1288C74.1246 18.1288 73.6559 18.0527 73.2613 17.9003C72.8707 17.7441 72.5621 17.5292 72.3355 17.2558C72.109 16.9785 71.9742 16.6581 71.9312 16.2949V16.2831H73.3785L73.3844 16.2949C73.4625 16.5175 73.609 16.6992 73.8238 16.8398C74.0387 16.9804 74.3277 17.0507 74.691 17.0507C74.9332 17.0507 75.1461 17.0175 75.3297 16.9511C75.5133 16.8808 75.6578 16.7851 75.7633 16.664C75.8687 16.5429 75.9215 16.4023 75.9215 16.2421V16.2304C75.9215 16.0429 75.8453 15.8867 75.693 15.7617C75.5406 15.6328 75.2887 15.5292 74.9371 15.4511L73.9 15.2167C73.4937 15.1269 73.1578 15.0019 72.8922 14.8417C72.6266 14.6816 72.4273 14.4843 72.2945 14.2499C72.1656 14.0156 72.1012 13.7421 72.1012 13.4296V13.4238C72.1012 13.037 72.2086 12.6972 72.4234 12.4042C72.6422 12.1113 72.9449 11.8828 73.3316 11.7187C73.7184 11.5546 74.1637 11.4726 74.6676 11.4726C75.1871 11.4726 75.6344 11.5507 76.0094 11.707C76.3844 11.8632 76.6773 12.0781 76.8883 12.3515C77.0992 12.6249 77.2203 12.9355 77.2516 13.2831V13.2949H75.8805L75.8746 13.2773C75.8199 13.0742 75.6891 12.9023 75.482 12.7617C75.2789 12.6171 75.0055 12.5449 74.6617 12.5449C74.4469 12.5449 74.2535 12.5781 74.0816 12.6445C73.9137 12.7109 73.7809 12.8046 73.6832 12.9257C73.5895 13.0429 73.5426 13.1816 73.5426 13.3417V13.3476C73.5426 13.4726 73.5738 13.582 73.6363 13.6757C73.7027 13.7695 73.8062 13.8515 73.9469 13.9218C74.0875 13.9921 74.273 14.0546 74.5035 14.1093L75.5406 14.3378C76.1695 14.4785 76.6344 14.6874 76.9352 14.9648C77.2359 15.2421 77.3863 15.6152 77.3863 16.0839V16.0956C77.3863 16.5019 77.2691 16.8574 77.0348 17.162C76.8004 17.4667 76.4781 17.705 76.068 17.8769C75.6578 18.0449 75.191 18.1288 74.6676 18.1288ZM78.5746 17.9999V11.5956H80.0277V17.9999H78.5746ZM79.307 10.5234C79.0688 10.5234 78.8637 10.4394 78.6918 10.2714C78.5199 10.1035 78.434 9.90228 78.434 9.66791C78.434 9.42572 78.5199 9.2226 78.6918 9.05853C78.8637 8.89056 79.0688 8.80658 79.307 8.80658C79.5453 8.80658 79.7484 8.89056 79.9164 9.05853C80.0883 9.2226 80.1742 9.42572 80.1742 9.66791C80.1742 9.90228 80.0883 10.1035 79.9164 10.2714C79.7484 10.4394 79.5453 10.5234 79.307 10.5234ZM84.0461 18.0292C83.3117 18.0292 82.7824 17.8945 82.4582 17.6249C82.134 17.3554 81.9719 16.914 81.9719 16.3007V12.7265H80.9758V11.5956H81.9719V10.0253H83.4543V11.5956H84.802V12.7265H83.4543V15.955C83.4543 16.2714 83.5207 16.5038 83.6535 16.6523C83.7902 16.7968 84.009 16.8691 84.3098 16.8691C84.4152 16.8691 84.5012 16.8671 84.5676 16.8632C84.6379 16.8554 84.716 16.8476 84.802 16.8398V17.9648C84.7004 17.9843 84.5832 17.9999 84.4504 18.0117C84.3215 18.0234 84.1867 18.0292 84.0461 18.0292Z" fill="white"/>
<path d="M64.7695 39.9999L61 25.9081H63.6074L66.0391 36.5038H66.1562L68.9492 25.9081H71.1953L74.0078 36.5038H74.125L76.5469 25.9081H79.1543L75.375 39.9999H73.002L70.1309 29.9023H70.0137L67.1523 39.9999H64.7695ZM84.2402 40.2148C83.1921 40.2148 82.2871 39.9934 81.5254 39.5507C80.7702 39.1015 80.1875 38.4667 79.7773 37.6464C79.3737 36.8261 79.1719 35.8528 79.1719 34.7265V34.7167C79.1719 33.6035 79.3737 32.6334 79.7773 31.8066C80.1875 30.9798 80.7637 30.3385 81.5059 29.8828C82.248 29.4205 83.1237 29.1894 84.1328 29.1894C85.1354 29.1894 86.0013 29.4107 86.7305 29.8535C87.4661 30.2962 88.0293 30.9179 88.4199 31.7187C88.8171 32.513 89.0156 33.4439 89.0156 34.5117V35.3124H80.3926V33.6816H87.834L86.6719 35.205V34.2382C86.6719 33.5351 86.5645 32.9524 86.3496 32.4902C86.1348 32.0279 85.8385 31.6796 85.4609 31.4453C85.0898 31.2109 84.6569 31.0937 84.1621 31.0937C83.6673 31.0937 83.2279 31.2141 82.8438 31.455C82.4596 31.6959 82.1536 32.0507 81.9258 32.5195C81.7044 32.9882 81.5938 33.5611 81.5938 34.2382V35.205C81.5938 35.8561 81.7012 36.4127 81.916 36.8749C82.1374 37.3372 82.4499 37.692 82.8535 37.9394C83.2637 38.1868 83.7454 38.3105 84.2988 38.3105C84.7285 38.3105 85.0996 38.2486 85.4121 38.1249C85.7246 37.9947 85.9785 37.8385 86.1738 37.6562C86.3691 37.4674 86.5059 37.2851 86.584 37.1093L86.6133 37.041H88.9082L88.8887 37.1288C88.804 37.4869 88.6478 37.8482 88.4199 38.2128C88.1921 38.5709 87.8893 38.9029 87.5117 39.2089C87.1341 39.5084 86.6719 39.7525 86.125 39.9413C85.5846 40.1236 84.9564 40.2148 84.2402 40.2148ZM96.6406 40.1855C96.1458 40.1855 95.6868 40.1106 95.2637 39.9609C94.847 39.8111 94.4824 39.5963 94.1699 39.3163C93.8574 39.0364 93.6035 38.7011 93.4082 38.3105H93.2617V39.9999H90.8301V25.3613H93.2617V31.123H93.4082C93.597 30.7259 93.8509 30.3873 94.1699 30.1074C94.4889 29.8274 94.8568 29.6093 95.2734 29.4531C95.6966 29.2968 96.1523 29.2187 96.6406 29.2187C97.5391 29.2187 98.3138 29.44 98.9648 29.8828C99.6159 30.3255 100.117 30.957 100.469 31.7773C100.82 32.5911 100.996 33.5644 100.996 34.6972V34.707C100.996 35.8268 100.817 36.7968 100.459 37.6171C100.107 38.4374 99.6061 39.0722 98.9551 39.5214C98.304 39.9641 97.5326 40.1855 96.6406 40.1855ZM95.8887 38.1347C96.4355 38.1347 96.9043 37.998 97.2949 37.7245C97.6921 37.4511 97.9948 37.0572 98.2031 36.5429C98.418 36.0286 98.5254 35.4166 98.5254 34.707V34.6972C98.5254 33.9811 98.418 33.3691 98.2031 32.8613C97.9948 32.3535 97.6921 31.9628 97.2949 31.6894C96.9043 31.4094 96.4355 31.2695 95.8887 31.2695C95.3548 31.2695 94.8861 31.4094 94.4824 31.6894C94.0853 31.9628 93.776 32.3567 93.5547 32.871C93.3398 33.3788 93.2324 33.9876 93.2324 34.6972V34.7167C93.2324 35.4134 93.3398 36.0188 93.5547 36.5331C93.776 37.0475 94.0853 37.4446 94.4824 37.7245C94.8796 37.998 95.3483 38.1347 95.8887 38.1347ZM106.775 40.2148C105.87 40.2148 105.092 40.0846 104.441 39.8242C103.79 39.5637 103.276 39.2024 102.898 38.7402C102.527 38.2714 102.309 37.7311 102.244 37.1191L102.234 37.08H104.646L104.656 37.1191C104.773 37.5097 105.011 37.8255 105.369 38.0663C105.727 38.3007 106.206 38.4179 106.805 38.4179C107.215 38.4179 107.57 38.3626 107.869 38.2519C108.169 38.1412 108.403 37.9882 108.572 37.7929C108.742 37.5911 108.826 37.3567 108.826 37.0898V37.08C108.826 36.7675 108.702 36.5071 108.455 36.2988C108.214 36.0904 107.807 35.9212 107.234 35.791L105.506 35.4101C104.835 35.2604 104.279 35.052 103.836 34.7851C103.393 34.5182 103.061 34.1894 102.84 33.7988C102.625 33.4081 102.518 32.9557 102.518 32.4413V32.4316C102.518 31.787 102.697 31.2239 103.055 30.7421C103.413 30.2538 103.911 29.873 104.549 29.5995C105.187 29.3261 105.923 29.1894 106.756 29.1894C107.622 29.1894 108.364 29.3261 108.982 29.5995C109.607 29.8665 110.092 30.2311 110.438 30.6933C110.789 31.1555 110.988 31.6764 111.033 32.2558V32.2949H108.758L108.748 32.2558C108.67 31.8977 108.458 31.5982 108.113 31.3574C107.775 31.11 107.322 30.9863 106.756 30.9863C106.391 30.9863 106.072 31.0416 105.799 31.1523C105.525 31.2564 105.311 31.4062 105.154 31.6015C104.998 31.7968 104.92 32.0279 104.92 32.2949V32.3046C104.92 32.5064 104.972 32.6887 105.076 32.8515C105.18 33.0078 105.346 33.1445 105.574 33.2617C105.809 33.3723 106.115 33.4732 106.492 33.5644L108.211 33.955C109.266 34.1894 110.037 34.5344 110.525 34.9902C111.02 35.4459 111.268 36.0611 111.268 36.8359V36.8554C111.268 37.526 111.072 38.1152 110.682 38.623C110.298 39.1243 109.767 39.5149 109.09 39.7949C108.419 40.0748 107.648 40.2148 106.775 40.2148ZM113.043 39.9999V29.4042H115.475V39.9999H113.043ZM114.264 27.6855C113.873 27.6855 113.538 27.5488 113.258 27.2753C112.978 26.9954 112.838 26.6634 112.838 26.2792C112.838 25.8886 112.978 25.5566 113.258 25.2831C113.538 25.0097 113.873 24.873 114.264 24.873C114.654 24.873 114.99 25.0097 115.27 25.2831C115.549 25.5566 115.689 25.8886 115.689 26.2792C115.689 26.6634 115.549 26.9954 115.27 27.2753C114.99 27.5488 114.654 27.6855 114.264 27.6855ZM121.85 40.0878C120.665 40.0878 119.802 39.8632 119.262 39.414C118.728 38.9583 118.461 38.2096 118.461 37.1679V31.2792H116.85V29.4042H118.461V26.7773H120.932V29.4042H123.1V31.2792H120.932V36.6894C120.932 37.2102 121.042 37.5878 121.264 37.8222C121.492 38.0501 121.85 38.164 122.338 38.164C122.494 38.164 122.628 38.1607 122.738 38.1542C122.855 38.1412 122.976 38.1314 123.1 38.1249V39.9804C122.937 40.0064 122.748 40.0292 122.533 40.0488C122.318 40.0748 122.09 40.0878 121.85 40.0878ZM129.299 40.2148C128.251 40.2148 127.346 39.9934 126.584 39.5507C125.829 39.1015 125.246 38.4667 124.836 37.6464C124.432 36.8261 124.23 35.8528 124.23 34.7265V34.7167C124.23 33.6035 124.432 32.6334 124.836 31.8066C125.246 30.9798 125.822 30.3385 126.564 29.8828C127.307 29.4205 128.182 29.1894 129.191 29.1894C130.194 29.1894 131.06 29.4107 131.789 29.8535C132.525 30.2962 133.088 30.9179 133.479 31.7187C133.876 32.513 134.074 33.4439 134.074 34.5117V35.3124H125.451V33.6816H132.893L131.73 35.205V34.2382C131.73 33.5351 131.623 32.9524 131.408 32.4902C131.193 32.0279 130.897 31.6796 130.52 31.4453C130.148 31.2109 129.715 31.0937 129.221 31.0937C128.726 31.0937 128.286 31.2141 127.902 31.455C127.518 31.6959 127.212 32.0507 126.984 32.5195C126.763 32.9882 126.652 33.5611 126.652 34.2382V35.205C126.652 35.8561 126.76 36.4127 126.975 36.8749C127.196 37.3372 127.508 37.692 127.912 37.9394C128.322 38.1868 128.804 38.3105 129.357 38.3105C129.787 38.3105 130.158 38.2486 130.471 38.1249C130.783 37.9947 131.037 37.8385 131.232 37.6562C131.428 37.4674 131.564 37.2851 131.643 37.1093L131.672 37.041H133.967L133.947 37.1288C133.863 37.4869 133.706 37.8482 133.479 38.2128C133.251 38.5709 132.948 38.9029 132.57 39.2089C132.193 39.5084 131.73 39.7525 131.184 39.9413C130.643 40.1236 130.015 40.2148 129.299 40.2148Z" fill="white"/>
</svg>
