<svg version="1.2" xmlns="http://www.w3.org/2000/svg" viewBox="0 0 45 25" width="45" height="25"><style>.a{fill:#fff}</style><path class="a" d="m22.1 6.9v11.2h-3.4v-3.9q0 0 0 0l-2.5 3.9q0 0-0.1 0h-3.7l2.9-4.1-0.3-0.1c-1-0.4-2-1.3-2.2-2.6-0.2-0.9-0.1-1.7 0.4-2.5 0.5-0.9 1.3-1.5 2.4-1.8q0.4-0.1 0.8-0.1zm-3.4 3.3q0 0-0.1 0h-2.3q0 0-0.1 0.1-0.1 0.1-0.2 0.1 0 0.1 0 0.3 0.1 0.1 0.2 0.1 0.1 0 0.1 0h2.4z"/><path class="a" d="m26 14.2v3.8c0 0.1 0 0.1-0.1 0.1h-3.3v-11.2h0.1q2.9 0 5.6 0c1 0 1.9 0.4 2.5 1q0.6 0.5 1 1.4 0.2 0.7 0.1 1.5 0 0.7-0.3 1.3c-0.4 0.9-1.1 1.5-2.1 1.8q-0.5 0.3-1.1 0.3-1.2 0-2.4 0zm0-3.4h2.3q0.2 0 0.3 0 0.1 0 0.1-0.1 0-0.2 0-0.3 0 0-0.1-0.1-0.1-0.1-0.3-0.1h-2.3z"/><path class="a" d="m26.3 14.6h2.2q0.6 0 1.2-0.1 0.1 0 0.1 0 1.2 1.7 2.5 3.6h-3.7q0 0-0.1 0-1.1-1.7-2.2-3.4 0 0 0-0.1z"/></svg>