<svg width="150" height="16" viewBox="0 0 150 16" fill="none" xmlns="http://www.w3.org/2000/svg">
<path d="M150 0.402033H145.559L140.24 6.34175V0.402033H136.512L136.53 15.0234H140.24V9.46723L145.285 15.0234H150L143.202 7.80444L150 0.402033ZM130.5 6.41493L127.1 6.03142C125.107 5.81188 124.614 5.31814 124.614 4.64191C124.614 3.89249 125.638 3.21626 127.63 3.21626C129.549 3.21626 130.554 3.92955 130.737 5.00781H134.392C134.207 1.91846 131.613 0 127.831 0C123.335 0 121.068 1.79062 121.068 4.95223C121.068 7.52932 122.567 8.73634 125.674 9.0652L129.129 9.43018C130.445 9.57654 131.048 10.0888 131.048 10.7465C131.048 11.4959 130.171 12.1722 128.05 12.1722C125.601 12.1722 124.614 11.5506 124.45 10.3074H120.867C121.032 13.671 123.225 15.3884 127.922 15.3884C132.217 15.3884 134.612 13.5061 134.612 10.6733C134.612 8.20555 133.186 6.72525 130.5 6.41493ZM107.452 15.0234H119.222V11.8618H111.181V9.21156H117.65V6.03142H111.181V3.56364H119.222V0.402033H107.452V15.0234ZM98.6796 0.402033H91.8442V15.0234H98.6796C103.926 15.0234 105.369 13.0679 105.369 7.6025C105.369 2.46685 103.98 0.402033 98.6796 0.402033ZM98.5296 11.8628H95.5653V3.56364H98.5296C100.87 3.56364 101.563 4.20375 101.563 7.6025C101.567 10.7095 100.782 11.8628 98.5296 11.8628ZM81.7192 0C76.4002 0 73.6406 3.27092 73.6406 7.67568C73.6406 12.099 76.4002 15.3884 81.7192 15.3884C87.0559 15.3884 89.8155 12.099 89.8155 7.67568C89.8155 3.27092 87.0559 0 81.7192 0ZM81.7192 12.099C78.9597 12.099 77.4423 10.4177 77.4423 7.67568C77.4423 4.98929 78.9597 3.28945 81.7192 3.28945C84.4983 3.28945 85.9962 4.98929 85.9962 7.67568C85.9962 10.4177 84.4973 12.099 81.7192 12.099ZM59.8964 3.56364H64.6115V15.0234H68.34V3.56364H73.0375V0.402033H59.8964V3.56364ZM54.469 9.43018C54.469 11.331 53.299 12.099 51.3064 12.099C49.3695 12.099 48.1087 11.2949 48.1087 9.43018V0.402033H44.3802V9.85073C44.3802 14.073 48.1448 15.3884 51.3064 15.3884C54.4505 15.3884 58.1966 14.073 58.1966 9.85073V0.402033H54.469V9.43018ZM33.4688 0.402033L27.8579 15.0234H31.7143L32.6934 12.2815H38.9574L39.9208 15.0234H43.904L38.2246 0.402033H33.4688ZM33.8032 9.1745L35.8513 3.44322L37.8652 9.17636L33.8032 9.1745ZM0.114867 15.0244L13.2078 6.87995H19.9998C20.0519 6.87995 20.1035 6.89024 20.1517 6.91022C20.1999 6.9302 20.2436 6.95949 20.2804 6.9964C20.3173 7.03332 20.3464 7.07714 20.3663 7.12534C20.3862 7.17355 20.3963 7.22521 20.3962 7.27735C20.4016 7.34501 20.3869 7.41274 20.354 7.47207C20.321 7.5314 20.2712 7.57967 20.211 7.61084L13.7803 11.4663C13.3625 11.7164 13.2161 12.2185 13.2161 12.5946L13.2097 15.0244H21.3819V0.903185C21.382 0.835463 21.3685 0.768406 21.3421 0.706063C21.3156 0.64372 21.2768 0.587385 21.228 0.54046C21.1791 0.493535 21.1213 0.456994 21.0579 0.433042C20.9946 0.409091 20.9271 0.398227 20.8594 0.401107H13.0614L0 8.51032V15.0244H0.114867Z" fill="white"/>
</svg>
