<svg width="130" height="24" viewBox="0 0 130 24" fill="none" xmlns="http://www.w3.org/2000/svg">
<path d="M20.3594 14.1356C20.7746 13.4284 21.8057 13.4284 22.2163 14.1356L26.6282 21.6727C27.0434 22.3799 26.5232 23.2604 25.6974 23.2604H16.8737C16.0479 23.2604 15.5323 22.3799 15.943 21.6727L20.3548 14.1356H20.3594Z" fill="#FF394A"/>
<path d="M17.6947 9.11686C18.0962 8.41425 18.0962 7.54738 17.6947 6.84021L14.0768 0.530382C13.6707 -0.176794 12.6578 -0.176794 12.2518 0.530382L0.14308 21.6681C-0.262976 22.3753 0.243453 23.2604 1.05557 23.2604H8.28699C9.09454 23.2604 9.83825 22.827 10.2397 22.1243L17.6902 9.11686H17.6947Z" fill="#FF394A"/>
<path d="M42.7203 21.4994V23.2605H41.6709C40.4163 23.2605 39.9463 22.7176 39.9281 21.796C39.2893 22.7313 38.2948 23.37 36.7983 23.37C34.7178 23.37 33.2715 22.3389 33.2715 20.5596C33.2715 18.5703 34.6767 17.4845 37.3412 17.4845H39.7228V16.9051C39.7228 15.8374 38.9563 15.1805 37.6423 15.1805C36.4606 15.1805 35.6759 15.7417 35.5254 16.5857H33.5179C33.7414 14.7288 35.3155 13.5471 37.7381 13.5471C40.1608 13.5471 41.7303 14.7653 41.7303 17.0328V20.8744C41.7303 21.3626 41.899 21.4949 42.3279 21.4949H42.7203V21.4994ZM39.7228 18.9855H37.2499C36.0135 18.9855 35.32 19.4555 35.32 20.4272C35.32 21.2348 35.9953 21.796 37.0811 21.796C38.7327 21.796 39.7228 20.8014 39.7228 19.3597V18.9855Z" fill="white"/>
<path d="M47.127 23.2605L43.4907 13.6611H45.667L48.4047 21.0842L51.1234 13.6611H53.2588L49.6044 23.2605H47.1317H47.127Z" fill="white"/>
<path d="M63.5984 21.4994V23.2605H62.549C61.2944 23.2605 60.8247 22.7176 60.8063 21.796C60.1675 22.7313 59.1731 23.37 57.6766 23.37C55.5962 23.37 54.1499 22.3389 54.1499 20.5596C54.1499 18.5703 55.5548 17.4845 58.2196 17.4845H60.6011V16.9051C60.6011 15.8374 59.8345 15.1805 58.5207 15.1805C57.3389 15.1805 56.5544 15.7417 56.4036 16.5857H54.396C54.6196 14.7288 56.1937 13.5471 58.6165 13.5471C61.0389 13.5471 62.6087 14.7653 62.6087 17.0328V20.8744C62.6087 21.3626 62.7773 21.4949 63.2062 21.4949H63.5984V21.4994ZM60.5964 18.9855H58.1238C56.8874 18.9855 56.1937 19.4555 56.1937 20.4272C56.1937 21.2348 56.8691 21.796 57.9547 21.796C59.6067 21.796 60.5964 20.8014 60.5964 19.3597V18.9855Z" fill="white"/>
<path d="M72.8687 21.4813V23.2607H65.0718V21.4813H67.9686V12.0462L65.0718 13.0043V11.2158L67.5491 10.2668H69.9945V21.4859H72.8734L72.8687 21.4813Z" fill="white"/>
<path d="M83.6682 21.4994V23.2605H82.6188C81.3642 23.2605 80.894 22.7176 80.8762 21.796C80.2373 22.7313 79.2425 23.37 77.7459 23.37C75.6655 23.37 74.2192 22.3389 74.2192 20.5596C74.2192 18.5703 75.6247 17.4845 78.2889 17.4845H80.6709V16.9051C80.6709 15.8374 79.9043 15.1805 78.59 15.1805C77.4087 15.1805 76.6238 15.7417 76.4734 16.5857H74.4658C74.6894 14.7288 76.2635 13.5471 78.6858 13.5471C81.1087 13.5471 82.678 14.7653 82.678 17.0328V20.8744C82.678 21.3626 82.8471 21.4949 83.276 21.4949H83.6682V21.4994ZM80.6709 18.9855H78.1978C76.9615 18.9855 76.2677 19.4555 76.2677 20.4272C76.2677 21.2348 76.9432 21.796 78.0292 21.796C79.6807 21.796 80.6709 20.8014 80.6709 19.3597V18.9855Z" fill="white"/>
<path d="M94.509 17.7856V23.2605H92.4648V17.9727C92.4648 16.2663 91.7348 15.331 90.2886 15.331C88.7695 15.331 87.8521 16.4352 87.8521 18.292V23.2605H85.8267V13.6612H87.5877L87.8112 14.9158C88.3909 14.1676 89.2942 13.5471 90.7541 13.5471C92.7978 13.5471 94.5043 14.6513 94.5043 17.7856H94.509Z" fill="white"/>
<path d="M96.9954 18.4791C96.9954 15.5181 98.8889 13.5471 101.777 13.5471C104.232 13.5471 105.769 14.9158 106.143 17.0921H104.026C103.762 15.9652 102.959 15.2717 101.741 15.2717C100.13 15.2717 99.0575 16.6039 99.0575 18.4791C99.0575 20.3543 100.125 21.6454 101.741 21.6454C102.94 21.6454 103.766 20.9337 104.008 19.825H106.143C105.787 22.0013 104.154 23.37 101.718 23.37C98.8297 23.37 96.9907 21.4766 96.9907 18.4791H96.9954Z" fill="white"/>
<path d="M117.352 17.7856V23.2605H115.308V17.9544C115.308 16.3028 114.578 15.331 113.077 15.331C111.576 15.331 110.604 16.4579 110.604 18.2737V23.2605H108.579V10.1389H110.604V14.8839C111.261 14.0581 112.256 13.5516 113.547 13.5516C115.796 13.5516 117.352 14.8839 117.352 17.7901V17.7856Z" fill="white"/>
<path d="M121.865 18.9308V19.0267C121.92 20.6554 122.932 21.7276 124.506 21.7276C125.706 21.7276 126.623 21.1071 126.888 20.0395H128.914C128.576 21.9329 126.984 23.3747 124.62 23.3747C121.623 23.3747 119.748 21.4265 119.748 18.4837C119.748 15.5409 121.623 13.5518 124.415 13.5518C127.207 13.5518 129.028 15.3128 129.082 18.1278C129.082 18.3332 129.064 18.6525 129.028 18.9354H121.865V18.9308ZM121.938 17.4116H126.979C126.81 15.9881 125.834 15.1805 124.429 15.1805C123.174 15.1805 122.083 16.0428 121.933 17.4116H121.938Z" fill="white"/>
</svg>
