<svg width="149" height="23" viewBox="0 0 149 23" fill="none" xmlns="http://www.w3.org/2000/svg">
<path fill-rule="evenodd" clip-rule="evenodd" d="M14.5839 17.3587H21.8755V5.9003H14.5839V17.3587ZM13.5422 17.3587V5.9003H11.9797V7.98367H12.5005V9.0253H11.9797V11.1087H12.5005V12.1503H11.9797V14.2337H12.5005V15.2753H11.9797V17.3587H13.5422ZM22.9172 5.37948V17.8795C22.9172 18.167 22.6844 18.4003 22.3964 18.4003H14.5839H13.5422H11.4589C11.1709 18.4003 10.938 18.167 10.938 17.8795V15.2753H10.4172V14.2337H10.938V12.1503H10.4172V11.1087H10.938V9.0253H10.4172V7.98367H10.938V5.37948C10.938 5.09198 11.1709 4.85864 11.4589 4.85864H22.3964C22.6844 4.85864 22.9172 5.09198 22.9172 5.37948ZM10.938 19.442H11.9797V20.68C11.9797 20.8685 11.8776 21.0425 11.7125 21.1347L8.79586 22.7644C8.71667 22.8086 8.62917 22.8305 8.54167 22.8305C8.44898 22.8305 8.35573 22.8055 8.27342 22.756L2.85677 19.4962C2.70052 19.4019 2.60469 19.2326 2.60469 19.0498V15.6545L0.292187 14.5242C0.114062 14.4367 0.000518709 14.255 0.000518709 14.0565L0 11.1831L0.000518709 8.76492C0.000518709 8.57636 0.1026 8.40242 0.267188 8.31023L2.60469 7.00398V3.40083C2.60469 3.21385 2.70469 3.04093 2.86771 2.94822L7.91561 0.0685345C8.06773 -0.0179218 8.25367 -0.0231281 8.40836 0.0560344L11.6932 1.71906C11.8687 1.80708 11.9792 1.98728 11.9792 2.18312L11.9797 3.81645L10.938 3.81698L10.9375 2.50343L8.18854 1.11228L7.29217 1.62322V5.37948H6.25054V2.2175L3.64635 3.70291V6.62742L6.06461 8.09305L8.33386 6.65967V4.58573H9.37554V6.94667C9.37554 7.1253 9.28386 7.29148 9.13279 7.3868L6.77136 8.87898V10.5878H8.85467V11.5815H6.40886L3.91927 13.1144L3.37291 12.2274L5.72967 10.7764V9.10811L3.44271 7.72217C3.42291 7.7378 3.40156 7.75186 3.37969 7.76386L1.04219 9.07061L1.04166 10.6565L3.35729 9.1128L3.93541 9.97948L1.04166 11.9086L1.04219 13.7315L3.35416 14.8617C3.38333 14.8759 3.40729 14.8962 3.43281 14.9149L4.89635 13.817L5.52136 14.6503L3.64635 16.056V18.7555L6.05261 20.204L6.77136 19.6045V15.2753H7.81304V18.7368L9.06304 17.6946L9.73073 18.4951L6.99742 20.7727L8.55154 21.7076L10.938 20.3742V19.442Z" fill="url(#paint0_linear_68_13728)"/>
<path d="M32.4863 20.4075C32.1504 20.4075 31.7988 20.3762 31.4316 20.3137C31.0723 20.2512 30.7481 20.1692 30.459 20.0676C30.334 20.0285 30.252 19.9817 30.2129 19.927C30.1738 19.8723 30.1543 19.7863 30.1543 19.6692V19.095C30.1543 18.9387 30.2129 18.8606 30.3301 18.8606C30.3691 18.8606 30.4121 18.8645 30.459 18.8723C30.5137 18.8801 30.6035 18.9035 30.7285 18.9426C30.9707 19.0129 31.2559 19.0754 31.584 19.1301C31.9121 19.177 32.2129 19.2004 32.4863 19.2004C33.0332 19.2004 33.4551 19.1028 33.752 18.9075C34.0566 18.7122 34.209 18.4231 34.209 18.0403C34.209 17.7668 34.1153 17.5481 33.9278 17.384C33.7481 17.2122 33.4356 17.0403 32.9903 16.8684L31.9473 16.47C31.3066 16.22 30.834 15.9231 30.5293 15.5793C30.2246 15.2356 30.0723 14.7981 30.0723 14.2668C30.0723 13.5247 30.3301 12.9465 30.8457 12.5325C31.3691 12.1106 32.0566 11.8997 32.9082 11.8997C33.4941 11.8997 34.1231 12.0012 34.795 12.2043C34.9121 12.2356 34.9903 12.2785 35.0293 12.3332C35.0762 12.3879 35.0996 12.4778 35.0996 12.6028V13.1653C35.0996 13.3215 35.041 13.3997 34.9238 13.3997C34.8535 13.3997 34.7207 13.3723 34.5254 13.3176C33.9863 13.177 33.4863 13.1067 33.0254 13.1067C32.5254 13.1067 32.1387 13.1926 31.8653 13.3645C31.5996 13.5285 31.4668 13.7903 31.4668 14.1497C31.4668 14.4153 31.5606 14.634 31.7481 14.8059C31.9356 14.97 32.2676 15.1418 32.7441 15.3215L33.7403 15.6848C34.4121 15.927 34.8887 16.2238 35.17 16.5754C35.459 16.9192 35.6035 17.3528 35.6035 17.8762C35.6035 18.6575 35.3262 19.2747 34.7715 19.7278C34.2246 20.1809 33.4629 20.4075 32.4863 20.4075Z" fill="white"/>
<path d="M38.5 20.3841C37.961 20.3841 37.5195 20.22 37.1758 19.8919C36.832 19.5638 36.6602 19.1379 36.6602 18.6145C36.6602 18.0364 36.8672 17.5754 37.2813 17.2317C37.6953 16.8879 38.2578 16.7161 38.9688 16.7161C39.3828 16.7161 39.836 16.7747 40.3282 16.8919V16.2004C40.3282 15.8098 40.2422 15.5364 40.0703 15.3801C39.9063 15.2161 39.6055 15.1341 39.168 15.1341C38.9023 15.1341 38.6133 15.1614 38.3008 15.2161C37.9883 15.2708 37.6953 15.3411 37.4219 15.427C37.3438 15.4504 37.2773 15.4622 37.2227 15.4622C37.1211 15.4622 37.0703 15.3879 37.0703 15.2395V14.8059C37.0703 14.6809 37.0898 14.5989 37.1289 14.5598C37.168 14.5129 37.2461 14.4661 37.3633 14.4192C37.668 14.302 37.9961 14.2161 38.3477 14.1614C38.6992 14.0989 39.0469 14.0676 39.3907 14.0676C40.1563 14.0676 40.7188 14.2239 41.0782 14.5364C41.4453 14.8489 41.6289 15.3372 41.6289 16.0013V19.9504C41.6289 20.1223 41.543 20.2083 41.3711 20.2083H40.75C40.5782 20.2083 40.4805 20.1301 40.457 19.9739L40.3985 19.6341C40.1328 19.8684 39.832 20.052 39.4961 20.1848C39.168 20.3176 38.836 20.3841 38.5 20.3841ZM38.8867 19.3997C39.1133 19.3997 39.3516 19.3489 39.6016 19.2473C39.8594 19.1458 40.1016 19.0091 40.3282 18.8372V17.7122C40.1563 17.6731 39.9727 17.6419 39.7773 17.6184C39.582 17.595 39.3985 17.5833 39.2266 17.5833C38.4141 17.5833 38.0078 17.8997 38.0078 18.5325C38.0078 18.7981 38.082 19.0091 38.2305 19.1653C38.3867 19.3216 38.6055 19.3997 38.8867 19.3997Z" fill="white"/>
<path d="M45.498 22.7629C45.2402 22.7629 44.9629 22.7356 44.666 22.6809C44.377 22.6341 44.0723 22.5481 43.752 22.4231C43.627 22.3763 43.5449 22.3254 43.5058 22.2708C43.4746 22.2161 43.459 22.1379 43.459 22.0364V21.5559C43.459 21.4075 43.5136 21.3333 43.623 21.3333C43.6621 21.3333 43.6973 21.3372 43.7285 21.345C43.7598 21.3528 43.8301 21.3763 43.9395 21.4153C44.2129 21.5013 44.4668 21.5638 44.7011 21.6028C44.9355 21.6419 45.1738 21.6614 45.416 21.6614C46.0019 21.6614 46.4277 21.5247 46.6933 21.2513C46.959 20.9856 47.0918 20.5481 47.0918 19.9388V19.4348C46.8496 19.6458 46.5801 19.8098 46.2832 19.927C45.9941 20.0364 45.6895 20.0911 45.3691 20.0911C44.8926 20.0911 44.4746 19.97 44.1152 19.7278C43.7558 19.4778 43.4746 19.1301 43.2715 18.6848C43.0761 18.2395 42.9785 17.7122 42.9785 17.1028C42.9785 16.4934 43.0761 15.9622 43.2715 15.5091C43.4746 15.0481 43.7598 14.6926 44.1269 14.4426C44.4941 14.1926 44.9238 14.0676 45.416 14.0676C46.0957 14.0676 46.6855 14.3059 47.1855 14.7825L47.2558 14.4778C47.2871 14.3216 47.3886 14.2434 47.5605 14.2434H48.1933C48.3652 14.2434 48.4511 14.3294 48.4511 14.5013V19.7981C48.4511 20.7434 48.1973 21.4739 47.6895 21.9895C47.1816 22.5051 46.4511 22.7629 45.498 22.7629ZM45.7793 19.0247C46.2402 19.0247 46.6777 18.8723 47.0918 18.5676V15.5676C46.8808 15.4192 46.666 15.3138 46.4473 15.2513C46.2285 15.1809 46.0098 15.1458 45.791 15.1458C44.8535 15.1458 44.3848 15.7825 44.3848 17.0559C44.3848 18.3684 44.8496 19.0247 45.7793 19.0247Z" fill="white"/>
<path d="M52.833 20.3841C51.8408 20.3841 51.0908 20.1184 50.583 19.5872C50.083 19.0481 49.833 18.2747 49.833 17.2669C49.833 16.2434 50.083 15.4544 50.583 14.8997C51.083 14.345 51.7744 14.0676 52.6572 14.0676C53.4228 14.0676 54.0088 14.2786 54.415 14.7004C54.8291 15.1145 55.0361 15.7044 55.0361 16.47C55.0361 16.6028 55.0283 16.7434 55.0127 16.8919C55.0049 17.0325 54.9931 17.1692 54.9775 17.302C54.9697 17.3801 54.9463 17.4426 54.9072 17.4895C54.8681 17.5364 54.8056 17.5598 54.7197 17.5598H51.1103C51.1338 18.177 51.3056 18.6184 51.6259 18.8841C51.9463 19.1497 52.415 19.2825 53.0322 19.2825C53.5009 19.2825 53.9931 19.2083 54.5088 19.0598C54.6259 19.0286 54.7002 19.0129 54.7314 19.0129C54.8486 19.0129 54.9072 19.0911 54.9072 19.2473V19.6692C54.9072 19.7942 54.8877 19.8801 54.8486 19.927C54.8096 19.9739 54.7314 20.0208 54.6143 20.0676C54.3486 20.1692 54.0596 20.2473 53.7471 20.302C53.4424 20.3567 53.1377 20.3841 52.833 20.3841ZM51.1103 16.6341H53.8174V16.5403C53.8174 15.5638 53.4111 15.0754 52.5986 15.0754C52.1768 15.0754 51.833 15.2161 51.5674 15.4973C51.3018 15.7786 51.1494 16.1575 51.1103 16.6341Z" fill="white"/>
<path d="M57.5352 20.2082H56.7617C56.5898 20.2082 56.5039 20.1223 56.5039 19.9504V12.345C56.5039 12.1731 56.586 12.0872 56.75 12.0872H57.8282C57.9297 12.0872 58.0039 12.1067 58.0508 12.1457C58.1055 12.177 58.1523 12.2356 58.1914 12.3215L60.5235 16.927L62.9026 12.3215C62.9413 12.2356 62.9845 12.177 63.0313 12.1457C63.0857 12.1067 63.1638 12.0872 63.2657 12.0872H64.2851C64.457 12.0872 64.5432 12.1731 64.5432 12.345V19.9504C64.5432 20.1223 64.457 20.2082 64.2851 20.2082H63.512C63.3401 20.2082 63.2538 20.1223 63.2538 19.9504V14.1262L61.25 17.9348C61.2032 18.0285 61.1563 18.091 61.1094 18.1223C61.0625 18.1535 60.9883 18.1692 60.8867 18.1692H60.1016C60 18.1692 59.9219 18.1535 59.8672 18.1223C59.8203 18.091 59.7735 18.0285 59.7266 17.9348L57.793 14.1497V19.9504C57.793 20.1223 57.707 20.2082 57.5352 20.2082Z" fill="white"/>
<path d="M67.8078 20.3841C67.2684 20.3841 66.8272 20.22 66.4834 19.8919C66.1397 19.5638 65.9678 19.1379 65.9678 18.6145C65.9678 18.0364 66.1747 17.5754 66.589 17.2317C67.0028 16.8879 67.5653 16.7161 68.2765 16.7161C68.6903 16.7161 69.1434 16.7747 69.6359 16.8919V16.2004C69.6359 15.8098 69.5496 15.5364 69.3778 15.3801C69.214 15.2161 68.9128 15.1341 68.4753 15.1341C68.2096 15.1341 67.9209 15.1614 67.6084 15.2161C67.2959 15.2708 67.0028 15.3411 66.7296 15.427C66.6515 15.4504 66.5846 15.4622 66.5303 15.4622C66.4284 15.4622 66.3778 15.3879 66.3778 15.2395V14.8059C66.3778 14.6809 66.3971 14.5989 66.4365 14.5598C66.4753 14.5129 66.5534 14.4661 66.6709 14.4192C66.9753 14.302 67.3034 14.2161 67.6553 14.1614C68.0065 14.0989 68.3547 14.0676 68.6984 14.0676C69.464 14.0676 70.0265 14.2239 70.3859 14.5364C70.7528 14.8489 70.9365 15.3372 70.9365 16.0013V19.9504C70.9365 20.1223 70.8503 20.2083 70.6784 20.2083H70.0578C69.8859 20.2083 69.7878 20.1301 69.7647 19.9739L69.7059 19.6341C69.4403 19.8684 69.1397 20.052 68.8034 20.1848C68.4753 20.3176 68.1434 20.3841 67.8078 20.3841ZM68.194 19.3997C68.4209 19.3997 68.659 19.3489 68.909 19.2473C69.1671 19.1458 69.409 19.0091 69.6359 18.8372V17.7122C69.464 17.6731 69.2803 17.6419 69.0847 17.6184C68.8897 17.595 68.7059 17.5833 68.534 17.5833C67.7215 17.5833 67.3153 17.8997 67.3153 18.5325C67.3153 18.7981 67.3896 19.0091 67.5378 19.1653C67.694 19.3216 67.9128 19.3997 68.194 19.3997Z" fill="white"/>
<path d="M73.7158 20.2083H72.8489C72.6771 20.2083 72.5908 20.1223 72.5908 19.9504V11.7942C72.5908 11.6223 72.6771 11.5364 72.8489 11.5364H73.7158C73.8877 11.5364 73.9739 11.6223 73.9739 11.7942V16.8216L76.2002 14.4426C76.2864 14.3567 76.3564 14.302 76.4114 14.2786C76.4658 14.2551 76.5596 14.2434 76.6927 14.2434H77.5714C77.7202 14.2434 77.7939 14.2981 77.7939 14.4075C77.7939 14.4778 77.7589 14.552 77.6889 14.6301L75.2983 17.0911L77.8877 19.8216C77.9583 19.8997 77.9933 19.9739 77.9933 20.0442C77.9933 20.1536 77.9189 20.2083 77.7708 20.2083H76.7983C76.6889 20.2083 76.6064 20.1966 76.5521 20.1731C76.4971 20.1419 76.4271 20.0833 76.3408 19.9973L73.9739 17.4309V19.9504C73.9739 20.1223 73.8877 20.2083 73.7158 20.2083Z" fill="white"/>
<path d="M81.3984 20.3841C80.4059 20.3841 79.6559 20.1184 79.1484 19.5872C78.6484 19.0481 78.3984 18.2747 78.3984 17.2669C78.3984 16.2434 78.6484 15.4544 79.1484 14.8997C79.6484 14.345 80.3397 14.0676 81.2222 14.0676C81.9878 14.0676 82.5741 14.2786 82.9803 14.7004C83.3941 15.1145 83.6016 15.7044 83.6016 16.47C83.6016 16.6028 83.5934 16.7434 83.5778 16.8919C83.5703 17.0325 83.5584 17.1692 83.5428 17.302C83.5347 17.3801 83.5116 17.4426 83.4722 17.4895C83.4334 17.5364 83.3709 17.5598 83.2847 17.5598H79.6753C79.6991 18.177 79.8709 18.6184 80.1909 18.8841C80.5116 19.1497 80.9803 19.2825 81.5972 19.2825C82.0659 19.2825 82.5584 19.2083 83.0741 19.0598C83.1909 19.0286 83.2653 19.0129 83.2966 19.0129C83.4141 19.0129 83.4722 19.0911 83.4722 19.2473V19.6692C83.4722 19.7942 83.4528 19.8801 83.4141 19.927C83.3747 19.9739 83.2966 20.0208 83.1797 20.0676C82.9141 20.1692 82.6247 20.2473 82.3122 20.302C82.0078 20.3567 81.7028 20.3841 81.3984 20.3841ZM79.6753 16.6341H82.3828V16.5403C82.3828 15.5638 81.9766 15.0754 81.1641 15.0754C80.7422 15.0754 80.3984 15.2161 80.1328 15.4973C79.8672 15.7786 79.7147 16.1575 79.6753 16.6341Z" fill="white"/>
<path d="M86.0762 20.2082H85.2087C85.0368 20.2082 84.9512 20.1223 84.9512 19.9504V14.5012C84.9512 14.3293 85.0368 14.2434 85.2087 14.2434H85.8299C85.9318 14.2434 86.0056 14.259 86.0524 14.2903C86.0993 14.3137 86.1305 14.3723 86.1462 14.466L86.2868 15.134C86.5449 14.8528 86.8105 14.6262 87.0837 14.4543C87.3574 14.2825 87.6818 14.1965 88.0568 14.1965H88.1037C88.3224 14.1965 88.4474 14.2356 88.4787 14.3137C88.5174 14.384 88.5368 14.4738 88.5368 14.5832V15.216C88.5368 15.3801 88.4668 15.4622 88.3262 15.4622C88.2793 15.4622 88.2131 15.4582 88.1268 15.4504C88.0487 15.4426 87.9631 15.4387 87.8693 15.4387C87.5799 15.4387 87.3024 15.4778 87.0368 15.5559C86.7793 15.634 86.5449 15.7434 86.3337 15.884V19.9504C86.3337 20.1223 86.248 20.2082 86.0762 20.2082Z" fill="white"/>
<path d="M94.7536 20.4075C94.418 20.4075 94.0661 20.3762 93.6992 20.3137C93.3398 20.2512 93.0155 20.1692 92.7267 20.0676C92.6017 20.0285 92.5192 19.9817 92.4805 19.927C92.4411 19.8723 92.4217 19.7863 92.4217 19.6692V19.095C92.4217 18.9387 92.4805 18.8606 92.5973 18.8606C92.6367 18.8606 92.6798 18.8645 92.7267 18.8723C92.7811 18.8801 92.8711 18.9035 92.9961 18.9426C93.238 19.0129 93.5236 19.0754 93.8517 19.1301C94.1798 19.177 94.4805 19.2004 94.7536 19.2004C95.3005 19.2004 95.7223 19.1028 96.0192 18.9075C96.3242 18.7122 96.4767 18.4231 96.4767 18.0403C96.4767 17.7668 96.383 17.5481 96.1955 17.384C96.0155 17.2122 95.703 17.0403 95.258 16.8684L94.2148 16.47C93.5742 16.22 93.1017 15.9231 92.7967 15.5793C92.4923 15.2356 92.3398 14.7981 92.3398 14.2668C92.3398 13.5247 92.5973 12.9465 93.113 12.5325C93.6367 12.1106 94.3242 11.8997 95.1755 11.8997C95.7617 11.8997 96.3905 12.0012 97.0623 12.2043C97.1798 12.2356 97.258 12.2785 97.2967 12.3332C97.3436 12.3879 97.3673 12.4778 97.3673 12.6028V13.1653C97.3673 13.3215 97.3086 13.3997 97.1911 13.3997C97.1211 13.3997 96.988 13.3723 96.793 13.3176C96.2536 13.177 95.7536 13.1067 95.293 13.1067C94.793 13.1067 94.4061 13.1926 94.133 13.3645C93.8673 13.5285 93.7342 13.7903 93.7342 14.1497C93.7342 14.4153 93.828 14.634 94.0155 14.8059C94.203 14.97 94.5348 15.1418 95.0117 15.3215L96.008 15.6848C96.6798 15.927 97.1561 16.2238 97.4373 16.5754C97.7267 16.9192 97.8711 17.3528 97.8711 17.8762C97.8711 18.6575 97.5936 19.2747 97.0392 19.7278C96.4923 20.1809 95.7305 20.4075 94.7536 20.4075Z" fill="white"/>
<path d="M101.435 20.2903C100.223 20.2903 99.6179 19.7043 99.6179 18.5325V15.2981H98.8679C98.696 15.2981 98.6104 15.2122 98.6104 15.0403V14.7004C98.6104 14.5207 98.6922 14.4192 98.8566 14.3957L99.6647 14.2785L99.841 12.8606C99.8641 12.6887 99.9616 12.6028 100.133 12.6028H100.743C100.915 12.6028 101.001 12.6887 101.001 12.8606V14.2434H102.442C102.614 14.2434 102.7 14.3293 102.7 14.5012V15.0403C102.7 15.2122 102.614 15.2981 102.442 15.2981H101.001V18.4622C101.001 18.7278 101.063 18.9192 101.188 19.0363C101.321 19.1457 101.54 19.2004 101.845 19.2004C102.024 19.2004 102.165 19.1887 102.267 19.1653C102.376 19.1418 102.47 19.1301 102.548 19.1301C102.68 19.1301 102.747 19.2043 102.747 19.3528V19.7747C102.747 19.8997 102.723 19.9895 102.677 20.0442C102.638 20.091 102.56 20.1301 102.442 20.1613C102.114 20.2473 101.778 20.2903 101.435 20.2903Z" fill="white"/>
<path d="M105.532 20.384C104.97 20.384 104.54 20.2278 104.243 19.9153C103.947 19.6028 103.798 19.1613 103.798 18.591V14.5012C103.798 14.3293 103.884 14.2434 104.056 14.2434H104.923C105.095 14.2434 105.181 14.3293 105.181 14.5012V18.1809C105.181 18.5637 105.259 18.845 105.415 19.0247C105.579 19.2043 105.829 19.2942 106.165 19.2942C106.392 19.2942 106.63 19.2551 106.88 19.177C107.13 19.0988 107.38 18.9778 107.63 18.8137V14.5012C107.63 14.3293 107.716 14.2434 107.888 14.2434H108.755C108.927 14.2434 109.013 14.3293 109.013 14.5012V19.9504C109.013 20.1223 108.927 20.2082 108.755 20.2082H108.134C108.032 20.2082 107.958 20.1965 107.911 20.1731C107.864 20.1418 107.833 20.0793 107.817 19.9856L107.723 19.552C106.989 20.1067 106.259 20.384 105.532 20.384Z" fill="white"/>
<path d="M112.868 20.3372C112.368 20.3372 111.931 20.2122 111.556 19.9622C111.189 19.7122 110.904 19.3567 110.701 18.8958C110.497 18.427 110.396 17.8763 110.396 17.2434C110.396 16.6028 110.501 16.0442 110.712 15.5676C110.923 15.0911 111.216 14.7239 111.591 14.4661C111.974 14.2004 112.423 14.0676 112.939 14.0676C113.564 14.0676 114.134 14.2708 114.649 14.677V11.7942C114.649 11.6223 114.736 11.5364 114.907 11.5364H115.774C115.946 11.5364 116.032 11.6223 116.032 11.7942V19.9504C116.032 20.1223 115.946 20.2083 115.774 20.2083H115.095C114.923 20.2083 114.821 20.1301 114.79 19.9739L114.708 19.6341C114.458 19.8528 114.177 20.0247 113.864 20.1497C113.552 20.2747 113.22 20.3372 112.868 20.3372ZM113.302 19.2473C113.763 19.2473 114.212 19.0989 114.649 18.802V15.5794C114.431 15.4231 114.208 15.3138 113.982 15.2513C113.763 15.1888 113.544 15.1575 113.326 15.1575C112.802 15.1575 112.415 15.3254 112.165 15.6614C111.923 15.9895 111.802 16.4973 111.802 17.1848C111.802 18.5598 112.302 19.2473 113.302 19.2473Z" fill="white"/>
<path d="M118.453 13.259C118.195 13.259 117.992 13.1887 117.844 13.0481C117.695 12.8997 117.621 12.7043 117.621 12.4622C117.621 12.2122 117.695 12.0168 117.844 11.8762C117.992 11.7356 118.195 11.6653 118.453 11.6653C118.711 11.6653 118.914 11.7356 119.062 11.8762C119.211 12.0168 119.285 12.2122 119.285 12.4622C119.285 12.7043 119.211 12.8997 119.062 13.0481C118.914 13.1887 118.711 13.259 118.453 13.259ZM118.019 20.2082C117.847 20.2082 117.762 20.1223 117.762 19.9504V14.5012C117.762 14.3293 117.847 14.2434 118.019 14.2434H118.887C119.059 14.2434 119.144 14.3293 119.144 14.5012V19.9504C119.144 20.1223 119.059 20.2082 118.887 20.2082H118.019Z" fill="white"/>
<path d="M123.452 20.3841C122.554 20.3841 121.847 20.1067 121.331 19.552C120.823 18.9973 120.569 18.22 120.569 17.22C120.569 16.22 120.823 15.4466 121.331 14.8997C121.847 14.345 122.554 14.0676 123.452 14.0676C124.351 14.0676 125.054 14.345 125.562 14.8997C126.077 15.4466 126.335 16.22 126.335 17.22C126.335 18.22 126.077 18.9973 125.562 19.552C125.054 20.1067 124.351 20.3841 123.452 20.3841ZM123.452 19.2942C123.937 19.2942 124.304 19.1263 124.554 18.7903C124.804 18.4544 124.929 17.9309 124.929 17.22C124.929 16.5091 124.804 15.9895 124.554 15.6614C124.304 15.3254 123.937 15.1575 123.452 15.1575C122.976 15.1575 122.609 15.3254 122.351 15.6614C122.101 15.9895 121.976 16.5091 121.976 17.22C121.976 17.9309 122.101 18.4544 122.351 18.7903C122.609 19.1263 122.976 19.2942 123.452 19.2942Z" fill="white"/>
<path d="M31.2746 7.84877C30.8434 7.84877 30.4902 7.71752 30.2152 7.45502C29.9402 7.19252 29.8027 6.8519 29.8027 6.43315C29.8027 5.97065 29.9684 5.6019 30.2996 5.32691C30.6309 5.05191 31.0809 4.9144 31.6496 4.9144C31.9809 4.9144 32.3434 4.96129 32.7371 5.05503V4.50191C32.7371 4.18941 32.6684 3.97066 32.5309 3.84565C32.3996 3.7144 32.159 3.64878 31.809 3.64878C31.5965 3.64878 31.3652 3.67065 31.1152 3.7144C30.8652 3.75815 30.6309 3.81441 30.4121 3.88316C30.3496 3.9019 30.2965 3.91128 30.2527 3.91128C30.1715 3.91128 30.1309 3.8519 30.1309 3.73316V3.38628C30.1309 3.28628 30.1465 3.22065 30.1777 3.18941C30.209 3.1519 30.2715 3.1144 30.3652 3.07691C30.609 2.98316 30.8715 2.91441 31.1527 2.87065C31.434 2.82065 31.7121 2.79565 31.9871 2.79565C32.5996 2.79565 33.0496 2.92065 33.3371 3.17065C33.6309 3.42065 33.7777 3.81128 33.7777 4.34254V7.5019C33.7777 7.6394 33.709 7.70815 33.5715 7.70815H33.0746C32.9371 7.70815 32.859 7.64565 32.8402 7.52065L32.7934 7.24877C32.5809 7.43627 32.3402 7.58315 32.0715 7.6894C31.809 7.79565 31.5434 7.84877 31.2746 7.84877ZM31.584 7.06127C31.7652 7.06127 31.9559 7.02065 32.1559 6.9394C32.3621 6.85815 32.5559 6.74877 32.7371 6.61127V5.71127C32.5996 5.68002 32.4527 5.65502 32.2965 5.63627C32.1402 5.61752 31.9934 5.60815 31.8559 5.60815C31.2059 5.60815 30.8809 5.86127 30.8809 6.36752C30.8809 6.58002 30.9402 6.74877 31.059 6.87377C31.184 6.99877 31.359 7.06127 31.584 7.06127Z" fill="white"/>
<path d="M36.0016 7.70815H35.3078C35.1703 7.70815 35.1016 7.6394 35.1016 7.5019V3.14254C35.1016 3.00504 35.1703 2.93629 35.3078 2.93629H35.8047C35.9484 2.93629 36.0328 3.00191 36.0578 3.13315L36.1234 3.4144C36.7297 3.0019 37.3047 2.79565 37.8484 2.79565C38.1484 2.79565 38.3953 2.8519 38.5891 2.9644C38.7891 3.07065 38.9422 3.23004 39.0484 3.44254C39.6734 3.01128 40.2734 2.79565 40.8484 2.79565C41.0922 2.79565 41.3203 2.8394 41.5328 2.9269C41.7453 3.00816 41.9172 3.15191 42.0484 3.35816C42.1797 3.56441 42.2453 3.84566 42.2453 4.20191V7.5019C42.2453 7.6394 42.1766 7.70815 42.0391 7.70815H41.3453C41.2078 7.70815 41.1391 7.6394 41.1391 7.5019V4.47379C41.1391 4.18629 41.0828 3.98003 40.9703 3.85504C40.8578 3.73004 40.6734 3.66753 40.4172 3.66753C40.2109 3.66753 39.9984 3.70191 39.7797 3.77066C39.5609 3.83941 39.3766 3.92066 39.2266 4.01441V7.5019C39.2266 7.6394 39.1578 7.70815 39.0203 7.70815H38.3266C38.1891 7.70815 38.1203 7.6394 38.1203 7.5019V4.47379C38.1203 4.18629 38.0641 3.98003 37.9516 3.85504C37.8391 3.73004 37.6547 3.66753 37.3984 3.66753C37.2359 3.66753 37.0484 3.69566 36.8359 3.75191C36.6297 3.8019 36.4203 3.8894 36.2078 4.01441V7.5019C36.2078 7.6394 36.1391 7.70815 36.0016 7.70815Z" fill="white"/>
<path d="M44.7414 7.84877C44.3102 7.84877 43.957 7.71752 43.682 7.45502C43.407 7.19252 43.2695 6.8519 43.2695 6.43315C43.2695 5.97065 43.4352 5.6019 43.7664 5.32691C44.0977 5.05191 44.5477 4.9144 45.1164 4.9144C45.4477 4.9144 45.8102 4.96129 46.2039 5.05503V4.50191C46.2039 4.18941 46.1352 3.97066 45.9977 3.84565C45.8664 3.7144 45.6258 3.64878 45.2758 3.64878C45.0633 3.64878 44.832 3.67065 44.582 3.7144C44.332 3.75815 44.0977 3.81441 43.8789 3.88316C43.8164 3.9019 43.7633 3.91128 43.7195 3.91128C43.6383 3.91128 43.5977 3.8519 43.5977 3.73316V3.38628C43.5977 3.28628 43.6133 3.22065 43.6445 3.18941C43.6758 3.1519 43.7383 3.1144 43.832 3.07691C44.0758 2.98316 44.3383 2.91441 44.6195 2.87065C44.9008 2.82065 45.1789 2.79565 45.4539 2.79565C46.0664 2.79565 46.5164 2.92065 46.8039 3.17065C47.0977 3.42065 47.2445 3.81128 47.2445 4.34254V7.5019C47.2445 7.6394 47.1758 7.70815 47.0383 7.70815H46.5414C46.4039 7.70815 46.3258 7.64565 46.307 7.52065L46.2602 7.24877C46.0477 7.43627 45.807 7.58315 45.5383 7.6894C45.2758 7.79565 45.0102 7.84877 44.7414 7.84877ZM45.0508 7.06127C45.232 7.06127 45.4227 7.02065 45.6227 6.9394C45.8289 6.85815 46.0227 6.74877 46.2039 6.61127V5.71127C46.0664 5.68002 45.9195 5.65502 45.7633 5.63627C45.607 5.61752 45.4602 5.60815 45.3227 5.60815C44.6727 5.60815 44.3477 5.86127 44.3477 6.36752C44.3477 6.58002 44.407 6.74877 44.5258 6.87377C44.6508 6.99877 44.8258 7.06127 45.0508 7.06127Z" fill="white"/>
<path d="M51.8879 7.70814H48.4191C48.2816 7.70814 48.2129 7.63939 48.2129 7.50189V7.14564C48.2129 7.03314 48.2191 6.95502 48.2316 6.91127C48.2504 6.86127 48.3004 6.78939 48.3816 6.69564L50.8754 3.78002H48.5129C48.3754 3.78002 48.3066 3.71128 48.3066 3.57378V3.14253C48.3066 3.00503 48.3754 2.93628 48.5129 2.93628H51.8598C51.9973 2.93628 52.066 3.00503 52.066 3.14253V3.49877C52.066 3.60503 52.0566 3.68315 52.0379 3.73315C52.0254 3.78315 51.9785 3.85503 51.8973 3.94878L49.4035 6.86439H51.8879C52.0254 6.86439 52.0941 6.93314 52.0941 7.07064V7.50189C52.0941 7.63939 52.0254 7.70814 51.8879 7.70814Z" fill="white"/>
<path d="M55.0621 7.84877C54.3434 7.84877 53.7777 7.6269 53.3652 7.18315C52.959 6.7394 52.7559 6.11752 52.7559 5.31753C52.7559 4.51754 52.959 3.89879 53.3652 3.46129C53.7777 3.01753 54.3434 2.79565 55.0621 2.79565C55.7809 2.79565 56.3434 3.01753 56.7496 3.46129C57.1621 3.89879 57.3684 4.51754 57.3684 5.31753C57.3684 6.11752 57.1621 6.7394 56.7496 7.18315C56.3434 7.6269 55.7809 7.84877 55.0621 7.84877ZM55.0621 6.9769C55.4496 6.9769 55.7434 6.84252 55.9434 6.57377C56.1434 6.30502 56.2434 5.88627 56.2434 5.31753C56.2434 4.74878 56.1434 4.33316 55.9434 4.07066C55.7434 3.80191 55.4496 3.66753 55.0621 3.66753C54.6809 3.66753 54.3871 3.80191 54.1809 4.07066C53.9809 4.33316 53.8809 4.74878 53.8809 5.31753C53.8809 5.88627 53.9809 6.30502 54.1809 6.57377C54.3871 6.84252 54.6809 6.9769 55.0621 6.9769Z" fill="white"/>
<path d="M59.3746 7.70815H58.6809C58.5434 7.70815 58.4746 7.6394 58.4746 7.5019V3.14254C58.4746 3.00504 58.5434 2.93629 58.6809 2.93629H59.1777C59.259 2.93629 59.3184 2.94879 59.3559 2.97379C59.3934 2.99254 59.4184 3.0394 59.4309 3.11441L59.5059 3.46129C60.0934 3.01753 60.7059 2.79565 61.3434 2.79565C61.8055 2.79565 62.1524 2.91753 62.3837 3.16129C62.6212 3.39879 62.7399 3.74566 62.7399 4.20191V7.5019C62.7399 7.6394 62.6712 7.70815 62.5337 7.70815H61.8399C61.7024 7.70815 61.6337 7.6394 61.6337 7.5019V4.54879C61.6337 4.23628 61.5712 4.01129 61.4465 3.87379C61.3215 3.73629 61.1215 3.66753 60.8465 3.66753C60.6402 3.66753 60.4277 3.70504 60.209 3.78003C59.9965 3.84879 59.7871 3.94879 59.5809 4.08003V7.5019C59.5809 7.6394 59.5121 7.70815 59.3746 7.70815Z" fill="white"/>
<path d="M135.812 20.2083H131.16C130.989 20.2083 130.902 20.1223 130.902 19.9505V12.345C130.902 12.1731 130.989 12.0872 131.16 12.0872H132.074C132.246 12.0872 132.332 12.1731 132.332 12.345V19.0364H135.812C135.984 19.0364 136.07 19.1223 136.07 19.2942V19.9505C136.07 20.1223 135.984 20.2083 135.812 20.2083Z" fill="#7002FE"/>
<path d="M138.486 20.384C137.947 20.384 137.506 20.22 137.162 19.8919C136.818 19.5638 136.646 19.1379 136.646 18.6145C136.646 18.0364 136.853 17.5754 137.267 17.2317C137.681 16.8879 138.244 16.7161 138.955 16.7161C139.369 16.7161 139.822 16.7747 140.315 16.8919V16.2004C140.315 15.8098 140.228 15.5364 140.056 15.3801C139.893 15.2161 139.591 15.134 139.154 15.134C138.888 15.134 138.6 15.1614 138.287 15.2161C137.975 15.2708 137.681 15.3411 137.408 15.427C137.33 15.4504 137.263 15.4621 137.209 15.4621C137.107 15.4621 137.056 15.3879 137.056 15.2395V14.8059C137.056 14.6809 137.076 14.5989 137.115 14.5598C137.154 14.5129 137.232 14.4661 137.35 14.4192C137.654 14.302 137.982 14.2161 138.334 14.1614C138.685 14.0989 139.033 14.0676 139.377 14.0676C140.143 14.0676 140.705 14.2239 141.064 14.5364C141.431 14.8489 141.615 15.3371 141.615 16.0012V19.9504C141.615 20.1223 141.529 20.2083 141.357 20.2083H140.736C140.564 20.2083 140.466 20.1301 140.443 19.9739L140.385 19.6341C140.119 19.8684 139.818 20.052 139.482 20.1848C139.154 20.3176 138.822 20.384 138.486 20.384ZM138.873 19.3996C139.1 19.3996 139.338 19.3489 139.588 19.2473C139.845 19.1458 140.088 19.0091 140.315 18.8372V17.7121C140.143 17.6731 139.959 17.6418 139.763 17.6184C139.568 17.5949 139.385 17.5833 139.213 17.5833C138.4 17.5833 137.994 17.8996 137.994 18.5324C137.994 18.7981 138.068 19.0091 138.216 19.1653C138.373 19.3216 138.591 19.3996 138.873 19.3996Z" fill="#7002FE"/>
<path d="M146.399 20.3372C146.055 20.3372 145.723 20.2747 145.403 20.1497C145.082 20.0247 144.801 19.8411 144.559 19.5989L144.477 19.9739C144.446 20.1301 144.344 20.2083 144.172 20.2083H143.528C143.356 20.2083 143.27 20.1223 143.27 19.9504V11.7942C143.27 11.6223 143.356 11.5364 143.528 11.5364H144.395C144.566 11.5364 144.653 11.6223 144.653 11.7942V14.7708C144.918 14.5442 145.203 14.3723 145.508 14.2551C145.821 14.1301 146.149 14.0676 146.493 14.0676C146.985 14.0676 147.415 14.1926 147.781 14.4426C148.149 14.6926 148.43 15.0481 148.625 15.509C148.828 15.9622 148.93 16.5051 148.93 17.1379C148.93 17.7786 148.825 18.3411 148.613 18.8254C148.41 19.302 148.118 19.6731 147.735 19.9388C147.36 20.2044 146.915 20.3372 146.399 20.3372ZM146.047 19.2473C147.031 19.2473 147.524 18.5598 147.524 17.1848C147.524 16.4895 147.403 15.9778 147.16 15.6497C146.926 15.3216 146.559 15.1574 146.059 15.1574C145.551 15.1574 145.082 15.3059 144.653 15.6028V18.7903C145.09 19.0949 145.555 19.2473 146.047 19.2473Z" fill="#7002FE"/>
<defs>
<linearGradient id="paint0_linear_68_13728" x1="11.4586" y1="3.18767e-06" x2="11.4586" y2="22.8305" gradientUnits="userSpaceOnUse">
<stop stop-color="#7C00FF"/>
<stop offset="1" stop-color="#3100FF"/>
</linearGradient>
</defs>
</svg>
