<svg version="1.2" xmlns="http://www.w3.org/2000/svg" viewBox="0 0 66 39" width="66" height="39"><style>.a{fill:#fff}.b{fill:#f90}</style><path class="a" d="m23 15.9q0 0.8 0.2 1.3 0.2 0.5 0.5 1.1 0.1 0.2 0.1 0.3 0 0.2-0.3 0.5l-0.9 0.6q-0.2 0.1-0.4 0.1-0.2 0-0.5-0.2-0.3-0.3-0.5-0.7-0.2-0.4-0.4-0.8-1.8 2-4.3 2-1.9 0-3-1.1-1-1-1-2.8 0-1.9 1.3-3 1.3-1.1 3.6-1.1 0.7 0 1.5 0.1 0.8 0.1 1.7 0.3v-1.1q0-1.6-0.7-2.3-0.7-0.7-2.4-0.7-0.7 0-1.6 0.2-0.8 0.2-1.5 0.5-0.4 0.2-0.5 0.2-0.2 0-0.3 0-0.3 0-0.3-0.4v-0.7q0-0.4 0.1-0.5 0.1-0.2 0.4-0.3 0.8-0.4 1.9-0.7 1-0.3 2.3-0.3 2.6 0 3.8 1.2 1.2 1.2 1.2 3.6v4.7zm-5.9 2.3q0.7 0 1.5-0.3 0.8-0.3 1.4-0.9 0.3-0.5 0.5-1 0.1-0.5 0.1-1.3v-0.6q-0.6-0.1-1.3-0.2-0.7-0.1-1.4-0.1-1.5 0-2.2 0.6-0.7 0.6-0.7 1.7 0 1 0.5 1.5 0.6 0.6 1.6 0.6zm11.7 1.5q-0.4 0-0.6-0.1-0.1-0.2-0.3-0.6l-3.4-11.3q-0.1-0.4-0.1-0.6 0-0.3 0.3-0.3h1.5q0.4 0 0.5 0.1 0.2 0.2 0.3 0.6l2.5 9.7 2.3-9.7q0.1-0.4 0.2-0.6 0.2-0.1 0.6-0.1h1.2q0.4 0 0.6 0.1 0.2 0.2 0.2 0.6l2.4 9.8 2.5-9.8q0.1-0.4 0.3-0.6 0.2-0.1 0.5-0.1h1.4q0.4 0 0.4 0.3 0 0.1-0.1 0.3 0 0.1-0.1 0.3l-3.5 11.3q-0.1 0.5-0.3 0.6-0.2 0.1-0.5 0.1h-1.3q-0.4 0-0.6-0.1-0.2-0.1-0.3-0.6l-2.2-9.4-2.3 9.4q-0.1 0.4-0.3 0.6-0.1 0.1-0.5 0.1zm18.7 0.4q-1.1 0-2.2-0.2-1.1-0.3-1.7-0.6-0.3-0.2-0.4-0.4-0.1-0.2-0.1-0.4v-0.8q0-0.4 0.3-0.4 0.1 0 0.3 0 0.1 0.1 0.3 0.2 0.8 0.3 1.6 0.5 0.9 0.1 1.8 0.1 1.4 0 2.1-0.4 0.8-0.5 0.8-1.4 0-0.6-0.4-1.1-0.4-0.4-1.5-0.7l-2.1-0.7q-1.6-0.5-2.4-1.5-0.7-0.9-0.7-2.1 0-0.9 0.4-1.6 0.4-0.7 1.1-1.2 0.6-0.5 1.5-0.8 0.9-0.2 1.8-0.2 0.5 0 1 0.1 0.5 0 1 0.1 0.4 0.1 0.8 0.2 0.4 0.2 0.6 0.3 0.3 0.2 0.4 0.4 0.2 0.2 0.2 0.5v0.6q0 0.5-0.4 0.5-0.1 0-0.5-0.2-1.3-0.5-2.8-0.5-1.3 0-2 0.4-0.7 0.4-0.7 1.3 0 0.6 0.5 1 0.4 0.4 1.6 0.8l2.1 0.7q1.5 0.5 2.2 1.4 0.7 0.9 0.7 2 0 1-0.4 1.7-0.4 0.8-1 1.3-0.7 0.5-1.7 0.8-0.9 0.3-2.1 0.3z"/><path class="b" d="m50.3 27.2c-4.8 3.5-11.7 5.3-17.7 5.3-8.4 0-16-3-21.7-8.2-0.4-0.4 0-0.9 0.5-0.6 6.2 3.6 13.8 5.7 21.7 5.7 5.3 0 11.1-1.1 16.5-3.3 0.8-0.4 1.5 0.5 0.7 1.1zm2-2.3c-0.6-0.8-4-0.4-5.6-0.2-0.5 0.1-0.5-0.3-0.1-0.6 2.7-2 7.2-1.4 7.8-0.8 0.5 0.7-0.2 5.2-2.8 7.3-0.3 0.3-0.7 0.2-0.6-0.3 0.6-1.4 1.9-4.6 1.3-5.4z"/></svg>