<svg width="144" height="20" viewBox="0 0 144 20" fill="none" xmlns="http://www.w3.org/2000/svg">
<path d="M0 2.75207L8.22022 1.62466V9.53918H0.000756823L0 2.75207ZM8.22022 10.552V18.377L0.00113523 17.2513L0.000946026 10.5524H8.22041L8.22022 10.552ZM9.12916 1.50025L20.0671 0V9.53918H9.12916V1.50025ZM20.0671 10.552V20.0004L9.12916 18.5013V10.552H20.0671Z" fill="#0DADEA"/>
<path d="M38.6365 15.9123H36.7363V8.58173C36.7363 7.98084 36.774 7.24704 36.8491 6.37732H36.8173C36.6987 6.8723 36.5941 7.22759 36.5032 7.44432L33.0574 15.9123H31.737L28.2828 7.50775C28.1863 7.26044 28.0842 6.88363 27.9771 6.37826H27.9453C27.9886 6.83134 28.0098 7.57099 28.0098 8.59778V15.9123H26.2383V4.58464H28.9354L31.9708 12.1288C32.2015 12.708 32.3519 13.1403 32.4213 13.4242H32.4614C32.6601 12.829 32.8209 12.3863 32.9445 12.0967L36.0365 4.58464H38.6371L38.6363 15.9123H38.6365ZM42.2034 6.12473C41.8977 6.12473 41.6352 6.02769 41.4186 5.83268C41.201 5.63786 41.0924 5.38998 41.0924 5.09001C41.0924 4.79003 41.201 4.53971 41.4186 4.33922C41.6362 4.13949 41.8977 4.03906 42.2034 4.03906C42.5198 4.03906 42.7888 4.13949 43.0087 4.33922C43.2285 4.53971 43.339 4.78909 43.339 5.09001C43.339 5.37394 43.2285 5.61784 43.0087 5.8206C42.7879 6.02373 42.5198 6.12473 42.2034 6.12473ZM43.1288 15.9123H41.2616V7.82301H43.129V15.9123H43.1288ZM51.4785 15.541C50.8187 15.9148 50.0371 16.1017 49.1353 16.1017C47.9116 16.1017 46.9239 15.7264 46.1724 14.9764C45.4212 14.2263 45.0451 13.2533 45.0451 12.0574C45.0451 10.725 45.4491 9.65496 46.2568 8.84621C47.0647 8.03785 48.1445 7.63348 49.4975 7.63348C50.2488 7.63348 50.9118 7.7626 51.4858 8.02105V9.72707C50.911 9.30609 50.2995 9.09503 49.6506 9.09503C48.8616 9.09503 48.2149 9.35744 47.7104 9.88112C47.206 10.405 46.9532 11.0908 46.9532 11.9387C46.9532 12.7761 47.1903 13.437 47.6654 13.9214C48.1403 14.406 48.7779 14.6483 49.5777 14.6483C50.2488 14.6483 50.8815 14.4142 51.4775 13.9456L51.4785 15.541ZM58.1201 9.56906C57.8944 9.39501 57.5699 9.30854 57.1457 9.30854C56.5929 9.30854 56.131 9.55302 55.7608 10.0431C55.3903 10.5324 55.2049 11.199 55.2049 12.0414V15.9123H53.3367V7.82301H55.2049V9.48977H55.2367C55.4191 8.92097 55.6995 8.47733 56.0779 8.15886C56.4563 7.84057 56.8792 7.68086 57.3459 7.68086C57.6844 7.68086 57.9419 7.73145 58.1194 7.83094L58.1201 9.56906ZM63.112 16.1017C61.8399 16.1017 60.8245 15.7239 60.0642 14.9682C59.3048 14.2127 58.9246 13.2107 58.9246 11.9628C58.9246 10.6038 59.3203 9.54263 60.1125 8.77901C60.9047 8.01538 61.9707 7.63348 63.3131 7.63348C64.6016 7.63348 65.6047 8.005 66.3241 8.74767C67.0436 9.49053 67.4026 10.5196 67.4026 11.836C67.4026 13.1267 67.0151 14.1599 66.2391 14.9362C65.4642 15.7136 64.4218 16.1017 63.112 16.1017ZM63.2003 9.09503C62.4704 9.09503 61.8931 9.34536 61.4697 9.84506C61.0453 10.3455 60.8335 11.0353 60.8335 11.9145C60.8335 12.7623 61.0485 13.4299 61.4778 13.9167C61.9069 14.4036 62.4817 14.6473 63.2011 14.6473C63.9371 14.6473 64.5019 14.4076 64.896 13.9288C65.2899 13.4491 65.4878 12.7672 65.4878 11.8824C65.4878 10.9929 65.2908 10.3055 64.896 9.8209C64.5011 9.33724 63.9361 9.09503 63.2003 9.09503ZM68.7964 15.6598V13.9617C69.4946 14.4831 70.2647 14.7436 71.1066 14.7436C72.2343 14.7436 72.7974 14.4172 72.7974 13.7642C72.7974 13.5797 72.7493 13.4234 72.6528 13.2941C72.5563 13.165 72.4263 13.0504 72.2619 12.9509C72.0975 12.8514 71.9047 12.7616 71.6824 12.6823C71.4591 12.6028 71.2113 12.5137 70.9375 12.4134C70.6243 12.2933 70.319 12.1535 70.0236 11.9947C69.7521 11.8471 69.5273 11.6804 69.3474 11.4935C69.1702 11.3111 69.032 11.0946 68.9412 10.8573C68.8496 10.6208 68.8046 10.3438 68.8046 10.028C68.8046 9.63816 68.8986 9.29476 69.0865 8.99724C69.2748 8.69953 69.5264 8.44939 69.8429 8.24721C70.16 8.04427 70.519 7.89192 70.922 7.78922C71.3297 7.68586 71.7489 7.63411 72.1696 7.63517C72.9315 7.63517 73.6132 7.74826 74.2143 7.97442V9.57794C73.6346 9.1881 72.9692 8.99309 72.2178 8.99309C71.9815 8.99309 71.7681 9.01725 71.5778 9.06369C71.3872 9.11108 71.2245 9.17696 71.0904 9.26116C70.9564 9.34536 70.8518 9.44635 70.7765 9.5651C70.7018 9.68175 70.6627 9.81748 70.6637 9.95588C70.6637 10.1297 70.7014 10.2774 70.7765 10.3986C70.8518 10.5196 70.9628 10.6262 71.1108 10.7186C71.258 10.8109 71.4355 10.8951 71.6423 10.9712C71.8491 11.0474 72.0862 11.1309 72.3552 11.22C72.6803 11.3489 72.9987 11.494 73.3092 11.6547C73.5913 11.8022 73.8316 11.9691 74.0302 12.156C74.2259 12.3384 74.382 12.559 74.4889 12.804C74.5962 13.0487 74.6501 13.34 74.6501 13.6768C74.6501 14.0876 74.5536 14.4451 74.3598 14.751C74.1669 15.0566 73.9086 15.3092 73.5873 15.5089C73.2651 15.7094 72.8931 15.8578 72.4721 15.9548C72.0502 16.0528 71.6063 16.1009 71.1396 16.1009C70.237 16.1017 69.4562 15.9548 68.7964 15.6598ZM80.0843 16.1017C78.8122 16.1017 77.796 15.7239 77.0363 14.9682C76.2769 14.2127 75.8975 13.2107 75.8975 11.9628C75.8975 10.6038 76.2933 9.54263 77.0855 8.77901C77.8768 8.01538 78.9437 7.63348 80.2854 7.63348C81.5739 7.63348 82.5768 8.005 83.2964 8.74767C84.0158 9.49053 84.3754 10.5196 84.3754 11.836C84.3754 13.1267 83.9879 14.1599 83.2122 14.9362C82.4365 15.7136 81.3932 16.1017 80.0843 16.1017ZM80.1726 9.09503C79.4425 9.09503 78.8652 9.34536 78.441 9.84506C78.0166 10.3455 77.8049 11.0353 77.8049 11.9145C77.8049 12.7623 78.02 13.4299 78.4491 13.9167C78.8784 14.4036 79.4531 14.6473 80.1726 14.6473C80.9075 14.6473 81.4724 14.4076 81.8673 13.9288C82.2622 13.4491 82.4591 12.7672 82.4591 11.8824C82.4591 10.9929 82.2622 10.3055 81.8673 9.8209C81.4724 9.33724 80.9075 9.09503 80.1726 9.09503ZM90.9452 5.43001C90.6936 5.28804 90.4058 5.21668 90.0836 5.21668C89.1761 5.21668 88.7232 5.7196 88.7232 6.72543V7.82358H90.6395V9.26116H88.7313V15.9123H86.8633V9.26116H85.4547V7.82358H86.8633V6.51211C86.8633 5.65881 87.1479 4.98656 87.7168 4.49402C88.2857 4.0013 88.9972 3.75513 89.8507 3.75513C90.3125 3.75513 90.6771 3.80497 90.9452 3.90521V5.43001ZM96.3313 15.8257C95.9667 16.0047 95.4859 16.0945 94.8899 16.0945C93.2908 16.0945 92.4912 15.3413 92.4912 13.8357V9.26191H91.1145V7.82452H92.4912V5.95218L94.3594 5.43095V7.82452H96.3321V9.26191H94.3594V13.306C94.3594 13.785 94.4476 14.1274 94.6251 14.3328C94.8025 14.5382 95.0975 14.6409 95.5105 14.6409C95.8269 14.6409 96.1009 14.5518 96.3313 14.3721V15.8257ZM112.176 15.9123H110.075L109.037 13.0287H104.496L103.498 15.9123H101.404L105.727 4.58464H107.885L112.176 15.9123H112.176ZM108.529 11.4967L106.927 6.97821C106.879 6.83058 106.828 6.59404 106.775 6.26744H106.743C106.694 6.56761 106.641 6.80491 106.582 6.97821L104.996 11.4967H108.529ZM119.647 8.58966L115.195 14.4821H119.631V15.9123H112.578V15.225L117.127 9.25304H113.013V7.82282H119.647V8.58966ZM128.415 15.9123H126.548V14.6322H126.516C125.974 15.6116 125.131 16.1017 123.988 16.1017C122.04 16.1017 121.065 14.9539 121.065 12.6574V7.82282H122.933V12.468C122.933 13.9216 123.505 14.6483 124.649 14.6483C125.201 14.6483 125.656 14.4485 126.013 14.0483C126.37 13.6481 126.548 13.1242 126.548 12.4761V7.82282H128.417L128.415 15.9123ZM135.637 9.56906C135.411 9.39501 135.087 9.30854 134.663 9.30854C134.11 9.30854 133.648 9.55302 133.278 10.0431C132.907 10.5324 132.722 11.199 132.722 12.0414V15.9123H130.854V7.82301H132.722V9.48977H132.754C132.936 8.92097 133.216 8.47733 133.595 8.15886C133.973 7.84057 134.396 7.68086 134.863 7.68086C135.201 7.68086 135.459 7.73145 135.635 7.83094L135.637 9.56906H135.637ZM143.954 12.3653H138.334C138.355 13.1129 138.59 13.6896 139.039 14.0955C139.487 14.5006 140.102 14.7036 140.886 14.7036C141.767 14.7036 142.574 14.4453 143.31 13.9296V15.4062C142.558 15.8699 141.565 16.1017 140.33 16.1017C139.117 16.1017 138.166 15.7343 137.476 14.9996C136.786 14.2648 136.442 13.2316 136.442 11.8994C136.442 10.6408 136.821 9.61475 137.582 8.82224C138.341 8.02973 139.285 7.63348 140.412 7.63348C141.539 7.63348 142.411 7.98895 143.028 8.69953C143.646 9.4103 143.955 10.3976 143.955 11.6619L143.954 12.3653H143.954ZM142.15 11.0699C142.142 10.4114 141.987 9.89943 141.676 9.53376C141.364 9.16809 140.935 8.98516 140.387 8.98516C139.851 8.98516 139.395 9.17772 139.022 9.56189C138.65 9.94606 138.42 10.4492 138.334 11.0706H142.15V11.0699Z" fill="#00ADEF"/>
</svg>
