<svg width="137" height="24" viewBox="0 0 137 24" fill="none" xmlns="http://www.w3.org/2000/svg">
<path d="M4.00392 3.6761L10.3727 0L16.7415 3.6761L14.4 5.03415L10.3727 2.7161L6.34539 5.03415L4.00392 3.6761ZM16.7415 8.31219L14.4 6.95415L10.3727 9.2722L6.34539 6.95415L4.00392 8.31219V11.0283L8.03123 13.3463V17.9824L10.3727 19.3405L12.7142 17.9824V13.3463L16.7415 11.0283V8.31219ZM16.7415 15.6644V12.9483L14.4 14.3063V17.0224L16.7415 15.6644ZM18.4039 16.6244L14.3766 18.9424V21.6585L20.7454 17.9824V10.6302L18.4039 11.9883V16.6244ZM16.0625 5.99415L18.4039 7.35219V10.0683L20.7454 8.71024V5.99415L18.4039 4.6361L16.0625 5.99415ZM8.03123 19.9259V22.642L10.3727 24L12.7142 22.642V19.9259L10.3727 21.2839L8.03123 19.9259ZM4.00392 15.6644L6.34539 17.0224V14.3063L4.00392 12.9483V15.6644ZM8.03123 5.99415L10.3727 7.35219L12.7142 5.99415L10.3727 4.6361L8.03123 5.99415ZM2.34146 7.35219L4.68293 5.99415L2.34146 4.6361L0 5.99415V8.71024L2.34146 10.0683V7.35219ZM2.34146 11.9883L0 10.6302V17.9824L6.36877 21.6585V18.9424L2.34146 16.6244V11.9883Z" fill="#F0B90B"/>
<path d="M39.2048 15.0615V15.0233C39.2048 13.2297 38.2507 12.3329 36.7052 11.7414C37.6592 11.2072 38.4606 10.3676 38.4606 8.86023V8.82207C38.4606 6.72316 36.7815 5.36841 34.0529 5.36841H27.8516V18.7251H34.2056C37.2204 18.7251 39.2048 17.5039 39.2048 15.0615ZM35.5412 9.35634C35.5412 10.3485 34.7208 10.7683 33.4233 10.7683H30.7138V7.94434H33.6141C34.8543 7.94434 35.5412 8.44045 35.5412 9.31817V9.35634ZM36.2854 14.699C36.2854 15.6912 35.5031 16.1491 34.2056 16.1491H30.7138V13.2107H34.1102C35.6176 13.2107 36.2854 13.764 36.2854 14.6608V14.699Z" fill="#F0B90B"/>
<path d="M53.6814 18.7251V5.36841H50.781V13.5923L44.5225 5.36841H41.813V18.7251H44.7133V10.234L51.1817 18.7251H53.6814Z" fill="#F0B90B"/>
<path d="M68.4318 15.0615V15.0233C68.4318 13.2297 67.4777 12.3329 65.9322 11.7414C66.8862 11.2072 67.6876 10.3676 67.6876 8.86023V8.82207C67.6876 6.72316 66.0085 5.36841 63.2799 5.36841H57.0786V18.7251H63.4326C66.4474 18.7251 68.4318 17.5039 68.4318 15.0615ZM64.7683 9.35634C64.7683 10.3485 63.9478 10.7683 62.6503 10.7683H59.9408V7.94434H62.8411C64.0813 7.94434 64.7683 8.44045 64.7683 9.31817V9.35634ZM65.5124 14.699C65.5124 15.6912 64.7301 16.1491 63.4326 16.1491H59.9408V13.2107H63.3372C64.8446 13.2107 65.5124 13.764 65.5124 14.6608V14.699Z" fill="#F0B90B"/>
<path d="M86.1416 16.3655L84.6342 14.8391C83.4893 15.9076 82.4399 16.5754 80.7989 16.5754C78.242 16.5754 76.3912 14.4384 76.3912 11.8052C76.3912 9.17205 78.242 7.07314 80.7989 7.07314C82.3254 7.07314 83.4702 7.74098 84.5388 8.73319L86.0462 6.99682C84.7677 5.77564 83.2794 4.91699 80.818 4.91699C76.7728 4.91699 73.9297 8.02719 73.9297 11.8434C73.9297 15.6977 76.8301 18.7316 80.7226 18.7316C83.2222 18.7316 84.7487 17.8157 86.1416 16.3655Z" fill="#F0B90B"/>
<path d="M97.5188 12.8738V18.5027H99.8658V5.146H97.5188V10.6986H91.1458V5.146H88.7988V18.5027H91.1458V12.8738H97.5188Z" fill="#F0B90B"/>
<path d="M110.394 5.05054H108.219L102.342 18.5026H104.746L106.12 15.2779H112.436L113.791 18.5026H116.271L110.394 5.05054ZM111.577 13.1981H106.979L109.268 7.85545L111.577 13.1981Z" fill="#F0B90B"/>
<path d="M118.886 5.146V18.5027H121.233V5.146H118.886Z" fill="#F0B90B"/>
<path d="M134.33 14.3812L127.174 5.146H124.999V18.5027H127.308V9.00036L134.673 18.5027H136.639V5.146H134.33V14.3812Z" fill="#F0B90B"/>
</svg>
