<svg width="107" height="28" viewBox="0 0 107 28" fill="none" xmlns="http://www.w3.org/2000/svg">
<path d="M17.3397 15.1924C17.4019 14.083 17.9452 13.1055 18.7648 12.4127C19.5685 11.7321 20.6504 11.3162 21.8308 11.3162C23.01 11.3162 24.0918 11.7321 24.8962 12.4127C25.7152 13.1055 26.2585 14.083 26.3212 15.1912C26.3834 16.3311 25.9252 17.3901 25.1215 18.1751C24.3019 18.9735 23.1361 19.4746 21.8308 19.4746C20.5254 19.4746 19.3573 18.9735 18.5383 18.1751C17.734 17.3901 17.2769 16.3311 17.3397 15.1924Z" fill="#0E548B"/>
<path d="M10.188 17.434C10.1956 17.8681 10.3341 18.7118 10.5417 19.3706C10.9782 20.7652 11.7186 22.0553 12.7488 23.1923C13.806 24.361 15.1079 25.2996 16.6116 25.9661C18.1921 26.666 19.9046 27.0227 21.6834 27.0198C23.4295 27.0225 25.1566 26.6575 26.7524 25.9485C28.256 25.2756 29.5567 24.3328 30.6121 23.1635C31.6418 22.0219 32.381 20.7294 32.8187 19.3349C33.0387 18.6302 33.1777 17.9151 33.2334 17.1976C33.288 16.4896 33.265 15.7779 33.1648 15.075C32.9709 13.7066 32.4913 12.3944 31.7574 11.2234C31.0777 10.1339 30.2082 9.1751 29.19 8.39264L29.1924 8.39088L18.8016 0.412586C18.793 0.405155 18.784 0.398115 18.7747 0.391466C18.0929 -0.131855 16.9466 -0.130095 16.1968 0.394399C15.4388 0.92476 15.3519 1.80185 16.0266 2.35509L16.0237 2.35803L20.3575 5.88223L7.14837 5.89631H7.13077C6.03895 5.89748 4.98938 6.61382 4.78169 7.51907C4.56814 8.44133 5.30971 9.20637 6.44494 9.21047L6.44318 9.21458L13.1384 9.20167L1.1912 18.3721L1.14544 18.4061C0.0184186 19.2691 -0.345911 20.7042 0.363974 21.6124C1.08442 22.5358 2.61625 22.5375 3.755 21.6176L10.2754 16.2812C10.2754 16.2812 10.1803 17.0016 10.188 17.434ZM26.943 19.8464C25.5995 21.2152 23.7186 21.9913 21.6834 21.9955C19.6453 21.999 17.7644 21.2298 16.4209 19.8635C15.7866 19.2256 15.2968 18.4589 14.9847 17.6153C14.6922 16.8121 14.5796 15.9545 14.655 15.1031C14.726 14.273 14.9713 13.4671 15.3748 12.7382C15.7807 12.0081 16.3233 11.363 16.973 10.8379C18.2789 9.77369 19.9416 9.19757 21.6805 9.19522C23.4212 9.19287 25.0827 9.76372 26.3898 10.8244C27.0382 11.3479 27.5802 11.991 27.9862 12.7188C28.3906 13.4472 28.6369 14.2526 28.7089 15.0826C28.7827 15.9335 28.6698 16.7902 28.3781 17.593C28.0669 18.4384 27.5775 19.207 26.943 19.8464Z" fill="#F4792B"/>
<path d="M88.526 15.1743C88.6263 14.0549 89.4917 13.345 90.8135 13.345C92.137 13.345 93.0018 14.0549 93.1021 15.1743H88.526ZM92.9666 17.9382C92.6281 18.7677 91.8302 19.2588 90.7466 19.2588C89.3896 19.2588 88.4761 18.4116 88.4392 17.0734H96.2403V16.6797C96.2403 13.3274 94.2726 11.4436 90.7466 11.4436C87.3227 11.4436 85.2523 13.345 85.2523 16.3271C85.2523 19.3274 87.355 21.2259 90.7466 21.2259C92.7818 21.2259 94.36 20.5284 95.3327 19.3022L92.9666 17.9382ZM53.9123 15.1796C54.0156 14.0602 54.881 13.3503 56.2039 13.3503C57.5251 13.3503 58.3899 14.0602 58.4914 15.1796H53.9123ZM58.3559 17.9434C58.0168 18.7754 57.2195 19.2664 56.1335 19.2664C54.7789 19.2664 53.8631 18.4169 53.8273 17.0781H61.6266V16.6868C61.6266 13.3327 59.6595 11.4483 56.1335 11.4483C52.7079 11.4483 50.6416 13.3503 50.6416 16.3324C50.6416 19.3327 52.7431 21.2312 56.1335 21.2312C58.1681 21.2312 59.7475 20.536 60.722 19.3081L58.3559 17.9434ZM47.1297 9.4166H49.9429V20.9255H47.1297V9.4166ZM62.3265 12.4744H65.1555V13.1596C66.157 12.0907 67.3597 11.5504 68.7161 11.5504C70.2784 11.5504 71.4612 12.0907 72.0719 13.0106C72.5818 13.7704 72.6152 14.6874 72.6152 15.8924V20.9255H69.7821V16.5031C69.7821 14.668 69.4131 13.8208 67.802 13.8208C66.174 13.8208 65.1555 14.7906 65.1555 16.4187V20.9255H62.3265V12.4744ZM81.7258 16.4697C81.7258 18.0449 80.6733 19.0781 79.0446 19.0781C77.4148 19.0781 76.3623 18.0801 76.3623 16.4879C76.3623 14.8722 77.4008 13.8748 79.0446 13.8748C80.6733 13.8748 81.7258 14.8898 81.7258 16.4697ZM81.7258 12.8575C81.0106 12.0907 79.9757 11.67 78.5372 11.67C75.4336 11.67 73.3145 13.5838 73.3145 16.4521C73.3145 19.2641 75.4189 21.2312 78.4861 21.2312C79.8924 21.2312 80.925 20.8757 81.7258 20.0784V20.9255H84.5565V8.68677L81.7258 9.4166V12.8575ZM40.6997 13.8748C42.3447 13.8748 43.379 14.8722 43.379 16.4879C43.379 18.0801 42.3283 19.0781 40.6997 19.0781C39.0722 19.0781 38.0209 18.0449 38.0209 16.4697C38.0209 14.8898 39.0722 13.8748 40.6997 13.8748ZM38.0209 9.4166L35.189 8.68677V20.9255H38.0209V20.0784C38.8176 20.8757 39.8519 21.2312 41.2594 21.2312C44.3283 21.2312 46.4298 19.2641 46.4298 16.4521C46.4298 13.5838 44.3101 11.67 41.2083 11.67C39.7668 11.67 38.7325 12.0907 38.0209 12.8575V9.4166ZM96.9384 20.9255V12.4744H99.7692V12.9965C100.617 11.9757 101.514 11.4676 102.534 11.4676C102.737 11.4676 102.991 11.5005 103.33 11.5339V13.9434C103.057 13.9077 102.753 13.9077 102.43 13.9077C100.785 13.9077 99.7692 14.993 99.7692 16.8387V20.9255H96.9384ZM107 11.477H106.782L106.79 10.702L106.802 10.4456L106.743 10.6568L106.486 11.477H106.288L106.036 10.6568L105.972 10.4492L105.987 10.702L105.995 11.477H105.782V10.2215H106.08L106.394 11.2118L106.701 10.2215H107V11.477ZM105.28 11.477H105.061V10.4075H104.657V10.2215H105.676V10.4075H105.28V11.477Z" fill="#0E548B"/>
</svg>
