<svg width="150" height="31" viewBox="0 0 150 31" fill="none" xmlns="http://www.w3.org/2000/svg">
<path d="M8.93862 14.9569C8.8701 16.1661 9.7983 17.2058 11.0069 17.275C11.0495 17.2772 11.0918 17.2786 11.1334 17.2786C12.2961 17.2786 13.2589 16.3686 13.3251 15.2061C13.3939 13.997 12.4663 12.9572 11.2567 12.8886C10.0401 12.8175 9.0075 13.7529 8.93862 14.9569Z" fill="white"/>
<path d="M0.750011 14.396C0.35881 14.3735 0.0229284 14.6729 0.00120842 15.0645C-0.021471 15.4557 0.277811 15.7917 0.66913 15.8139C1.06069 15.8361 1.39645 15.5366 1.41889 15.1454C1.44061 14.7533 1.14157 14.4182 0.750011 14.396Z" fill="white"/>
<path d="M8.79932 2.2117C9.14924 2.03542 9.29048 1.60835 9.11395 1.25794C8.93707 0.908136 8.51048 0.766896 8.15984 0.943658C7.81003 1.11994 7.66916 1.54702 7.84567 1.89706C8.0222 2.24746 8.44879 2.38798 8.79932 2.2117Z" fill="white"/>
<path d="M11.0279 6.09781C11.5694 5.82529 11.787 5.16541 11.5142 4.62433C11.2415 4.08325 10.5815 3.86546 10.0403 4.13798C9.4992 4.41061 9.28128 5.0705 9.55427 5.6117C9.82704 6.15301 10.4867 6.37093 11.0279 6.09781Z" fill="white"/>
<path d="M3.52938 8.76957C3.94698 9.04342 4.50714 8.92714 4.78098 8.50942C5.05446 8.0923 4.93806 7.53202 4.5207 7.25854C4.10286 6.9847 3.54306 7.10122 3.26922 7.51869C2.99538 7.93594 3.11214 8.49622 3.52938 8.76957Z" fill="white"/>
<path d="M4.86451 14.0001C4.25971 13.9656 3.74131 14.4281 3.70639 15.0333C3.67195 15.6387 4.13479 16.1567 4.73971 16.1917C5.34499 16.226 5.86387 15.7633 5.89807 15.1581C5.93239 14.5527 5.46979 14.0342 4.86451 14.0001Z" fill="white"/>
<path d="M3.6493 21.3739C3.20374 21.5983 3.02458 22.1421 3.24934 22.5876C3.47374 23.0334 4.01746 23.2123 4.46278 22.9879C4.90846 22.7629 5.08786 22.2198 4.86298 21.7738C4.63858 21.3285 4.09534 21.1489 3.6493 21.3739Z" fill="white"/>
<path d="M7.91227 11.7332C8.50867 12.1244 9.30919 11.9579 9.69979 11.3613C10.091 10.7655 9.92455 9.96499 9.32827 9.57438C8.73199 9.18294 7.93183 9.34963 7.54087 9.94542C7.14955 10.5421 7.31611 11.3422 7.91227 11.7332Z" fill="white"/>
<path d="M21.439 6.01051C21.9459 6.34279 22.626 6.20119 22.9583 5.69419C23.2908 5.18779 23.1497 4.5075 22.6427 4.17487C22.1362 3.84235 21.4555 3.98359 21.1232 4.49095C20.7907 4.99735 20.9325 5.67799 21.439 6.01051Z" fill="white"/>
<path d="M23.6902 2.13733C24.0177 2.35248 24.4583 2.26068 24.6733 1.93297C24.888 1.60489 24.7966 1.16485 24.4687 0.949683C24.1413 0.734402 23.701 0.826321 23.4855 1.15393C23.2703 1.48212 23.3622 1.92204 23.6902 2.13733Z" fill="white"/>
<path d="M21.6115 12.8661C20.3951 12.7954 19.3618 13.7305 19.2936 14.934C19.2249 16.1435 20.1526 17.1833 21.3616 17.2522C21.4037 17.2545 21.4462 17.2557 21.4881 17.2557C22.6507 17.2557 23.6134 16.3457 23.6794 15.1841C23.7129 14.5979 23.5158 14.034 23.1252 13.5967C22.7352 13.1585 22.1971 12.8992 21.6115 12.8661Z" fill="white"/>
<path d="M11.7494 11.5813C12.1247 12.3264 12.8768 12.7898 13.7126 12.7898C14.0523 12.7898 14.3938 12.7082 14.6993 12.5545C15.781 12.0093 16.2176 10.6857 15.6725 9.60403C15.2967 8.85835 14.5449 8.39551 13.7093 8.39551C13.3696 8.39551 13.0281 8.47711 12.7226 8.63047C11.641 9.17563 11.2043 10.499 11.7494 11.5813Z" fill="white"/>
<path d="M28.969 8.76735C29.4143 8.54271 29.5941 7.99935 29.3693 7.5532C29.1445 7.10739 28.6012 6.92848 28.1555 7.15311C27.7097 7.37752 27.5303 7.92111 27.7552 8.36679C27.9801 8.81235 28.523 8.99151 28.969 8.76735Z" fill="white"/>
<path d="M23.3981 9.4672C22.7609 9.78796 22.5052 10.5644 22.8258 11.2011C23.1468 11.8379 23.923 12.0936 24.5598 11.7731C25.1964 11.4521 25.4527 10.6757 25.1321 10.0389C24.8111 9.40228 24.0346 9.14596 23.3981 9.4672Z" fill="white"/>
<path d="M16.2268 1.80616C16.725 1.83449 17.152 1.45372 17.1804 0.955C17.2086 0.45688 16.8277 0.0296876 16.3295 0.00148212C15.831 -0.0268406 15.4038 0.354165 15.3755 0.852644C15.3474 1.35089 15.7282 1.77785 16.2268 1.80616Z" fill="white"/>
<path d="M16.2165 7.49254C16.9283 7.53298 17.5384 6.98854 17.579 6.27658C17.6194 5.56462 17.075 4.95418 16.3628 4.91398C15.6513 4.87354 15.0413 5.41774 15.0006 6.12994C14.9602 6.84166 15.5047 7.45174 16.2165 7.49254Z" fill="white"/>
<path d="M9.22057 20.6741C9.85765 20.3531 10.1137 19.5767 9.79321 18.9401C9.47209 18.3035 8.69557 18.047 8.05909 18.3683C7.42237 18.6891 7.16617 19.4649 7.48693 20.102C7.80793 20.7386 8.58397 20.9947 9.22057 20.6741Z" fill="white"/>
<path d="M17.0511 9.37644C16.3868 10.3894 16.6704 11.7536 17.6832 12.418C18.0423 12.6535 18.4581 12.7781 18.886 12.7781C19.6304 12.7781 20.317 12.4073 20.725 11.7859C21.389 10.7728 21.1054 9.408 20.0926 8.74439C19.7335 8.50883 19.3178 8.38403 18.8899 8.38403C18.1456 8.38403 17.4586 8.75507 17.0511 9.37644Z" fill="white"/>
<path d="M20.8695 18.56C20.4937 17.814 19.7413 17.3511 18.9063 17.3511C18.5662 17.3511 18.2245 17.4321 17.919 17.5864C17.3952 17.8504 17.0057 18.3027 16.822 18.8603C16.6378 19.4172 16.6818 20.0124 16.9463 20.5368C17.3216 21.2822 18.0738 21.7454 18.9087 21.7454C19.2491 21.7454 19.5903 21.6641 19.8964 21.51C20.9779 20.9652 21.4145 19.6414 20.8695 18.56Z" fill="white"/>
<path d="M24.7062 18.4073C24.1104 18.0167 23.3095 18.1832 22.9185 18.779C22.5274 19.3752 22.6944 20.1759 23.2903 20.5667C23.8867 20.9576 24.6867 20.7915 25.0779 20.1948C25.469 19.5989 25.3029 18.7983 24.7062 18.4073Z" fill="white"/>
<path d="M28.9118 15.1077C28.9466 14.5025 28.4835 13.9836 27.878 13.9491C27.2732 13.9147 26.7548 14.3772 26.7201 14.983C26.6854 15.5878 27.1482 16.1064 27.7538 16.141C28.3586 16.1755 28.8776 15.7122 28.9118 15.1077Z" fill="white"/>
<path d="M31.9496 14.3271C31.5576 14.3051 31.2226 14.6041 31.1999 14.9958C31.1777 15.3873 31.477 15.7231 31.8689 15.7452C32.2602 15.7674 32.5957 15.4681 32.6179 15.0765C32.6406 14.6848 32.3412 14.3491 31.9496 14.3271Z" fill="white"/>
<path d="M29.0894 21.3708C28.6717 21.097 28.1112 21.2136 27.8382 21.631C27.5643 22.0482 27.6807 22.6087 28.0982 22.8824C28.5154 23.1562 29.0754 23.0398 29.3498 22.6221C29.6229 22.2043 29.507 21.6446 29.0894 21.3708Z" fill="white"/>
<path d="M8.92873 28.0037C8.60088 27.7884 8.16061 27.8801 7.94556 28.2079C7.7304 28.5361 7.82185 28.9761 8.14992 29.1912C8.47776 29.4065 8.91804 29.3145 9.13272 28.9869C9.34813 28.6585 9.25657 28.2186 8.92873 28.0037Z" fill="white"/>
<path d="M23.819 27.9292C23.4692 28.1051 23.3283 28.5321 23.5049 28.8827C23.6811 29.2325 24.1079 29.3734 24.4586 29.1967C24.8084 29.0202 24.9497 28.5936 24.7731 28.2436C24.5967 27.8934 24.1695 27.7527 23.819 27.9292Z" fill="white"/>
<path d="M15.5678 20.7639C15.8894 20.2733 16.0011 19.6867 15.8816 19.1125C15.7619 18.5383 15.426 18.0446 14.9354 17.7229C14.5762 17.4873 14.16 17.3625 13.732 17.3625C12.9884 17.3625 12.301 17.7333 11.8935 18.3551C11.5718 18.8457 11.4603 19.4324 11.5802 20.0067C11.6993 20.5809 12.0356 21.0746 12.5261 21.3963C12.8854 21.6319 13.3012 21.7562 13.7291 21.7562C14.473 21.7563 15.1601 21.3854 15.5678 20.7639Z" fill="white"/>
<path d="M11.1798 24.1304C10.673 23.7978 9.99297 23.9394 9.66045 24.4461C9.32793 24.9531 9.46929 25.6331 9.97617 25.9658C10.4831 26.298 11.1636 26.1567 11.4959 25.6498C11.8285 25.1427 11.6864 24.4626 11.1798 24.1304Z" fill="white"/>
<path d="M16.299 28.3345C15.8008 28.3061 15.3737 28.6872 15.3452 29.1854C15.3168 29.6841 15.6976 30.1109 16.1962 30.1395C16.6944 30.1676 17.1218 29.7866 17.1499 29.2881C17.178 28.7899 16.7972 28.3626 16.299 28.3345Z" fill="white"/>
<path d="M16.3092 22.6483C15.5977 22.6081 14.9873 23.1521 14.9469 23.8641C14.9065 24.5759 15.4506 25.1862 16.1625 25.2264C16.8749 25.2672 17.4848 24.7227 17.525 24.0108C17.5659 23.2989 17.0214 22.6887 16.3092 22.6483Z" fill="white"/>
<path d="M21.5907 24.0426C21.0498 24.3157 20.832 24.9751 21.1052 25.5167C21.3775 26.0583 22.0375 26.2753 22.5788 26.0027C23.1202 25.7302 23.3374 25.0703 23.065 24.529C22.7922 23.9877 22.1326 23.77 21.5907 24.0426Z" fill="white"/>
<path d="M45.8234 9.88163C47.9497 9.88163 49.4385 11.0511 49.4385 13.2203H52.2243C52.2243 9.41351 49.417 7.58447 45.7808 7.58447C41.3148 7.58447 38.7202 10.0091 38.7202 15.1342C38.7202 20.3872 41.3148 22.6838 45.7808 22.6838C49.46 22.6838 52.2243 20.8974 52.2243 17.0906H49.5448C49.5448 19.2173 48.0775 20.3872 45.8234 20.3872C42.867 20.3872 41.5064 18.7493 41.5064 15.3469V14.9215C41.5064 11.5829 42.8885 9.88163 45.8234 9.88163Z" fill="white"/>
<path d="M59.5885 7.84009L53.9102 22.4288H56.7174L57.887 19.2603H64.5651L65.7556 22.4288H68.6904L63.0124 7.84009H59.5885ZM58.7378 16.9634L60.2266 12.9652C60.5242 12.1784 61.0559 10.4769 61.1622 10.1794H61.2685C61.3745 10.477 61.9067 12.1997 62.2042 12.9652L63.6927 16.9634H58.7378Z" fill="white"/>
<path d="M83.8787 12.2632C83.8787 9.56257 82.3266 7.83984 79.1152 7.83984H71.417V22.4286H74.1391V16.7928H78.6687L81.433 22.4286H84.4108L81.2845 16.3678C83.0073 15.6871 83.8787 14.2412 83.8787 12.2632ZM78.9026 14.4961H74.1391V10.158H78.9026C80.3699 10.158 81.1355 10.9447 81.1355 12.2632C81.1355 13.6458 80.3062 14.4961 78.9026 14.4961Z" fill="white"/>
<path d="M93.4295 7.84009H87.6025V22.4288H93.4295C97.8317 22.4288 100.512 20.1322 100.512 15.1345C100.512 10.1369 97.8317 7.84009 93.4295 7.84009ZM97.7254 15.3471C97.7043 18.5371 96.1942 20.1106 93.4295 20.1106H90.3246V10.1583H93.4295C96.1942 10.1583 97.7254 11.7321 97.7254 14.9218V15.3471Z" fill="white"/>
<path d="M107.638 7.84009L101.959 22.4288H104.766L105.936 19.2603H112.614L113.805 22.4288H116.74L111.061 7.84009H107.638ZM106.787 16.9634L108.276 12.9652C108.574 12.1784 109.105 10.4769 109.212 10.1794H109.318C109.424 10.477 109.956 12.1997 110.254 12.9652L111.742 16.9634H106.787Z" fill="white"/>
<path d="M129.185 16.5164C129.185 16.7929 129.227 17.5373 129.227 17.6652L129.121 17.7074C129.057 17.6226 128.632 16.8781 128.398 16.5379L122.06 7.83984H119.466V22.4286H122.082V13.688C122.082 13.3267 122.039 12.625 122.039 12.5186L122.146 12.4549C122.209 12.5398 122.528 13.1568 122.868 13.6459L129.248 22.4288H131.8V7.83996H129.185L129.185 16.5164Z" fill="white"/>
<path d="M142.642 7.58472C138.069 7.58472 135.305 10.0093 135.305 15.1344C135.305 20.2595 138.069 22.6841 142.642 22.6841C147.214 22.6841 150 20.2595 150 15.1344C150 10.0093 147.214 7.58472 142.642 7.58472ZM147.214 15.3682C147.214 18.7073 145.619 20.3873 142.642 20.3873C139.686 20.3873 138.091 18.7072 138.091 15.3682V14.9216C138.091 11.583 139.707 9.88176 142.642 9.88176C145.598 9.88176 147.214 11.583 147.214 14.9216V15.3682Z" fill="white"/>
</svg>
