<svg version="1.2" xmlns="http://www.w3.org/2000/svg" viewBox="0 0 251 257" width="251" height="257">
	<title>title-decoration</title>
	<style>
		.s0 { fill: #ffffff } 
	</style>
	<path class="s0" d="m250.8 89c-9.5-29.2-29.4-54.3-55.5-70.3-26.1-16-57.2-21.9-87.5-17.1-30.3 4.8-57.6 20.7-77.5 44-19.9 23.3-30.3 52.4-30.3 83 0 30.7 11 60 30.9 83.3 20 23.3 46.8 38.8 77.1 43.5 30.3 4.7 61.2-1.1 87.3-17.2 26.1-16.1 46.1-41.1 55.5-70.3h-9.4c-9.8 26.7-26.6 47.9-50.8 62.7-24.2 14.9-53.1 20.2-81.1 15.8-28-4.3-53.5-19-71.9-40.5-18.5-21.6-28.6-48.8-28.6-77.2-0.1-28.4 9.9-55.8 28.3-77.4 18.4-21.5 44-36.5 72-40.9 28-4.5 56.9 0.9 81.1 15.8 24.5 15.1 41 35.8 51 62.8z"/>
	<path class="s0" d="m84.1 20.2c0 8.6-7 15.6-15.6 15.6-8.6 0-15.6-7-15.6-15.6 0-8.6 7-15.6 15.6-15.6 8.6 0 15.6 7 15.6 15.6z"/>
</svg>