<svg version="1.2" xmlns="http://www.w3.org/2000/svg" viewBox="0 0 150 35" width="150" height="35"><style>.a{fill:#1d63ed}</style><path class="a" d="m49.4 15c-0.9-0.6-3.1-0.9-4.7-0.4-0.1-1.6-0.9-3-2.4-4.2l-0.6-0.3-0.4 0.5c-0.7 1.1-1 2.6-0.9 4 0.1 0.8 0.4 1.7 0.9 2.4-2.1 1.2-4 1-12.6 1h-13.2c0 1.9 0.3 5.6 2.7 8.6q0.4 0.5 0.8 1c1.9 1.9 4.8 3.3 9.2 3.3 6.6 0.1 12.3-3.5 15.7-12.2 1.2 0 4.2 0.2 5.6-2.6 0.1-0.1 0.4-0.8 0.4-0.8l-0.5-0.3zm-25.3-2h-3.7v3.7h3.7zm4.9 0h-3.8v3.7h3.8zm4.8 0h-3.8v3.7h3.8zm4.8 0h-3.8v3.7h3.8zm-19.2 0h-3.8v3.7h3.7v-3.7zm4.8-4.7h-3.7v3.7h3.7zm4.9 0h-3.8v3.8h3.8zm4.8 0h-3.8v3.7h3.8zm-0.1-4.7h-3.7v3.7h3.7z"/><path class="a" d="m134.2 25.2c0 1-0.7 1.7-1.7 1.7-1 0-1.7-0.7-1.7-1.7 0-1 0.7-1.7 1.7-1.7 1 0 1.7 0.8 1.7 1.7zm-3 0c0 0.8 0.5 1.4 1.3 1.4 0.8 0 1.3-0.6 1.3-1.4 0-0.7-0.5-1.3-1.3-1.3-0.8 0-1.3 0.6-1.3 1.3zm1 0.9h-0.4v-1.7q0.3 0 0.7 0c0.3 0 0.5 0 0.6 0.1q0.1 0.1 0.2 0.4c0 0.1-0.2 0.3-0.4 0.3v0.1q0.2 0 0.3 0.4c0.1 0.2 0.1 0.3 0.1 0.4h-0.4c0-0.1-0.1-0.2-0.1-0.4q-0.1-0.3-0.4-0.3h-0.2v0.7zm0-1h0.2c0.3 0 0.4 0 0.4-0.2q0-0.3-0.3-0.3-0.2 0-0.3 0.1z"/><path class="a" d="m67.4 8q-0.4-0.4-0.9-0.4-0.5 0-0.9 0.4-0.3 0.3-0.3 0.9v6.1q-1.9-1.5-4.2-1.5-2.8 0-4.8 2-1.9 2-1.9 4.8 0 2.8 1.9 4.8 2 2 4.8 2 2.7 0 4.7-2 1.9-1.9 1.9-4.8v-11.4q0-0.6-0.3-0.9zm-2.5 14q-0.3 0.7-0.9 1.3-0.5 0.6-1.3 0.9-0.8 0.4-1.6 0.4-0.9 0-1.7-0.4-0.7-0.3-1.3-0.9-0.6-0.6-0.9-1.3-0.3-0.8-0.3-1.7 0-0.9 0.3-1.6 0.3-0.8 0.9-1.4 0.6-0.6 1.3-0.9 0.8-0.4 1.7-0.4 0.8 0 1.6 0.4 0.8 0.3 1.3 0.9 0.6 0.6 0.9 1.4 0.4 0.7 0.4 1.6 0 0.9-0.4 1.7z"/><path class="a" d="m122.5 17.7q-0.4-1.2-1.4-2.2-2-2-4.8-2-2.7 0-4.7 2-1.9 2-1.9 4.8 0 2.8 1.9 4.8 2 2 4.7 2 2.6 0 4.4-1.6 0.4-0.4 0.4-0.9 0-0.6-0.4-0.9-0.3-0.4-0.9-0.4-0.4 0-0.8 0.3-0.5 0.5-1.2 0.8-0.7 0.2-1.4 0.2-0.7 0-1.4-0.2-0.6-0.2-1.1-0.6-0.6-0.4-1-1-0.4-0.5-0.6-1.2h9.5q0.5 0 0.9-0.4 0.3-0.3 0.3-0.9 0-1.4-0.5-2.6zm-10.2 1.3q0.2-0.6 0.6-1.2 0.4-0.5 0.9-0.9 0.6-0.4 1.2-0.6 0.7-0.3 1.3-0.3 0.7 0 1.4 0.3 0.6 0.2 1.1 0.6 0.6 0.4 1 0.9 0.4 0.6 0.6 1.2z"/><path class="a" d="m134.1 14.3q-0.3-0.3-0.8-0.5-0.5-0.2-1.1-0.2-0.6-0.1-1.1-0.1-1.2 0-2.3 0.4-1 0.4-1.9 1.1v-0.2q0-0.6-0.4-0.9-0.3-0.4-0.9-0.4-0.5 0-0.8 0.4-0.4 0.3-0.4 0.9v11.1q0 0.5 0.4 0.9 0.3 0.3 0.8 0.3 0.6 0 0.9-0.3 0.4-0.4 0.4-0.9v-5.6q0-0.9 0.3-1.7 0.3-0.7 0.9-1.3 0.6-0.6 1.3-0.9 0.8-0.4 1.7-0.4 0.8 0 1.6 0.3 0.3 0.2 0.5 0.2 0.3 0 0.5-0.1 0.2-0.1 0.4-0.3 0.2-0.2 0.3-0.4 0.1-0.2 0.1-0.5 0-0.5-0.4-0.9z"/><path class="a" d="m82 17.7q-0.5-1.2-1.4-2.2-2-2-4.8-2-2.7 0-4.7 2-1.9 2-1.9 4.8 0 2.8 1.9 4.8 2 2 4.7 2 2.8 0 4.8-2 1.9-1.9 1.9-4.8 0-1.4-0.5-2.6zm-2.3 4.3q-0.3 0.7-0.9 1.3-0.6 0.6-1.3 0.9-0.8 0.4-1.7 0.4-0.8 0-1.6-0.4-0.8-0.3-1.3-0.9-0.6-0.6-0.9-1.3-0.3-0.8-0.3-1.7 0-0.9 0.3-1.6 0.3-0.8 0.9-1.4 0.5-0.6 1.3-0.9 0.8-0.4 1.6-0.4 0.9 0 1.7 0.4 0.7 0.3 1.3 0.9 0.6 0.6 0.9 1.4 0.3 0.7 0.3 1.6 0 0.9-0.3 1.7z"/><path class="a" d="m108.7 14.8q0-0.3-0.1-0.5-0.1-0.3-0.2-0.4-0.2-0.2-0.4-0.3-0.3-0.1-0.5-0.1-0.4 0-0.7 0.2l-7.1 4.7v-9.5q0-0.5-0.4-0.9-0.3-0.4-0.9-0.4-0.5 0-0.8 0.4-0.4 0.4-0.4 0.9v17q0 0.5 0.4 0.9 0.3 0.3 0.8 0.3 0.6 0 0.9-0.3 0.4-0.4 0.4-0.9v-4.4l1.4-1 5.5 6.3q0.4 0.3 0.9 0.3 0.2 0 0.5-0.1 0.2-0.1 0.4-0.2 0.1-0.2 0.2-0.4 0.1-0.3 0.1-0.5 0-0.5-0.3-0.9l-5.1-5.9 5-3.3q0.4-0.4 0.4-1.1v0.1z"/><path class="a" d="m87.6 17.3q0.6-0.6 1.4-0.9 0.7-0.4 1.6-0.4 0.8 0 1.4 0.3 0.7 0.3 1.3 0.8 0.4 0.3 0.8 0.3 0.6 0 0.9-0.4 0.4-0.3 0.4-0.9 0-0.5-0.5-1-1.8-1.6-4.3-1.6-2.8 0-4.7 2-2 2-2 4.8 0 2.8 2 4.8 1.9 2 4.7 2 2.5 0 4.3-1.6 0.4-0.4 0.4-1 0-0.5-0.3-0.9-0.4-0.3-0.9-0.3-0.5 0-0.8 0.3-0.6 0.5-1.3 0.7-0.6 0.3-1.4 0.3-0.9 0-1.6-0.3-0.8-0.4-1.4-1-0.6-0.5-0.9-1.3-0.3-0.8-0.3-1.7 0-0.9 0.3-1.7 0.3-0.7 0.9-1.3z"/></svg>