<svg width="406" height="257" viewBox="0 0 406 257" fill="none" xmlns="http://www.w3.org/2000/svg">
<path d="M250.789 88.9851C241.345 59.8103 221.432 34.7405 195.295 18.7015C169.159 2.66255 138.074 -3.16579 107.786 1.62659C77.4974 6.41897 50.2165 22.2702 30.3083 45.5946C10.4001 68.919 -0.0240679 97.9563 4.17263e-05 128.622C0.0241513 159.287 11.0036 188.569 30.9484 211.862C50.8932 235.155 77.7031 250.658 107.999 255.403C138.295 260.148 169.226 254.291 195.337 238.211C221.448 222.13 241.39 197.084 250.788 167.894H241.397C231.579 194.574 214.752 215.77 190.599 230.644C166.446 245.519 137.517 250.828 109.493 246.439C81.4693 242.05 56.0139 227.432 37.5649 205.886C19.116 184.34 8.98678 157.081 8.96448 128.716C8.94218 100.35 18.8834 72.9088 37.2985 51.3337C55.7136 29.7587 81.2631 14.8105 109.28 10.3775C137.297 5.94455 166.21 11.3358 190.386 26.1719C214.931 41.3259 231.366 62.0293 241.398 88.9851H250.789Z" fill="url(#paint0_linear_13_1637)"/>
<path d="M84.0942 20.1956C84.0942 28.8007 77.1184 35.7765 68.5133 35.7765C59.9082 35.7765 52.9324 28.8007 52.9324 20.1956C52.9324 11.5905 59.9082 4.61474 68.5133 4.61474C77.1184 4.61474 84.0942 11.5905 84.0942 20.1956Z" fill="url(#paint1_linear_13_1637)"/>
<path d="M195.295 95.3254C179.703 97.4464 169.735 108.027 167.761 124.353C166.429 135.204 169.903 146.422 177.157 153.426C185.594 161.516 201.347 164.436 214.077 159.997C217.63 158.764 223.038 155.452 224.963 153.38L226.03 152.527L218.773 145.27L216.639 147.191C211.852 151.285 204.304 152.938 197.643 152.1C191.82 151.36 188.455 149.658 185.05 146.55C180.165 141.963 177.847 135.67 177.847 128.222C177.847 121.415 179.969 116.039 184.459 111.304C189.048 106.421 194.476 104.322 202.765 104.717C206.959 104.914 208.292 105.336 211.154 106.667C212.979 107.555 215.348 108.936 216.433 109.775L218.407 111.353L221.812 107.95L225.266 104.546L222.749 102.228C219.789 99.5646 214.38 96.7881 210.236 95.7523C206.436 94.8152 199.44 94.7336 195.295 95.3254Z" fill="white"/>
<path d="M46.5293 106.273H94.4582V95.9147H46.5293V106.273Z" fill="white"/>
<path d="M113.122 160.851H157.73V151.032H123.57V95.9657H113.122V160.851Z" fill="white"/>
<path d="M242.038 160.851H252.355V133.894H286.401V160.851H296.763V124.24H252.355V95.9146H242.038V160.851Z" fill="white"/>
<path d="M286.401 119.097H296.763V95.9147H286.401V119.097Z" fill="white"/>
<path d="M326.345 127.341C318.598 144.604 311.602 160.357 311.405 160.851H322.503L333.602 135.238C339.671 121.378 345.636 108.018 345.981 107.278C345.981 107.278 346.634 108.506 357.934 133.958L369.886 160.851H380.772C380.673 160.555 373.738 145.091 365.942 127.729L351.744 96.0626H340.432L326.345 127.341Z" fill="white"/>
<path d="M395.072 160.851H405.53V95.9146L400.194 95.9657L395.072 95.9146V160.851Z" fill="white"/>
<path d="M46.5293 160.851H94.4582V150.606H56.9578V133.401H94.4582V123.536H46.5293V160.851Z" fill="white"/>
<path d="M346.195 131.396L359.134 160.851H333.256L346.195 131.396Z" fill="url(#paint2_linear_13_1637)"/>
<defs>
<linearGradient id="paint0_linear_13_1637" x1="302.68" y1="-0.0808924" x2="92.1524" y2="391.513" gradientUnits="userSpaceOnUse">
<stop stop-color="#16E0FF"/>
<stop offset="0.305" stop-color="#64ADFF"/>
<stop offset="0.715" stop-color="#B27AFF"/>
<stop offset="1" stop-color="#3EC6FF"/>
</linearGradient>
<linearGradient id="paint1_linear_13_1637" x1="377.754" y1="61.6096" x2="125.96" y2="293.642" gradientUnits="userSpaceOnUse">
<stop stop-color="#4BBEFF"/>
<stop offset="1" stop-color="#5FB1FF"/>
</linearGradient>
<linearGradient id="paint2_linear_13_1637" x1="346.195" y1="131.396" x2="346.195" y2="160.851" gradientUnits="userSpaceOnUse">
<stop stop-color="#AA7FFF"/>
<stop offset="1" stop-color="#45C1FF"/>
</linearGradient>
</defs>
</svg>
