<svg width="159" height="40" viewBox="0 0 159 40" fill="none" xmlns="http://www.w3.org/2000/svg">
<path d="M2.13913 13.074C1.97913 12.9898 1.4065 12.6698 1.17071 11.9877C1.10334 11.8024 0.968602 11.3224 1.17071 10.8087C1.21281 10.7077 1.39808 10.2193 1.74334 10.1771C1.9286 10.1519 2.08018 10.2782 2.13071 10.3035C4.3286 11.4319 6.50966 12.6108 8.69071 13.7729C12.6739 15.8866 16.6823 17.9835 20.6402 20.1477C21.8612 20.8129 22.9054 20.7793 24.1265 20.114C30.0212 16.9224 35.9497 13.7982 41.8781 10.674C42.3328 10.4298 42.5518 10.2614 43.0823 10.4129C43.5791 10.9435 43.2002 12.7877 42.6949 13.0824C42.0044 13.5035 41.4318 13.6635 40.7244 14.0424C39.5118 14.6993 38.2991 15.3477 37.0781 16.0045C34.8718 17.1414 35.1665 16.9982 34.2823 17.5035C32.6907 18.3877 31.2844 19.095 29.6086 20.0887C28.5812 20.6866 28.236 20.754 27.1412 21.4445C26.257 21.9666 26.2654 23.0277 26.4591 23.9287C25.3981 24.5098 24.3286 25.1077 23.2676 25.6887C22.6949 26.0087 22.1307 26.0508 21.5328 25.7224C20.4297 25.0993 19.3097 24.5098 18.1981 23.9035C17.8949 23.0361 17.6002 22.1603 17.297 21.2929C12.2444 18.5561 7.20018 15.8108 2.14755 13.074H2.13913Z" fill="#0B3C84" stroke="white" stroke-width="0.757895" stroke-linejoin="bevel"/>
<path d="M27.4701 29.2677C27.2932 29.3856 26.8132 29.7309 26.5437 30.3877C26.2574 31.0867 26.3922 31.7098 26.4427 31.9119C26.4006 31.9372 26.3585 31.9541 26.3164 31.9709C23.6216 33.4362 20.9241 33.4081 18.2237 31.8867C18.1816 31.0277 18.2406 29.8319 17.2301 29.293C16.489 28.8383 15.3858 28.274 14.6532 27.8109C13.0869 26.8593 12.388 26.3962 10.7627 25.5119C10.4427 25.3098 9.78585 24.9898 9.38164 24.7793C8.89321 24.5211 8.39356 24.2516 7.88269 23.9709C6.03848 22.9941 4.14374 22.0509 2.29111 21.0909C1.4069 20.6193 0.851108 19.0614 1.289 18.1772C1.49111 17.7477 1.94585 18.1183 2.19006 18.253C5.609 20.0383 9.00269 21.8572 12.4048 23.6677C15.2174 25.1667 18.0469 26.6404 20.8427 28.1646C21.9037 28.7372 22.889 28.7035 23.9501 28.1309C30.0722 24.8551 36.2111 21.6214 42.3332 18.3288C43.209 17.8572 43.4195 17.933 43.4532 18.9604C43.4785 19.5667 43.3943 20.0467 43.1585 20.4341C42.8301 20.9646 42.3164 21.1919 42.0806 21.293C41.0616 21.7562 39.3858 22.6656 37.0532 23.9793C33.8616 25.7477 30.6616 27.5077 27.4701 29.2762V29.2677Z" fill="#0B3C84" stroke="white" stroke-width="0.757895" stroke-linejoin="bevel"/>
<path d="M37.7012 8.87183C32.9602 6.35394 28.2107 3.85288 23.4781 1.30972C22.6191 0.846566 21.9117 0.930776 21.0865 1.37709C16.4802 3.8613 11.857 6.29499 7.24227 8.75393C6.91385 8.93078 6.62753 9.00657 6.57701 9.41078C6.50964 9.94972 6.87174 10.0676 7.20859 10.2445C11.8991 12.7624 16.6149 15.1876 21.3139 17.6887C21.6507 17.8739 21.9875 18.0339 22.5854 18.0003C22.7202 17.9497 23.0402 17.8571 23.3265 17.7055C28.1602 15.1371 32.977 12.5603 37.8191 10.0255C38.9307 9.45288 38.3075 9.18341 37.7012 8.86341V8.87183ZM30.6612 9.91604C28.0675 11.2971 25.4654 12.6781 22.8633 14.0508C22.5686 14.2024 22.2149 14.2024 21.9033 14.0676C21.7854 14.0171 21.6591 13.9581 21.5496 13.8992C19.1581 12.636 16.7665 11.3729 14.3749 10.1013C14.097 9.94972 13.7265 9.8992 13.7181 9.51183C13.7181 9.11604 14.0802 9.03183 14.3581 8.88025C16.6991 7.61709 19.0486 6.3792 21.3896 5.11604C21.9623 4.80446 22.5012 4.69499 23.1244 5.04025C25.5833 6.38762 28.0591 7.68446 30.5349 8.99815C31.0317 9.25078 31.4444 9.50341 30.6696 9.91604H30.6612Z" fill="#0B3C84" stroke="white" stroke-width="0.757895" stroke-linejoin="bevel"/>
<path d="M24.1688 35.6509C33.7098 30.8004 39.9161 27.3898 41.8109 26.2783C42.3246 25.9751 42.914 25.5877 43.133 25.8909C43.6551 26.6235 43.0488 28.3161 42.6362 28.6193C42.2909 28.8635 42.1477 28.8888 41.7688 29.0909C35.8067 32.2656 29.8362 35.4319 23.8825 38.6151C22.8214 39.1877 21.8446 39.1961 20.7667 38.6319C14.6025 35.3225 8.89299 32.2825 2.70352 29.0319C1.85299 28.5856 1.37299 28.1814 1.1372 27.2214C0.741413 25.6214 1.21299 25.4614 2.40878 26.093C8.42141 29.2761 14.4425 32.434 20.4298 35.6761C20.7162 35.8446 21.3814 36.173 22.2825 36.173C23.2088 36.173 23.8825 35.8277 24.1688 35.6593V35.6509Z" fill="#0B3C84" stroke="white" stroke-width="0.757895" stroke-linejoin="bevel"/>
<path d="M116.775 11.6422C116.775 11.5833 116.775 11.5328 116.792 11.4738H115.293V11.5159C115.242 11.8528 115.024 12.097 114.712 12.1728C114.594 12.198 114.459 12.2149 114.341 12.2149H110.047C109.929 12.2149 109.794 12.198 109.676 12.1728C109.39 12.1054 109.205 11.937 109.129 11.6843C109.095 11.5833 109.078 11.4738 109.078 11.3643C109.078 11.2043 109.078 11.0359 109.078 10.8675V10.5306L116.809 10.5475V8.76223C116.809 8.56854 116.792 8.40012 116.767 8.24012C116.699 7.81065 116.506 7.44854 116.177 7.16223C115.739 6.77486 115.2 6.58117 114.577 6.57275C113.895 6.57275 113.213 6.57275 112.523 6.57275H109.811C109.676 6.57275 109.516 6.5896 109.356 6.61486C109.078 6.66539 108.834 6.7496 108.598 6.88433C108.253 7.07802 107.984 7.33907 107.807 7.65907C107.647 7.95381 107.563 8.26539 107.563 8.62749V11.3728C107.563 11.4738 107.562 11.5917 107.588 11.7012C107.672 12.2822 107.984 12.7454 108.514 13.0654C108.91 13.3012 109.365 13.4191 109.853 13.4191H114.51C114.914 13.4191 115.293 13.3349 115.638 13.1749C116.312 12.8633 116.682 12.358 116.767 11.6591L116.775 11.6422ZM109.07 8.5096C109.087 8.13907 109.314 7.8696 109.685 7.79381C109.802 7.76854 109.937 7.7517 110.064 7.7517H114.316C114.442 7.7517 114.628 7.7517 114.796 7.81907C115.099 7.92012 115.268 8.13907 115.293 8.45065C115.31 8.62749 115.293 8.81276 115.293 8.9896V9.31802H109.061V8.98118C109.061 8.83802 109.061 8.6696 109.061 8.5096H109.07Z" fill="white"/>
<path d="M149.55 8.22328C149.483 7.7938 149.289 7.4317 148.96 7.14538C148.523 6.75801 147.984 6.56433 147.36 6.55591C146.678 6.55591 145.996 6.55591 145.306 6.55591H142.594C142.459 6.55591 142.299 6.57275 142.139 6.59801C141.861 6.64854 141.617 6.73275 141.381 6.86749C141.036 7.06117 140.767 7.32222 140.59 7.64222C140.43 7.93696 140.346 8.24854 140.346 8.61064V11.3559C140.346 11.457 140.346 11.5749 140.371 11.6843C140.455 12.2654 140.767 12.7285 141.297 13.0485C141.693 13.2843 142.148 13.4022 142.636 13.4022H147.293C147.697 13.4022 148.076 13.318 148.421 13.158C149.095 12.838 149.466 12.3327 149.55 11.6338C149.55 11.5749 149.55 11.5243 149.567 11.4654H148.068V11.5075C148.017 11.8443 147.798 12.0885 147.487 12.1643C147.369 12.1896 147.234 12.2064 147.116 12.2064H142.821C142.704 12.2064 142.569 12.1896 142.451 12.1643C142.165 12.097 141.979 11.9285 141.904 11.6759C141.87 11.5749 141.853 11.4654 141.853 11.3559C141.853 11.1959 141.853 11.0275 141.853 10.8591V10.5222L149.584 10.5391V8.7538C149.584 8.56854 149.567 8.40012 149.541 8.24012L149.55 8.22328ZM148.085 8.98117V9.30959H141.853V8.97275C141.853 8.82117 141.853 8.65275 141.853 8.49275C141.87 8.12222 142.097 7.85275 142.468 7.77696C142.586 7.7517 142.72 7.73486 142.847 7.73486H147.099C147.226 7.73486 147.411 7.73485 147.579 7.80222C147.883 7.90328 148.051 8.12222 148.076 8.4338C148.076 8.62749 148.076 8.80433 148.076 8.98117H148.085Z" fill="white"/>
<path d="M93.8701 8.22328C93.8027 7.7938 93.6091 7.4317 93.2806 7.14538C92.8427 6.75801 92.3038 6.56433 91.6806 6.55591C90.9985 6.55591 90.3164 6.55591 89.6259 6.55591H86.9227C86.788 6.55591 86.628 6.57275 86.468 6.59801C86.1901 6.64854 85.9459 6.73275 85.7101 6.86749C85.3648 7.06117 85.0954 7.32222 84.9185 7.64222C84.7585 7.93696 84.6743 8.24854 84.6743 8.61064V11.3643C84.6743 11.4654 84.6743 11.5833 84.6996 11.6928C84.7838 12.2738 85.0954 12.737 85.6259 13.057C86.0217 13.2927 86.4764 13.4106 86.9648 13.4106H91.6217C92.0259 13.4106 92.4048 13.3264 92.7501 13.1664C93.4238 12.8464 93.7943 12.3412 93.8785 11.6422C93.8785 11.5833 93.8785 11.5328 93.8954 11.4738H92.3964V11.5159C92.3459 11.8527 92.127 12.097 91.8154 12.1727C91.6975 12.198 91.5627 12.2149 91.4448 12.2149H87.1501C87.0322 12.2149 86.8975 12.198 86.7796 12.1727C86.4933 12.1054 86.308 11.937 86.2322 11.6843C86.1985 11.5833 86.1817 11.4738 86.1817 11.3643C86.1817 11.2043 86.1817 11.0359 86.1817 10.8675V10.7159C86.1817 10.6906 86.1817 10.6738 86.1817 10.6485L86.1985 10.5475H93.9038V8.76222C93.8869 8.56854 93.8785 8.40012 93.8533 8.24012L93.8701 8.22328ZM92.4048 8.98959V9.21696C92.4048 9.24222 92.4048 9.25906 92.388 9.26749L92.3712 9.31801H92.3122H86.1901V9.22538C86.1901 9.20854 86.1733 9.1917 86.1733 9.17485V8.97275C86.1733 8.82117 86.1733 8.65275 86.1733 8.49275C86.1901 8.12222 86.4175 7.85275 86.788 7.77696C86.9059 7.7517 87.0406 7.73486 87.1669 7.73486H91.4196C91.5459 7.73486 91.7312 7.73485 91.8996 7.80222C92.2027 7.90328 92.3712 8.12222 92.3964 8.4338C92.3964 8.62749 92.3964 8.80433 92.3964 8.98117L92.4048 8.98959Z" fill="white"/>
<path d="M52.4972 8.35812V3.06128H50.9814V13.4023H51.4614C51.7057 13.4023 51.9836 13.4023 52.4888 13.4023V12.2402C52.4888 11.2044 52.4888 11.4402 52.4888 10.4044V8.37496L52.4972 8.35812Z" fill="white"/>
<path d="M158.038 7.62538C157.862 7.28854 157.6 7.02749 157.272 6.84222C156.944 6.65696 156.556 6.56433 156.11 6.55591C155.504 6.55591 154.956 6.55591 154.434 6.55591C154.089 6.55591 153.735 6.64012 153.44 6.76643C153.238 6.85907 153.062 6.9938 152.902 7.14538V6.57275H151.386C151.386 6.57275 151.419 13.4275 151.386 13.4106H152.885L152.91 8.77907C152.91 8.64433 152.91 8.51801 152.935 8.41696C152.969 8.14749 153.112 7.9538 153.365 7.85275C153.542 7.77696 153.718 7.76012 153.878 7.76012H155.832C155.933 7.76012 156.043 7.77696 156.144 7.7938C156.523 7.85275 156.767 8.12222 156.792 8.52643H158.299C158.266 8.16433 158.182 7.86959 158.047 7.62538H158.038Z" fill="white"/>
<path d="M102.451 7.62538C102.274 7.28854 102.013 7.02749 101.685 6.84222C101.356 6.65696 100.969 6.56433 100.523 6.55591C99.9162 6.55591 99.3689 6.55591 98.8468 6.55591C98.5015 6.55591 98.1478 6.64012 97.8531 6.76643C97.651 6.85907 97.4741 6.9938 97.3141 7.14538V6.57275H95.7983C95.7983 6.57275 95.832 13.4275 95.7983 13.4106H97.2973L97.3226 8.77907C97.3226 8.64433 97.3226 8.51801 97.3478 8.41696C97.3815 8.14749 97.5247 7.9538 97.7773 7.85275C97.9541 7.77696 98.131 7.76012 98.291 7.76012H100.245C100.346 7.76012 100.455 7.77696 100.556 7.7938C100.935 7.85275 101.179 8.12222 101.205 8.52643H102.712C102.678 8.16433 102.594 7.86959 102.459 7.62538H102.451Z" fill="white"/>
<path d="M80.6487 13.4108C80.7329 13.4108 80.8087 13.4108 80.8929 13.3939H80.9098C81.3392 13.3434 81.735 13.1918 82.0634 12.956C82.3582 12.7455 82.5687 12.4929 82.7034 12.1813C82.8045 11.9287 82.8634 11.6676 82.8634 11.356V8.59392C82.8634 8.45076 82.8634 8.2655 82.8129 8.08024C82.7034 7.6255 82.4508 7.26339 82.0719 6.99392C81.6424 6.68234 81.1455 6.53076 80.5813 6.53076H76.9771C76.834 6.53076 76.6824 6.5476 76.5392 6.57287C76.2108 6.63181 75.8908 6.74971 75.6045 6.94339C75.5877 6.96023 75.4866 7.0276 75.4024 7.07813V6.56445H73.895V15.255H75.4024V8.66971C75.4024 8.5855 75.4024 8.50971 75.4024 8.41708C75.4445 8.1055 75.6045 7.90339 75.8824 7.81076C76.0087 7.76024 76.1519 7.73497 76.2782 7.73497C76.8003 7.73497 77.3224 7.73497 77.8445 7.73497H80.4803C80.5982 7.73497 80.7413 7.76024 80.8761 7.81076C81.1708 7.91182 81.3561 8.17287 81.3561 8.50129V11.4402C81.3561 11.8192 81.1287 12.0971 80.7666 12.1729C80.6487 12.1981 80.5224 12.215 80.3961 12.215H76.8845L75.7561 13.4108H80.6403H80.6487Z" fill="white"/>
<path d="M127.739 13.377V3.28857H126.232V11.2802C126.232 11.3644 126.232 11.4402 126.232 11.5328C126.19 11.8444 126.03 12.0465 125.752 12.1391C125.625 12.1896 125.482 12.2149 125.356 12.2149H121.154C121.036 12.2149 120.893 12.1896 120.758 12.1391C120.463 12.038 120.278 11.777 120.278 11.4486V8.50963C120.278 8.13068 120.505 7.85279 120.868 7.777C120.985 7.75173 121.112 7.73489 121.238 7.73489H124.741L125.87 6.5391H120.969C120.884 6.5391 120.809 6.5391 120.724 6.55594H120.708C120.27 6.60647 119.882 6.75805 119.554 6.99384C119.259 7.20436 119.049 7.46542 118.914 7.76858C118.813 8.02121 118.754 8.28226 118.754 8.59384V11.3559C118.754 11.4991 118.754 11.6844 118.804 11.8696C118.914 12.3244 119.167 12.6865 119.545 12.9559C119.975 13.2675 120.472 13.4191 121.036 13.4191H124.64C124.783 13.4191 124.935 13.4023 125.078 13.377C125.407 13.318 125.727 13.2002 126.013 13.0065C126.03 12.9896 126.114 12.9391 126.215 12.8886V13.3938H127.739V13.377Z" fill="white"/>
<path d="M104.186 3.14551V13.4108H105.693V3.14551H104.186Z" fill="white"/>
<path d="M59.689 3.14538V7.81907H53.4911L52.5059 9.01486H59.689V13.4106H61.2048V3.13696H59.689V3.14538Z" fill="white"/>
<path d="M138.645 6.58128V6.53076H137.146V7.06128C137.146 7.06128 136.531 6.51392 135.512 6.51392H131.975C131.798 6.51392 131.655 6.51392 131.521 6.5476C131.167 6.60655 130.847 6.72444 130.577 6.89286C130.182 7.14549 129.912 7.47391 129.777 7.8697C129.702 8.08023 129.668 8.31602 129.668 8.58549V11.3055C129.668 11.4655 129.668 11.6171 129.702 11.7434C129.769 12.0971 129.912 12.4171 130.156 12.6697C130.603 13.1497 131.167 13.3855 131.832 13.3939C132.944 13.4108 134.232 13.3939 135.487 13.3939H135.63L136.758 12.1981H132.127C132.009 12.1981 131.874 12.1813 131.731 12.1392C131.42 12.0465 131.217 11.8108 131.192 11.4571V8.59391C131.192 8.47602 131.192 8.34128 131.251 8.22339C131.335 8.00444 131.487 7.86128 131.697 7.79391C131.832 7.74339 131.975 7.72655 132.093 7.71813C132.615 7.71813 133.137 7.71813 133.66 7.71813H136.295C136.413 7.71813 136.548 7.74339 136.674 7.79391C136.902 7.8697 137.053 8.03813 137.121 8.27392C137.146 8.37497 137.163 8.4676 137.163 8.56023V14.1181V14.3876C137.163 14.455 137.146 14.5308 137.112 14.6065C137.028 14.7834 136.893 14.9181 136.691 14.9855C136.556 15.036 136.396 15.0697 136.236 15.0613H132.068L131.083 16.2571C132.169 16.2571 134.064 16.2571 135.47 16.2571H136.455C136.556 16.2571 136.666 16.2571 136.767 16.2318C137.104 16.1897 137.441 16.0887 137.735 15.9034C138.097 15.676 138.358 15.3897 138.51 15.0276C138.611 14.7834 138.662 14.5139 138.662 14.1855V9.02339L138.645 6.58128Z" fill="white"/>
<path d="M71.9753 6.58959V6.55591H70.4679V11.3054C70.4679 11.4064 70.4679 11.5159 70.4342 11.617C70.3837 11.8443 70.2489 12.0128 70.0384 12.1138C69.8868 12.1896 69.7184 12.2149 69.4995 12.2149H65.4826C65.3563 12.2149 65.23 12.198 65.1121 12.1727C64.8258 12.1054 64.6321 11.937 64.5479 11.6759C64.5058 11.558 64.5058 11.4317 64.5058 11.3222V6.56433H63.0068V11.297C63.0068 11.4317 63.0068 11.5749 63.0321 11.718C63.0826 12.0717 63.2258 12.4001 63.47 12.6612C63.9163 13.1496 64.4805 13.3938 65.1626 13.4022H69.0868C69.55 13.4022 69.9626 13.3012 70.291 13.0822C70.3079 13.0654 70.4005 13.0064 70.4847 12.9138V14.3538C70.4847 14.5812 70.3753 14.7664 70.1732 14.9012C70.0132 15.0022 69.8195 15.0528 69.5837 15.0528H65.39L64.3963 16.2317H69.7605C69.8532 16.2317 69.9542 16.2317 70.0721 16.2064C70.4847 16.1559 70.8637 16.0128 71.2005 15.7685C71.7142 15.3896 71.9753 14.8843 71.9837 14.278C71.9837 12.3749 71.9837 10.4464 71.9837 8.57696V6.57275L71.9753 6.58959Z" fill="white"/>
<path d="M51.436 38.7413V19.3477H63.1581V21.4529H53.7602V27.9624H62.4087V30.0761H53.7602V38.7413H51.436Z" fill="white"/>
<path d="M63.6467 38.7413L69.6257 19.3477H73.7267L79.7057 38.7413H77.2888L75.7899 33.8403H67.5457L66.0467 38.7413H63.6299H63.6467ZM68.1351 31.735H75.2004L71.8741 20.7708H71.4867L68.1351 31.735Z" fill="white"/>
<path d="M81.7097 38.7413V36.6613H84.4297V21.4277H81.7097V19.3477H91.4276C92.5476 19.3477 93.5497 19.5498 94.4339 19.954C95.3181 20.3666 96.0002 20.9224 96.4802 21.655C96.9687 22.3877 97.2129 23.2382 97.2129 24.2234V24.4424C97.2129 25.3434 97.036 26.0929 96.6908 26.674C96.3455 27.255 95.9244 27.7098 95.4444 28.0298C94.9644 28.3582 94.4929 28.594 94.0297 28.7371V29.1245C94.4929 29.2424 94.9729 29.4529 95.4697 29.7813C95.9666 30.1098 96.3876 30.5645 96.7329 31.154C97.0781 31.7434 97.2466 32.4929 97.2466 33.4024V33.6719C97.2466 34.7245 96.9939 35.634 96.4887 36.4003C95.9834 37.1666 95.2929 37.7477 94.4087 38.1434C93.5244 38.5392 92.5223 38.7329 91.4023 38.7329H81.6929L81.7097 38.7413ZM86.7455 27.9119H91.2339C92.3455 27.9119 93.2297 27.634 93.8866 27.0698C94.5518 26.5055 94.8802 25.7645 94.8802 24.8382V24.5603C94.8802 23.6171 94.5518 22.8677 93.895 22.3034C93.2381 21.7392 92.3455 21.4613 91.2255 21.4613H86.7371V27.9119H86.7455ZM86.7455 36.6361H91.1497C92.3708 36.6361 93.2971 36.3498 93.9539 35.7771C94.6023 35.2045 94.9223 34.4298 94.9223 33.4445V33.1919C94.9223 32.215 94.5939 31.4403 93.9539 30.8592C93.3055 30.2866 92.3792 30.0003 91.1497 30.0003H86.7455V36.6277V36.6361Z" fill="white"/>
<path d="M100.935 38.7413V19.3477H108.775C109.971 19.3477 111.032 19.5498 111.95 19.9708C112.859 20.3919 113.583 20.9813 114.097 21.7477C114.611 22.514 114.872 23.4319 114.872 24.5013V24.8045C114.872 26.0761 114.569 27.0866 113.962 27.8277C113.356 28.5603 112.632 29.0655 111.798 29.3266V29.714C112.463 29.7308 113.011 29.9498 113.449 30.3708C113.878 30.7919 114.106 31.4066 114.106 32.2403V38.7498H111.807V32.5182C111.807 31.9624 111.655 31.5413 111.352 31.2466C111.049 30.9519 110.594 30.8087 109.979 30.8087H103.276V38.7666H100.943L100.935 38.7413ZM103.259 28.6866H108.548C109.819 28.6866 110.805 28.375 111.503 27.7603C112.194 27.1456 112.539 26.2782 112.539 25.175V24.9813C112.539 23.8698 112.194 23.0108 111.512 22.3961C110.83 21.7729 109.845 21.4698 108.548 21.4698H103.259V28.695V28.6866Z" fill="white"/>
<path d="M118.409 38.7413V19.3477H120.741V38.7413H118.409Z" fill="white"/>
<path d="M132.177 39.1287C129.87 39.1287 128.034 38.4635 126.67 37.1161C125.306 35.7772 124.624 33.8235 124.624 31.2551V26.8256C124.624 24.2572 125.306 22.3035 126.67 20.9645C128.034 19.6256 129.87 18.9519 132.177 18.9519C134.485 18.9519 136.219 19.5919 137.449 20.8635C138.678 22.1351 139.293 23.8866 139.293 26.1014V26.2361H136.994V26.0172C136.994 24.5603 136.598 23.3645 135.815 22.4298C135.032 21.4951 133.819 21.0319 132.169 21.0319C130.518 21.0319 129.238 21.5287 128.32 22.5393C127.394 23.5498 126.939 24.9561 126.939 26.7666V31.314C126.939 33.1161 127.402 34.5309 128.32 35.5414C129.247 36.5519 130.527 37.0487 132.169 37.0487C133.811 37.0487 135.032 36.5856 135.815 35.6509C136.598 34.7161 136.994 33.5287 136.994 32.0635V31.6256H139.293V31.9793C139.293 34.194 138.678 35.9372 137.449 37.2172C136.228 38.4887 134.468 39.1203 132.177 39.1203V39.1287Z" fill="white"/>
</svg>
