<svg version="1.2" xmlns="http://www.w3.org/2000/svg" viewBox="0 0 134 32" width="134" height="32"><style>.a{fill:#fff}.b{fill:#e24329}.c{fill:#fc6d26}.d{fill:#fca326}</style><path class="a" d="m59.9 13.6h3c-0.5-3.2-3.3-5.5-6.9-5.5-4.3 0-7.5 3.2-7.5 8.4 0 5.2 3.1 8.4 7.6 8.4 4 0 6.9-2.6 6.9-6.8v-2h-6.6v2.3h3.8c-0.1 2.3-1.6 3.8-4.1 3.8-2.7 0-4.6-2-4.6-5.7 0-3.7 1.9-5.7 4.6-5.7 1.9 0 3.2 1 3.8 2.8z"/><path class="a" d="m65 24.6h2.9v-12.2h-2.9zm1.5-14.1c0.9 0 1.6-0.7 1.6-1.6 0-0.8-0.7-1.5-1.6-1.5-1 0-1.7 0.7-1.7 1.5 0 0.9 0.7 1.6 1.7 1.6z"/><path class="a" d="m76.5 12.4h-2.4v-2.9h-2.9v2.9h-1.7v2.3h1.7v6.8c0 2.3 1.7 3.4 3.8 3.3q0.9 0 1.7-0.3l-0.4-2.2q-0.5 0.1-0.9 0.1c-0.7 0-1.3-0.3-1.3-1.4v-6.3h2.4z"/><path class="a" d="m78.7 24.6h10.2v-2.4h-7.2v-13.8h-3z"/><path class="a" d="m94.7 24.9c1.9 0 3.1-0.9 3.6-1.9h0.1v1.6h2.7v-8.1c0-3.3-2.6-4.2-4.9-4.2-2.6 0-4.6 1.1-5.2 3.3l2.7 0.4c0.3-0.8 1.1-1.5 2.5-1.5 1.3 0 2.1 0.7 2.1 1.9 0 0.8-0.9 0.9-3.1 1.1-2.3 0.3-4.6 1-4.6 3.7 0 2.4 1.8 3.7 4.1 3.7zm0.9-2.1c-1.2 0-2-0.6-2-1.6 0-1.1 0.9-1.6 2.2-1.8 0.8-0.1 2.3-0.3 2.7-0.6v1.5c0 1.3-1.1 2.5-2.9 2.5z"/><path class="a" d="m103.3 24.6h2.8v-1.9h0.2c0.4 0.9 1.4 2.2 3.5 2.2 2.9 0 5-2.3 5-6.3 0-4.1-2.2-6.3-5-6.3-2.2 0-3.1 1.3-3.5 2.1h-0.1v-6h-2.9zm2.8-6.2c0-2.3 1-3.9 2.9-3.9 1.9 0 2.9 1.7 2.9 3.9 0 2.3-1 4-2.9 4-1.9 0-2.9-1.6-2.9-4z"/><path class="b" d="m42.1 13.6v-0.1l-3.3-8.5q-0.1-0.3-0.3-0.4-0.2-0.2-0.5-0.2-0.3 0.1-0.5 0.2-0.2 0.2-0.3 0.5l-2.2 6.7h-8.9l-2.3-6.7q0-0.3-0.2-0.5-0.3-0.1-0.5-0.2-0.3 0-0.5 0.2-0.3 0.1-0.4 0.4l-3.3 8.5v0.1c-0.5 1.2-0.5 2.6-0.2 3.8 0.4 1.3 1.2 2.4 2.2 3.2h0.1l4.9 3.8 2.5 1.8 1.5 1.2q0.3 0.2 0.6 0.2 0.4 0 0.6-0.2l1.5-1.2 2.5-1.8 5-3.8c1.1-0.8 1.8-1.9 2.2-3.2 0.4-1.2 0.3-2.6-0.2-3.8z"/><path class="c" d="m42.1 13.6v-0.1c-1.6 0.3-3.1 1-4.4 2l-7.2 5.4 4.6 3.5 5-3.8c1.1-0.8 1.8-1.9 2.2-3.2 0.4-1.2 0.3-2.6-0.2-3.8z"/><path class="d" d="m25.9 24.4l2.5 1.8 1.5 1.2q0.3 0.2 0.6 0.2 0.4 0 0.6-0.2l1.5-1.2 2.5-1.8-4.6-3.5z"/><path class="c" d="m23.3 15.5c-1.3-1-2.8-1.7-4.4-2v0.1c-0.5 1.2-0.5 2.6-0.2 3.8 0.4 1.3 1.2 2.4 2.2 3.2h0.1l4.9 3.8 4.6-3.5z"/></svg>