<svg version="1.2" xmlns="http://www.w3.org/2000/svg" viewBox="0 0 74 30" width="74" height="30"><style>.a{fill:#00acd7}</style><path class="a" d="m19 11.9c-0.1 0-0.1-0.1-0.1-0.2l0.4-0.5c0.1 0 0.2-0.1 0.2-0.1h7.5c0 0 0.1 0.1 0 0.1l-0.3 0.5c-0.1 0-0.1 0.1-0.3 0.1zm-3.1 1.9c-0.1 0-0.1-0.1-0.1-0.1l0.4-0.6c0.1 0 0.2-0.1 0.3-0.1h9.5c0 0 0.1 0.1 0.1 0.1l-0.2 0.6c0 0-0.1 0.1-0.1 0.1zm5 2c-0.1 0-0.2-0.1-0.1-0.2l0.3-0.5c0-0.1 0.1-0.2 0.2-0.2h4.1c0 0 0.1 0.1 0.1 0.2l-0.1 0.5c0 0 0 0.1 0 0.1zm21.4-4.3l-3.4 0.9c-0.3 0.1-0.3 0.2-0.6-0.2-0.3-0.4-0.6-0.6-1-0.8-1.3-0.6-2.6-0.5-3.7 0.4-1.4 0.8-2.2 2.2-2.2 3.9 0 1.6 1.2 2.9 2.8 3.2 1.5 0.2 2.6-0.3 3.5-1.3 0.3-0.3 0.5-0.5 0.7-0.8h-4c-0.4 0-0.6-0.3-0.4-0.7 0.2-0.6 0.7-1.6 1-2.2 0-0.1 0.3-0.3 0.5-0.3h7.6c-0.1 0.5-0.1 1-0.2 1.7-0.2 1.5-0.7 2.9-1.6 4-1.5 2-3.5 3.2-5.9 3.5-2.1 0.4-4-0.1-5.6-1.3q-2.3-1.8-2.6-4.6c-0.4-2.3 0.4-4.3 1.7-6 1.5-2 3.4-3.2 5.8-3.6 2-0.4 3.9-0.1 5.5 0.9 1.1 0.8 1.9 1.8 2.4 3 0.1 0.2 0 0.3-0.3 0.3z"/><path class="a" d="m49.2 23c-1.9-0.1-3.6-0.6-5.1-1.9-1.2-1-2-2.4-2.2-4-0.4-2.3 0.3-4.4 1.7-6.2 1.5-2 3.3-3 5.8-3.5 2.1-0.3 4.2-0.2 5.9 1q2.4 1.8 2.9 4.7c0.4 2.8-0.5 5.1-2.3 7-1.4 1.4-3.1 2.3-5 2.7-0.6 0.1-1.2 0.1-1.7 0.2zm4.9-8.4c0-0.3 0-0.5 0-0.7-0.4-2.1-2.3-3.2-4.3-2.7-1.9 0.4-3.1 1.6-3.6 3.5-0.3 1.6 0.4 3.3 1.9 3.9 1.1 0.5 2.3 0.4 3.3-0.1 1.8-0.8 2.6-2.2 2.7-3.9z"/></svg>