<svg width="139" height="24" viewBox="0 0 139 24" fill="none" xmlns="http://www.w3.org/2000/svg">
<path d="M89.7504 18.6212C88.6144 18.6475 87.485 18.4421 86.4311 18.0173C85.3772 17.5926 84.421 16.9574 83.6208 16.1507C82.8206 15.3439 82.1933 14.3826 81.7772 13.3252C81.361 12.2679 81.1648 11.1369 81.2004 10.0012C81.171 8.8728 81.3713 7.75023 81.789 6.70163C82.2067 5.65302 82.8332 4.70025 83.6304 3.90116C84.4247 3.08861 85.3783 2.4489 86.4315 2.02214C87.4846 1.59539 88.6145 1.39079 89.7504 1.42116C90.8879 1.39313 92.0172 1.62019 93.0555 2.08568C94.0938 2.55116 95.0146 3.24326 95.7504 4.11116L94.2804 5.58116C93.7412 4.89956 93.0519 4.35177 92.2661 3.98055C91.4803 3.60934 90.6193 3.42474 89.7504 3.44116C88.9035 3.42048 88.0613 3.57302 87.2755 3.88942C86.4896 4.20582 85.7767 4.67942 85.1804 5.28116C84.5713 5.90226 84.0956 6.64137 83.7826 7.45307C83.4696 8.26477 83.3259 9.1319 83.3604 10.0012C83.3232 10.8737 83.4655 11.7447 83.7786 12.56C84.0916 13.3753 84.5688 14.1177 85.1804 14.7412C85.7753 15.3448 86.488 15.8197 87.2741 16.1362C88.0603 16.4528 88.9032 16.6042 89.7504 16.5812C90.7116 16.5765 91.6596 16.3567 92.5247 15.938C93.3899 15.5192 94.1504 14.9121 94.7504 14.1612L96.2904 15.6612C95.5109 16.593 94.5294 17.3351 93.4204 17.8312C92.2694 18.3594 91.0168 18.629 89.7504 18.6212ZM100.12 1.79116V18.2612H98.0004V1.79116H100.12ZM101.94 12.6212C101.917 11.8318 102.05 11.0456 102.332 10.3077C102.613 9.56978 103.038 8.8947 103.58 8.32116C104.118 7.7644 104.765 7.3257 105.481 7.033C106.198 6.74031 106.967 6.60005 107.74 6.62116C108.511 6.59914 109.278 6.73907 109.991 7.0319C110.704 7.32473 111.348 7.76395 111.88 8.32116C112.429 8.8913 112.857 9.56557 113.141 10.3041C113.424 11.0427 113.557 11.8305 113.53 12.6212C113.559 13.4121 113.428 14.2008 113.145 14.9397C112.861 15.6787 112.431 16.3527 111.88 16.9212C111.349 17.4804 110.706 17.921 109.992 18.2139C109.279 18.5069 108.511 18.6457 107.74 18.6212C106.967 18.6448 106.197 18.5056 105.48 18.2128C104.763 17.9199 104.116 17.4799 103.58 16.9212C103.038 16.3476 102.613 15.6725 102.332 14.9347C102.05 14.1968 101.917 13.4106 101.94 12.6212ZM104.06 12.6212C104.012 13.7027 104.393 14.7595 105.12 15.5612C105.457 15.9183 105.863 16.2029 106.314 16.3974C106.764 16.5919 107.25 16.6922 107.74 16.6922C108.231 16.6922 108.717 16.5919 109.167 16.3974C109.618 16.2029 110.024 15.9183 110.36 15.5612C111.088 14.7595 111.469 13.7027 111.42 12.6212C111.467 11.546 111.086 10.4961 110.36 9.70116C110.027 9.33871 109.622 9.04939 109.171 8.85148C108.72 8.65357 108.233 8.55139 107.74 8.55139C107.248 8.55139 106.761 8.65357 106.31 8.85148C105.859 9.04939 105.454 9.33871 105.12 9.70116C104.395 10.4961 104.014 11.546 104.06 12.6212ZM125.23 18.2612H123.23V16.6912H123.13C122.773 17.2781 122.261 17.7555 121.65 18.0712C121.016 18.4307 120.3 18.6202 119.57 18.6212C118.986 18.659 118.4 18.5736 117.85 18.3703C117.3 18.167 116.8 17.8505 116.38 17.4412C115.588 16.5039 115.19 15.2958 115.27 14.0712V7.00116H117.38V13.9412C117.336 14.3169 117.378 14.6977 117.503 15.0547C117.629 15.4117 117.833 15.7356 118.102 16.0016C118.371 16.2677 118.697 16.4689 119.056 16.5901C119.414 16.7113 119.795 16.7493 120.17 16.7012C120.575 16.7082 120.976 16.6216 121.342 16.4482C121.708 16.2747 122.029 16.0191 122.28 15.7012C122.851 15.0142 123.153 14.1438 123.13 13.2512V7.00116H125.25L125.23 18.2612ZM132.39 18.6212C131.671 18.621 130.959 18.4655 130.305 18.1652C129.651 17.8649 129.07 17.4269 128.6 16.8812C127.55 15.7132 126.978 14.1919 127 12.6212C126.966 11.0585 127.523 9.54054 128.56 8.37116C129.026 7.8205 129.607 7.37848 130.261 7.07616C130.916 6.77383 131.629 6.61853 132.35 6.62116C133.139 6.60779 133.919 6.78987 134.62 7.15116C135.263 7.46793 135.809 7.95143 136.2 8.55116H136.29L136.24 7.00116V1.79116H138.35V18.2612H136.35V16.6912H136.26C135.869 17.2909 135.323 17.7744 134.68 18.0912C133.973 18.4557 133.186 18.6379 132.39 18.6212ZM132.74 16.6912C133.223 16.7068 133.703 16.6132 134.145 16.4176C134.586 16.2219 134.978 15.9292 135.29 15.5612C135.99 14.7465 136.348 13.6934 136.29 12.6212C136.339 11.5563 135.981 10.5128 135.29 9.70116C134.979 9.3306 134.588 9.03485 134.146 8.83579C133.705 8.63673 133.224 8.53946 132.74 8.55116C132.257 8.5437 131.778 8.64288 131.337 8.84165C130.896 9.04042 130.505 9.33388 130.19 9.70116C129.499 10.5128 129.142 11.5563 129.19 12.6212C129.135 13.687 129.493 14.7331 130.19 15.5412C130.505 15.9084 130.896 16.2019 131.337 16.4007C131.778 16.5994 132.257 16.6986 132.74 16.6912Z" fill="white"/>
<path d="M9.49 18.6212C7.00164 18.6294 4.61024 17.6569 2.83393 15.9143C1.05762 14.1716 0.0394428 11.7993 0 9.31124C0.0394428 6.82317 1.05762 4.45084 2.83393 2.70822C4.61024 0.965596 7.00164 -0.00696857 9.49 0.00123531C10.6757 -0.0185103 11.8534 0.198636 12.9541 0.639945C14.0548 1.08125 15.0563 1.73785 15.9 2.57124L14.09 4.36124C12.8559 3.17292 11.2031 2.51898 9.49 2.54124C8.603 2.53852 7.72432 2.71222 6.90507 3.05223C6.08583 3.39224 5.34237 3.89177 4.71797 4.52176C4.09356 5.15175 3.60067 5.89962 3.26796 6.72186C2.93526 7.5441 2.76939 8.4243 2.78 9.31124C2.76939 10.1982 2.93526 11.0784 3.26796 11.9006C3.60067 12.7228 4.09356 13.4707 4.71797 14.1007C5.34237 14.7307 6.08583 15.2302 6.90507 15.5702C7.72432 15.9102 8.603 16.084 9.49 16.0812C10.3638 16.1171 11.2354 15.9692 12.0484 15.6471C12.8615 15.325 13.5979 14.8358 14.21 14.2112C15.026 13.3311 15.5164 12.1985 15.6 11.0012H9.49V8.47124H18.09C18.1838 8.9959 18.2273 9.52831 18.22 10.0612C18.2877 12.2558 17.4904 14.389 16 16.0012C15.1612 16.8726 14.1475 17.5565 13.0255 18.0081C11.9034 18.4597 10.6985 18.6686 9.49 18.6212Z" fill="#4285F4"/>
<path d="M31.5195 12.6212C31.5524 13.4211 31.4232 14.2193 31.1397 14.968C30.8563 15.7167 30.4244 16.4004 29.87 16.978C29.3157 17.5556 28.6503 18.0151 27.9138 18.3291C27.1774 18.643 26.3851 18.8048 25.5845 18.8048C24.784 18.8048 23.9917 18.643 23.2552 18.3291C22.5188 18.0151 21.8534 17.5556 21.299 16.978C20.7447 16.4004 20.3128 15.7167 20.0293 14.968C19.7459 14.2193 19.6167 13.4211 19.6495 12.6212C19.6167 11.8213 19.7459 11.023 20.0293 10.2743C20.3128 9.5256 20.7447 8.84192 21.299 8.26434C21.8534 7.68676 22.5188 7.2272 23.2552 6.91326C23.9917 6.59933 24.784 6.4375 25.5845 6.4375C26.3851 6.4375 27.1774 6.59933 27.9138 6.91326C28.6503 7.2272 29.3157 7.68676 29.87 8.26434C30.4244 8.84192 30.8563 9.5256 31.1397 10.2743C31.4232 11.023 31.5524 11.8213 31.5195 12.6212ZM28.9195 12.6212C28.9636 12.1566 28.9102 11.688 28.7627 11.2453C28.6151 10.8026 28.3767 10.3956 28.0628 10.0504C27.7488 9.70524 27.3662 9.42944 26.9394 9.24072C26.5126 9.05199 26.0512 8.95451 25.5845 8.95451C25.1179 8.95451 24.6564 9.05199 24.2297 9.24072C23.8029 9.42944 23.4203 9.70524 23.1063 10.0504C22.7923 10.3956 22.5539 10.8026 22.4064 11.2453C22.2589 11.688 22.2054 12.1566 22.2495 12.6212C22.2054 13.0857 22.2589 13.5543 22.4064 13.997C22.5539 14.4397 22.7923 14.8467 23.1063 15.1919C23.4203 15.5371 23.8029 15.8129 24.2297 16.0016C24.6564 16.1903 25.1179 16.2878 25.5845 16.2878C26.0512 16.2878 26.5126 16.1903 26.9394 16.0016C27.3662 15.8129 27.7488 15.5371 28.0628 15.1919C28.3767 14.8467 28.6151 14.4397 28.7627 13.997C28.9102 13.5543 28.9636 13.0857 28.9195 12.6212Z" fill="#EA4335"/>
<path d="M44.8301 12.6212C44.8629 13.4211 44.7337 14.2193 44.4503 14.968C44.1668 15.7167 43.7349 16.4004 43.1806 16.978C42.6262 17.5556 41.9608 18.0151 41.2244 18.3291C40.488 18.643 39.6956 18.8048 38.8951 18.8048C38.0945 18.8048 37.3022 18.643 36.5658 18.3291C35.8293 18.0151 35.1639 17.5556 34.6096 16.978C34.0552 16.4004 33.6233 15.7167 33.3399 14.968C33.0564 14.2193 32.9272 13.4211 32.9601 12.6212C32.9272 11.8213 33.0564 11.023 33.3399 10.2743C33.6233 9.5256 34.0552 8.84192 34.6096 8.26434C35.1639 7.68676 35.8293 7.2272 36.5658 6.91326C37.3022 6.59933 38.0945 6.4375 38.8951 6.4375C39.6956 6.4375 40.488 6.59933 41.2244 6.91326C41.9608 7.2272 42.6262 7.68676 43.1806 8.26434C43.7349 8.84192 44.1668 9.5256 44.4503 10.2743C44.7337 11.023 44.8629 11.8213 44.8301 12.6212ZM42.2301 12.6212C42.2657 12.1608 42.2058 11.6981 42.0541 11.262C41.9025 10.8259 41.6623 10.4259 41.3486 10.087C41.035 9.74814 40.6547 9.47777 40.2316 9.29287C39.8085 9.10797 39.3518 9.01252 38.8901 9.01252C38.4284 9.01252 37.9716 9.10797 37.5485 9.29287C37.1254 9.47777 36.7452 9.74814 36.4315 10.087C36.1179 10.4259 35.8777 10.8259 35.726 11.262C35.5743 11.6981 35.5144 12.1608 35.5501 12.6212C35.5144 13.0815 35.5743 13.5443 35.726 13.9804C35.8777 14.4165 36.1179 14.8165 36.4315 15.1553C36.7452 15.4942 37.1254 15.7646 37.5485 15.9495C37.9716 16.1344 38.4284 16.2298 38.8901 16.2298C39.3518 16.2298 39.8085 16.1344 40.2316 15.9495C40.6547 15.7646 41.035 15.4942 41.3486 15.1553C41.6623 14.8165 41.9025 14.4165 42.0541 13.9804C42.2058 13.5443 42.2657 13.0815 42.2301 12.6212Z" fill="#FBBC04"/>
<path d="M57.8 7.00133V17.7613C57.8 22.1813 55.17 24.0013 52.07 24.0013C50.9291 24.0076 49.8122 23.6743 48.8613 23.044C47.9104 22.4136 47.1685 21.5146 46.73 20.4613L49.04 19.4613C49.2728 20.0745 49.6819 20.6049 50.2158 20.9858C50.7497 21.3666 51.3845 21.5808 52.04 21.6013C54.04 21.6013 55.26 20.3713 55.26 18.0813V17.2213H55.2C54.8 17.6727 54.3066 18.0317 53.7541 18.2734C53.2015 18.5152 52.603 18.6339 52 18.6213C50.4087 18.6213 48.8826 17.9892 47.7574 16.864C46.6321 15.7387 46 14.2126 46 12.6213C46 11.03 46.6321 9.5039 47.7574 8.37869C48.8826 7.25347 50.4087 6.62133 52 6.62133C52.6009 6.61022 53.1972 6.72759 53.7491 6.96558C54.301 7.20358 54.7956 7.5567 55.2 8.00133H55.29V7.00133H57.8ZM55.47 12.6613C55.5067 12.2079 55.4518 11.7518 55.3086 11.3201C55.1654 10.8884 54.9367 10.4899 54.6363 10.1484C54.3358 9.80688 53.9697 9.52932 53.5597 9.33226C53.1498 9.1352 52.7044 9.02265 52.25 9.00133C51.7885 9.01794 51.3349 9.12625 50.9157 9.31993C50.4965 9.51362 50.12 9.78881 49.8082 10.1295C49.4964 10.4701 49.2555 10.8694 49.0996 11.3041C48.9437 11.7388 48.8758 12.2002 48.9 12.6613C48.8786 13.1194 48.9486 13.5771 49.1061 14.0077C49.2637 14.4384 49.5054 14.8333 49.8173 15.1694C50.1293 15.5055 50.505 15.7761 50.9227 15.9653C51.3404 16.1545 51.7916 16.2585 52.25 16.2713C52.7026 16.2552 53.1472 16.1476 53.5569 15.9548C53.9667 15.7621 54.3332 15.4883 54.6341 15.1499C54.9351 14.8116 55.1643 14.4157 55.308 13.9862C55.4517 13.5568 55.5068 13.1027 55.47 12.6513V12.6613Z" fill="#4285F4"/>
<path d="M62.43 0.641113V18.2611H59.79V0.641113H62.43Z" fill="#34A853"/>
<path d="M72.8301 14.6012L74.8901 16.0012C74.3401 16.822 73.596 17.4942 72.7237 17.9583C71.8515 18.4223 70.8781 18.6638 69.8901 18.6612C69.1042 18.6725 68.3241 18.5241 67.5972 18.2251C66.8702 17.9262 66.2115 17.4828 65.6609 16.9219C65.1102 16.361 64.6791 15.6942 64.3937 14.9618C64.1082 14.2295 63.9743 13.4468 64.0001 12.6612C63.8831 11.3106 64.2671 9.96423 65.079 8.87862C65.8909 7.793 67.0738 7.04411 68.4024 6.77468C69.731 6.50526 71.1123 6.73415 72.2829 7.41772C73.4536 8.10129 74.3318 9.19174 74.7501 10.4812L75.0201 11.1712L67.0201 14.4812C67.2694 15.0415 67.6808 15.5143 68.2012 15.8387C68.7216 16.1631 69.3273 16.3242 69.9401 16.3012C70.5268 16.2879 71.1004 16.1247 71.6063 15.8271C72.1121 15.5296 72.5334 15.1076 72.8301 14.6012ZM66.5201 12.4412L71.9001 10.2212C71.6848 9.82296 71.3586 9.49572 70.961 9.27917C70.5634 9.06263 70.1115 8.96607 69.6601 9.00121C69.2279 9.02046 68.8038 9.12477 68.4119 9.30816C68.0201 9.49154 67.6683 9.75041 67.3766 10.0699C67.085 10.3895 66.8592 10.7634 66.7122 11.1703C66.5652 11.5772 66.5 12.0091 66.5201 12.4412Z" fill="#EA4335"/>
</svg>
