<svg version="1.2" xmlns="http://www.w3.org/2000/svg" viewBox="0 0 68 37" width="68" height="37"><style>.a{fill:#00758f}.b{fill:#f29111}</style><path class="a" d="m23 23.5c-0.6 0.1-2.1 0.4-4.1 0.4-2.1 0-3.7-0.3-3.7-0.7 0-0.3 0.3-0.4 0.3-0.4h-0.1c-0.9 0.1-1.8 0.4-1.8 0.8 0 0.7 2.7 1.3 5.2 1.3 2.2 0 4.3-0.4 5.2-0.9zm-6.9 2.3c-0.4 0.1-1.4 0.3-1.4 0.8 0 0.6 2.1 1.1 4.1 1.1 2.8 0 4-0.7 4-0.7l-1.2-0.7c-0.4 0.1-1.3 0.3-2.8 0.3-1.6 0-2.7-0.3-2.7-0.6q0-0.1 0.1-0.2zm11.4-4.5c-0.1 1.5-1.5 2.5-2.9 3.3h0.2c1.4-0.4 4.1-1.6 3.9-3.5-0.1-0.9-1-1.6-2.1-1.6q-0.5 0.1-0.9 0.2l-0.1 0.1c1-0.2 1.9 0.5 1.9 1.5zm-8.8 8.9c3.9-0.1 8.3-0.8 8.3-2.1 0-0.2-0.2-0.4-0.3-0.5h-0.1c-0.3 1-3.4 1.8-7.9 1.8-2.9 0-6.9-0.7-6.9-1.5 0-0.8 1.9-1.2 1.9-1.2l-0.1-0.1c-1.3 0.2-3.6 0.8-3.6 1.7 0 1.3 5.4 1.9 8.7 1.9zm-0.4 0.9c-1.5 0-3.4-0.1-5-0.4l-0.1 0.1c1.6 0.5 3.8 0.7 6.2 0.7 4.7 0 8.6-1.2 8.6-2.6v-0.1c-0.3 0.4-2.4 2.2-9.7 2.3zm-5.9-10.1c0-0.7 2.7-1.1 4-1.2h0.1c-0.5 0.1-2.4 0.5-2.4 0.9 0 0.5 2.9 0.8 4.7 0.8 2.9 0 4.9-0.4 5.5-0.6l0.7 0.5c-0.5 0.2-2.7 0.9-6.2 0.9-3.9 0-6.4-0.8-6.4-1.3zm45.5 7.6h-1.3l-0.1-0.8q-1.3 1-2.6 1-2.4 0-2.4-2.3 0-1.3 1-2 1.1-0.8 3.1-0.8h0.6v-0.7q0-1.5-1.7-1.5-1.1 0-2.3 0.5l-0.3-1q1.5-0.7 3.1-0.7 2.9 0 2.9 2.5zm-1.7-1.9v-1.9h-0.7q-2.3 0-2.3 1.4 0 1.3 1.2 1.3 0.9 0 1.8-0.8zm-5.2-6.3q-0.8 4.5-2.5 8.2h-2.1l-2.5-8.2h1.8l1.6 5 0.3 1.5q1.2-3.3 1.6-6.5zm-8.2 8.2h-1.3l-0.1-0.9q-1.2 1.1-2.5 1.1-2.5 0-2.5-2.3 0-1.3 1-2 1.1-0.8 3.2-0.8h0.6v-0.7q0-1.5-1.7-1.5-1.1 0-2.4 0.5l-0.2-1.1q1.5-0.6 3.1-0.6 2.8 0 2.8 2.4zm-1.6-1.9v-1.9h-0.7q-2.4 0-2.4 1.5 0 1.3 1.3 1.3 0.8 0 1.8-0.9zm-6.3 0.8q0 2.7-1.8 4l-0.8-0.7q0.5-0.7 0.7-1.6 0.2-0.7 0.2-1.8v-9.9h1.7z"/><path class="b" d="m24.2 10.8c-1.2 0.4-4.9 1.8-4.9 4.5 0 1.6 1.5 2.4 1.5 3.9 0 0.5-0.3 0.9-0.5 1.2l0.1 0.1c0.6-0.4 1.7-1.3 1.7-2.4 0-1-1.3-2.1-1.3-3.3 0-2 2.6-3.5 3.4-4zm-1.7-3.5c0 4-5.5 5.5-5.5 8.4 0 2 1.3 3.2 2 4-0.9-0.5-3.3-2-3.3-4.4 0-3.4 6.2-5 6.2-8.8 0-0.5-0.1-0.8-0.1-1l0.1-0.1c0.2 0.3 0.6 0.9 0.6 1.9z"/></svg>