<svg version="1.2" xmlns="http://www.w3.org/2000/svg" viewBox="0 0 33 33" width="33" height="33"><style>.a{fill:#326de6}.b{fill:#fff}</style><path class="a" d="m11.8 28.3c-0.6 0-1.2-0.3-1.6-0.8l-5.9-7.3c-0.4-0.5-0.5-1.1-0.4-1.7l2.1-9.1c0.2-0.6 0.6-1.1 1.1-1.4l8.6-4.1q0.4-0.2 0.8-0.2 0.5 0 0.9 0.2l8.5 4.1c0.6 0.3 1 0.7 1.1 1.4l2.1 9.1c0.2 0.6 0 1.2-0.3 1.7l-5.9 7.3c-0.4 0.5-1 0.8-1.6 0.8h-9.5z"/><path class="b" d="m16.5 3.4q-0.5 0-1 0.2l-8.5 4.1c-0.7 0.3-1.2 0.9-1.4 1.6l-2.1 9.1c-0.1 0.7 0 1.5 0.5 2.1l5.9 7.3c0.5 0.6 1.1 0.9 1.9 0.9h9.4c0.8 0 1.4-0.3 1.9-0.9l5.9-7.3c0.5-0.6 0.6-1.4 0.5-2.1l-2.1-9.1c-0.2-0.7-0.7-1.3-1.4-1.6l-8.4-4.1q-0.5-0.2-1.1-0.2zm0 0.8q0.4 0 0.7 0.1l8.5 4.1c0.5 0.2 0.8 0.6 0.9 1.1l2.1 9.1c0.1 0.5 0 1-0.3 1.4l-5.9 7.3c-0.3 0.4-0.8 0.6-1.3 0.6h-9.4c-0.5 0-1-0.2-1.3-0.6l-5.9-7.3c-0.3-0.4-0.4-0.9-0.3-1.4l2.1-9.1c0.1-0.5 0.5-0.9 0.9-1.1l8.5-4.1q0.4-0.1 0.7-0.1z"/><path class="b" d="m25.1 17.9q-0.1 0 0 0-0.1 0-0.1-0.1 0 0-0.1 0-0.2 0-0.3 0-0.1 0-0.2 0c-0.3-0.1-0.6-0.1-0.9-0.2-0.1 0-0.2-0.1-0.2-0.2q0 0 0 0l-0.2-0.1q0.1-1.2-0.1-2.3-0.3-1.2-1-2.2l0.2-0.2q0-0.1 0.1-0.3c0.2-0.2 0.4-0.3 0.7-0.5q0.1 0 0.2-0.1 0.1 0 0.3-0.1 0-0.1 0.1-0.1 0 0 0 0c0.2-0.2 0.3-0.6 0.1-0.8-0.1-0.1-0.2-0.2-0.4-0.2q-0.2 0-0.4 0.1v0.1q0 0-0.1 0-0.1 0.2-0.2 0.3 0 0-0.1 0.1-0.4 0.4-0.7 0.6-0.1 0.1-0.1 0.1-0.1 0-0.1-0.1h-0.1l-0.2 0.2q-0.3-0.4-0.7-0.7c-1-0.8-2.2-1.2-3.5-1.4v-0.2c-0.1-0.1-0.2-0.1-0.2-0.2q0-0.4 0.1-0.9v-0.1q0 0 0-0.1 0-0.2 0.1-0.3v-0.2c0-0.3-0.3-0.5-0.6-0.5q-0.2 0-0.3 0.1-0.2 0.2-0.2 0.4v0.1q0 0.2 0.1 0.4 0 0 0 0.1c0 0.4 0.1 0.7 0.1 1-0.1 0.1-0.1 0.1-0.2 0.2v0.2q-0.5 0.1-0.9 0.2c-1.3 0.2-2.5 0.9-3.4 1.8l-0.1-0.1h-0.1q0 0-0.1 0-0.1 0-0.1 0-0.4-0.2-0.7-0.6-0.1-0.1-0.1-0.2-0.1-0.1-0.2-0.2-0.1 0-0.1-0.1-0.1 0-0.1 0-0.1-0.1-0.3-0.1c-0.2 0-0.3 0-0.4 0.2-0.2 0.2-0.1 0.5 0.1 0.7q0 0 0 0 0.1 0.1 0.1 0.1 0.2 0.1 0.3 0.2 0.1 0 0.2 0.1c0.3 0.1 0.5 0.3 0.7 0.5 0.1 0.1 0.1 0.1 0.1 0.2v0.1l0.2 0.1q-0.1 0.1-0.1 0.1c-0.9 1.4-1.2 2.9-1 4.5l-0.2 0.1q0 0 0 0 0 0.1-0.2 0.2-0.4 0.1-0.9 0.1-0.1 0-0.2 0-0.1 0-0.3 0.1 0 0-0.1 0 0 0 0 0c-0.4 0.1-0.5 0.4-0.5 0.6 0.1 0.3 0.3 0.4 0.6 0.4q0 0 0.1 0 0 0 0 0 0.1 0 0.1 0 0.2-0.1 0.3-0.2 0.1 0 0.2 0 0.5-0.2 0.9-0.3c0.1 0 0.2 0.1 0.2 0.1q0 0 0.1 0h0.2c0.4 1.2 1.2 2.3 2.2 3.2q0.3 0.2 0.7 0.4l-0.1 0.3q0 0 0 0c0.1 0.1 0.1 0.1 0.1 0.3q-0.2 0.3-0.5 0.7v0.1q0 0-0.1 0.1-0.1 0.1-0.2 0.3 0 0 0 0.1 0 0 0 0c-0.2 0.3-0.1 0.6 0.2 0.7q0.1 0.1 0.2 0.1c0.2 0 0.4-0.2 0.5-0.4q0 0 0 0 0 0 0.1-0.1c0-0.1 0-0.2 0.1-0.3v-0.1c0.1-0.4 0.2-0.6 0.4-0.9 0-0.1 0.1-0.1 0.2-0.1q0 0 0 0l0.2-0.3c0.7 0.3 1.5 0.5 2.3 0.5q0.8 0 1.5-0.2 0.4-0.1 0.9-0.2l0.1 0.1q0 0 0 0.1 0.1 0 0.2 0.1 0.2 0.4 0.4 0.9v0.1q0 0.2 0.1 0.3 0 0.1 0.1 0.1 0 0 0 0c0.1 0.2 0.3 0.4 0.5 0.4q0.1 0 0.2-0.1 0.2-0.1 0.2-0.3 0.1-0.2 0-0.4 0 0 0 0 0-0.1-0.1-0.1 0-0.2-0.1-0.3-0.1-0.1-0.1-0.1v-0.1c-0.2-0.2-0.4-0.5-0.5-0.7 0-0.2 0-0.2 0-0.3q0 0 0 0v-0.2c0.9-0.6 1.6-1.3 2.2-2.2q0.4-0.7 0.7-1.5h0.2q0 0 0 0c0.1 0 0.1-0.1 0.2-0.1h0.1q0.4 0.1 0.9 0.3 0.1 0 0.1 0 0.2 0.1 0.3 0.1 0.1 0.1 0.1 0.1 0.1 0 0.1 0 0.1 0 0.1 0c0.3 0 0.5-0.2 0.6-0.4 0-0.2-0.2-0.5-0.5-0.5zm-7.8-0.9l-0.8 0.4-0.7-0.4-0.2-0.8 0.5-0.6h0.8l0.5 0.6-0.1 0.8zm4.4-1.7q0.2 0.8 0.1 1.7l-2.6-0.8c-0.2 0-0.4-0.3-0.3-0.5q0-0.1 0.1-0.2l2-1.8q0.5 0.7 0.7 1.6zm-1.5-2.6l-2.2 1.5c-0.2 0.2-0.4 0.1-0.6-0.1q0 0-0.1-0.1l-0.1-2.8c1.1 0.1 2.2 0.7 3 1.5zm-4.9-1.4q0.3 0 0.6-0.1l-0.2 2.7c0 0.2-0.2 0.4-0.4 0.4q-0.2 0-0.2 0l-2.3-1.6c0.7-0.7 1.6-1.2 2.5-1.4zm-3.3 2.4l2 1.8c0.2 0.1 0.2 0.4 0.1 0.6q-0.1 0.1-0.2 0.1l-2.6 0.8c-0.1-1.2 0.1-2.3 0.7-3.3zm-0.4 4.5l2.6-0.4c0.3 0 0.5 0.1 0.5 0.3q0 0.2 0 0.3l-1 2.5c-1-0.6-1.7-1.5-2.1-2.7zm6.1 3.4q-0.6 0.1-1.2 0.1-0.9 0-1.7-0.2l1.4-2.5c0.1-0.1 0.3-0.2 0.5-0.1q0.1 0.1 0.2 0.2l1.3 2.4q-0.2 0-0.5 0.1zm3.3-2.4q-0.7 1.1-1.6 1.7l-1.1-2.6c0-0.2 0-0.4 0.2-0.5q0.2 0 0.3 0l2.7 0.4q-0.2 0.6-0.5 1z"/></svg>