<svg version="1.2" xmlns="http://www.w3.org/2000/svg" viewBox="0 0 27 27" width="27" height="27"><style>.a{fill:#fff}</style><path class="a" d="m5.7 17.7v-1.8c1.1 1 3.4 1.7 6 1.7q0.3 0 0.7 0l1.2-1.3q-0.9 0.2-1.9 0.2c-3.5 0-6-1.3-6-2.3v-1.8c1.1 1 3.4 1.6 6 1.6 1.1 0 2.2-0.2 3.1-0.3q0.2-0.7 0.6-1.4c-1 0.3-2.3 0.6-3.7 0.6-3.5 0-6-1.2-6-2.3v-1.6c1.1 0.9 3.5 1.4 6 1.4 2.4 0 4.8-0.5 5.8-1.4v1.6q0.4-0.2 0.8-0.3v-1.6c0-0.3-0.2-1.1-0.2-1.2 0-1.5-3.3-2.4-6.4-2.4-3.2 0-6.5 0.9-6.5 2.4 0 0.1-0.2 0.9-0.2 1.2v1.9q0 0.4 0.3 0.8-0.3 0.5-0.3 0.9v1.9q0 0.4 0.3 0.8-0.3 0.4-0.3 0.8v1.9c0 1.5 2.2 2.7 5.2 3q0.1-0.5 0.2-0.7c-2.8-0.3-4.7-1.3-4.7-2.3z"/><path class="a" d="m20.5 12.1c-1.1-1.1-2.9-1.1-4 0-0.9 0.9-1.1 2.1-0.7 3.1l-4.6 4.6c-0.1 0.1-0.3 2-0.3 2l0.1 0.1c0 0 1.9-0.4 1.9-0.4l0.5-0.5h0.9c0.1 0 0.2 0 0.2-0.2v-0.8h0.4c0.2 0 0.2-0.1 0.2-0.2v-0.5l0.1-0.1h0.8c0 0 0.1-0.1 0.1-0.2v-0.8l1.4-1.3c1 0.4 2.3 0.1 3-0.6 1.2-1.2 1.2-3.1 0-4.2zm-8.3 8c-0.1 0.1-0.3 0.1-0.5 0 0-0.1 0-0.3 0-0.4l4.3-4.2q0 0.2 0.2 0.5zm8.2-6.2c-0.4 0.3-1 0.3-1.5 0-0.4-0.4-0.4-1.1 0-1.5 0.5-0.4 1.1-0.4 1.5 0 0.4 0.4 0.4 1.1 0 1.5z"/></svg>