<svg version="1.2" xmlns="http://www.w3.org/2000/svg" viewBox="0 0 42 43" width="42" height="43"><style>.a{fill:#4285f4}.b{fill:#669df6}</style><path fill-rule="evenodd" class="a" d="m21.8 22v-7.5c0.8-0.4 1.3-1.3 1.1-2.1-0.2-0.9-1-1.5-1.9-1.5-0.9 0-1.7 0.6-1.9 1.5-0.2 0.8 0.2 1.7 1 2.1v7.5h-7.1v-4.8c0.8-0.4 1.2-1.3 0.9-2.1-0.2-0.9-0.9-1.5-1.8-1.5-0.9 0-1.7 0.6-1.9 1.5-0.2 0.8 0.2 1.7 1 2.1v4.8h-0.4c-2.5 0-4.9-1.6-5.9-4-1-2.3-0.4-5.1 1.4-6.9 1.8-1.9 4.5-2.5 6.9-1.5 1.4-3.1 4.5-5.1 7.9-5.1 3.4 0 6.5 1.9 8 5q1-0.3 2-0.4c3.6 0 6.5 2.9 6.5 6.5 0 3.5-2.9 6.4-6.5 6.4h-0.4v-4.8c0.8-0.4 1.2-1.3 1-2.1-0.2-0.9-1-1.5-1.9-1.5-0.9 0-1.6 0.6-1.8 1.5-0.3 0.8 0.1 1.7 0.9 2.1v4.8z"/><path fill-rule="evenodd" class="b" d="m13 27c1.5 0.3 2.6 1.7 2.6 3.3 0 0.9-0.4 1.7-1 2.4-0.6 0.6-1.4 1-2.2 1.1-0.9 0-1.8-0.2-2.4-0.7-0.7-0.6-1.2-1.3-1.4-2.2-0.1-0.9 0.1-1.7 0.6-2.5 0.4-0.7 1.2-1.2 2-1.4v-5h1.7zm0.8 3.3c0-0.9-0.8-1.6-1.7-1.6-0.9 0-1.7 0.7-1.7 1.6 0 1 0.8 1.7 1.7 1.7 0.9 0 1.7-0.7 1.7-1.7zm16.9-3.3c0.8 0.2 1.5 0.7 2 1.4 0.5 0.7 0.7 1.6 0.6 2.4-0.1 0.8-0.5 1.6-1.2 2.2-0.6 0.5-1.4 0.8-2.3 0.8-0.8 0-1.6-0.3-2.3-0.8-0.6-0.6-1-1.4-1.1-2.2-0.1-0.8 0.1-1.7 0.5-2.4 0.5-0.7 1.2-1.2 2-1.4v-5h1.8zm-0.9 5.1c0.9 0 1.6-0.6 1.8-1.4 0.1-0.8-0.3-1.6-1.1-1.9-0.6-0.2-1.3-0.1-1.8 0.4-0.4 0.5-0.6 1.2-0.3 1.8 0.2 0.6 0.8 1 1.4 1.1zm-8-0.8c0.9 0.2 1.6 0.7 2.1 1.4 0.4 0.7 0.6 1.6 0.5 2.4-0.1 0.9-0.5 1.6-1.1 2.2-0.6 0.5-1.5 0.9-2.3 0.9-0.8 0-1.7-0.4-2.3-0.9-0.6-0.6-1-1.3-1.1-2.2-0.1-0.8 0.1-1.7 0.6-2.4 0.4-0.7 1.1-1.2 2-1.4v-9.2h1.7zm-0.9 5c0.8 0 1.4-0.5 1.6-1.2 0.3-0.7 0-1.4-0.6-1.8-0.7-0.5-1.5-0.4-2 0.1-0.6 0.4-0.8 1.2-0.5 1.9 0.2 0.6 0.9 1 1.5 1z"/></svg>