<svg version="1.2" xmlns="http://www.w3.org/2000/svg" viewBox="0 0 84 20" width="84" height="20"><style>.a{fill:#fff}</style><path class="a" d="m33.4 10q0.1 0.3 0.2 0.6 0.2-0.3 0.3-0.6 0.2-0.4 0.3-0.7l2.9-5.7q0.1-0.1 0.2-0.2 0.1-0.1 0.2-0.1 0.1-0.1 0.2-0.1 0.1 0 0.3 0h2v11.3h-2.3v-6.5q0-0.5 0-1l-3 5.8q-0.1 0.3-0.3 0.4-0.3 0.2-0.6 0.2h-0.3q-0.3 0-0.6-0.2-0.2-0.1-0.4-0.4l-3-5.8q0.1 0.3 0.1 0.5 0 0.3 0 0.5v6.5h-2.3v-11.3h2q0.1 0 0.3 0 0.1 0 0.2 0.1 0.1 0 0.2 0.1 0.1 0.1 0.1 0.2l3 5.8q0.1 0.2 0.3 0.6z"/><path class="a" d="m52.4 8.9q0 0.7-0.1 1.4-0.2 0.6-0.5 1.2-0.3 0.6-0.7 1.1-0.4 0.5-0.9 0.9l2.8 3.1h-2.1q-0.5 0-0.9-0.1-0.3-0.1-0.6-0.4l-1.5-1.6q-0.3 0.1-0.6 0.1-0.4 0.1-0.8 0.1-1.3 0-2.4-0.5-1.1-0.4-1.8-1.2-0.8-0.8-1.2-1.8-0.5-1.1-0.5-2.3 0-1.3 0.5-2.3 0.4-1.1 1.2-1.9 0.7-0.7 1.8-1.2 1.1-0.4 2.4-0.4 1.3 0 2.4 0.4 1.1 0.5 1.9 1.3 0.8 0.7 1.2 1.8 0.4 1 0.4 2.3zm-2.7 0q0-0.9-0.2-1.5-0.2-0.7-0.6-1.2-0.4-0.4-1-0.7-0.6-0.2-1.4-0.2-0.7 0-1.3 0.2-0.6 0.3-1 0.7-0.4 0.5-0.7 1.2-0.2 0.6-0.2 1.5 0 0.8 0.2 1.5 0.3 0.7 0.7 1.1 0.4 0.5 1 0.7 0.6 0.3 1.3 0.3 0.8 0 1.4-0.3 0.6-0.2 1-0.7 0.4-0.4 0.6-1.1 0.2-0.7 0.2-1.5z"/><path class="a" d="m60.8 3.2v2.1h-3v9.2h-2.7v-9.2h-3v-2.1z"/><path class="a" d="m70.9 3.2v2.1h-3.2v9.2h-2.6v-9.2h-3.1v-2.1z"/><path class="a" d="m13 9.6q0 0 0 0v4.5c0 0.3 0.3 0.6 0.6 0.6h4.6c-0.1-2.8-2.4-5.1-5.2-5.1z"/><path class="a" d="m13 5.9q0 0 0 0v1.9c3.8 0.1 6.9 3.1 6.9 6.9h2c-0.1-4.9-4-8.8-8.9-8.8z"/><path class="a" d="m24.7 14.1v-4c-1.4-3.3-4-5.9-7.4-7.1h-3.7c-0.3 0-0.6 0.3-0.6 0.6v0.6c5.8 0 10.6 4.7 10.6 10.5h0.5c0.3 0 0.6-0.3 0.6-0.6z"/><path class="a" d="m23.1 4.6c0.6 0.6 1.1 1.3 1.6 1.9v-2.9c0-0.3-0.3-0.6-0.6-0.6h-3c0.7 0.5 1.4 1 2 1.6z"/></svg>