<svg version="1.2" xmlns="http://www.w3.org/2000/svg" viewBox="0 0 109 33" width="109" height="33"><defs><linearGradient id="P" gradientUnits="userSpaceOnUse"/><linearGradient id="g1" x2="1" href="#P" gradientTransform="matrix(-5.445,11.039,-12.09,-5.963,38.934,15.452)"><stop stop-color="#3f873f"/><stop offset=".33" stop-color="#3f8b3d"/><stop offset=".64" stop-color="#3e9638"/><stop offset=".93" stop-color="#3da92e"/><stop offset="1" stop-color="#3dae2b"/></linearGradient><linearGradient id="g2" x2="1" href="#P" gradientTransform="matrix(15.193,-11.156,9.049,12.324,35.6,21.244)"><stop offset=".14" stop-color="#3f873f"/><stop offset=".4" stop-color="#52a044"/><stop offset=".71" stop-color="#64b749"/><stop offset=".91" stop-color="#6abf4b"/></linearGradient><linearGradient id="g3" x2="1" href="#P" gradientTransform="matrix(13.797,0,0,16.237,29.61,20.431)"><stop offset=".09" stop-color="#6abf4b"/><stop offset=".29" stop-color="#64b749"/><stop offset=".6" stop-color="#52a044"/><stop offset=".86" stop-color="#3f873f"/></linearGradient></defs><style>.a{fill:#5fa04e}.b{fill:#fff}.c{fill:url(#g1)}.d{fill:url(#g2)}.e{fill:url(#g3)}</style><path class="a" d="m85.7 28.2q-0.3 0-0.6-0.2l-1.9-1.1c-0.3-0.2-0.1-0.2 0-0.2 0.3-0.2 0.4-0.2 0.8-0.4q0.1-0.1 0.2 0l1.4 0.9q0.1 0 0.2 0l5.6-3.3q0.1-0.1 0.1-0.2v-6.6q0-0.1-0.1-0.1l-5.6-3.3q-0.1 0-0.2 0l-5.7 3.3q0 0 0 0.1v6.6q0 0.1 0 0.2l1.6 0.9c0.8 0.4 1.4-0.1 1.4-0.6v-6.5c0-0.1 0-0.2 0.1-0.2h0.7c0.1 0 0.2 0.1 0.2 0.2v6.5c0 1.1-0.6 1.8-1.7 1.8-0.3 0-0.5 0-1.3-0.4l-1.4-0.8c-0.4-0.2-0.6-0.6-0.6-1.1v-6.5c0-0.5 0.2-0.9 0.6-1.1l5.6-3.3c0.4-0.2 0.8-0.2 1.2 0l5.6 3.3c0.4 0.2 0.6 0.6 0.6 1.1v6.5c0 0.5-0.2 0.9-0.6 1.1l-5.6 3.3q-0.3 0.1-0.6 0.1z"/><path class="a" d="m87.5 23.7c-2.5 0-3-1.2-3-2.1 0-0.1 0-0.2 0.1-0.2h0.8q0.1 0 0.1 0.1c0.1 0.8 0.5 1.2 2 1.2 1.2 0 1.7-0.3 1.7-1 0-0.3-0.2-0.6-2-0.8-1.6-0.1-2.5-0.5-2.5-1.7 0-1.2 0.9-1.9 2.5-1.9 1.9 0 2.7 0.7 2.9 2q0 0.1-0.1 0.2 0 0-0.1 0h-0.7c-0.1 0-0.2 0-0.2-0.1-0.2-0.8-0.6-1-1.8-1-1.3 0-1.4 0.4-1.4 0.8 0 0.4 0.2 0.5 1.9 0.7 1.8 0.3 2.6 0.6 2.6 1.8 0 1.3-1.1 2-2.8 2z"/><path class="a" d="m95.6 16.8c0 0.6-0.5 1.1-1.1 1.1-0.6 0-1.1-0.5-1.1-1.1 0-0.7 0.5-1.1 1.1-1.1 0.6 0 1.1 0.5 1.1 1.1zm-2 0c0 0.5 0.4 0.9 0.9 0.9 0.5 0 0.9-0.4 0.9-0.9 0-0.5-0.4-0.9-0.9-0.9-0.5 0-0.9 0.4-0.9 0.9zm0.5-0.6h0.4c0.2 0 0.5 0 0.5 0.3 0 0.2-0.2 0.3-0.3 0.3 0.2 0 0.2 0.1 0.2 0.3 0 0.1 0.1 0.2 0.1 0.3h-0.3c0-0.1 0-0.4 0-0.4q0-0.1-0.1-0.1h-0.2v0.5h-0.3zm0.2 0.6h0.2c0.2 0 0.2-0.2 0.2-0.2 0-0.2-0.1-0.2-0.2-0.2h-0.2v0.4z"/><path fill-rule="evenodd" class="b" d="m26.8 16.9c0-0.3-0.1-0.5-0.3-0.7l-6-3.5q-0.2 0-0.4-0.1c0 0 0 0 0 0q-0.2 0.1-0.3 0.1l-6 3.5c-0.3 0.2-0.4 0.4-0.4 0.7v9.3c0 0.1 0.1 0.3 0.2 0.3 0.1 0.1 0.2 0.1 0.3 0l3.6-2c0.2-0.2 0.4-0.4 0.4-0.7v-4.3c0-0.3 0.1-0.5 0.3-0.7l1.6-0.8q0.1-0.1 0.3-0.1 0.2 0 0.4 0.1l1.5 0.8c0.2 0.2 0.4 0.4 0.4 0.7v4.3c0 0.3 0.1 0.5 0.3 0.7l3.6 2q0.2 0.1 0.3 0c0.2 0 0.2-0.2 0.2-0.3z"/><path fill-rule="evenodd" class="b" d="m59.3 6c0.2 0.1 0.3 0.4 0.3 0.6v17.4c0 0.3-0.1 0.5-0.3 0.6l-6 3.5c-0.3 0.2-0.5 0.2-0.8 0l-6-3.5c-0.2-0.1-0.3-0.3-0.3-0.6v-7c0-0.2 0.1-0.4 0.3-0.6l6-3.5c0.3-0.1 0.5-0.1 0.8 0l1.5 0.9q0.1 0.1 0.2 0 0.2-0.1 0.2-0.2v-9.3q0-0.2 0.1-0.3c0.1-0.1 0.3-0.1 0.4 0zm-4.1 13.3q0-0.1-0.1-0.1l-2.1-1.2q-0.1-0.1-0.2 0l-2 1.2q-0.1 0-0.1 0.1v2.4q0 0.1 0.1 0.2l2 1.2q0.1 0 0.2 0l2.1-1.2q0.1-0.1 0.1-0.2z"/><path fill-rule="evenodd" class="b" d="m75.7 19.3c0.2-0.2 0.3-0.4 0.3-0.7v-1.7c0-0.2-0.1-0.4-0.3-0.6l-6-3.5c-0.2-0.1-0.5-0.1-0.7 0l-6 3.5c-0.2 0.2-0.4 0.4-0.4 0.7v6.9c0 0.3 0.2 0.5 0.4 0.7l5.9 3.4c0.3 0.1 0.5 0.1 0.8 0l3.6-2c0.1-0.1 0.1-0.2 0.1-0.4 0-0.1 0-0.2-0.1-0.3l-6.1-3.5q-0.1-0.1-0.2-0.3v-2.2c0-0.1 0.1-0.2 0.2-0.3l1.9-1.1q0.2-0.1 0.4 0l1.9 1.1q0.1 0.1 0.2 0.3v1.8c0 0.1 0 0.2 0.1 0.3q0.2 0.1 0.4 0z"/><path fill-rule="evenodd" class="a" d="m69.3 18.9q0 0 0.1 0l1.1 0.7q0.1 0.1 0.1 0.1v1.4q0 0.1-0.1 0.1l-1.1 0.7q-0.1 0-0.1 0l-1.2-0.7q-0.1 0-0.1-0.1v-1.4q0 0 0.1-0.1z"/><path class="c" d="m36.9 12.9c-0.3-0.2-0.5-0.2-0.8 0l-5.9 3.4c-0.2 0.2-0.4 0.4-0.4 0.7v6.9c0 0.3 0.2 0.5 0.4 0.6l5.9 3.5c0.3 0.1 0.5 0.1 0.8 0l5.9-3.5c0.3-0.1 0.4-0.3 0.4-0.6v-6.9c0-0.3-0.2-0.5-0.4-0.7z"/><path class="d" d="m42.8 16.3l-5.9-3.4q-0.1-0.1-0.2-0.1l-6.7 11.6q0 0.1 0.2 0.1l5.9 3.5q0.3 0.1 0.6 0.1l6.3-11.6q-0.1-0.1-0.2-0.2z"/><path class="e" d="m42.8 24.5c0.2-0.1 0.3-0.2 0.4-0.4l-6.6-11.3q-0.2-0.1-0.5 0.1l-5.9 3.4 6.4 11.8q0.1 0 0.3-0.1z"/></svg>