<svg width="42" height="42" viewBox="0 0 42 42" fill="none" xmlns="http://www.w3.org/2000/svg">
<path d="M16.1089 15.288V11.298C16.1089 10.9619 16.2338 10.7098 16.5251 10.5419L24.4757 5.922C25.558 5.29205 26.8484 4.99817 28.1801 4.99817C33.1752 4.99817 36.3388 8.90427 36.3388 13.0621C36.3388 13.356 36.3388 13.6921 36.297 14.0281L28.0553 9.156C27.5559 8.86212 27.0562 8.86212 26.5567 9.156L16.1089 15.288ZM34.6737 30.8282V21.2939C34.6737 20.7057 34.4237 20.2858 33.9243 19.9918L23.4765 13.8599L26.8898 11.8857C27.1811 11.7179 27.431 11.7179 27.7223 11.8857L35.6728 16.5057C37.9624 17.8499 39.5022 20.7057 39.5022 23.4776C39.5022 26.6695 37.6294 29.6095 34.6737 30.8277V30.8282ZM13.653 22.4281L10.2398 20.4122C9.94847 20.2444 9.82354 19.9923 9.82354 19.6562V10.4163C9.82354 5.92239 13.2368 2.52016 17.8573 2.52016C19.6057 2.52016 21.2287 3.10835 22.6027 4.15824L14.4026 8.94642C13.9033 9.24032 13.6534 9.66028 13.6534 10.2485V22.4285L13.653 22.4281ZM21 26.712L16.1089 23.9401V18.0603L21 15.2884L25.8906 18.0603V23.9401L21 26.712ZM24.1426 39.4802C22.3942 39.4802 20.7712 38.892 19.3972 37.8423L27.5971 33.0539C28.0965 32.76 28.3465 32.3402 28.3465 31.7519V19.5719L31.8016 21.5878C32.0928 21.7556 32.2177 22.0077 32.2177 22.3438V31.5838C32.2177 36.0775 28.7626 39.4802 24.1426 39.4802ZM14.2773 30.1143L6.32673 25.4943C4.03716 24.1501 2.49727 21.2943 2.49727 18.5224C2.49727 15.2884 4.41201 12.3904 7.36725 11.1723V20.7483C7.36725 21.3364 7.61714 21.7564 8.11651 22.0503L18.523 28.14L15.1097 30.1143C14.8185 30.2821 14.5686 30.2821 14.2773 30.1143ZM13.8197 37.0024C9.11605 37.0024 5.66103 33.4321 5.66103 29.0221C5.66103 28.6861 5.7028 28.3501 5.74419 28.014L13.9443 32.8022C14.4436 33.096 14.9434 33.096 15.4428 32.8022L25.8906 26.7124V30.7025C25.8906 31.0385 25.7657 31.2905 25.4744 31.4584L17.5238 36.0784C16.4415 36.7082 15.1511 37.0024 13.8193 37.0024H13.8197ZM24.1426 42C29.1792 42 33.3831 38.3881 34.341 33.5999C39.0028 32.3818 42 27.9719 42 23.478C42 20.5379 40.7512 17.6821 38.5034 15.624C38.7115 14.7419 38.8367 13.8599 38.8367 12.9782C38.8367 6.97231 34.0079 2.478 28.4301 2.478C27.3065 2.478 26.2241 2.64583 25.1418 3.02403C23.2684 1.17597 20.6876 0 17.8573 0C12.8206 0 8.61667 3.61181 7.65891 8.39999C2.99705 9.61811 0 14.0281 0 18.522C0 21.4621 1.24863 24.3179 3.49642 26.376C3.2883 27.258 3.16337 28.14 3.16337 29.0218C3.16337 35.0276 7.99196 39.5219 13.5698 39.5219C14.6935 39.5219 15.7758 39.3543 16.8581 38.9761C18.7311 40.8241 21.3119 42 24.1426 42Z" fill="white"/>
</svg>
