<svg version="1.2" xmlns="http://www.w3.org/2000/svg" viewBox="0 0 72 37" width="72" height="37"><style>.a{fill:#fff}</style><path class="a" d="m20.4 12.7h5.5q2.4 0 3.5 1.4 1.1 1.3 0.8 3.8-0.2 1-0.7 2.1-0.5 1-1.3 1.9-1.1 1-2.2 1.3-1.2 0.3-2.4 0.3h-2.5l-0.8 3.9h-2.8zm2.4 2.3l-1.2 6.2q0 0 0.2 0 0.1 0 0.3 0 1.9 0 3.3-0.4 1.3-0.4 1.7-3 0.4-2.1-0.7-2.5-1.1-0.3-2.8-0.3-0.2 0-0.4 0-0.2 0-0.4 0z"/><path class="a" d="m33.3 8.8h2.9l-0.8 3.9h2.5q2.2 0.1 3.1 0.9 1.1 0.8 0.7 3.1l-1.4 6.8h-2.9l1.3-6.5q0.3-1-0.1-1.5-0.3-0.4-1.4-0.4h-2.2l-1.7 8.4h-2.9z"/><path class="a" d="m44.7 12.7h5.5q2.5 0 3.5 1.4 1.1 1.3 0.7 3.8-0.1 1-0.6 2.1-0.5 1-1.3 1.9-1 1-2.2 1.3-1.2 0.3-2.4 0.3h-2.5l-0.7 3.9h-2.9zm2.4 2.3l-1.2 6.2q0.1 0 0.2 0 0.1 0 0.3 0 2 0 3.2-0.4 1.4-0.4 1.8-3 0.4-2.1-0.7-2.5-1.1-0.3-2.8-0.3-0.2 0-0.4 0-0.2 0-0.5 0z"/></svg>