<svg width="123" height="24" viewBox="0 0 123 24" fill="none" xmlns="http://www.w3.org/2000/svg">
<path d="M19.1487 0L11.6529 4.30495V17.7409L7.51714 20.1384L3.35607 17.739V12.9421L7.51714 10.566L10.1927 12.1176V8.23657L7.4938 6.70437L0 11.0579V19.6698L7.51908 24L15.0129 19.6698V6.23576L19.1739 3.83634L23.3331 6.23576V11.0113L19.1739 13.4321L16.4751 11.8668V15.7284L19.1487 17.2704L26.7164 12.9654V4.30495L19.1487 0Z" fill="white"/>
<path fill-rule="evenodd" clip-rule="evenodd" d="M63.1259 18.6529H66.4859V0.235352H63.1259V18.6529ZM41.5253 5.56112C43.1178 5.56112 44.4381 6.20083 45.4822 7.47832C46.5283 8.7558 47.0494 10.3405 47.0494 12.2325C47.0494 14.1244 46.5264 15.7091 45.4822 16.9866C44.4361 18.264 43.1178 18.9038 41.5253 18.9038C40.3976 18.9038 39.4176 18.5557 38.5893 17.8577C37.7765 17.1441 37.1796 16.1816 36.7965 14.9702V23.6307H33.4365V5.81001H36.7965V9.49274C37.1776 8.28137 37.7765 7.32665 38.5893 6.63055C39.4195 5.91695 40.3976 5.56112 41.5253 5.56112ZM40.3042 15.8413C41.2162 15.8413 41.9881 15.501 42.6181 14.8205C43.2481 14.1244 43.5631 13.2611 43.5631 12.2325C43.5631 11.2039 43.2481 10.3736 42.6181 9.69302C41.9881 8.99691 41.2162 8.64692 40.3042 8.64692C39.2912 8.64692 38.4551 8.98719 37.7901 9.66774C37.1271 10.3483 36.7946 11.2019 36.7946 12.2305C36.7946 13.2591 37.1271 14.1224 37.7901 14.8185C38.4532 15.4991 39.2912 15.8394 40.3042 15.8394V15.8413ZM47.9419 12.2325C47.9419 14.1244 48.5972 15.7091 49.9077 16.9866C51.2183 18.264 52.8535 18.9038 54.8116 18.9038C56.7696 18.9038 58.4049 18.264 59.7154 16.9866C61.0259 15.7091 61.6812 14.1244 61.6812 12.2325C61.6812 10.3405 61.0259 8.7558 59.7154 7.47832C58.4049 6.20083 56.7696 5.56112 54.8116 5.56112C52.8535 5.56112 51.2183 6.20083 49.9077 7.47832C48.5972 8.7558 47.9419 10.3405 47.9419 12.2325ZM52.3966 14.8205C51.7491 14.1244 51.4263 13.2611 51.4263 12.2325C51.4263 11.2039 51.7491 10.3736 52.3966 9.69302C53.0441 8.99691 53.8491 8.64692 54.8116 8.64692C55.7741 8.64692 56.5791 8.98719 57.2265 9.66774C57.874 10.3483 58.1968 11.2019 58.1968 12.2305C58.1968 13.2591 57.874 14.1224 57.2265 14.8185C56.5791 15.4991 55.7741 15.8394 54.8116 15.8394C53.8491 15.8394 53.0441 15.4991 52.3966 14.8185V14.8205ZM97.5266 16.9866C96.2161 15.7091 95.5608 14.1244 95.5608 12.2325C95.5608 10.3405 96.2161 8.7558 97.5266 7.47832C98.8372 6.20083 100.472 5.56112 102.43 5.56112C104.388 5.56112 106.023 6.20083 107.334 7.47832C108.645 8.7558 109.3 10.3405 109.3 12.2325C109.3 14.1244 108.645 15.7091 107.334 16.9866C106.023 18.264 104.388 18.9038 102.43 18.9038C100.472 18.9038 98.8391 18.264 97.5266 16.9866ZM99.0433 12.2325C99.0433 13.2611 99.3661 14.1244 100.013 14.8205C100.661 15.501 101.466 15.8413 102.428 15.8413C103.391 15.8413 104.196 15.501 104.843 14.8205C105.491 14.1244 105.813 13.2611 105.813 12.2325C105.813 11.2039 105.491 10.3483 104.843 9.66968C104.196 8.98913 103.391 8.64886 102.428 8.64886C101.466 8.64886 100.661 8.99691 100.013 9.69496C99.3661 10.3755 99.0433 11.2214 99.0433 12.2344V12.2325ZM118.242 5.56112C119.669 5.56112 120.815 6.05889 121.676 7.05444C122.555 8.04998 122.994 9.31969 122.994 10.8616V18.651H119.634V11.4586C119.634 10.6283 119.37 9.94773 118.837 9.41691C118.306 8.88608 117.643 8.6197 116.846 8.6197C115.95 8.6197 115.221 8.88608 114.657 9.41691C114.093 9.94773 113.811 10.6283 113.811 11.4586V18.651H110.451V5.81001H113.811V9.09608C114.143 8.00137 114.699 7.13805 115.479 6.50805C116.276 5.87806 117.196 5.56306 118.242 5.56306V5.56112ZM74.5572 15.2288L77.991 5.82167H81.4015L74.3336 23.6423H70.9231L72.7158 19.1118L67.4639 5.82167H71.0981L74.5572 15.2288ZM90.9564 5.81001V9.02802C90.2564 6.92805 88.5279 5.81001 86.2276 5.81001C82.7549 5.81001 80.7016 8.8433 80.7016 12.0322C80.7016 15.221 82.7393 18.5032 86.2276 18.5032C88.5279 18.5032 90.2564 16.8446 90.9564 14.7446V17.2082C90.9564 18.2543 90.6162 19.1157 89.9356 19.7963C89.2551 20.4768 88.4267 20.8171 87.4468 20.8171C86.1187 20.8171 85.1329 20.154 84.4854 18.826L81.4735 20.4185C82.0374 21.4646 82.8424 22.3007 83.8885 22.9326C84.9346 23.5626 86.1207 23.8776 87.4468 23.8776C89.4048 23.8776 91.04 23.2398 92.3506 21.9604C93.6611 20.6829 94.3164 19.0982 94.3164 17.2063V5.81001H90.9564ZM89.9862 14.4724C89.3387 15.1199 88.5259 15.4427 87.5479 15.4427C86.5698 15.4427 85.8057 15.1199 85.1582 14.4724C84.5107 13.8094 84.1879 12.9966 84.1879 12.0341C84.1879 11.0716 84.5107 10.2666 85.1582 9.61913C85.8057 8.97164 86.6009 8.64886 87.5479 8.64886C88.4948 8.64886 89.3406 8.97164 89.9862 9.61913C90.6337 10.2491 90.9564 11.0541 90.9564 12.0341C90.9564 13.0141 90.6337 13.8269 89.9862 14.4724Z" fill="white"/>
</svg>
