<svg width="150" height="37" viewBox="0 0 150 37" fill="none" xmlns="http://www.w3.org/2000/svg">
<path d="M19.2387 8.43439L17.2071 10.466C20.5315 13.7904 20.5315 19.1465 17.2071 22.4094C13.8826 25.7338 8.52658 25.7338 5.2637 22.4094C1.93926 19.0849 1.93926 13.7289 5.2637 10.466L10.5274 5.2023L11.2662 4.46354V0.492676L3.32444 8.43439C-1.10815 12.867 -1.10815 20.0084 3.32444 24.441C7.75703 28.8735 14.8984 28.8735 19.2387 24.441C23.6712 19.9776 23.6712 12.867 19.2387 8.43439Z" fill="white"/>
<path d="M15.2676 7.94189C16.0836 7.94189 16.7451 7.28038 16.7451 6.46436C16.7451 5.64834 16.0836 4.98682 15.2676 4.98682C14.4516 4.98682 13.79 5.64834 13.79 6.46436C13.79 7.28038 14.4516 7.94189 15.2676 7.94189Z" fill="white"/>
<path d="M39.77 18.5921H36.3533V27.365H33.7676V2.40088C33.7676 2.40088 39.6777 2.40088 40.0471 2.40088C46.6036 2.40088 49.7434 5.63298 49.7434 10.1579C49.8357 15.7294 45.9572 18.5921 39.77 18.5921ZM40.0471 4.8942C39.77 4.8942 36.4456 4.8942 36.4456 4.8942V16.3758L39.9547 16.2835C44.6644 16.1911 47.25 14.3442 47.25 10.4657C47.25 6.83347 44.6644 4.8942 40.0471 4.8942Z" fill="white"/>
<path d="M61.3177 27.2726L59.8401 31.2435C58.1779 35.6761 56.4234 36.9689 53.93 36.9689C52.5448 36.9689 51.529 36.5995 50.4209 36.1378L51.1597 33.8291C51.9908 34.2909 52.9142 34.6603 53.93 34.6603C55.3152 34.6603 56.331 33.9215 57.7162 30.4124L58.9167 27.1803L51.8061 9.14209H54.4841L60.2095 24.2252L65.8426 9.14209H68.4283L61.3177 27.2726Z" fill="white"/>
<path d="M76.8624 4.89439V27.4575H74.2767V4.89439H65.5039V2.49341H85.5737V4.89439C85.5429 4.89439 76.8624 4.89439 76.8624 4.89439Z" fill="white"/>
<path d="M92.8685 27.9191C87.7895 27.9191 84.0957 24.133 84.0957 18.3152C84.0957 12.4974 87.9742 8.6189 93.1456 8.6189C98.3169 8.6189 101.918 12.4051 101.918 18.2228C101.826 24.0406 97.9475 27.9191 92.8685 27.9191ZM92.9609 10.9275C89.0824 10.9275 86.589 13.9749 86.589 18.3152C86.589 22.7478 89.1747 25.7952 93.0532 25.7952C96.9317 25.7952 99.4251 22.7478 99.4251 18.4075C99.4251 13.8826 96.8394 10.9275 92.9609 10.9275Z" fill="white"/>
<path d="M108.106 27.4574H105.612V9.1422L108.106 8.58813V12.4667C109.306 10.158 111.061 8.58813 113.462 8.58813C114.662 8.58813 115.77 8.95752 116.694 9.41925L116.047 11.7279C115.216 11.2662 114.293 10.8968 113.277 10.8968C111.338 10.8968 109.583 12.3743 108.106 15.6064V27.4574Z" fill="white"/>
<path d="M126.421 27.9191C120.881 27.9191 117.464 23.9483 117.464 18.3152C117.464 12.5898 121.25 8.6189 126.421 8.6189C128.638 8.6189 130.577 9.17296 132.147 10.1888L131.5 12.4051C130.115 11.4816 128.361 10.9275 126.421 10.9275C122.451 10.9275 120.05 13.8826 120.05 18.2228C120.05 22.6554 122.635 25.6105 126.514 25.6105C128.361 25.6105 130.208 25.0564 131.593 24.1329L132.147 26.4416C130.485 27.365 128.545 27.9191 126.421 27.9191Z" fill="white"/>
<path d="M147.414 27.4574V15.6064C147.414 12.3743 146.121 10.9891 143.536 10.9891C141.412 10.9891 139.38 12.0973 137.903 13.5748V27.4574H135.409V0.55407L137.903 0C137.903 0 137.903 11.4816 137.903 11.574C139.842 9.63471 142.243 8.71126 144.274 8.71126C147.783 8.71126 150 11.0199 150 14.9908V27.4882H147.414V27.4574Z" fill="white"/>
</svg>
