<svg version="1.2" xmlns="http://www.w3.org/2000/svg" viewBox="0 0 54 55" width="54" height="55"><style>.a{fill:#087ea4}.b{fill:none;stroke:#087ea4;stroke-width:2.1}</style><path fill-rule="evenodd" class="a" d="m27.2 31.5c-2.2 0-3.9-1.8-3.9-4 0-2.2 1.7-4 3.9-4 2.2 0 4 1.8 4 4 0 2.2-1.8 4-4 4z"/><path fill-rule="evenodd" class="b" d="m27.2 36.4c-10.9 0-19.8-4-19.8-8.9 0-4.9 8.9-8.9 19.8-8.9 10.9 0 19.8 4 19.8 8.9 0 4.9-8.9 8.9-19.8 8.9z"/><path class="b" d="m19.5 31.9c5.5 9.5 13.3 15.2 17.6 12.7 4.2-2.4 3.3-12.1-2.2-21.5-5.5-9.5-13.3-15.2-17.6-12.7-4.2 2.4-3.3 12.1 2.2 21.5z"/><path class="b" d="m19.5 23.1c-5.5 9.4-6.4 19.1-2.2 21.5 4.3 2.5 12.1-3.2 17.6-12.7 5.5-9.4 6.4-19.1 2.2-21.5-4.3-2.5-12.1 3.2-17.6 12.7z"/></svg>