<svg version="1.2" xmlns="http://www.w3.org/2000/svg" viewBox="0 0 43 43" width="43" height="43"><style>.a{fill:#fff}.b{fill:#fff;stroke:#fff;stroke-linecap:round;stroke-linejoin:round;stroke-width:3}</style><path class="a" d="m21.5 8.9c-6.9 0-12.6 5.7-12.6 12.6 0 6.9 5.7 12.6 12.6 12.6 6.9 0 12.6-5.7 12.6-12.6 0-6.9-5.7-12.6-12.6-12.6zm0 1.1q0.3 0 0.6 0.3 0.2 0.2 0.2 0.6 0 0.3-0.3 0.5-0.2 0.3-0.5 0.3-0.4 0-0.6-0.3-0.3-0.2-0.3-0.5 0-0.2 0.1-0.4 0.1-0.1 0.2-0.2 0.1-0.2 0.3-0.2 0.1-0.1 0.3-0.1zm1.9 1.4c1.4 0.3 2.8 0.8 4 1.7 1.2 0.9 2.2 2 3 3.3l-1 2.2c-0.2 0.3 0 0.8 0.4 1l1.8 0.8q0.1 0.9 0.1 1.8h-1.1q-0.1 0-0.1 0.1v0.5c0 1.1-0.7 1.4-1.2 1.5-0.6 0-1.1-0.3-1.2-0.6-0.3-1.8-0.9-2.1-1.7-2.8 1-0.6 2.1-1.6 2.1-2.9 0-1.4-0.9-2.2-1.6-2.7-0.9-0.6-1.9-0.7-2.2-0.7h-10.8c1.5-1.7 3.5-2.8 5.7-3.2l1.3 1.3c0.3 0.3 0.7 0.3 1.1 0.1zm-11.8 6.1q0.3 0 0.5 0.2 0.3 0.3 0.3 0.6 0 0.4-0.3 0.6-0.2 0.2-0.5 0.2-0.4 0-0.6-0.2-0.3-0.2-0.3-0.6 0-0.2 0.1-0.3 0.1-0.2 0.2-0.3 0.1-0.1 0.3-0.2 0.1 0 0.3 0zm19.7 0q0.4 0 0.6 0.3 0.2 0.2 0.2 0.5 0 0.4-0.2 0.6-0.3 0.3-0.6 0.3-0.3 0-0.6-0.3-0.2-0.2-0.2-0.6 0-0.1 0-0.3 0.1-0.1 0.2-0.2 0.1-0.2 0.3-0.2 0.2-0.1 0.3-0.1zm-18.2 0.2h1.5v6.5h-2.9c-0.4-1.3-0.5-2.6-0.4-3.9l1.8-0.8c0.4-0.2 0.6-0.6 0.4-1zm6 0.1h3.5c0.1 0 1.2 0.2 1.2 1 0 0.6-0.8 0.9-1.5 0.9h-3.2zm0 4.7h2.7c0.2 0 1.2 0 1.6 1.4 0.1 0.4 0.3 1.7 0.5 2.1 0.1 0.5 0.8 1.5 1.4 1.5h4.3q-0.4 0.6-0.9 1.1l-1.7-0.4c-0.5-0.1-0.9 0.2-0.9 0.6l-0.5 1.9c-1.3 0.6-2.7 0.9-4.2 0.9-1.5 0-2.9-0.3-4.3-0.9l-0.4-2c-0.1-0.4-0.5-0.6-0.9-0.6l-1.7 0.4q-0.5-0.5-0.9-1h8.4c0.1 0 0.1 0 0.1-0.1v-3q0-0.1-0.1-0.1h-2.5zm-3.8 6.8q0.3 0 0.6 0.2 0.2 0.3 0.2 0.6 0 0.3-0.3 0.6-0.2 0.2-0.5 0.2-0.4 0-0.6-0.2-0.3-0.3-0.3-0.6 0-0.2 0.1-0.3 0.1-0.2 0.2-0.3 0.1-0.1 0.3-0.2 0.1 0 0.3 0zm12.2 0q0.4 0 0.6 0.3 0.2 0.2 0.3 0.5-0.1 0.4-0.3 0.6-0.2 0.3-0.6 0.3-0.3 0-0.6-0.3-0.2-0.2-0.2-0.6 0-0.1 0.1-0.3 0-0.1 0.1-0.3 0.2-0.1 0.3-0.1 0.2-0.1 0.3-0.1z"/><path fill-rule="evenodd" class="b" d="m33.2 20.4l0.1 0.1q0-0.2 0-0.3zm1.9 1.2l-1.7 1q0-0.5 0-1 0-0.6 0-1.1zm-1.9 1.2l0.2 0.1q0-0.1 0-0.2zm1.6 1.4l-1.8 0.7q0.3-1 0.4-2zm-2.1 0.8l0.2 0.1q0-0.1 0-0.2zm1.3 1.8l-1.9 0.3q0.4-0.9 0.8-1.9zm-2.2 0.3l0.1 0.2q0-0.1 0.1-0.2zm0.9 2l-2-0.1q0.7-0.8 1.2-1.7zm-2.2-0.1l0.1 0.2q0-0.1 0.1-0.2zm0.5 2.1l-1.9-0.4q0.4-0.4 0.8-0.7 0.3-0.4 0.7-0.8zm-2.2-0.5l0.1 0.2q0.1-0.1 0.2-0.1zm0 2.1l-1.8-0.8q0.9-0.5 1.8-1.1zm-2-0.9l-0.1 0.2q0.2-0.1 0.3-0.2zm-0.4 2.2l-1.6-1.1q1-0.4 1.9-0.8zm-1.7-1.3l-0.1 0.2q0.1-0.1 0.2-0.1zm-0.7 2l-1.4-1.4q1.1-0.1 2.1-0.4zm-1.5-1.6l-0.1 0.2q0.1 0 0.2 0zm-1.1 1.8l-1.1-1.7q0.5 0.1 1.1 0.1 0.5 0 1-0.1zm-1.1-1.8l-0.2 0.1q0.1 0.1 0.3 0.1zm-1.5 1.6l-0.7-1.9q1 0.3 2 0.4zm-0.7-2l-0.2 0.1q0.1 0 0.2 0.1zm-1.7 1.2l-0.4-1.9q1 0.5 2 0.8zm-0.4-2.2l-0.2 0.1q0.1 0.1 0.2 0.2zm-1.9 0.9v-2q0.8 0.6 1.7 1.1zm0.1-2.1h-0.2q0.1 0.1 0.2 0.2zm-2.1 0.5l0.4-2q0.4 0.4 0.7 0.8 0.4 0.4 0.8 0.7zm0.5-2.1h-0.2q0.1 0.1 0.2 0.2zm-2.2 0.1l0.8-1.8q0.5 0.9 1.2 1.7zm0.9-2h-0.3q0.1 0.1 0.2 0.2zm-2.2-0.3l1.2-1.6q0.3 1 0.8 1.9zm1.2-1.8l-0.2-0.1q0.1 0.2 0.1 0.3zm-2-0.8l1.4-1.3q0.1 1 0.4 2zm1.6-1.5l-0.2-0.1q0 0.1 0.1 0.3zm-1.9-1.2l1.7-1q-0.1 0.5-0.1 1 0 0.5 0.1 1zm1.8-1.1l-0.1-0.1q0 0.1 0 0.2zm-1.6-1.5l1.8-0.7q-0.3 1-0.4 2.1zm2-0.8l-0.1-0.2q0 0.1-0.1 0.3zm-1.2-1.8l1.9-0.3q-0.5 0.9-0.8 1.9zm2.2-0.3l-0.1-0.2q-0.1 0.1-0.1 0.2zm-0.9-2l1.9 0.1q-0.6 0.8-1.1 1.7zm2.2 0.1l-0.1-0.2q-0.1 0.1-0.1 0.2zm-0.5-2.2l1.9 0.5q-0.4 0.3-0.8 0.7-0.4 0.4-0.7 0.8zm2.1 0.5v-0.3q-0.1 0.1-0.2 0.2zm-0.1-2.2l1.8 0.8q-0.9 0.5-1.7 1.2zm2 0.9v-0.2q-0.1 0.1-0.2 0.1zm0.4-2.1l1.6 1.1q-1 0.3-2 0.8zm1.8 1.3l0.1-0.2q-0.1 0-0.3 0.1zm0.8-2.1l1.4 1.5q-1.1 0.1-2.1 0.4zm1.5 1.6l0.1-0.2q-0.1 0-0.2 0zm1.1-1.9l1.1 1.7q-0.6 0-1.1 0-0.5 0-1 0zm1.1 1.9l0.2-0.2q-0.2 0-0.3 0zm1.5-1.6l0.7 1.8q-1-0.2-2-0.4zm0.7 2.1l0.2-0.1q-0.1-0.1-0.3-0.1zm1.8-1.3l0.3 2q-0.9-0.5-1.9-0.8zm0.4 2.1l0.2-0.1q-0.2 0-0.3-0.1zm2-0.9v2q-0.9-0.7-1.8-1.2zm0 2.2h0.2q-0.1-0.1-0.2-0.2zm2.1-0.5l-0.5 1.9q-0.3-0.4-0.7-0.8-0.3-0.3-0.7-0.7zm-0.5 2.2h0.2q-0.1-0.1-0.2-0.2zm2.2-0.1l-0.8 1.8q-0.5-0.9-1.2-1.7zm-0.9 1.9l0.2 0.1q0-0.1-0.1-0.2zm2.2 0.3l-1.2 1.6q-0.3-1-0.8-1.9zm-1.3 1.8h0.2q0-0.1 0-0.2zm2 0.8l-1.4 1.3q-0.1-1-0.4-2z"/></svg>