<svg width="149" height="23" viewBox="0 0 149 23" fill="none" xmlns="http://www.w3.org/2000/svg">
<path d="M24.6287 17.4581L20.5417 21.8401C20.4531 21.9351 20.346 22.0109 20.227 22.0628C20.108 22.1147 19.9796 22.1417 19.8497 22.1421H0.474725C0.382518 22.1416 0.29244 22.1143 0.215437 22.0636C0.138434 22.0129 0.0778199 21.9409 0.0409614 21.8564C0.00410285 21.7719 -0.00741364 21.6785 0.00781139 21.5875C0.0230364 21.4966 0.0643475 21.412 0.126725 21.3441L4.20872 16.9621C4.2973 16.8671 4.40441 16.7913 4.52343 16.7394C4.64246 16.6875 4.77086 16.6605 4.90072 16.6601H24.2757C24.3689 16.6582 24.4606 16.684 24.5393 16.7341C24.6179 16.7842 24.68 16.8564 24.7177 16.9417C24.7554 17.0269 24.7671 17.1214 24.7513 17.2133C24.7354 17.3052 24.6928 17.3904 24.6287 17.4581ZM20.5417 8.6311C20.4528 8.5366 20.3456 8.46112 20.2267 8.40921C20.1077 8.35731 19.9795 8.33005 19.8497 8.3291H0.474725C0.382324 8.32915 0.291945 8.35616 0.214659 8.4068C0.137373 8.45744 0.0765361 8.52953 0.0396004 8.61423C0.00266474 8.69892 -0.00876579 8.79255 0.00670903 8.88365C0.0221839 8.97475 0.0638921 9.05935 0.126725 9.1271L4.20872 13.5121C4.29767 13.6066 4.40485 13.6821 4.52379 13.734C4.64273 13.7859 4.77096 13.8131 4.90072 13.8141H24.2757C24.3678 13.8132 24.4576 13.7857 24.5343 13.7348C24.611 13.6839 24.6713 13.6119 24.7079 13.5275C24.7445 13.443 24.7559 13.3498 24.7406 13.259C24.7253 13.1683 24.684 13.0839 24.6217 13.0161L20.5417 8.6311ZM0.474725 5.4831H19.8497C19.9796 5.48273 20.108 5.45574 20.227 5.4038C20.346 5.35186 20.4531 5.27606 20.5417 5.1811L24.6287 0.7981C24.6763 0.747268 24.7121 0.686608 24.7336 0.620413C24.7551 0.554217 24.7618 0.484104 24.7532 0.415034C24.7446 0.345964 24.7209 0.279624 24.6839 0.22071C24.6468 0.161795 24.5973 0.111745 24.5387 0.0741C24.4603 0.023935 24.3688 -0.00182006 24.2757 0.00010005H4.90072C4.77086 0.00046843 4.64246 0.0274576 4.52343 0.0794006C4.40441 0.131344 4.2973 0.207137 4.20872 0.3021L0.126725 4.6851C0.0638921 4.75285 0.0221839 4.83745 0.00670903 4.92855C-0.00876579 5.01964 0.00266474 5.11328 0.0396004 5.19797C0.0765361 5.28267 0.137373 5.35476 0.214659 5.4054C0.291945 5.45604 0.382324 5.48305 0.474725 5.4831Z" fill="url(#paint0_linear_68_13724)"/>
<path d="M48.2489 9.36513H37.8839V5.95013H50.9439V2.53813H37.8479C36.9444 2.53335 36.0761 2.88758 35.4338 3.52292C34.7915 4.15827 34.4279 5.02271 34.4229 5.92613V9.38613C34.4247 9.83384 34.5148 10.2768 34.6879 10.6897C34.8611 11.1025 35.114 11.4772 35.4321 11.7922C35.7502 12.1073 36.1273 12.3565 36.5418 12.5257C36.9563 12.6948 37.4001 12.7806 37.8479 12.7781H48.2279V16.1921H34.6709V19.6051H48.2489C49.152 19.6091 50.0199 19.2546 50.662 18.6195C51.3041 17.9843 51.668 17.1203 51.6739 16.2171V12.7571C51.672 12.3094 51.5819 11.8665 51.4088 11.4536C51.2356 11.0408 50.9827 10.6661 50.6646 10.351C50.3465 10.036 49.9694 9.78676 49.5549 9.61759C49.1404 9.44842 48.6966 9.36263 48.2489 9.36513ZM68.3289 2.53813H57.9259C57.4778 2.53457 57.0334 2.61944 56.6181 2.78788C56.2029 2.95632 55.825 3.20501 55.506 3.51972C55.187 3.83443 54.9332 4.20898 54.7592 4.62191C54.5852 5.03484 54.4943 5.47804 54.4919 5.92613V16.2171C54.4939 16.6654 54.5845 17.1088 54.7584 17.522C54.9323 17.9351 55.186 18.3099 55.505 18.6248C55.8241 18.9396 56.2022 19.1884 56.6176 19.3568C57.033 19.5252 57.4776 19.61 57.9259 19.6061H68.3309C68.7783 19.6085 69.2218 19.5227 69.636 19.3537C70.0503 19.1847 70.4272 18.9357 70.7453 18.621C71.0633 18.3063 71.3162 17.932 71.4896 17.5196C71.663 17.1071 71.7535 16.6645 71.7559 16.2171V5.92613C71.7531 5.25215 71.5501 4.59419 71.1726 4.03582C70.7952 3.47745 70.2603 3.04386 69.6359 2.79013C69.2217 2.6211 68.7782 2.53546 68.3309 2.53813H68.3289ZM68.3039 16.1921H57.9499V5.95213H68.2999L68.3039 16.1921ZM104.772 2.53813H94.6239C93.7204 2.53335 92.8521 2.88758 92.2098 3.52292C91.5675 4.15827 91.2039 5.02271 91.1988 5.92613V19.6061H94.6589V13.9991H104.761V19.6061H108.221V5.92613C108.217 5.24943 108.012 4.58921 107.631 4.02951C107.251 3.46981 106.713 3.03595 106.085 2.78313C105.668 2.61511 105.221 2.5315 104.772 2.53713V2.53813ZM104.747 10.5851H94.6449V5.95113H104.747V10.5851ZM145.171 2.53813H135.022C134.574 2.53563 134.131 2.62129 133.717 2.79021C133.302 2.95913 132.926 3.20801 132.608 3.52263C132.289 3.83725 132.037 4.21144 131.863 4.62384C131.69 5.03624 131.599 5.47876 131.597 5.92613V19.6061H135.057V13.9991H145.136V19.6061H148.596V5.92613C148.589 5.02307 148.226 4.15923 147.585 3.52313C147.267 3.2082 146.89 2.95907 146.476 2.79005C146.062 2.62102 145.618 2.53541 145.171 2.53813ZM145.136 10.5851H135.034V5.95113H145.136V10.5851ZM125.07 16.1921H123.686L118.738 3.96813C118.57 3.54548 118.278 3.18317 117.901 2.92818C117.524 2.67319 117.08 2.5373 116.625 2.53813H113.555C113.257 2.53642 112.961 2.59354 112.684 2.70623C112.408 2.81891 112.157 2.98496 111.945 3.19486C111.733 3.40476 111.564 3.6544 111.449 3.9295C111.333 4.20461 111.273 4.49978 111.272 4.79813V19.6061H114.732V5.95013H116.116L121.061 18.1751C121.233 18.5961 121.527 18.9562 121.905 19.2092C122.283 19.4621 122.728 19.5965 123.183 19.5951H126.253C126.551 19.5968 126.847 19.5397 127.123 19.427C127.399 19.3144 127.651 19.1483 127.863 18.9384C128.075 18.7285 128.243 18.4789 128.359 18.2038C128.474 17.9287 128.535 17.6335 128.536 17.3351V2.53813H125.07V16.1921ZM78.2699 2.53813H74.8098V16.2181C74.8121 16.6666 74.9029 17.1103 75.0771 17.5236C75.2512 17.9369 75.5053 18.3117 75.8248 18.6266C76.1443 18.9414 76.5228 19.19 76.9386 19.3581C77.3544 19.5262 77.7994 19.6105 78.2479 19.6061H88.6259V16.1921H78.2709L78.2699 2.53813Z" fill="#FAFAFA"/>
<defs>
<linearGradient id="paint0_linear_68_13724" x1="2.08972" y1="22.6711" x2="22.4047" y2="-0.2329" gradientUnits="userSpaceOnUse">
<stop offset="0.08" stop-color="#9945FF"/>
<stop offset="0.3" stop-color="#8752F3"/>
<stop offset="0.5" stop-color="#5497D5"/>
<stop offset="0.6" stop-color="#43B4CA"/>
<stop offset="0.72" stop-color="#28E0B9"/>
<stop offset="0.97" stop-color="#19FB9B"/>
</linearGradient>
</defs>
</svg>
