<svg width="123" height="123" viewBox="0 0 123 123" fill="none" xmlns="http://www.w3.org/2000/svg">
<path d="M62.668 41.8642C63.8643 42.7917 64.5405 43.8956 64.7551 45.3962C64.7587 45.5835 64.7596 45.7709 64.7551 45.9582C65.404 45.9888 65.404 45.9888 66.0395 45.8779C66.2234 45.6909 66.3016 45.5216 66.4067 45.2827C66.6396 44.8603 67.1212 44.6611 67.5647 44.5132C68.3271 44.4434 68.9027 44.5578 69.5164 45.0199C69.967 45.4706 70.142 45.9396 70.1636 46.5703C70.1563 47.1701 69.9781 47.5957 69.5907 48.0509C69.1512 48.477 68.6738 48.6751 68.0624 48.6947C67.3822 48.658 66.9109 48.47 66.4459 47.97C66.2152 47.7057 66.1942 47.6144 66.1198 47.2426C65.6694 47.2426 65.2191 47.2426 64.7551 47.2426C64.7551 48.5141 64.7551 49.7857 64.7551 51.0957C65.403 51.097 66.0504 51.0978 66.6982 51.0934C66.9999 51.0916 67.3016 51.0906 67.6033 51.0921C67.8943 51.0936 68.1851 51.0922 68.4761 51.089C68.5867 51.0883 68.6973 51.0885 68.8079 51.0897C69.5519 51.103 69.5519 51.103 70.1816 50.7534C70.2747 50.6554 70.3659 50.5555 70.4546 50.4535C70.5253 50.3884 70.596 50.3232 70.6688 50.2561C70.8679 50.0656 71.0654 49.8735 71.2624 49.6809C71.3329 49.614 71.4034 49.5472 71.4761 49.4783C71.5753 49.3808 71.5753 49.3808 71.6766 49.2814C71.7368 49.2232 71.7971 49.165 71.8591 49.105C72.0018 48.9357 72.0018 48.9357 71.9643 48.7241C71.9322 48.6265 71.9322 48.6265 71.8995 48.5269C71.7109 47.9087 71.6812 47.3514 71.9447 46.7459C72.201 46.2871 72.5962 45.9911 73.0384 45.7224C73.6438 45.5537 74.2458 45.5377 74.8246 45.8026C75.2964 46.0745 75.6798 46.4671 75.8753 46.9848C76.0048 47.5903 76.0167 48.2592 75.6884 48.7994C75.3177 49.2957 74.8583 49.6483 74.2512 49.7971C74.067 49.8113 74.067 49.8113 73.8636 49.7591C73.5806 49.6895 73.3921 49.6777 73.1037 49.7311C72.6407 50.0201 72.2826 50.4689 71.9196 50.87C71.7675 51.034 71.6146 51.1973 71.4607 51.3598C71.3656 51.4607 71.2715 51.5626 71.1787 51.6657C70.792 52.0825 70.4486 52.3484 69.8694 52.4067C69.5438 52.4173 69.22 52.4163 68.8943 52.4115C68.7746 52.4109 68.6549 52.4104 68.5353 52.4101C68.2222 52.4089 67.9092 52.4057 67.5962 52.4022C67.2196 52.3983 66.843 52.3968 66.4663 52.395C65.8959 52.3919 65.3256 52.3857 64.7551 52.3801C64.7551 53.2013 64.7551 54.0225 64.7551 54.8686C64.9629 54.8665 65.1707 54.8644 65.3847 54.8623C66.073 54.8556 66.7612 54.8512 67.4494 54.8478C67.8665 54.8458 68.2836 54.8429 68.7007 54.8384C69.1035 54.834 69.5064 54.8316 69.9092 54.8306C70.0626 54.8298 70.2159 54.8284 70.3692 54.8262C71.9127 54.8052 71.9127 54.8052 72.4615 55.27C72.5242 55.3198 72.5869 55.3697 72.6515 55.421C72.6971 55.4673 72.7428 55.5136 72.7898 55.5613C72.8411 55.6129 72.8923 55.6645 72.9452 55.7176C72.9958 55.7703 73.0465 55.8229 73.0987 55.8771C73.1779 55.9565 73.1779 55.9565 73.2587 56.0375C73.7075 56.4945 73.7075 56.4945 73.8261 56.7952C73.812 57.0643 73.791 57.2748 73.6606 57.5127C73.3995 57.6559 73.1467 57.662 72.8628 57.598C72.6199 57.4314 72.4319 57.2243 72.2357 57.0059C72.1316 56.8948 72.0274 56.7838 71.9231 56.6729C71.878 56.6233 71.8329 56.5737 71.7864 56.5226C71.5216 56.2556 71.3321 56.2141 70.9651 56.2082C70.9037 56.2081 70.8422 56.2079 70.7789 56.2077C70.7139 56.2069 70.6489 56.2061 70.5819 56.2053C70.3669 56.2028 70.1519 56.2014 69.9369 56.2001C69.7879 56.1986 69.6388 56.197 69.4898 56.1954C69.0974 56.1912 68.7051 56.1881 68.3127 56.1851C67.842 56.1813 67.3713 56.1763 66.9006 56.1716C66.1855 56.1645 65.4703 56.1589 64.7551 56.153C64.7551 57.2656 64.7551 58.3782 64.7551 59.5246C65.2319 59.5246 65.7088 59.5246 66.2001 59.5246C66.2265 59.3921 66.253 59.2597 66.2803 59.1232C66.6383 58.5689 67.0808 58.2236 67.7253 58.0796C68.4657 57.9803 68.9792 58.1709 69.5917 58.5713C70.0508 59.0513 70.2382 59.5109 70.2589 60.1768C70.2353 60.7818 70.0926 61.1394 69.702 61.5916C69.1773 62.0414 68.6825 62.298 67.9742 62.2733C67.3334 62.1995 66.8713 61.928 66.4409 61.4512C66.2001 61.0523 66.2001 61.0523 66.2001 60.809C65.7232 60.809 65.2464 60.809 64.7551 60.809C64.7551 62.213 64.7551 63.617 64.7551 65.0635C65.8439 65.0679 65.8439 65.0679 66.9327 65.0663C67.3769 65.0644 67.821 65.0631 68.2651 65.066C68.6232 65.0683 68.9813 65.0674 69.3394 65.0644C69.476 65.0638 69.6125 65.0643 69.7491 65.066C70.4722 65.1071 70.4722 65.1071 71.1061 64.8406C71.2092 64.6759 71.2741 64.5239 71.3376 64.341C71.739 63.9005 72.1662 63.6815 72.7638 63.622C73.4204 63.6094 73.9868 63.8114 74.4683 64.2608C74.8942 64.8199 75.0773 65.321 75.0303 66.0268C74.885 66.6718 74.6202 67.1802 74.0569 67.542C73.5224 67.856 72.9888 67.8494 72.3812 67.7928C71.8382 67.6316 71.3892 67.3205 71.0968 66.8296C71.0438 66.6706 70.9908 66.5117 70.9363 66.3479C68.8965 66.3479 66.8567 66.3479 64.7551 66.3479C64.7551 67.6724 64.7551 68.997 64.7551 70.3616C66.4505 70.3351 68.1459 70.3087 69.8927 70.2814C69.9986 70.0694 70.1046 69.8575 70.2138 69.6392C70.5862 69.1878 71.074 68.9501 71.6503 68.8941C72.3242 68.8738 72.8781 68.9686 73.394 69.431C73.8402 69.9452 74.0169 70.502 74.009 71.1713C73.9507 71.7835 73.6195 72.2711 73.1839 72.6896C72.7456 73.0332 72.1989 73.1162 71.6537 73.0809C70.989 72.9894 70.5964 72.7166 70.1693 72.2079C70.0532 72.0474 70.0532 72.0474 69.8927 71.7263C67.3496 71.6866 67.3496 71.6866 64.7551 71.646C64.7551 72.6792 64.7551 73.7123 64.7551 74.7767C65.0026 74.773 65.2502 74.7693 65.5052 74.7654C65.7464 74.7629 65.9877 74.761 66.2289 74.7591C66.3958 74.7575 66.5628 74.7553 66.7297 74.7525C66.9704 74.7486 67.2111 74.7468 67.4518 74.7454C67.5258 74.7437 67.5997 74.7421 67.6759 74.7404C68.2757 74.7402 68.6804 74.8836 69.1359 75.2756C69.1939 75.3383 69.2519 75.401 69.3116 75.4657C69.3766 75.5338 69.4415 75.6019 69.5084 75.6721C69.6421 75.8157 69.7754 75.9595 69.9085 76.1036C69.9731 76.1712 70.0378 76.2389 70.1043 76.3085C70.1621 76.3708 70.2198 76.4331 70.2792 76.4973C70.4471 76.6467 70.4471 76.6467 70.6632 76.6038C70.7268 76.5836 70.7904 76.5635 70.856 76.5428C71.6062 76.4789 72.172 76.5614 72.7625 77.0445C73.285 77.683 73.499 78.1992 73.4248 79.0313C73.283 79.6844 72.9354 80.112 72.3812 80.4762C71.7786 80.7736 71.1538 80.7783 70.5167 80.5816C69.9722 80.3461 69.6334 79.9118 69.3358 79.4126C69.2021 78.9409 69.1464 78.4001 69.3373 77.9382C69.4239 77.7135 69.4048 77.6495 69.3308 77.4258C69.0539 76.8591 68.6235 76.3978 68.0464 76.1414C66.987 75.9129 65.8304 76.0115 64.7551 76.0611C64.7564 76.1087 64.7576 76.1564 64.7589 76.2054C64.7967 77.8506 64.6803 79.3232 63.5159 80.5966C62.5993 81.5531 61.4663 82.1664 60.1222 82.1966C58.6161 82.1999 57.4484 81.8459 56.3413 80.7722C56.0558 80.4835 55.8799 80.2397 55.7192 79.8692C55.6065 79.6606 55.5295 79.5395 55.298 79.4682C54.9882 79.4146 54.6775 79.3974 54.3639 79.3797C53.8874 79.352 53.4733 79.2154 53.035 79.0313C52.967 79.0034 52.899 78.9754 52.829 78.9466C51.6172 78.3967 50.7702 77.3882 50.2427 76.1841C50.0945 75.7535 50.0173 75.3173 49.9479 74.8683C49.9312 74.6277 49.9312 74.6277 49.824 74.5359C49.5432 74.5366 49.2631 74.5466 48.9824 74.5566C48.6802 74.5344 48.537 74.4777 48.2988 74.2951C48.1829 74.0632 48.1883 73.9101 48.2185 73.6529C48.3806 73.434 48.5122 73.2793 48.783 73.2095C48.9747 73.1873 49.1647 73.1752 49.3574 73.1662C50.2849 73.0943 50.8979 72.8237 51.6816 72.3196C51.9441 72.1919 52.1045 72.1741 52.3928 72.2079C52.6286 72.3735 52.6286 72.3735 52.7942 72.6093C52.8062 72.9443 52.7606 73.1096 52.5584 73.3769C52.1528 73.6998 51.7064 74.0341 51.1887 74.1345C51.3632 75.173 51.5748 76.0747 52.3125 76.8639C52.3125 76.9169 52.3125 76.9698 52.3125 77.0244C52.3819 77.057 52.3819 77.057 52.4527 77.0903C52.6352 77.1858 52.7928 77.2953 52.9598 77.4158C53.8147 77.9928 54.7633 78.1594 55.7744 78.0228C56.485 77.8835 57.1708 77.5252 57.7261 77.0646C57.9604 76.876 57.9951 76.8642 58.3181 76.8589C58.6834 76.9806 58.6834 76.9806 58.8148 77.185C58.9147 77.4491 58.9072 77.5565 58.8001 77.8206C58.3925 78.5122 57.5116 78.8676 56.8079 79.1918C57.3374 80.0205 58.1732 80.5842 59.1359 80.7973C60.298 80.8676 61.2577 80.7656 62.1863 79.9946C62.5067 79.677 62.8024 79.3656 62.9891 78.951C62.8803 78.9392 62.8803 78.9392 62.7693 78.9272C62.6746 78.9152 62.5799 78.9032 62.4823 78.8908C62.3883 78.8796 62.2942 78.8685 62.1973 78.8569C61.9455 78.7905 61.9455 78.7905 61.7937 78.6384C61.669 78.4017 61.6669 78.2519 61.7047 77.9877C61.8106 77.8553 61.9166 77.7228 62.0258 77.5863C62.5026 77.5863 62.9794 77.5863 63.4707 77.5863C63.4707 76.1559 63.4707 74.7254 63.4707 73.2515C63.1114 73.2598 62.7522 73.2681 62.382 73.2766C62.2136 73.2796 62.2136 73.2796 62.0419 73.2827C61.3296 73.3037 60.7844 73.3691 60.2597 73.8937C60.0345 74.2308 59.9259 74.5594 59.8584 74.9574C59.8141 75.2013 59.78 75.3355 59.6476 75.5494C59.3528 75.7201 59.1535 75.6974 58.8148 75.6598C58.6593 75.5745 58.6593 75.5745 58.574 75.4189C58.3876 74.7164 58.608 74.0575 58.9434 73.4372C59.4213 72.6468 60.0993 72.2194 60.9822 71.9671C61.8034 71.9671 62.6246 71.9671 63.4707 71.9671C63.4707 69.2651 63.4707 66.563 63.4707 63.7791C62.7626 63.7819 62.0545 63.7847 61.3249 63.7876C60.8198 63.789 60.3147 63.7902 59.8096 63.7912C59.155 63.7926 58.5004 63.7943 57.8458 63.7973C57.3275 63.7997 56.8093 63.8012 56.2911 63.8018C56.0167 63.8021 55.7423 63.8028 55.468 63.8046C55.1616 63.8063 54.8553 63.8066 54.5489 63.8065C54.4126 63.8078 54.4126 63.8078 54.2735 63.8091C54.1899 63.8087 54.1062 63.8084 54.0201 63.8081C53.9476 63.8083 53.8752 63.8085 53.8005 63.8087C53.551 63.7724 53.3993 63.6845 53.1956 63.5383C53.0715 63.2901 53.0917 63.0892 53.1153 62.8158C53.2759 62.6075 53.3719 62.5077 53.6326 62.4552C53.7063 62.4555 53.78 62.4558 53.8559 62.4561C53.9406 62.4557 54.0253 62.4552 54.1126 62.4548C54.2055 62.4559 54.2983 62.4571 54.394 62.4583C54.5432 62.4582 54.5432 62.4582 54.6955 62.4582C54.9644 62.4584 55.2333 62.4599 55.5022 62.4622C55.7547 62.464 56.0071 62.4641 56.2595 62.4643C56.9976 62.466 57.7356 62.4705 58.4736 62.4747C60.9472 62.4846 60.9472 62.4846 63.4707 62.4947C63.4707 59.1569 63.4707 55.8191 63.4707 52.3801C61.6876 52.3928 61.6876 52.3928 59.9045 52.4091C59.5569 52.4105 59.5569 52.4105 59.3933 52.4108C59.2809 52.4113 59.1685 52.4124 59.0561 52.414C57.8594 52.4307 57.0702 52.1851 56.1886 51.3698C55.6465 50.8042 55.4143 50.0536 55.3508 49.2874C55.365 49.0564 55.4196 48.8936 55.5235 48.6875C55.7585 48.5439 55.9004 48.526 56.1758 48.537C56.4535 48.6215 56.5 48.6833 56.6474 48.9283C56.7123 49.171 56.7123 49.171 56.7628 49.4401C56.8958 50.0556 57.0745 50.413 57.6107 50.7746C58.1664 51.0974 58.7623 51.0538 59.3864 51.0565C59.5044 51.0579 59.6224 51.0593 59.7404 51.0609C60.0493 51.0647 60.3582 51.0671 60.6672 51.0692C61.0387 51.072 61.4102 51.0766 61.7818 51.0809C62.3447 51.0872 62.9077 51.0912 63.4707 51.0957C63.4707 49.7977 63.4707 48.4997 63.4707 47.1623C62.9939 47.1623 62.5171 47.1623 62.0258 47.1623C61.7047 46.8412 61.7047 46.8412 61.6645 46.5602C61.7047 46.2793 61.7047 46.2793 61.8213 46.1024C62.1275 45.8864 62.4036 45.9233 62.7683 45.9381C62.8358 45.9395 62.9033 45.941 62.9728 45.9425C63.1388 45.9463 63.3048 45.952 63.4707 45.9582C63.3045 44.9164 62.991 43.811 62.106 43.1485C61.8472 42.9677 61.5841 42.8112 61.3033 42.6669C61.2501 42.6394 61.1969 42.6118 61.1421 42.5835C60.4141 42.278 59.3882 42.3074 58.6492 42.5565C57.9112 42.8786 57.2575 43.3573 56.8079 44.0316C56.8837 44.0677 56.9594 44.1038 57.0375 44.141C58.5184 44.8729 59.4859 45.9536 60.0873 47.4984C60.1325 47.6552 60.159 47.803 60.1795 47.965C60.1909 48.0556 60.2024 48.1461 60.2143 48.2394C60.3027 49.1197 60.3027 49.1197 60.0189 49.4902C59.7707 49.6143 59.5698 49.5941 59.2964 49.5705C59.0334 49.3841 58.979 49.2645 58.9026 48.9478C58.8857 48.831 58.8699 48.7142 58.8549 48.5972C58.6815 47.4746 58.2686 46.6625 57.3836 45.9234C56.6144 45.3686 55.6792 45.0851 54.7311 45.178C53.7082 45.3482 52.7355 45.7772 52.0717 46.6004C51.4364 47.5025 51.2334 48.3902 51.279 49.4902C51.2673 49.7722 51.1982 49.91 51.0282 50.1324C50.7508 50.2711 50.3804 50.2549 50.0815 50.1735C49.1836 49.9653 48.162 50.1281 47.3653 50.5708C47.1885 50.6856 47.021 50.8068 46.8539 50.9352C46.7843 50.9815 46.7148 51.0279 46.6432 51.0757C45.9782 51.7057 45.5049 52.5725 45.4619 53.4942C45.4529 54.0095 45.4457 54.526 45.5695 55.0292C45.6499 55.0069 45.7303 54.9847 45.8131 54.9618C45.9209 54.9324 46.0287 54.903 46.1364 54.8737C46.1891 54.859 46.2419 54.8444 46.2962 54.8293C46.9631 54.6486 47.8335 54.4199 48.4694 54.7633C48.6398 54.9734 48.6936 55.0804 48.7002 55.3503C48.6148 55.6563 48.5697 55.7316 48.2988 55.9122C48.1346 55.9462 48.1346 55.9462 47.946 55.9665C47.8765 55.9747 47.8069 55.983 47.7353 55.9915C47.6613 56.0001 47.5873 56.0087 47.5111 56.0176C45.9567 56.2217 44.6477 56.8272 43.6247 58.053C42.6826 59.3038 42.2487 60.6879 42.3908 62.2595C42.6338 63.8576 43.3792 65.2045 44.6865 66.1874C44.818 66.2713 44.9509 66.3535 45.0878 66.4282C45.1069 66.3833 45.1259 66.3384 45.1455 66.2921C45.5019 65.651 46.1893 65.1159 46.8539 64.8227C47.1385 64.7753 47.2609 64.7904 47.5212 64.903C47.6974 65.1118 47.7348 65.2765 47.7545 65.5464C47.7369 65.7057 47.7369 65.7057 47.5814 65.9164C47.4516 66.017 47.3214 66.1172 47.1881 66.2131C46.3111 66.8475 45.7421 67.6143 45.4892 68.6759C45.3612 69.8636 45.5741 70.8405 46.292 71.8066C46.4892 72.1024 46.5078 72.3461 46.4525 72.6896C46.2905 72.9388 46.1946 72.9967 45.9056 73.0609C45.4225 72.9661 45.1882 72.6748 44.9207 72.2863C44.1835 71.1058 43.879 69.7133 44.1624 68.3305C44.2023 68.1778 44.2436 68.0254 44.2851 67.8731C44.2851 67.7672 44.2851 67.6612 44.2851 67.552C44.0958 67.3777 44.0958 67.3777 43.8486 67.2159C42.369 66.1615 41.4363 64.6168 41.0967 62.834C40.7865 60.893 41.2281 59.0648 42.3434 57.4525C42.888 56.7436 43.5105 56.1247 44.2851 55.6714C44.2735 55.6281 44.2619 55.5849 44.25 55.5403C43.8922 53.9554 44.0666 52.3803 44.9153 50.9962C45.5672 49.9975 46.6038 49.2825 47.7369 48.9283C47.7894 48.9104 47.8418 48.8925 47.8959 48.8741C48.5406 48.6908 49.2409 48.7549 49.9043 48.7678C49.9147 48.6642 49.9147 48.6642 49.9253 48.5586C50.1001 47.0883 50.699 45.8869 51.8309 44.9146C52.8472 44.1399 53.9454 43.8454 55.2024 43.7907C55.2819 43.8172 55.3614 43.8437 55.4433 43.871C55.4582 43.8064 55.4731 43.7419 55.4884 43.6753C55.916 42.6156 56.9537 41.7897 57.971 41.3386C59.5249 40.7429 61.2885 40.9424 62.668 41.8642ZM67.3239 46.199C67.2158 46.4978 67.2285 46.6352 67.3289 46.9365C67.5194 47.2131 67.6452 47.3044 67.9661 47.4031C68.2986 47.3572 68.4737 47.2913 68.7237 47.067C68.886 46.7748 68.9021 46.6089 68.8491 46.2793C68.612 45.9923 68.4381 45.8182 68.0664 45.7675C67.7088 45.8088 67.5672 45.9387 67.3239 46.199ZM73.1839 47.2426C73.0198 47.5504 73.0121 47.6797 73.0987 48.0202C73.3059 48.3531 73.4486 48.431 73.8261 48.5269C74.1034 48.478 74.2675 48.3939 74.4984 48.2359C74.6532 48.0098 74.6741 47.8334 74.6609 47.5611C74.6109 47.314 74.4854 47.1741 74.3078 47.0017C73.8738 46.7847 73.4982 46.9014 73.1839 47.2426ZM67.4844 59.6851C67.341 60.0078 67.2997 60.1683 67.4042 60.5079C67.5977 60.7741 67.7349 60.8657 68.0464 60.9695C68.3644 60.9695 68.4998 60.9095 68.7588 60.7237C68.951 60.458 68.9889 60.3212 68.9695 60.0009C68.9014 59.7375 68.7358 59.6075 68.528 59.4443C68.1107 59.2356 67.7864 59.358 67.4844 59.6851ZM72.2206 65.3043C72.0962 65.5532 72.1171 65.7522 72.1404 66.0268C72.2845 66.2478 72.3854 66.3902 72.622 66.5085C73.0954 66.5591 73.0954 66.5591 73.5 66.3379C73.6859 66.0788 73.7459 65.9435 73.7459 65.6254C73.6231 65.3064 73.551 65.1744 73.2642 64.9832C72.7929 64.9376 72.5651 64.9495 72.2206 65.3043ZM71.1771 70.6025C71.0769 70.8758 71.0769 70.8758 71.0968 71.1644C71.2758 71.5062 71.2758 71.5062 71.5784 71.7263C72.0502 71.7759 72.0502 71.7759 72.4565 71.5607C72.6546 71.2785 72.7023 71.1071 72.7023 70.763C72.5748 70.4761 72.4842 70.3768 72.2206 70.2011C71.7199 70.1446 71.4845 70.1647 71.1771 70.6025ZM70.5851 78.2035C70.5072 78.4914 70.5247 78.7472 70.6152 79.0313C70.8044 79.2363 70.9537 79.3282 71.2122 79.4276C71.5023 79.4347 71.6581 79.3493 71.8995 79.1918C72.107 78.9509 72.1397 78.8289 72.1454 78.5095C72.0349 78.1457 71.8988 78.0266 71.5784 77.8272C71.1582 77.7586 70.8558 77.8711 70.5851 78.2035Z" fill="white"/>
<path d="M75.9937 58.8021C76.2519 59.0255 76.4693 59.2877 76.689 59.5484C76.8261 59.6986 76.9434 59.8204 77.1175 59.9259C77.3532 59.9245 77.5424 59.8507 77.7597 59.7654C78.3801 59.6785 78.9417 59.8395 79.4492 60.2047C79.8838 60.5975 80.1113 61.076 80.1984 61.6528C80.2299 62.3003 80.0316 62.8848 79.596 63.3677C79.1128 63.8035 78.5293 64.0003 77.8817 63.9707C77.3079 63.8827 76.8489 63.6677 76.4753 63.2172C76.4174 63.1526 76.3594 63.0881 76.2997 63.0215C75.9374 62.5093 75.9608 61.9766 75.9937 61.3709C76.0186 61.2802 76.0435 61.1896 76.0692 61.0962C76.0745 60.7712 76.0493 60.74 75.8388 60.5139C75.7348 60.4149 75.6291 60.3176 75.522 60.222C75.4168 60.1237 75.3116 60.0254 75.2066 59.9269C75.1358 59.8629 75.1358 59.8629 75.0636 59.7976C74.8946 59.6302 74.8707 59.5328 74.8447 59.2938C74.8698 59.0429 74.8698 59.0429 75.0153 58.8573C75.3512 58.5982 75.6267 58.6201 75.9937 58.8021ZM77.5189 61.2906C77.3328 61.4767 77.2832 61.5818 77.2379 61.8425C77.2937 62.1915 77.4204 62.3381 77.6794 62.575C77.9929 62.6702 78.1581 62.6893 78.4621 62.565C78.6722 62.3899 78.7796 62.2672 78.8835 62.0131C78.8781 61.7029 78.8487 61.5175 78.6728 61.2605C78.2645 60.9811 77.9015 60.9824 77.5189 61.2906Z" fill="white"/>
<path d="M50.6075 51.9308C51.617 52.4412 52.2717 53.1682 52.6407 54.2396C52.7259 54.5989 52.7414 54.9273 52.7388 55.2951C52.7382 55.3964 52.7382 55.3964 52.7375 55.4998C52.7209 56.3471 52.5004 56.9218 51.9913 57.598C51.9317 57.6808 51.8721 57.7635 51.8107 57.8488C51.0518 58.6422 50.1731 58.9663 49.097 59.0602C48.8205 59.04 48.6796 58.9668 48.4592 58.8021C48.3433 58.5702 48.3487 58.4171 48.3789 58.1599C48.6739 57.7883 48.8938 57.7067 49.3573 57.6481C50.0316 57.5383 50.527 57.3071 50.9402 56.7491C51.3457 56.0939 51.4097 55.5562 51.3491 54.7884C51.2386 54.3629 51.0977 54.0535 50.7872 53.7448C50.7872 53.6918 50.7872 53.6388 50.7872 53.5842C50.7416 53.5619 50.6961 53.5395 50.6492 53.5165C50.5291 53.4556 50.4102 53.3921 50.293 53.3259C49.91 53.1165 49.5863 52.9973 49.1516 52.942C48.7259 52.883 48.7259 52.883 48.4793 52.6812C48.3594 52.4174 48.3302 52.265 48.3789 51.9788C48.9044 51.3084 49.9322 51.6122 50.6075 51.9308Z" fill="white"/>
<path d="M51.1142 66.8981C51.1678 66.8979 51.2214 66.8976 51.2766 66.8973C51.4519 66.8966 51.6271 66.8964 51.8023 66.8963C51.9249 66.8961 52.0475 66.8958 52.1701 66.8955C52.4262 66.895 52.6823 66.8949 52.9383 66.8949C53.2663 66.8949 53.5942 66.8938 53.9222 66.8925C54.175 66.8916 54.4278 66.8914 54.6806 66.8914C54.8016 66.8914 54.9225 66.891 55.0435 66.8904C55.2123 66.8896 55.3812 66.8898 55.55 66.8903C55.646 66.8902 55.742 66.8901 55.8409 66.89C56.0802 66.9093 56.2109 66.9357 56.4071 67.0704C56.5951 67.3523 56.6075 67.4609 56.5677 67.7928C56.4396 68.0061 56.4396 68.0061 56.2466 68.1942C55.9959 68.2439 55.9959 68.2439 55.6971 68.2433C55.6425 68.2438 55.5879 68.2442 55.5316 68.2447C55.3514 68.2458 55.1713 68.2441 54.991 68.2425C54.8652 68.2429 54.7395 68.2436 54.6137 68.2444C54.2824 68.2463 53.9512 68.2459 53.6199 68.2449C53.0909 68.2435 52.5618 68.2443 52.0328 68.247C51.8487 68.2475 51.6647 68.2464 51.4806 68.2452C50.9063 68.2448 50.4261 68.2579 49.9049 68.5153C49.832 68.5501 49.7592 68.5848 49.6841 68.6207C49.2616 68.9376 49.0819 69.3956 48.988 69.9019C48.8949 70.398 48.8949 70.398 48.7309 70.6125C48.4405 70.7194 48.1899 70.7028 47.898 70.6024C47.6992 70.3912 47.6636 70.245 47.6221 69.9602C47.6577 69.1884 47.9716 68.4782 48.48 67.9132C49.2979 67.1697 49.9976 66.9017 51.1142 66.8981Z" fill="white"/>
<path d="M77.8522 73.5441C78.3283 73.8934 78.6857 74.3535 78.8033 74.9373C78.891 75.5927 78.764 76.0724 78.4019 76.6231C78.076 77.0175 77.6831 77.264 77.1978 77.4258C76.5724 77.4831 76.0498 77.4455 75.512 77.1047C75.2862 76.909 75.2862 76.909 75.1106 76.7033C75.0527 76.6388 74.9947 76.5742 74.935 76.5077C74.5927 76.0237 74.5672 75.5129 74.629 74.9373C74.7688 74.3612 75.0373 73.9299 75.512 73.5726C76.2244 73.161 77.132 73.1345 77.8522 73.5441ZM76.1542 74.7767C75.9468 75.0177 75.9141 75.1396 75.9084 75.4591C76.0188 75.8229 76.155 75.9419 76.4753 76.1414C76.8139 76.212 76.9277 76.1596 77.2229 75.9758C77.4796 75.6953 77.5256 75.5556 77.5189 75.1781C77.4047 74.8825 77.3062 74.7934 77.0322 74.6312C76.6555 74.479 76.4999 74.5722 76.1542 74.7767Z" fill="white"/>
<path d="M80.5688 67.3112C81.1263 67.8117 81.3899 68.2831 81.4484 69.0277C81.459 69.6751 81.2536 70.135 80.8097 70.6024C80.3673 71.0106 79.9187 71.1359 79.3296 71.1894C78.74 71.1377 78.1889 70.9401 77.7592 70.5222C77.2769 69.8837 77.2037 69.3091 77.2776 68.5153C77.4622 67.8936 77.8271 67.4619 78.3886 67.1484C79.0953 66.8348 79.9161 66.9055 80.5688 67.3112ZM78.7225 68.5153C78.5253 68.8111 78.497 69.0549 78.562 69.3983C78.7545 69.6645 78.8887 69.7743 79.1992 69.88C79.5128 69.88 79.6685 69.817 79.9266 69.6391C80.1349 69.3528 80.175 69.2196 80.1323 68.8665C79.9799 68.5373 79.8488 68.4331 79.5253 68.2745C79.1867 68.2167 78.9957 68.3159 78.7225 68.5153Z" fill="white"/>
<path d="M78.4819 51.8985C78.9853 52.256 79.2821 52.6207 79.39 53.2431C79.492 53.9553 79.3594 54.4445 78.9397 55.0282C78.5538 55.4841 78.1042 55.7086 77.5057 55.7692C76.8522 55.7961 76.3266 55.5861 75.8193 55.1769C75.3871 54.7428 75.2456 54.2681 75.2207 53.6645C75.2476 52.9966 75.4473 52.4843 75.9382 52.0239C76.7085 51.4391 77.6551 51.3915 78.4819 51.8985ZM76.7158 53.1026C76.5186 53.3984 76.4903 53.6422 76.5553 53.9856C76.7478 54.2517 76.882 54.3616 77.1924 54.4673C77.4983 54.4673 77.6635 54.3896 77.9199 54.2264C78.1173 53.9303 78.1448 53.6871 78.0805 53.3434C77.8752 53.0511 77.7415 52.9599 77.3982 52.8618C77.083 52.8618 76.9594 52.9077 76.7158 53.1026Z" fill="white"/>
<path d="M54.1589 69.6392C54.9627 69.8474 55.6435 70.3016 56.0789 71.0154C56.4924 71.8277 56.6177 72.6091 56.4348 73.5071C56.147 74.3741 55.5881 74.9714 54.8011 75.4189C54.2924 75.6666 53.7567 75.7421 53.1956 75.6597C52.9552 75.5052 52.9001 75.4054 52.7992 75.143C52.7926 74.8693 52.8675 74.7496 53.035 74.5359C53.2878 74.3821 53.5399 74.3297 53.8278 74.27C54.3286 74.1469 54.5926 74.021 54.9008 73.5955C55.1631 73.1532 55.1941 72.7114 55.1222 72.2079C54.9782 71.7307 54.7237 71.4449 54.3194 71.1644C53.9986 70.995 53.6555 70.9519 53.3003 70.8963C53.0907 70.8362 53.0082 70.7723 52.8745 70.6024C52.7917 70.3604 52.7853 70.2329 52.8544 69.9853C53.1233 69.488 53.6701 69.5852 54.1589 69.6392Z" fill="white"/>
<path d="M60.6353 55.598C61.3421 55.876 61.9012 56.4943 62.2066 57.1816C62.4115 58.0522 62.3741 58.8183 61.9037 59.5967C61.4043 60.3076 60.7802 60.6461 59.9389 60.809C59.6244 60.8332 59.3976 60.8352 59.1361 60.6484C58.969 60.4336 58.9759 60.3179 58.9856 60.0414C59.0559 59.7654 59.0559 59.7654 59.1763 59.6199C59.3674 59.5291 59.5221 59.4903 59.7282 59.4493C60.1854 59.357 60.468 59.1805 60.7667 58.8172C60.9432 58.4839 61.0283 58.212 60.947 57.8351C60.8021 57.3946 60.5792 57.0819 60.1596 56.8605C59.9479 56.7933 59.9479 56.7933 59.7614 56.7645C59.2549 56.6744 59.2549 56.6744 59.0458 56.4591C58.9531 56.161 58.9726 55.9712 59.0559 55.6714C59.4356 55.2005 60.1446 55.4372 60.6353 55.598Z" fill="white"/>
<path d="M57.129 55.4305C57.3796 55.9317 57.226 56.6574 57.0788 57.1715C56.6758 58.3451 55.9115 59.2305 54.8261 59.8206C54.1801 60.1291 53.4312 60.3239 52.7139 60.247C52.3471 60.0753 52.3471 60.0753 52.2322 59.8456C52.1861 59.3476 52.1861 59.3476 52.3561 59.1122C52.6121 58.9181 52.8557 58.8878 53.1654 58.8472C54.0003 58.714 54.7548 58.4191 55.2704 57.7171C55.5937 57.2313 55.7937 56.8153 55.8803 56.2342C55.8934 56.1478 55.9064 56.0614 55.9198 55.9724C55.9305 55.8909 55.9412 55.8093 55.9521 55.7253C56.0091 55.4946 56.0609 55.4134 56.246 55.27C56.5727 55.1066 56.825 55.2757 57.129 55.4305Z" fill="white"/>
<path d="M46.373 60.0062C46.5824 60.2156 46.5842 60.3691 46.6389 60.6584C46.7865 61.3236 47.0091 61.7717 47.5662 62.173C48.2624 62.5014 49.0281 62.4426 49.78 62.4458C49.9208 62.4486 49.9208 62.4486 50.0644 62.4514C50.1919 62.4524 50.1919 62.4524 50.3221 62.4534C50.6004 62.5044 50.6935 62.5983 50.8684 62.8158C50.9631 63.0256 50.9534 63.1176 50.8985 63.3426C50.76 63.5881 50.6379 63.6545 50.3867 63.7791C50.171 63.809 50.171 63.809 49.9396 63.8083C49.8543 63.8082 49.7691 63.8082 49.6812 63.8081C49.5928 63.8068 49.5045 63.8055 49.4134 63.8042C49.3269 63.8044 49.2404 63.8047 49.1513 63.805C47.9756 63.7972 47.0137 63.5812 46.1356 62.7606C45.8518 62.4394 45.6674 62.0798 45.49 61.692C45.4536 61.6141 45.4171 61.5363 45.3796 61.4562C45.2985 61.0589 45.2635 60.6483 45.3294 60.247C45.6588 59.8335 45.8956 59.8132 46.373 60.0062Z" fill="white"/>
<path d="M55.8446 46.2291C56.0539 46.3991 56.0799 46.4782 56.1156 46.7458C56.0855 47.0017 56.0855 47.0017 55.94 47.2225C55.6292 47.4418 55.3848 47.4684 55.0146 47.5222C54.6454 47.5938 54.4144 47.7651 54.184 48.0553C54.0568 48.3338 53.9802 48.6152 53.9055 48.9117C53.8378 49.0889 53.8378 49.0889 53.5969 49.2494C53.2821 49.2838 53.1067 49.3003 52.8444 49.1139C52.6225 48.7981 52.6194 48.611 52.6838 48.2309C52.8906 47.51 53.207 46.9436 53.8378 46.5201C54.4493 46.1902 55.1746 45.922 55.8446 46.2291Z" fill="white"/>
<path d="M58.7885 66.8935C58.8497 66.8931 58.9108 66.8926 58.9739 66.8921C59.1035 66.8914 59.2331 66.8909 59.3628 66.8906C59.5605 66.8898 59.7581 66.8873 59.9558 66.8848C60.0818 66.8842 60.2078 66.8838 60.3338 66.8835C60.3926 66.8825 60.4515 66.8815 60.5122 66.8805C60.8703 66.882 61.0989 66.9289 61.3833 67.1507C61.5074 67.3988 61.4871 67.5997 61.4636 67.8731C61.3442 68.049 61.3442 68.049 61.1425 68.1942C60.9042 68.2271 60.6962 68.2412 60.4579 68.2397C60.3916 68.2402 60.3253 68.2407 60.257 68.2412C60.117 68.2418 59.977 68.2415 59.837 68.2405C59.6232 68.2394 59.4097 68.2421 59.196 68.2452C59.0597 68.2453 58.9235 68.2451 58.7872 68.2447C58.6918 68.2463 58.6918 68.2463 58.5944 68.2479C58.2555 68.2423 58.1273 68.2218 57.8507 68.0058C57.6907 67.7929 57.6907 67.7929 57.6455 67.547C57.7002 67.2617 57.787 67.1686 58.0118 66.9901C58.2584 66.8668 58.5178 66.8951 58.7885 66.8935Z" fill="white"/>
<path d="M61.5 0C45.1892 -1.94504e-07 29.5464 6.47944 18.0129 18.0129C6.47945 29.5464 1.42594e-06 45.1892 0 61.5C-1.42594e-06 77.8108 6.47944 93.4536 18.0129 104.987C29.5464 116.521 45.1892 123 61.5 123L61.5 117.2C46.7274 117.2 32.5599 111.332 22.1141 100.886C11.6683 90.4401 5.79991 76.2726 5.79991 61.5C5.79991 46.7274 11.6683 32.5599 22.1141 22.1141C32.5599 11.6683 46.7274 5.79991 61.5 5.79991L61.5 0Z" fill="#18DEFF"/>
<path d="M107 61C107 85.8528 86.8528 106 62 106C37.1472 106 17 85.8528 17 61C17 36.1472 37.1472 16 62 16C86.8528 16 107 36.1472 107 61ZM23.3365 61C23.3365 82.3533 40.6467 99.6635 62 99.6635C83.3533 99.6635 100.663 82.3533 100.663 61C100.663 39.6467 83.3533 22.3365 62 22.3365C40.6467 22.3365 23.3365 39.6467 23.3365 61Z" fill="#8B9093"/>
</svg>
