<svg width="123" height="123" viewBox="0 0 123 123" fill="none" xmlns="http://www.w3.org/2000/svg">
<path d="M61.5 0C45.1892 -1.94504e-07 29.5464 6.47944 18.0129 18.0129C6.47945 29.5464 1.42594e-06 45.1892 0 61.5C-1.42594e-06 77.8108 6.47944 93.4536 18.0129 104.987C29.5464 116.521 45.1892 123 61.5 123L61.5 117.2C46.7274 117.2 32.5599 111.332 22.1141 100.886C11.6683 90.4401 5.79991 76.2726 5.79991 61.5C5.79991 46.7274 11.6683 32.5599 22.1141 22.1141C32.5599 11.6683 46.7274 5.79991 61.5 5.79991L61.5 0Z" fill="#18DEFF"/>
<path d="M107 61C107 85.8528 86.8528 106 62 106C37.1472 106 17 85.8528 17 61C17 36.1472 37.1472 16 62 16C86.8528 16 107 36.1472 107 61ZM23.3365 61C23.3365 82.3533 40.6467 99.6635 62 99.6635C83.3533 99.6635 100.663 82.3533 100.663 61C100.663 39.6467 83.3533 22.3365 62 22.3365C40.6467 22.3365 23.3365 39.6467 23.3365 61Z" fill="#8B9093"/>
<path d="M45.8056 44.4639C45.8744 44.4592 45.9431 44.4545 46.014 44.4496C46.245 44.4341 46.476 44.4196 46.7071 44.4054C46.7881 44.4002 46.8692 44.3951 46.9527 44.3899C49.1444 44.2527 51.338 44.1681 53.5332 44.1129C53.69 44.1089 53.8468 44.1048 54.0036 44.1007C63.4478 43.8561 63.4478 43.8561 66.2694 46.5065C66.6744 46.8995 67.0371 47.3247 67.3898 47.7646C67.421 47.8032 67.4523 47.8419 67.4844 47.8818C69.6269 50.5449 69.6269 50.5449 69.5935 51.632C69.5828 52.0411 69.576 52.4499 69.5727 52.8592C69.5704 53.1065 69.5661 53.3535 69.5575 53.6007C69.4759 54.6399 69.4759 54.6399 69.769 55.5885C70.0197 55.8201 70.297 55.9415 70.6149 56.0552C70.9058 56.1824 71.1112 56.4228 71.3365 56.6407C71.4933 56.7948 71.4933 56.7948 71.6709 56.9325C73.0378 58.0278 73.8861 59.9925 74.2056 61.6715C74.2269 61.8975 74.2275 62.0276 74.1378 62.2349C73.9644 62.3813 73.8244 62.4065 73.6046 62.4449C73.3613 62.3981 73.2715 62.2698 73.1212 62.0782C73.0455 61.8835 73.0034 61.6849 72.9602 61.4809C72.499 59.5488 71.2854 57.7951 69.5888 56.7429C68.391 56.0287 67.134 55.5855 65.7335 55.5038C65.6748 55.5002 65.6161 55.4965 65.5556 55.4927C63.4483 55.4269 61.4541 56.2431 59.9227 57.6637C59.8467 57.7353 59.8467 57.7353 59.7692 57.8083C59.7283 57.8448 59.6874 57.8813 59.6452 57.9189C58.204 59.2592 57.5954 61.2726 57.4481 63.1745C57.3905 65.405 58.3281 67.4266 59.8369 69.0211C61.177 70.3315 63.0516 71.1297 64.9202 71.2281C64.9771 71.2316 65.0339 71.2352 65.0925 71.2389C67.1278 71.3049 69.1706 70.5306 70.6714 69.1646C72.1095 67.807 72.8857 66.1014 73.1538 64.1601C73.2259 63.6799 73.2259 63.6799 73.3857 63.4581C73.6008 63.3187 73.7524 63.3302 74.0023 63.366C74.1953 63.498 74.2597 63.5847 74.3189 63.8107C74.3476 64.1112 74.3116 64.382 74.2649 64.6791C74.2557 64.7388 74.2465 64.7984 74.2369 64.8598C74.0369 66.0693 73.5418 67.1625 72.9856 68.2459C73.1525 68.4305 73.3228 68.6116 73.4939 68.7923C73.5411 68.8446 73.5883 68.8969 73.6369 68.9508C73.8822 69.2272 73.8822 69.2272 74.2151 69.3417C74.3481 69.3187 74.4803 69.2908 74.6123 69.2625C74.8826 69.3914 75.0777 69.5746 75.2891 69.7841C75.337 69.8313 75.337 69.8313 75.3858 69.8794C75.4905 69.9828 75.5947 70.0868 75.6988 70.1908C75.772 70.2635 75.8451 70.3362 75.9183 70.4089C76.0714 70.5612 76.2243 70.7138 76.377 70.8666C76.5716 71.0612 76.7671 71.2549 76.9629 71.4483C77.1143 71.5982 77.2651 71.7488 77.4157 71.8995C77.4875 71.9711 77.5595 72.0424 77.6317 72.1136C78.2429 72.7167 78.7534 73.317 78.7724 74.2146C78.7705 74.971 78.6319 75.5082 78.1406 76.1051C77.652 76.59 77.0468 76.8139 76.366 76.8154C74.8276 76.8055 73.8632 75.4393 72.8527 74.4288C72.666 74.2423 72.4788 74.0563 72.2916 73.8703C72.1724 73.7514 72.0533 73.6324 71.9343 73.5134C71.8785 73.4581 71.8226 73.4027 71.7651 73.3457C71.7137 73.294 71.6622 73.2424 71.6093 73.1892C71.5641 73.1441 71.5188 73.099 71.4723 73.0525C71.3594 72.923 71.287 72.8106 71.2234 72.6514C71.2427 72.5107 71.2427 72.5107 71.2803 72.3636C71.3087 72.1601 71.3111 72.0736 71.202 71.8968C71.0701 71.7537 70.9329 71.6238 70.7871 71.4949C70.7383 71.4492 70.6895 71.4035 70.6393 71.3563C70.5191 71.2441 70.3976 71.1338 70.2746 71.0247C70.0655 71.106 69.8645 71.1942 69.6646 71.2958C69.6642 71.3768 69.6638 71.4579 69.6634 71.5413C69.6595 72.3061 69.6545 73.071 69.6486 73.8358C69.6456 74.229 69.6429 74.6221 69.6411 75.0153C69.6393 75.395 69.6366 75.7747 69.6332 76.1544C69.632 76.299 69.6313 76.4436 69.6308 76.5881C69.6302 76.7913 69.6283 76.9943 69.6261 77.1974C69.6262 77.2567 69.6263 77.316 69.6264 77.3771C69.6187 77.8881 69.5245 78.3892 69.1689 78.7767C69.1315 78.8192 69.094 78.8616 69.0554 78.9054C68.7605 79.1584 68.4833 79.2511 68.0987 79.2515C68.0167 79.2521 67.9348 79.2526 67.8504 79.2532C67.761 79.2528 67.6715 79.2524 67.5794 79.252C67.483 79.2523 67.3866 79.2526 67.2902 79.2531C67.0255 79.2541 66.7609 79.2538 66.4962 79.2533C66.2107 79.253 65.9252 79.2538 65.6397 79.2545C65.0804 79.2557 64.5211 79.2557 63.9619 79.2554C63.5073 79.2551 63.0527 79.2552 62.5981 79.2556C62.5334 79.2556 62.4687 79.2557 62.4021 79.2557C62.2707 79.2558 62.1393 79.2559 62.0079 79.256C60.7754 79.257 59.5429 79.2566 58.3104 79.2558C57.1829 79.2551 56.0554 79.256 54.9278 79.2576C53.7701 79.2593 52.6124 79.2599 51.4546 79.2595C50.8047 79.2593 50.1547 79.2594 49.5047 79.2606C48.9514 79.2616 48.398 79.2616 47.8447 79.2605C47.5624 79.2599 47.2801 79.2597 46.9978 79.2608C46.7393 79.2617 46.4807 79.2614 46.2222 79.2601C46.0846 79.2597 45.947 79.2607 45.8095 79.2617C45.261 79.2572 44.8774 79.2051 44.45 78.8363C44.4198 78.7984 44.3896 78.7606 44.3584 78.7216C44.3271 78.684 44.2959 78.6463 44.2636 78.6075C44.0678 78.3075 44.0279 78.0491 44.0275 77.6939C44.0273 77.6496 44.027 77.6054 44.0268 77.5598C44.0262 77.4113 44.0265 77.2628 44.0268 77.1143C44.0266 77.0068 44.0263 76.8994 44.0259 76.7919C44.0251 76.4965 44.0251 76.201 44.0252 75.9056C44.0253 75.587 44.0245 75.2685 44.0239 74.9499C44.0227 74.3258 44.0224 73.7017 44.0223 73.0776C44.0222 72.5705 44.022 72.0634 44.0215 71.5563C44.0203 70.1195 44.0197 68.6826 44.0198 67.2458C44.0198 67.1683 44.0198 67.0908 44.0198 67.011C44.0198 66.8946 44.0198 66.8946 44.0198 66.7759C44.0199 65.5178 44.0186 64.2597 44.0167 63.0016C44.0147 61.7106 44.0138 60.4196 44.0139 59.1287C44.014 58.4035 44.0136 57.6784 44.0121 56.9533C44.0109 56.3361 44.0106 55.7189 44.0115 55.1017C44.012 54.7867 44.012 54.4716 44.0108 54.1566C44.0097 53.8684 44.0099 53.5802 44.0111 53.2921C44.0113 53.1876 44.0111 53.0831 44.0103 52.9786C44.0094 52.837 44.0101 52.6955 44.0112 52.5539C44.0112 52.4751 44.0111 52.3963 44.0111 52.3152C44.0524 52.0706 44.1189 51.9905 44.316 51.8439C44.5533 51.81 44.5533 51.81 44.7905 51.8439C44.9875 51.9943 45.0507 52.0824 45.1294 52.3183C45.1359 52.4598 45.1382 52.6015 45.1384 52.7431C45.1385 52.7865 45.1387 52.83 45.1389 52.8748C45.1393 53.0213 45.1392 53.1679 45.1392 53.3145C45.1394 53.4202 45.1396 53.526 45.1399 53.6318C45.1406 53.9231 45.1408 54.2145 45.141 54.5059C45.1412 54.8198 45.1419 55.1338 45.1425 55.4477C45.1435 55.9919 45.1443 56.5361 45.1449 57.0803C45.1459 57.8673 45.1473 58.6543 45.1489 59.4413C45.1515 60.7182 45.1538 61.9952 45.156 63.2721C45.1561 63.3486 45.1563 63.425 45.1564 63.5038C45.1582 64.5896 45.1598 65.6754 45.1614 66.7612C45.1615 66.8377 45.1616 66.9142 45.1617 66.993C45.1618 67.1076 45.1618 67.1076 45.162 67.2245C45.1638 68.4967 45.1662 69.7688 45.1689 71.041C45.1706 71.8263 45.1718 72.6117 45.1725 73.3971C45.173 73.9348 45.174 74.4725 45.1754 75.0103C45.1761 75.3209 45.1767 75.6316 45.1767 75.9422C45.1766 76.2262 45.1772 76.5102 45.1783 76.7942C45.1786 76.8973 45.1786 77.0004 45.1784 77.1035C45.1782 77.2429 45.1789 77.3823 45.1796 77.5217C45.1797 77.5994 45.1798 77.6771 45.18 77.7571C45.1788 77.9484 45.1788 77.9484 45.3327 78.0735C45.5501 78.1491 45.7568 78.1498 45.9855 78.15C46.0638 78.1502 46.142 78.1504 46.2226 78.1507C46.3086 78.1506 46.3946 78.1505 46.4832 78.1504C46.5755 78.1505 46.6677 78.1506 46.76 78.1508C47.0137 78.1512 47.2675 78.1512 47.5212 78.1511C47.7948 78.1511 48.0683 78.1515 48.3419 78.1518C48.8779 78.1524 49.4139 78.1526 49.95 78.1526C50.3856 78.1526 50.8211 78.1528 51.2567 78.153C52.4911 78.1536 53.7255 78.1539 54.9599 78.1539C55.0264 78.1539 55.093 78.1538 55.1616 78.1538C55.2282 78.1538 55.2949 78.1538 55.3635 78.1538C56.4441 78.1538 57.5246 78.1545 58.6052 78.1554C59.7141 78.1564 60.8231 78.1569 61.932 78.1568C62.5548 78.1568 63.1776 78.157 63.8004 78.1577C64.3306 78.1583 64.8608 78.1585 65.391 78.158C65.6616 78.1578 65.9322 78.1578 66.2028 78.1584C66.4504 78.1589 66.698 78.1588 66.9456 78.1582C67.0779 78.158 67.2101 78.1586 67.3423 78.1591C67.4207 78.1588 67.4991 78.1585 67.5799 78.1582C67.6814 78.1582 67.6814 78.1582 67.785 78.1582C67.9842 78.14 68.1297 78.0933 68.309 78.0057C68.5042 77.7655 68.4626 77.457 68.46 77.1626C68.46 77.0762 68.46 77.0762 68.46 76.9882C68.4599 76.7982 68.4589 76.6082 68.4578 76.4183C68.4576 76.2865 68.4574 76.1546 68.4572 76.0228C68.4567 75.6761 68.4554 75.3293 68.4539 74.9826C68.4525 74.6287 68.4519 74.2748 68.4512 73.9209C68.4497 73.2266 68.4474 72.5323 68.4446 71.838C68.366 71.8615 68.2874 71.885 68.2064 71.9092C68.102 71.9402 67.9975 71.9712 67.8931 72.0022C67.8414 72.0176 67.7898 72.0331 67.7366 72.049C66.6916 72.3584 65.6467 72.3905 64.564 72.3912C64.4482 72.3915 64.3325 72.3918 64.2167 72.3922C63.9047 72.3931 63.5928 72.3935 63.2808 72.3938C63.0857 72.394 62.8906 72.3943 62.6955 72.3946C62.0844 72.3955 61.4733 72.3962 60.8622 72.3965C60.1578 72.3968 59.4534 72.398 58.749 72.3999C58.2033 72.4014 57.6576 72.4021 57.1119 72.4021C56.7864 72.4022 56.4609 72.4026 56.1354 72.4038C55.8298 72.4049 55.5242 72.4051 55.2186 72.4045C55.1065 72.4044 54.9944 72.4047 54.8823 72.4054C54.7293 72.4063 54.5763 72.4059 54.4233 72.4052C54.2949 72.4053 54.2949 72.4053 54.164 72.4055C53.9022 72.376 53.7213 72.2967 53.5337 72.1092C53.4941 71.6262 53.4941 71.6262 53.6287 71.4248C53.899 71.2269 54.1556 71.2571 54.4826 71.2588C54.5514 71.2581 54.6202 71.2574 54.6911 71.2567C54.9185 71.2547 55.1458 71.2546 55.3732 71.2545C55.5308 71.2535 55.6885 71.2524 55.8461 71.2511C56.2611 71.2482 56.676 71.2468 57.091 71.2458C57.5144 71.2445 57.9378 71.2416 58.3612 71.2389C59.192 71.2338 60.0228 71.2304 60.8536 71.2281C60.7976 71.191 60.7417 71.154 60.684 71.1158C60.574 71.0428 60.574 71.0428 60.4618 70.9683C60.3891 70.9201 60.3163 70.8719 60.2414 70.8222C60.0253 70.6757 59.825 70.5231 59.6251 70.3554C59.5648 70.3053 59.5046 70.2551 59.4424 70.2035C59.2947 70.0759 59.2947 70.0759 59.1592 69.9403C58.9892 69.927 58.8266 69.922 58.6566 69.923C58.6048 69.9227 58.5529 69.9225 58.4996 69.9222C58.3869 69.9218 58.2742 69.9216 58.1615 69.9217C57.9832 69.9218 57.8049 69.9209 57.6266 69.9197C57.1195 69.9166 56.6125 69.9149 56.1054 69.9145C55.7954 69.9141 55.4855 69.9125 55.1755 69.9101C55.0573 69.9094 54.9391 69.9092 54.8209 69.9096C54.6556 69.9101 54.4903 69.9089 54.3249 69.9074C54.2761 69.9079 54.2272 69.9085 54.1768 69.909C53.9443 69.9052 53.8249 69.8882 53.6391 69.7433C53.5254 69.5903 53.4952 69.5187 53.4956 69.3303C53.4933 69.2632 53.4933 69.2632 53.4911 69.1948C53.558 68.9819 53.6903 68.9101 53.8726 68.7881C54.0729 68.7529 54.0729 68.7529 54.2968 68.7511C54.3809 68.7498 54.465 68.7484 54.5517 68.747C54.6427 68.7469 54.7338 68.7468 54.8249 68.7468C54.9186 68.7458 55.0123 68.7446 55.1061 68.7434C55.352 68.7404 55.5979 68.7391 55.8438 68.7381C56.0951 68.7367 56.3463 68.7339 56.5975 68.7312C57.0899 68.7261 57.5823 68.7227 58.0747 68.7203C58.0422 68.6742 58.0097 68.628 57.9762 68.5804C57.9335 68.5197 57.8908 68.4589 57.8468 68.3963C57.8045 68.3362 57.7622 68.2761 57.7186 68.2141C57.3046 67.6136 57.0228 66.9739 56.7912 66.2846C56.7613 66.1956 56.7613 66.1956 56.7307 66.1047C56.6182 65.7543 56.557 65.4259 56.5159 65.0604C56.4352 65.0618 56.3545 65.0632 56.2713 65.0647C55.9717 65.0696 55.6721 65.0727 55.3725 65.0753C55.2428 65.0766 55.1132 65.0785 54.9835 65.0808C54.7971 65.0841 54.6108 65.0856 54.4243 65.0868C54.3664 65.0882 54.3085 65.0896 54.2489 65.0911C53.846 65.0912 53.846 65.0912 53.6329 64.9316C53.5264 64.7788 53.4952 64.7027 53.4956 64.5182C53.4933 64.4511 53.4933 64.4511 53.4911 64.3826C53.5598 64.1642 53.6814 64.0971 53.8726 63.9759C54.0755 63.9527 54.2522 63.9441 54.4542 63.9495C54.5094 63.9498 54.5646 63.9502 54.6215 63.9506C54.7969 63.9521 54.9722 63.9555 55.1476 63.959C55.2669 63.9604 55.3862 63.9616 55.5054 63.9627C55.7971 63.9657 56.0887 63.9704 56.3803 63.9759C56.3579 63.9312 56.3356 63.8865 56.3125 63.8404C56.3059 63.6852 56.3037 63.5298 56.3041 63.3744C56.3039 63.2907 56.3037 63.207 56.3035 63.1208C56.3108 62.9359 56.3321 62.7959 56.3803 62.6204C56.3082 62.6215 56.236 62.6225 56.1617 62.6236C55.8933 62.6273 55.6249 62.6297 55.3565 62.6316C55.2404 62.6326 55.1244 62.634 55.0084 62.6357C54.8413 62.6382 54.6743 62.6394 54.5072 62.6403C54.4298 62.6418 54.4298 62.6418 54.3508 62.6434C54.042 62.6435 53.849 62.6044 53.6015 62.4171C53.4944 62.3101 53.5171 62.2006 53.5125 62.0528C53.51 61.9991 53.5074 61.9455 53.5048 61.8902C53.5337 61.7393 53.5337 61.7393 53.6323 61.6295C53.8921 61.4887 54.1335 61.5109 54.4243 61.5161C54.4841 61.5164 54.5439 61.5167 54.6055 61.517C54.7961 61.5181 54.9867 61.5207 55.1773 61.5233C55.3067 61.5243 55.436 61.5252 55.5654 61.526C55.8822 61.5283 56.199 61.5318 56.5159 61.536C56.5421 61.4274 56.5421 61.4274 56.5688 61.3166C56.5925 61.2196 56.6163 61.1226 56.64 61.0255C56.6514 60.9781 56.6628 60.9306 56.6746 60.8817C56.9291 59.8482 57.4056 58.8412 58.0747 58.0116C58.0228 58.0113 57.9709 58.0111 57.9175 58.0108C57.4278 58.0083 56.9382 58.0044 56.4486 57.9991C56.1969 57.9964 55.9452 57.9943 55.6935 57.9932C55.4505 57.9922 55.2075 57.9899 54.9644 57.9866C54.8718 57.9856 54.7792 57.9851 54.6866 57.985C54.5567 57.9849 54.4267 57.9829 54.2968 57.9808C54.2229 57.9802 54.149 57.9796 54.0729 57.979C53.8263 57.9357 53.7114 57.8457 53.5337 57.6727C53.4911 57.5371 53.4911 57.5371 53.4956 57.4016C53.4955 57.3569 53.4954 57.3121 53.4953 57.266C53.5524 57.0644 53.6397 56.9881 53.8048 56.8594C53.9851 56.8352 54.1366 56.8272 54.3163 56.8321C54.3675 56.8323 54.4187 56.8326 54.4714 56.8329C54.5824 56.8336 54.6934 56.835 54.8044 56.8368C54.9805 56.8396 55.1566 56.8403 55.3328 56.8405C55.8337 56.8413 56.3345 56.8448 56.8353 56.8517C57.1419 56.8557 57.4485 56.8568 57.7551 56.856C57.8715 56.8563 57.9879 56.8577 58.1042 56.8604C58.8667 56.8889 58.8667 56.8889 59.5112 56.5249C59.5609 56.4705 59.6105 56.4162 59.6617 56.3602C59.8819 56.1358 60.1245 55.9747 60.3876 55.8046C60.4335 55.7747 60.4794 55.7448 60.5267 55.7139C60.6353 55.6434 60.7444 55.5736 60.8536 55.5038C60.7659 55.5036 60.6782 55.5033 60.5878 55.5031C59.762 55.5006 58.9363 55.4967 58.1105 55.4914C57.6859 55.4887 57.2614 55.4865 56.8368 55.4855C56.4272 55.4845 56.0177 55.4821 55.6081 55.4789C55.4517 55.4779 55.2953 55.4773 55.1389 55.4773C54.9201 55.4771 54.7014 55.4753 54.4826 55.4731C54.4177 55.4734 54.3528 55.4737 54.2859 55.4741C53.847 55.4672 53.847 55.4672 53.6293 55.3067C53.5266 55.1545 53.4952 55.0759 53.4956 54.8939C53.4941 54.8491 53.4926 54.8044 53.4911 54.7583C53.5586 54.5434 53.687 54.4733 53.8726 54.3516C54.0973 54.3179 54.0973 54.3179 54.3584 54.3181C54.4307 54.3176 54.4307 54.3176 54.5045 54.3171C54.6656 54.3164 54.8266 54.3175 54.9878 54.3187C55.1035 54.3186 55.2192 54.3183 55.3349 54.3179C55.6492 54.3173 55.9635 54.3183 56.2777 54.3197C56.6076 54.3209 56.9374 54.3206 57.2672 54.3206C57.8219 54.3207 58.3766 54.3219 58.9313 54.3237C59.5702 54.3259 60.209 54.3266 60.8478 54.3265C61.5301 54.3264 62.2125 54.3273 62.8948 54.3286C63.0901 54.3289 63.2854 54.329 63.4807 54.329C63.7898 54.3292 64.0988 54.33 64.4079 54.3313C64.5205 54.3317 64.633 54.3319 64.7455 54.3318C65.745 54.3314 66.7258 54.3986 67.6948 54.6609C67.7531 54.6759 67.8114 54.6908 67.8715 54.7063C68.2846 54.8138 68.2845 54.8138 68.4446 54.8939C68.4669 53.9097 68.4893 52.9256 68.5124 51.9117C67.9872 51.9152 67.9872 51.9152 67.4515 51.9188C67.2288 51.9199 67.0061 51.9208 66.7834 51.9216C66.4304 51.9228 66.0775 51.9242 65.7246 51.927C65.4398 51.9292 65.155 51.9304 64.8702 51.931C64.762 51.9313 64.6537 51.9321 64.5454 51.9332C63.1625 51.9467 63.1625 51.9467 62.6581 51.4838C62.6157 51.4464 62.5732 51.4089 62.5295 51.3703C62.2441 51.0378 62.1795 50.723 62.186 50.2958C62.186 50.2442 62.186 50.1925 62.1859 50.1394C62.1861 49.9699 62.1877 49.8005 62.1893 49.6311C62.1896 49.5131 62.1899 49.3952 62.1901 49.2773C62.1909 48.9677 62.1929 48.6582 62.1952 48.3487C62.1972 48.0324 62.1982 47.7162 62.1992 47.4C62.2014 46.7802 62.2048 46.1604 62.2091 45.5407C60.0995 45.5462 57.9898 45.5524 55.8802 45.5596C55.6312 45.5605 55.3822 45.5613 55.1332 45.5622C55.0836 45.5623 55.034 45.5625 54.983 45.5627C54.18 45.5654 53.3771 45.5676 52.5742 45.5696C51.7505 45.5717 50.9268 45.5744 50.1031 45.5774C49.5947 45.5793 49.0863 45.5808 48.5779 45.5818C48.1883 45.5826 47.7986 45.5841 47.409 45.5859C47.249 45.5865 47.089 45.5869 46.929 45.587C46.711 45.5873 46.493 45.5883 46.275 45.5896C46.2113 45.5894 46.1477 45.5893 46.0822 45.5892C45.6026 45.5832 45.6026 45.5832 45.1971 45.8118C45.1895 45.9513 45.1865 46.0912 45.1854 46.2309C45.1849 46.2747 45.1845 46.3184 45.184 46.3635C45.1831 46.4589 45.1822 46.5542 45.1816 46.6496C45.1805 46.8006 45.1789 46.9515 45.1772 47.1025C45.1724 47.532 45.1683 47.9614 45.1648 48.3908C45.1627 48.6533 45.1599 48.9157 45.1567 49.1781C45.1556 49.2781 45.1548 49.3781 45.1542 49.4781C45.1534 49.6182 45.1517 49.7584 45.1499 49.8986C45.1492 49.9783 45.1485 50.058 45.1478 50.1401C45.1239 50.4159 45.0655 50.6121 44.8794 50.8188C44.6481 50.9313 44.4931 50.8896 44.2483 50.8272C44.1338 50.7519 44.1338 50.7519 44.0449 50.6239C44.0182 50.4101 44.0182 50.4101 44.0165 50.1428C44.0159 50.0941 44.0153 50.0453 44.0147 49.9951C44.0132 49.8338 44.0131 49.6725 44.0132 49.5112C44.0127 49.3988 44.0122 49.2864 44.0116 49.174C44.0107 48.9382 44.0106 48.7024 44.011 48.4666C44.0114 48.1653 44.0093 47.8642 44.0066 47.563C44.0048 47.3307 44.0046 47.0984 44.0049 46.8661C44.0048 46.7551 44.0041 46.6441 44.0029 46.5332C43.992 45.4087 43.992 45.4087 44.3838 44.9984C44.8116 44.5646 45.2224 44.5007 45.8056 44.4639ZM63.2935 46.4218C63.2888 46.9573 63.2852 47.4928 63.283 48.0284C63.2819 48.2771 63.2805 48.5257 63.2782 48.7744C63.276 49.0143 63.2748 49.2543 63.2743 49.4942C63.2737 49.6304 63.2721 49.7666 63.2705 49.9027C63.2705 49.9855 63.2705 50.0683 63.2705 50.1535C63.27 50.2265 63.2696 50.2995 63.2691 50.3747C63.2788 50.5567 63.2788 50.5567 63.3839 50.6787C63.6115 50.8414 63.8205 50.8355 64.0904 50.8349C64.1704 50.8349 64.2505 50.8349 64.3329 50.8349C64.4626 50.8344 64.4626 50.8344 64.5948 50.8339C64.6833 50.8338 64.7717 50.8337 64.8629 50.8336C65.0979 50.8333 65.3329 50.8326 65.5679 50.8319C65.8078 50.8312 66.0476 50.8309 66.2875 50.8306C66.758 50.8298 67.2285 50.8287 67.699 50.8272C67.44 50.5178 67.1723 50.2228 66.8864 49.9381C66.8481 49.8997 66.8098 49.8613 66.7704 49.8217C66.6455 49.6965 66.5203 49.5715 66.3951 49.4466C66.3077 49.3591 66.2203 49.2717 66.133 49.1842C65.9507 49.0018 65.7683 48.8196 65.5859 48.6375C65.3515 48.4035 65.1174 48.1692 64.8835 47.9348C64.7035 47.7546 64.5234 47.5746 64.3433 47.3946C64.2568 47.3082 64.1704 47.2218 64.0841 47.1353C63.964 47.015 63.8437 46.895 63.7234 46.7751C63.6696 46.7211 63.6696 46.7211 63.6147 46.666C63.4775 46.4968 63.4775 46.4968 63.2935 46.4218ZM72.1723 69.1948C72.0684 69.3001 72.0684 69.3001 71.9605 69.4362C71.7157 69.7253 71.4465 69.9697 71.1556 70.2114C71.2681 70.5045 71.4858 70.6922 71.7063 70.9061C71.7445 70.9437 71.7827 70.9813 71.822 71.02C71.9159 71.1122 72.0102 71.2041 72.1045 71.2958C72.3033 71.2063 72.4425 71.1097 72.5948 70.9543C72.6337 70.915 72.6726 70.8757 72.7127 70.8352C72.7723 70.7738 72.7723 70.7738 72.8331 70.7113C72.8739 70.6698 72.9147 70.6284 72.9568 70.5858C73.0571 70.4839 73.1569 70.3816 73.2567 70.2792C73.1439 69.9887 72.932 69.7989 72.7145 69.5845C72.6589 69.5281 72.6589 69.5281 72.6023 69.4706C72.4213 69.2631 72.4213 69.2631 72.1723 69.1948ZM74.2256 70.7861C74.1485 70.8631 74.0718 70.9406 73.9954 71.0184C73.955 71.059 73.9145 71.0996 73.8729 71.1415C73.7434 71.2717 73.6145 71.4024 73.4855 71.5331C73.398 71.6212 73.3104 71.7094 73.2228 71.7975C73.0079 72.014 72.7933 72.2309 72.579 72.448C72.8988 72.8317 73.2395 73.1882 73.5916 73.5423C73.6489 73.5999 73.7062 73.6576 73.7653 73.717C73.8857 73.8382 74.0063 73.9592 74.127 74.0802C74.3116 74.2654 74.4955 74.4514 74.6794 74.6374C74.7968 74.7553 74.9143 74.8732 75.0319 74.991C75.0867 75.0466 75.1415 75.1023 75.1979 75.1596C75.2495 75.2109 75.3011 75.2623 75.3543 75.3153C75.3992 75.3605 75.4442 75.4057 75.4906 75.4523C75.8562 75.7521 76.2623 75.742 76.7133 75.7013C77.1088 75.5796 77.3554 75.2825 77.5944 74.9558C77.6633 74.7492 77.6826 74.5881 77.6919 74.3712C77.696 74.3046 77.7001 74.2381 77.7043 74.1695C77.5925 73.5578 77.0522 73.0965 76.6276 72.6765C76.5683 72.6172 76.509 72.5579 76.4479 72.4968C76.3235 72.3726 76.1989 72.2486 76.074 72.1248C75.9459 71.9978 75.8181 71.8706 75.6907 71.7429C75.5063 71.5581 75.3215 71.3738 75.1365 71.1897C75.0791 71.1323 75.0218 71.0749 74.9628 71.0158C74.9098 70.9635 74.8569 70.9111 74.8023 70.8573C74.7557 70.8109 74.709 70.7646 74.661 70.7169C74.4581 70.5448 74.4209 70.6071 74.2256 70.7861Z" fill="white"/>
<path d="M69.4617 58.0794C70.8203 59.167 71.7174 60.6915 71.9694 62.4171C72.0847 64.3595 71.7688 66.1128 70.4783 67.6359C70.4315 67.6918 70.3847 67.7477 70.3364 67.8053C69.3204 68.9787 67.7747 69.8674 66.2084 70.0081C65.2922 70.0607 64.3842 70.0618 63.4973 69.8047C63.3815 69.7713 63.3815 69.7713 63.2633 69.7372C62.0216 69.3349 60.5586 68.4777 59.9052 67.297C59.8857 67.0529 59.8769 66.8858 59.9772 66.6616C60.174 66.4965 60.3294 66.488 60.5829 66.4837C60.8475 66.5763 60.963 66.7384 61.1209 66.9581C61.8879 67.9775 63.1399 68.5674 64.3602 68.8275C65.898 69.0241 67.3999 68.7503 68.6484 67.8011C68.7394 67.7242 68.8298 67.6466 68.9195 67.5681C68.965 67.5322 69.0105 67.4963 69.0574 67.4593C70 66.6947 70.6751 65.381 70.8172 64.1793C70.9502 62.4867 70.5882 61.0137 69.495 59.6946C68.8067 58.9125 67.9431 58.3967 66.9539 58.0794C66.8883 58.0577 66.8227 58.036 66.7551 58.0137C65.6928 57.7153 64.5343 57.7988 63.4973 58.1471C63.426 58.1709 63.3546 58.1947 63.281 58.2191C61.9287 58.7269 60.8809 59.801 60.2734 61.093C60.1163 61.4805 60.0018 61.8746 59.9052 62.2815C59.8921 62.3325 59.879 62.3836 59.8655 62.4361C59.7476 63.2098 59.7924 64.0356 59.9962 64.7887C60.0621 65.0905 60.1048 65.3628 59.9391 65.6322C59.7001 65.7815 59.5016 65.8003 59.2274 65.7381C58.8537 65.4452 58.795 64.8861 58.7146 64.4414C58.5075 62.5941 58.8676 60.7438 60.0243 59.2564C62.3395 56.4012 66.5205 55.8442 69.4617 58.0794Z" fill="white"/>
<path d="M68.529 60.7947C68.8957 61.1389 69.0736 61.5813 69.0966 62.0782C69.1051 62.6741 68.7797 63.1136 68.383 63.525C68.1605 63.7488 67.9343 63.9686 67.7072 64.1878C67.5249 64.3655 67.3431 64.5438 67.1613 64.722C67.1181 64.7642 67.0749 64.8064 67.0305 64.8498C66.7728 65.1025 66.5271 65.3606 66.2942 65.6366C65.9468 66.0444 65.5483 66.3708 65.0043 66.4395C64.3943 66.4699 63.9494 66.3053 63.49 65.898C63.3001 65.7217 63.1172 65.5389 62.936 65.3536C62.8227 65.2379 62.7077 65.124 62.5926 65.0101C62.519 64.9361 62.4455 64.8619 62.3722 64.7877C62.3383 64.7542 62.3044 64.7206 62.2695 64.686C61.9227 64.3275 61.7598 63.9339 61.7344 63.4338C61.7723 62.9313 61.9259 62.5762 62.2766 62.2138C62.6612 61.8961 63.0655 61.7864 63.5559 61.8071C64.0637 61.8714 64.4551 62.1821 64.8521 62.4849C64.8678 62.4473 64.8834 62.4097 64.8996 62.3709C65.0751 62.0578 65.3596 61.8194 65.6126 61.5674C65.7156 61.4647 65.8176 61.3611 65.9196 61.2574C65.9855 61.1912 66.0516 61.1252 66.1176 61.0592C66.1771 60.9995 66.2366 60.9398 66.2979 60.8783C66.968 60.3017 67.8072 60.3367 68.529 60.7947ZM66.906 61.8427C66.7757 61.9688 66.648 62.097 66.5211 62.2265C66.4757 62.2723 66.4303 62.318 66.3836 62.3652C66.1608 62.5913 65.9431 62.8191 65.7374 63.061C65.5844 63.2399 65.4258 63.4076 65.2545 63.5693C65.2132 63.6085 65.1719 63.6476 65.1293 63.6879C64.9296 63.8074 64.8104 63.8064 64.581 63.7726C64.3853 63.6464 64.3853 63.6464 64.1955 63.4804C64.1008 63.399 64.1008 63.399 64.0041 63.3159C63.9071 63.2277 63.8112 63.1381 63.719 63.0448C63.5989 62.9266 63.5299 62.9012 63.361 62.8915C63.0705 62.9997 63.0705 62.9997 62.8866 63.2304C62.8556 63.5157 62.8518 63.6559 63.0202 63.8935C63.112 63.9821 63.112 63.9821 63.2056 64.0726C63.2382 64.1047 63.2708 64.1368 63.3044 64.1699C63.4084 64.2716 63.5138 64.3716 63.6194 64.4716C63.6896 64.54 63.7598 64.6085 63.8298 64.6772C64.2398 65.1209 64.2398 65.1209 64.7674 65.3654C65.1686 65.3037 65.4023 65.0002 65.6538 64.6995C66.0465 64.2473 66.481 63.8336 66.9066 63.4126C67.0788 63.2422 67.2508 63.0716 67.4226 62.9008C67.4619 62.862 67.5012 62.8233 67.5418 62.7834C67.8588 62.4828 67.8588 62.4828 67.9953 62.0825C67.9865 61.8709 67.9865 61.8709 67.8555 61.7182C67.4752 61.4407 67.2394 61.5429 66.906 61.8427Z" fill="white"/>
<path d="M48.7213 60.9817C48.7738 60.9808 48.8263 60.98 48.8804 60.9791C48.9366 60.9786 48.9928 60.9781 49.0507 60.9775C49.1092 60.977 49.1677 60.9765 49.228 60.9759C49.3517 60.975 49.4754 60.9742 49.5992 60.9737C49.7251 60.9729 49.8511 60.9715 49.977 60.9695C50.1596 60.9666 50.3422 60.9655 50.5248 60.9648C50.6083 60.9631 50.6083 60.9631 50.6935 60.9612C51.0835 60.9627 51.3774 61.0464 51.7035 61.2648C51.9536 61.5277 52.0493 61.7354 52.0555 62.0953C52.0565 62.1532 52.0576 62.2111 52.0588 62.2708C52.0618 62.5361 52.0645 62.8014 52.0661 63.0667C52.0672 63.2063 52.0691 63.3458 52.0717 63.4853C52.0754 63.6873 52.0769 63.8891 52.0779 64.091C52.0794 64.1528 52.0809 64.2146 52.0825 64.2783C52.0811 64.7095 51.983 64.9989 51.7035 65.3314C51.3341 65.6107 50.9724 65.6139 50.5227 65.6163C50.4672 65.6167 50.4117 65.6171 50.3545 65.6175C50.2372 65.6181 50.1198 65.6185 50.0025 65.6188C49.8243 65.6195 49.6461 65.6216 49.4679 65.6237C49.3535 65.6241 49.2392 65.6245 49.1248 65.6248C49.0721 65.6256 49.0194 65.6264 48.9651 65.6273C48.5503 65.6256 48.1646 65.5569 47.8363 65.2827C47.8054 65.2429 47.7746 65.203 47.7428 65.162C47.7107 65.1221 47.6787 65.0823 47.6456 65.0412C47.5165 64.8446 47.4926 64.6723 47.4904 64.4435C47.4898 64.3878 47.4891 64.3322 47.4884 64.2748C47.4882 64.2149 47.4879 64.1549 47.4876 64.0932C47.4872 64.0312 47.4868 63.9693 47.4864 63.9055C47.4858 63.7744 47.4853 63.6433 47.4851 63.5122C47.4844 63.3123 47.4823 63.1124 47.4802 62.9125C47.4797 62.785 47.4794 62.6575 47.4791 62.5301C47.4783 62.4705 47.4774 62.411 47.4766 62.3497C47.478 61.9458 47.5384 61.6522 47.8188 61.3418C47.858 61.3094 47.8972 61.277 47.9377 61.2436C47.9767 61.2103 48.0158 61.177 48.056 61.1428C48.2644 61.0051 48.4756 60.9853 48.7213 60.9817ZM48.5858 62.1459C48.5789 62.316 48.5763 62.4841 48.5768 62.6542C48.5767 62.7051 48.5766 62.756 48.5766 62.8084C48.5765 62.9162 48.5766 63.024 48.5769 63.1318C48.5773 63.2974 48.5769 63.463 48.5765 63.6285C48.5765 63.733 48.5766 63.8375 48.5768 63.942C48.5766 63.9918 48.5765 64.0417 48.5763 64.093C48.5566 64.3251 48.5566 64.3251 48.6535 64.5181C48.8187 64.5249 48.9819 64.5276 49.147 64.5271C49.1964 64.5272 49.2458 64.5272 49.2967 64.5273C49.4013 64.5273 49.5059 64.5272 49.6105 64.5269C49.7712 64.5266 49.9318 64.5269 50.0925 64.5274C50.1939 64.5273 50.2953 64.5272 50.3967 64.5271C50.445 64.5272 50.4934 64.5274 50.5432 64.5275C50.7699 64.5463 50.7699 64.5463 50.958 64.4503C50.964 64.2745 50.9658 64.1006 50.9646 63.9248C50.9644 63.8459 50.9644 63.8459 50.9643 63.7655C50.9639 63.597 50.963 63.4285 50.9622 63.26C50.9618 63.146 50.9615 63.032 50.9613 62.9181C50.9605 62.6381 50.9593 62.3581 50.958 62.0781C50.631 62.0765 50.3041 62.0752 49.9771 62.0744C49.8658 62.0741 49.7545 62.0736 49.6432 62.073C49.4836 62.0722 49.3239 62.0718 49.1643 62.0715C49.1142 62.0712 49.0641 62.0708 49.0126 62.0704C48.7796 62.0492 48.7796 62.0492 48.5858 62.1459Z" fill="white"/>
<path d="M48.6052 68.3016C48.6636 68.3008 48.722 68.2999 48.7821 68.299C48.8451 68.2985 48.908 68.298 48.9728 68.2975C49.0377 68.2969 49.1026 68.2964 49.1696 68.2958C49.307 68.2949 49.4445 68.2942 49.582 68.2936C49.7917 68.2925 50.0014 68.2895 50.2112 68.2865C50.3448 68.2858 50.4785 68.2852 50.6121 68.2848C50.7059 68.283 50.7059 68.283 50.8015 68.2812C51.1826 68.2825 51.4024 68.3285 51.7037 68.5848C51.9328 68.8448 52.0502 69.003 52.0546 69.3481C52.0559 69.4377 52.0559 69.4377 52.0572 69.5291C52.0577 69.5939 52.0582 69.6586 52.0587 69.7253C52.0593 69.7918 52.0598 69.8584 52.0604 69.9269C52.0613 70.068 52.0621 70.2091 52.0626 70.3502C52.0638 70.5654 52.0667 70.7806 52.0697 70.9959C52.0704 71.1329 52.071 71.27 52.0714 71.407C52.0726 71.4712 52.0738 71.5354 52.075 71.6015C52.0738 71.9871 52.0316 72.2113 51.7715 72.5158C51.5043 72.7569 51.3063 72.8615 50.9472 72.8678C50.8907 72.8688 50.8341 72.8699 50.7758 72.8711C50.5167 72.8741 50.2576 72.8769 49.9985 72.8784C49.8623 72.8795 49.726 72.8814 49.5898 72.884C49.3925 72.8877 49.1954 72.8892 48.9982 72.8902C48.9379 72.8917 48.8776 72.8932 48.8154 72.8948C48.3892 72.8934 48.0932 72.8043 47.7726 72.5158C47.4713 72.175 47.4615 71.812 47.4655 71.3742C47.4653 71.3113 47.465 71.2484 47.4647 71.1836C47.4646 71.0512 47.4651 70.9188 47.4662 70.7865C47.4676 70.5847 47.4662 70.3832 47.4645 70.1815C47.4647 70.0524 47.465 69.9233 47.4655 69.7941C47.465 69.7343 47.4644 69.6745 47.4639 69.6129C47.4699 69.2138 47.5425 68.9807 47.7726 68.6525C48.0399 68.4049 48.2431 68.3064 48.6052 68.3016ZM48.586 69.3981C48.586 70.1809 48.586 70.9637 48.586 71.7703C49.3688 71.7703 50.1516 71.7703 50.9582 71.7703C50.9582 70.9874 50.9582 70.2046 50.9582 69.3981C50.1753 69.3981 49.3925 69.3981 48.586 69.3981Z" fill="white"/>
<path d="M48.985 53.8436C49.0481 53.8435 49.1112 53.8434 49.1761 53.8433C49.3088 53.8434 49.4414 53.8442 49.5741 53.8456C49.7766 53.8476 49.9789 53.847 50.1813 53.8461C50.3107 53.8465 50.44 53.8471 50.5693 53.8478C50.6295 53.8476 50.6897 53.8474 50.7516 53.8472C51.1443 53.8532 51.4488 53.9053 51.748 54.1846C51.9473 54.4451 52.0511 54.586 52.0552 54.9117C52.0565 55.0013 52.0565 55.0013 52.0578 55.0927C52.0583 55.1574 52.0588 55.2222 52.0594 55.2889C52.0599 55.3554 52.0605 55.422 52.061 55.4905C52.062 55.6316 52.0627 55.7726 52.0632 55.9137C52.0644 56.129 52.0674 56.3442 52.0703 56.5594C52.071 56.6965 52.0716 56.8335 52.0721 56.9706C52.0733 57.0348 52.0744 57.099 52.0757 57.1651C52.0744 57.5505 52.0325 57.7752 51.7721 58.0794C51.5155 58.3054 51.3569 58.4258 51.016 58.4302C50.9288 58.4316 50.9288 58.4316 50.8398 58.4329C50.7452 58.4336 50.7452 58.4336 50.6488 58.4344C50.5839 58.4349 50.519 58.4355 50.4522 58.4361C50.3146 58.437 50.177 58.4377 50.0394 58.4383C49.8298 58.4394 49.6202 58.4424 49.4106 58.4454C49.2769 58.4461 49.1431 58.4467 49.0094 58.4471C48.947 58.4483 48.8847 58.4495 48.8204 58.4507C48.4337 58.4494 48.1365 58.4116 47.841 58.1471C47.5074 57.7733 47.4515 57.4214 47.4572 56.9335C47.4567 56.8396 47.4567 56.8396 47.4562 56.7437C47.4559 56.612 47.4566 56.4803 47.458 56.3486C47.4598 56.1482 47.458 55.9481 47.4558 55.7477C47.4561 55.6191 47.4565 55.4905 47.4572 55.3619C47.4565 55.3027 47.4558 55.2434 47.4551 55.1824C47.463 54.7616 47.5576 54.4655 47.841 54.1483C48.1825 53.8456 48.5462 53.838 48.985 53.8436ZM48.5866 54.9616C48.5866 55.7445 48.5866 56.5273 48.5866 57.3338C49.3694 57.3338 50.1522 57.3338 50.9588 57.3338C50.9588 56.551 50.9588 55.7682 50.9588 54.9616C50.176 54.9616 49.3931 54.9616 48.5866 54.9616Z" fill="white"/>
</svg>
