<svg width="123" height="123" viewBox="0 0 123 123" fill="none" xmlns="http://www.w3.org/2000/svg">
<path d="M61.5 0C45.1892 -1.94504e-07 29.5464 6.47944 18.0129 18.0129C6.47945 29.5464 1.42594e-06 45.1892 0 61.5C-1.42594e-06 77.8108 6.47944 93.4536 18.0129 104.987C29.5464 116.521 45.1892 123 61.5 123L61.5 117.2C46.7274 117.2 32.5599 111.332 22.1141 100.886C11.6683 90.4401 5.79991 76.2726 5.79991 61.5C5.79991 46.7274 11.6683 32.5599 22.1141 22.1141C32.5599 11.6683 46.7274 5.79991 61.5 5.79991L61.5 0Z" fill="#18DEFF"/>
<path d="M107 61C107 85.8528 86.8528 106 62 106C37.1472 106 17 85.8528 17 61C17 36.1472 37.1472 16 62 16C86.8528 16 107 36.1472 107 61ZM23.3365 61C23.3365 82.3533 40.6467 99.6635 62 99.6635C83.3533 99.6635 100.663 82.3533 100.663 61C100.663 39.6467 83.3533 22.3365 62 22.3365C40.6467 22.3365 23.3365 39.6467 23.3365 61Z" fill="#8B9093"/>
<path d="M67.2453 41.0062C67.3107 41.0054 67.3761 41.0046 67.4434 41.0038C68.8765 40.9897 70.2611 40.9968 71.6583 41.3559C71.7641 41.3824 71.7641 41.3824 71.872 41.4094C74.3394 42.045 76.4368 43.3225 78.3401 44.9855C78.2945 44.8486 78.2476 44.7121 78.1955 44.5775C77.9189 43.8321 77.9343 43.1612 78.2577 42.4282C78.6484 41.7622 79.1658 41.3888 79.8972 41.1599C80.5965 41.0154 81.2771 41.1674 81.8873 41.5208C82.4712 41.9251 82.8272 42.4723 82.9597 43.1707C83.038 43.8715 82.8942 44.5001 82.5053 45.0925C82.1094 45.5823 81.6001 45.9267 80.9799 46.0579C80.867 46.0642 80.7539 46.0668 80.6409 46.0659C80.5787 46.0657 80.5165 46.0654 80.4524 46.0651C80.3883 46.0644 80.3241 46.0637 80.2581 46.063C80.1927 46.0627 80.1273 46.0623 80.0599 46.0619C79.8991 46.0609 79.7383 46.0595 79.5775 46.0579C79.5775 46.3893 79.7426 46.5354 79.9436 46.7797C82.3674 49.8343 83.3289 53.8316 82.8916 57.6748C82.6421 59.5581 82.0372 61.2984 81.1449 62.9687C81.1001 63.0533 81.0553 63.138 81.0092 63.2252C80.3837 64.3513 79.5611 65.344 78.6701 66.2683C78.6164 66.3263 78.5627 66.3842 78.5074 66.4439C78.0079 66.9689 77.4355 67.4045 76.8553 67.8357C76.8091 67.8704 76.7629 67.905 76.7153 67.9408C75.3188 68.9741 73.6683 69.7173 71.9883 70.1454C71.9261 70.1615 71.8639 70.1777 71.7999 70.1943C68.1813 71.1062 64.0671 70.6663 60.8335 68.7411C60.6343 68.6193 60.4369 68.4955 60.2411 68.3681C60.1838 68.331 60.1266 68.2938 60.0676 68.2555C60.0177 68.2223 59.9678 68.189 59.9164 68.1547C59.7687 68.064 59.7687 68.064 59.5321 68.0831C59.3709 68.2041 59.3709 68.2041 59.2073 68.3706C59.1427 68.4334 59.078 68.4962 59.0114 68.561C58.942 68.6298 58.8727 68.6986 58.8012 68.7695C58.73 68.8397 58.6587 68.91 58.5853 68.9823C58.4346 69.1314 58.2843 69.2808 58.1343 69.4305C57.9041 69.6596 57.6717 69.8864 57.4391 70.1132C57.2933 70.2581 57.1475 70.4031 57.0019 70.5482C56.9319 70.616 56.8618 70.6839 56.7897 70.7537C56.7261 70.8181 56.6625 70.8825 56.5969 70.9488C56.5403 71.0049 56.4837 71.0609 56.4254 71.1187C56.2895 71.3015 56.2895 71.3015 56.3374 71.5556C56.3572 71.6347 56.377 71.7138 56.3974 71.7953C56.4508 72.5171 56.3757 73.0314 55.8921 73.5946C55.8189 73.6736 55.8189 73.6736 55.7441 73.7542C55.5746 73.9377 55.4093 74.1244 55.2438 74.3116C54.7911 74.8152 54.3116 75.2897 53.8298 75.7652C53.1795 76.399 53.1795 76.399 52.5673 77.0689C52.0988 77.6178 51.5691 78.1127 51.0562 78.6196C50.3501 79.3179 50.3501 79.3179 49.6849 80.0549C49.4206 80.3589 49.1374 80.6446 48.8545 80.9312C48.7664 81.0229 48.7664 81.0229 48.6765 81.1165C48.231 81.5673 47.8324 81.8904 47.1944 81.9856C46.339 81.9778 45.9071 81.8578 45.3022 81.256C45.2469 81.1968 45.1917 81.1376 45.1347 81.0765C44.9736 80.9126 44.8124 80.7644 44.6384 80.6151C44.2196 80.2522 43.8228 79.8679 43.4288 79.4785C43.344 79.3951 43.2587 79.3121 43.173 79.2295C42.6107 78.6875 42.1424 78.2028 42 77.4073C42.0101 76.5919 42.2293 76.1146 42.812 75.5435C42.9238 75.4387 42.9238 75.4387 43.0379 75.3318C43.2149 75.1645 43.3745 74.9895 43.5322 74.804C44.0139 74.2456 44.5511 73.7381 45.0752 73.2201C45.5406 72.7597 46.001 72.3028 46.4255 71.804C46.844 71.336 47.3037 70.9037 47.7502 70.4626C48.2129 70.0051 48.6723 69.5491 49.0951 69.0537C49.3047 68.8104 49.5267 68.5803 49.7516 68.3512C49.7946 68.3058 49.8377 68.2604 49.882 68.2137C50.2793 67.81 50.68 67.5407 51.2497 67.4677C51.344 67.47 51.4383 67.4724 51.5355 67.4748C51.6773 67.4764 51.6773 67.4764 51.822 67.478C52.1259 67.5075 52.3933 67.5836 52.6852 67.6707C53.1464 67.22 53.6059 66.7677 54.0643 66.3143C54.2205 66.1601 54.3771 66.0063 54.5341 65.8529C54.7593 65.6327 54.9831 65.4113 55.2067 65.1895C55.2775 65.1208 55.3483 65.0522 55.4213 64.9814C55.4857 64.917 55.5501 64.8526 55.6165 64.7863C55.6738 64.7299 55.7311 64.6735 55.7902 64.6153C55.9226 64.4619 55.9226 64.4619 55.8842 64.2776C55.8135 64.1083 55.7325 63.9572 55.6366 63.8007C55.5993 63.7387 55.562 63.6767 55.5235 63.6128C55.4835 63.5466 55.4435 63.4803 55.4023 63.4121C53.382 59.9826 52.7924 55.9032 53.7731 52.0334C54.6863 48.681 56.6469 45.8016 59.4496 43.7481C59.4962 43.7135 59.5428 43.6788 59.5908 43.6431C61.7366 42.0661 64.5697 41.0337 67.2453 41.0062ZM58.4597 46.4703C58.2549 46.6817 58.0664 46.9008 57.8822 47.1303C57.7872 47.2469 57.7872 47.2469 57.6902 47.3658C55.4285 50.1885 54.4431 53.7368 54.7856 57.3286C54.9629 58.8372 55.3976 60.2873 56.0674 61.6488C56.0927 61.7008 56.118 61.7529 56.1441 61.8065C57.7011 64.9738 60.4742 67.323 63.7791 68.5078C66.9953 69.5971 70.6574 69.4974 73.7403 68.0116C74.0116 67.8757 74.2787 67.7327 74.5455 67.5882C74.6201 67.549 74.6201 67.549 74.6963 67.509C76.1037 66.7684 77.4251 65.696 78.4226 64.4535C78.486 64.3758 78.5494 64.298 78.6147 64.218C80.8586 61.4174 81.8939 57.8387 81.5164 54.2677C81.1381 51.3246 79.8834 48.7012 77.8452 46.5528C77.8066 46.5116 77.7681 46.4703 77.7283 46.4278C76.7363 45.3723 75.635 44.5826 74.357 43.9058C74.2395 43.8433 74.1231 43.7786 74.0071 43.7133C68.8674 40.9312 62.4742 42.5508 58.4597 46.4703ZM79.6291 42.9387C79.4559 43.2384 79.3856 43.484 79.4125 43.8306C79.5204 44.1675 79.6818 44.3629 79.9642 44.573C80.3257 44.6822 80.6178 44.6832 80.9799 44.573C81.2407 44.3677 81.4648 44.1543 81.5573 43.8306C81.5508 43.4275 81.516 43.238 81.3047 42.8923C80.7461 42.3931 80.1909 42.4212 79.6291 42.9387ZM56.671 65.6449C56.588 65.7284 56.588 65.7284 56.5033 65.8137C56.4406 65.8764 56.3779 65.9392 56.3132 66.0038C56.2116 66.1067 56.2116 66.1067 56.108 66.2116C56.0387 66.2812 55.9693 66.3508 55.8979 66.4225C55.6756 66.6457 55.4539 66.8695 55.2322 67.0932C55.0819 67.2443 54.9317 67.3953 54.7814 67.5463C54.4122 67.9173 54.0435 68.2888 53.6751 68.6606C54.0427 69.097 54.0427 69.097 54.435 69.511C54.478 69.5538 54.5211 69.5966 54.5655 69.6407C54.6085 69.683 54.6516 69.7254 54.696 69.7691C54.741 69.8137 54.7859 69.8583 54.8323 69.9042C54.9413 70.0123 55.0506 70.1202 55.16 70.2279C55.4225 70.112 55.5983 69.9747 55.8 69.7716C55.8595 69.7122 55.9189 69.6527 55.9801 69.5915C56.0434 69.5274 56.1066 69.4633 56.1718 69.3972C56.2373 69.3315 56.3027 69.2658 56.3701 69.1982C56.579 68.9884 56.7872 68.7781 56.9954 68.5678C57.137 68.4254 57.2785 68.2831 57.4201 68.1408C57.7671 67.7921 58.1135 67.4428 58.4597 67.0932C58.3827 67.0026 58.3055 66.9121 58.2284 66.8216C58.1854 66.7712 58.1425 66.7207 58.0983 66.6688C57.8911 66.4315 57.6717 66.2076 57.4491 65.9848C57.4055 65.9402 57.3619 65.8955 57.317 65.8496C57.2062 65.7384 57.0908 65.6317 56.9748 65.5259C56.8002 65.508 56.8002 65.508 56.671 65.6449ZM50.6233 69.5164C50.5613 69.579 50.4992 69.6415 50.4354 69.7059C50.2372 69.9063 50.0408 70.1083 49.8444 70.3104C49.7126 70.444 49.5806 70.5776 49.4486 70.711C48.9367 71.2301 48.4316 71.7496 47.9546 72.301C47.7501 72.5323 47.533 72.7492 47.313 72.9656C47.2676 73.0107 47.2221 73.0558 47.1753 73.1023C46.9844 73.2919 46.793 73.481 46.6016 73.6701C46.1315 74.1352 45.6666 74.597 45.238 75.1013C45.0668 75.2925 44.8848 75.4691 44.6997 75.6469C44.5969 75.7459 44.5969 75.7459 44.4921 75.8469C44.3505 75.9826 44.208 76.1175 44.0649 76.2516C43.7769 76.5312 43.5608 76.7508 43.4043 77.1234C43.4685 77.5548 43.7163 77.7701 44.0236 78.0646C44.0741 78.114 44.1247 78.1634 44.1767 78.2142C44.3317 78.3625 44.4891 78.5077 44.6475 78.6524C45.1576 79.1237 45.6542 79.6056 46.1402 80.1018C46.461 80.4386 46.461 80.4386 46.8902 80.5703C47.3581 80.5163 47.6028 80.1907 47.8907 79.8485C48.3787 79.2873 48.9187 78.7745 49.4473 78.2521C50.0739 77.6393 50.0739 77.6393 50.6642 76.9922C51.1301 76.4448 51.6586 75.9523 52.1695 75.4474C52.643 74.9789 53.1118 74.5138 53.5434 74.0058C53.6883 73.8428 53.8413 73.693 53.9993 73.5427C54.0529 73.4916 54.1065 73.4405 54.1617 73.3879C54.2716 73.284 54.3823 73.1809 54.4936 73.0786C54.7437 72.8378 54.8965 72.6603 55.0266 72.3344C54.9786 71.8912 54.7306 71.6829 54.4176 71.3828C54.367 71.3334 54.3165 71.2841 54.2645 71.2332C54.1095 71.0849 53.9521 70.9397 53.7937 70.7951C53.2836 70.3238 52.787 69.8418 52.301 69.3456C51.9816 69.0156 51.9816 69.0156 51.5613 68.8649C51.1282 68.9321 50.9195 69.2087 50.6233 69.5164Z" fill="white"/>
<path d="M75.9378 47.553C76.2722 47.8582 76.5712 48.1806 76.8555 48.5326C76.942 48.6392 76.942 48.6392 77.0302 48.7479C77.9615 49.9403 78.6481 51.2893 79.0622 52.7448C79.0786 52.8022 79.095 52.8596 79.1119 52.9187C79.3656 53.8615 79.4429 54.7974 79.4386 55.7713C79.4382 55.88 79.4378 55.9887 79.4373 56.1008C79.4062 58.6981 78.4294 61.1439 76.7731 63.1336C76.7119 63.2074 76.6508 63.2812 76.5878 63.3573C76.1466 63.8684 75.6584 64.2909 75.1232 64.701C75.051 64.757 74.9788 64.8131 74.9044 64.8708C72.485 66.6934 69.4836 67.4035 66.4925 66.9953C64.8344 66.7444 63.2141 66.176 61.8421 65.1959C61.7218 65.1108 61.7218 65.1108 61.5991 65.0239C60.6799 64.3539 59.8943 63.6246 59.2023 62.7212C59.1483 62.6539 59.0943 62.5866 59.0386 62.5172C57.2107 60.1518 56.5892 57.0632 56.9335 54.1295C56.9831 53.7988 57.0574 53.4762 57.14 53.1522C57.1533 53.0967 57.1666 53.0413 57.1803 52.9842C57.6675 50.9779 58.7084 49.2722 60.16 47.8227C60.2697 47.7129 60.3784 47.6021 60.4832 47.4876C64.5948 43.0572 71.7288 43.9199 75.9378 47.553ZM60.4764 49.5219C58.7532 51.6415 58.1178 54.177 58.2949 56.8643C58.52 59.0261 59.4697 60.9719 60.9347 62.5562C60.9937 62.6219 61.0527 62.6876 61.1135 62.7553C62.8171 64.5644 65.2913 65.5964 67.7534 65.7041C70.555 65.7819 73.0192 64.7209 75.0871 62.861C75.6532 62.3215 76.0966 61.721 76.5256 61.0713C76.6047 60.9532 76.6047 60.9532 76.6854 60.8326C77.9987 58.7366 78.3556 56.0371 77.8324 53.6415C77.5257 52.3753 76.9904 51.1893 76.2781 50.1C75.9822 50.1986 75.9237 50.2935 75.7368 50.5382C75.5481 50.7844 75.3588 51.0239 75.1471 51.2503C74.7124 51.7224 74.4755 52.046 74.4726 52.7007C74.4524 53.1415 74.2065 53.4089 73.9013 53.7141C73.416 54.0472 72.9999 54.0921 72.4303 54.0154C71.9502 53.9207 71.657 53.6906 71.3505 53.3245C71.2305 53.1264 71.2062 52.9672 71.1688 52.7397C71.0877 52.4135 71.0173 52.3394 70.7289 52.1519C70.2387 51.9086 69.719 51.7009 69.1838 51.5848C69.0425 51.6621 68.9013 51.7405 68.7672 51.8297C68.3715 52.039 67.9048 52.0292 67.4824 51.9199C67.2077 51.8861 67.2077 51.8861 67.0452 52.0356C66.8723 52.2105 66.7088 52.3922 66.5441 52.5747C66.4426 52.6676 66.3395 52.7588 66.2347 52.848C66.1816 52.8951 66.1284 52.9422 66.0736 52.9907C65.9269 53.1157 65.7756 53.2352 65.6225 53.3523C65.0998 53.7506 65.0998 53.7506 64.8427 54.3331C64.8495 54.5166 64.8617 54.6999 64.8798 54.8825C64.9013 55.2529 64.7862 55.5011 64.5643 55.7919C64.1218 56.2123 63.6841 56.3731 63.0794 56.3693C62.5003 56.2952 62.1446 56.0916 61.7876 55.6304C61.4823 55.1649 61.4408 54.6764 61.5446 54.1385C61.6906 53.6515 61.9853 53.3282 62.4195 53.0697C62.8448 52.925 63.2332 52.8725 63.6723 52.9717C64.0182 52.9887 64.0456 52.9782 64.291 52.7655C64.4106 52.6478 64.529 52.5291 64.6468 52.4097C64.779 52.2854 64.9124 52.1626 65.0462 52.04C65.1408 51.9531 65.2349 51.8656 65.3284 51.7776C65.5673 51.5535 65.806 51.3552 66.0749 51.1672C66.3285 50.8901 66.3246 50.8391 66.3172 50.4815C66.3122 50.4031 66.3072 50.3247 66.3021 50.244C66.2912 49.7952 66.4674 49.4363 66.7349 49.0843C67.1216 48.6976 67.4763 48.5787 68.0186 48.5739C68.5384 48.587 68.8935 48.6548 69.2663 49.0276C69.5217 49.3343 69.6782 49.5646 69.6801 49.9717C69.7294 50.2657 69.7294 50.2657 69.9168 50.3822C70.1311 50.4931 70.347 50.5869 70.5707 50.6774C70.6463 50.7109 70.7218 50.7444 70.7997 50.7789C71.2593 50.9931 71.2593 50.9931 71.7411 50.9249C71.8175 50.8828 71.894 50.8407 71.9727 50.7973C72.2772 50.6587 72.4859 50.6495 72.8186 50.6568C72.9165 50.6581 73.0145 50.6593 73.1154 50.6606C73.3537 50.6751 73.5714 50.7055 73.8034 50.7599C73.9598 50.5778 74.1162 50.3956 74.2725 50.2134C74.3163 50.1625 74.36 50.1115 74.4051 50.059C74.4924 49.9573 74.5794 49.8552 74.6661 49.7528C74.7491 49.6563 74.834 49.5613 74.9207 49.4681C75.1401 49.2368 75.1401 49.2368 75.2141 48.938C74.4137 47.5472 72.2525 46.6455 70.7824 46.2283C66.8956 45.2232 63.1124 46.5554 60.4764 49.5219ZM67.7815 49.935C67.727 50.0711 67.6726 50.2072 67.6165 50.3474C67.7254 50.4563 67.8343 50.5652 67.9464 50.6774C68.0826 50.623 68.2187 50.5685 68.3589 50.5124C68.3727 50.3131 68.3727 50.3131 68.3589 50.1C68.2072 49.9113 68.2072 49.9113 67.9774 49.9247C67.9127 49.9281 67.8481 49.9315 67.7815 49.935ZM72.566 51.9973C72.5115 52.1334 72.4571 52.2695 72.401 52.4097C72.5099 52.5186 72.6188 52.6275 72.731 52.7397C72.9368 52.6752 72.9368 52.6752 73.1434 52.5747C73.2534 52.3362 73.2534 52.3362 73.1486 52.1468C73.1197 52.0974 73.0907 52.0481 73.0609 51.9973C72.8976 51.9973 72.7343 51.9973 72.566 51.9973ZM63.1619 54.2245C63.053 54.3334 62.9442 54.4423 62.832 54.5545C62.8964 54.7604 62.8964 54.7604 62.9969 54.967C63.0786 54.9942 63.1603 55.0214 63.2444 55.0495C63.4251 54.9363 63.4251 54.9363 63.5744 54.802C63.5589 54.6003 63.5589 54.6003 63.4919 54.3895C63.3296 54.2773 63.3296 54.2773 63.1619 54.2245Z" fill="white"/>
<path d="M67.8366 53.4668C68.022 53.4667 68.2073 53.4652 68.3927 53.4636C68.5108 53.4634 68.6289 53.4632 68.747 53.4631C68.9079 53.4626 68.9079 53.4626 69.0721 53.4621C69.3307 53.4809 69.4685 53.4999 69.6779 53.6471C69.8489 53.9035 69.8637 53.9596 69.865 54.2504C69.8657 54.323 69.8664 54.3956 69.8671 54.4705C69.867 54.5499 69.867 54.6294 69.8669 54.7112C69.8674 54.7951 69.868 54.879 69.8686 54.9653C69.8701 55.2432 69.8705 55.5211 69.8706 55.799C69.8712 55.9918 69.8717 56.1847 69.8723 56.3775C69.8733 56.7821 69.8736 57.1867 69.8735 57.5912C69.8735 58.1099 69.8757 58.6285 69.8786 59.1471C69.8804 59.5456 69.8807 59.944 69.8807 60.3424C69.8808 60.5336 69.8816 60.7248 69.8828 60.9161C69.8845 61.1835 69.884 61.4508 69.883 61.7182C69.8839 61.7973 69.8849 61.8764 69.8858 61.958C69.8825 62.312 69.8753 62.5041 69.6849 62.8107C69.2777 63.1848 68.681 63.0665 68.1587 63.0664C67.9928 63.0666 67.8271 63.0681 67.6612 63.0697C67.5036 63.0699 67.5036 63.0699 67.3427 63.0702C67.2468 63.0705 67.1508 63.0708 67.0519 63.0712C66.7884 63.051 66.6109 63.0098 66.3783 62.8862C66.2066 62.6286 66.1926 62.5717 66.1918 62.2792C66.1912 62.2058 66.1906 62.1323 66.19 62.0567C66.1902 61.9763 66.1904 61.8959 66.1906 61.8132C66.1902 61.7284 66.1898 61.6436 66.1894 61.5562C66.1882 61.2753 66.1883 60.9943 66.1885 60.7134C66.1882 60.5185 66.1878 60.3236 66.1874 60.1287C66.1868 59.7199 66.1868 59.3111 66.1872 58.9023C66.1877 58.3779 66.1863 57.8535 66.1844 57.3291C66.1832 56.9265 66.1831 56.524 66.1834 56.1214C66.1833 55.928 66.1829 55.7346 66.1821 55.5413C66.1811 55.2711 66.1816 55.001 66.1826 54.7308C66.1819 54.6506 66.1813 54.5704 66.1807 54.4878C66.1812 54.4141 66.1818 54.3405 66.1824 54.2646C66.1824 54.1688 66.1824 54.1688 66.1824 54.0711C66.2221 53.8445 66.3048 53.7317 66.4608 53.5646C66.9002 53.4181 67.3763 53.4668 67.8366 53.4668ZM67.6156 54.8845C67.6156 57.1167 67.6156 59.3489 67.6156 61.6488C67.8879 61.6488 68.1601 61.6488 68.4406 61.6488C68.4406 59.4166 68.4406 57.1843 68.4406 54.8845C68.1683 54.8845 67.8961 54.8845 67.6156 54.8845Z" fill="white"/>
<path d="M72.0507 56.397C72.1114 56.3967 72.1721 56.3963 72.2346 56.3959C72.3625 56.3956 72.4903 56.3963 72.6182 56.3981C72.8133 56.4003 73.008 56.3981 73.203 56.3954C73.3276 56.3957 73.4522 56.3962 73.5768 56.397C73.6637 56.3958 73.6637 56.3958 73.7524 56.3945C74.0518 56.4016 74.2002 56.4393 74.4377 56.6257C74.6727 56.9194 74.6804 57.0634 74.6806 57.4359C74.6812 57.4918 74.6818 57.5476 74.6824 57.6052C74.6838 57.7889 74.6822 57.9724 74.6805 58.1561C74.6805 58.2842 74.6807 58.4123 74.6811 58.5404C74.6813 58.8084 74.6801 59.0764 74.6778 59.3444C74.675 59.6877 74.6755 60.031 74.6771 60.3743C74.6779 60.6386 74.6772 60.9029 74.676 61.1672C74.6755 61.2938 74.6756 61.4204 74.6761 61.547C74.6765 61.724 74.6748 61.9008 74.6726 62.0777C74.6721 62.1783 74.6716 62.2789 74.671 62.3826C74.6204 62.6881 74.5422 62.7835 74.2986 62.9687C73.8802 63.1081 73.4357 63.0697 72.9978 63.071C72.8253 63.0718 72.6528 63.0743 72.4803 63.0769C72.3699 63.0775 72.2596 63.0779 72.1493 63.0782C71.9994 63.0794 71.9994 63.0794 71.8465 63.0806C71.4718 63.0398 71.2616 62.9014 70.999 62.6387C70.9763 62.4024 70.9763 62.4024 70.9737 62.0964C70.973 62.0408 70.9723 61.9851 70.9716 61.9277C70.9696 61.7431 70.9689 61.5585 70.9683 61.3739C70.9676 61.2457 70.9668 61.1175 70.9661 60.9892C70.9647 60.7201 70.9641 60.451 70.9638 60.1818C70.9634 59.8373 70.9603 59.4928 70.9565 59.1483C70.9541 58.8833 70.9535 58.6182 70.9534 58.3532C70.953 58.2262 70.952 58.0992 70.9503 57.9722C70.9481 57.7943 70.9485 57.6165 70.9495 57.4386C70.9491 57.3374 70.9487 57.2362 70.9482 57.132C71.0644 56.5186 71.4886 56.3889 72.0507 56.397ZM72.4013 57.8542C72.4013 59.1064 72.4013 60.3586 72.4013 61.6488C72.6735 61.6488 72.9458 61.6488 73.2262 61.6488C73.2262 60.3966 73.2262 59.1444 73.2262 57.8542C72.954 57.8542 72.6818 57.8542 72.4013 57.8542Z" fill="white"/>
<path d="M62.4291 57.9724C62.5261 57.9717 62.5261 57.9717 62.6251 57.9709C62.7615 57.9703 62.898 57.9706 63.0344 57.9716C63.2431 57.9728 63.4514 57.97 63.66 57.9668C63.7928 57.9667 63.9256 57.9669 64.0583 57.9673C64.1205 57.9662 64.1828 57.9651 64.2469 57.964C64.5329 57.969 64.7012 57.9989 64.9327 58.1706C65.1221 58.5634 65.1057 58.9289 65.1024 59.3597C65.1027 59.4496 65.103 59.5396 65.1033 59.6323C65.1035 59.8223 65.1029 60.0123 65.1016 60.2023C65.0998 60.4929 65.1015 60.7833 65.1037 61.0739C65.1034 61.2587 65.103 61.4434 65.1024 61.6282C65.103 61.715 65.1037 61.8018 65.1044 61.8912C65.0997 62.2579 65.0949 62.4922 64.9114 62.8153C64.4849 63.173 63.9101 63.0694 63.3788 63.071C63.2139 63.0718 63.049 63.0743 62.8841 63.0769C62.7793 63.0774 62.6744 63.0778 62.5664 63.0782C62.4709 63.079 62.3753 63.0798 62.2769 63.0806C61.9714 63.0474 61.7729 62.9627 61.5114 62.8037C61.4092 62.5993 61.4168 62.4601 61.4143 62.2314C61.4132 62.1466 61.4122 62.0618 61.4111 61.9745C61.4105 61.8825 61.4099 61.7906 61.4093 61.6958C61.4086 61.6017 61.4079 61.5075 61.4072 61.4104C61.4061 61.2108 61.4052 61.0113 61.4046 60.8117C61.4031 60.5061 61.3995 60.2005 61.3959 59.8949C61.395 59.7012 61.3943 59.5076 61.3938 59.3139C61.3923 59.2223 61.3909 59.1307 61.3894 59.0363C61.3896 58.951 61.3899 58.8657 61.3901 58.7777C61.3897 58.7028 61.3892 58.6278 61.3887 58.5506C61.5006 57.9904 61.9419 57.9692 62.4291 57.9724ZM62.8313 59.4215C62.8313 60.1565 62.8313 60.8915 62.8313 61.6488C63.1035 61.6488 63.3757 61.6488 63.6562 61.6488C63.6562 60.9138 63.6562 60.1788 63.6562 59.4215C63.384 59.4215 63.1117 59.4215 62.8313 59.4215Z" fill="white"/>
</svg>
