<svg width="123" height="123" viewBox="0 0 123 123" fill="none" xmlns="http://www.w3.org/2000/svg">
<path d="M73.0992 42.9458C73.2911 42.9466 73.4828 42.9439 73.6747 42.941C74.3497 42.9372 74.8915 42.9455 75.4493 43.3529C75.7797 43.7955 75.7576 44.2315 75.7412 44.7607C75.7399 44.8368 75.7387 44.913 75.7374 44.9914C75.7342 45.1778 75.7293 45.3641 75.724 45.5504C76.0261 45.6306 76.0261 45.6306 76.365 45.642C76.5828 45.4861 76.5828 45.4861 76.7427 45.2529C77.0676 44.8295 77.3414 44.5987 77.8643 44.4631C78.3819 44.4453 78.6811 44.592 79.0661 44.9234C79.2801 45.1285 79.4902 45.3362 79.697 45.5485C79.8275 45.6824 79.9595 45.8147 80.0917 45.9469C80.964 46.8304 80.964 46.8304 80.9947 47.4504C80.986 47.9386 80.8098 48.1646 80.4757 48.5048C80.329 48.6391 80.1787 48.7692 80.0275 48.8983C79.9671 48.9719 79.9066 49.0456 79.8444 49.1215C79.8737 49.4525 79.8737 49.4525 79.9359 49.7624C80.0409 49.7582 80.1458 49.7539 80.2539 49.7495C80.394 49.7461 80.5341 49.7428 80.6742 49.7395C80.743 49.7364 80.8119 49.7334 80.8829 49.7302C81.4081 49.7211 81.7074 49.8159 82.1335 50.1287C82.4323 50.5109 82.4497 50.8644 82.4479 51.333C82.4483 51.4042 82.4488 51.4754 82.4493 51.5488C82.4499 51.6989 82.4498 51.849 82.449 51.9992C82.4482 52.2279 82.4509 52.4564 82.4538 52.6851C82.4539 52.8315 82.4539 52.9778 82.4536 53.1242C82.4546 53.192 82.4556 53.2598 82.4567 53.3297C82.4504 53.8013 82.3432 54.0715 82.0419 54.4322C81.5635 54.7088 81.1638 54.7432 80.6284 54.724C80.5614 54.7228 80.4944 54.7216 80.4254 54.7203C80.2622 54.7171 80.0991 54.7122 79.9359 54.7069C79.8463 55.0016 79.8463 55.0016 79.8444 55.3478C80.0063 55.5629 80.1376 55.7081 80.3365 55.88C80.9305 56.4233 80.9305 56.4233 80.965 56.737C80.9672 56.8149 80.9695 56.8928 80.9718 56.9731C80.9752 57.0501 80.9786 57.127 80.9821 57.2063C80.8708 57.9133 80.1848 58.4194 79.7013 58.8959C79.6223 58.9749 79.5433 59.0539 79.4619 59.1352C78.6571 59.9343 78.6571 59.9343 77.9215 60.0176C77.9065 60.1881 77.9065 60.1881 77.8911 60.3621C77.8765 60.5124 77.8619 60.6627 77.8471 60.8131C77.8375 60.9252 77.8375 60.9252 77.8277 61.0397C77.7848 61.4633 77.7344 61.778 77.4637 62.1236C77.1992 62.2558 77.0245 62.2497 76.7312 62.2152C76.4856 62.0282 76.4856 62.0282 76.2734 61.7573C76.2394 61.5002 76.2313 61.3052 76.2487 61.0516C76.2514 60.9852 76.2541 60.9188 76.2568 60.8504C76.2659 60.6394 76.2782 60.4287 76.2906 60.2179C76.2973 60.0744 76.3038 59.9309 76.3101 59.7874C76.3259 59.4367 76.3446 59.0862 76.365 58.7357C76.0477 58.8264 76.0477 58.8264 75.724 58.9188C75.7272 59.0325 75.7304 59.1462 75.7337 59.2633C75.7362 59.4136 75.7387 59.564 75.7412 59.7143C75.7446 59.8265 75.7446 59.8265 75.7482 59.9409C75.7535 60.381 75.7346 60.6669 75.4493 61.0248C74.8452 61.5825 74.2496 61.5024 73.4592 61.5046C73.2705 61.5055 73.0819 61.5084 72.8932 61.5113C71.7013 61.5159 71.7013 61.5159 71.2374 61.2079C70.8717 60.8198 70.8311 60.502 70.8389 59.9919C70.8435 59.8743 70.8435 59.8743 70.8482 59.7544C70.8499 59.6739 70.8515 59.5934 70.8532 59.5104C70.8575 59.3132 70.8641 59.116 70.8711 58.9188C70.5738 58.8338 70.5738 58.8338 70.2302 58.8273C69.9656 59.0068 69.9656 59.0068 69.7495 59.2679C69.3178 59.7431 69.0615 59.9845 68.3989 60.0176C67.7499 59.7903 67.3371 59.3872 66.859 58.9068C66.7226 58.7705 66.5837 58.6371 66.4444 58.5036C66.0048 58.0721 65.6486 57.7077 65.5577 57.0799C65.5669 56.4908 65.9395 56.1127 66.3187 55.7044C66.3706 55.6472 66.4226 55.5899 66.4761 55.531C66.5299 55.4728 66.5837 55.4146 66.6392 55.3546C66.7763 55.1648 66.7763 55.1648 66.7221 54.9129C66.7014 54.8449 66.6806 54.7769 66.6592 54.7069C66.5609 54.7101 66.4626 54.7133 66.3613 54.7165C66.2298 54.7191 66.0982 54.7216 65.9667 54.724C65.9022 54.7264 65.8377 54.7287 65.7713 54.731C65.2957 54.7376 64.9755 54.6542 64.5532 54.4322C63.9849 53.8489 64.0756 53.217 64.0734 52.4421C64.0725 52.2534 64.0697 52.0648 64.0668 51.8761C64.0623 50.7267 64.0623 50.7267 64.3701 50.2202C64.717 49.8907 64.9929 49.7499 65.4699 49.7535C65.574 49.7539 65.574 49.7539 65.6801 49.7544C65.788 49.7555 65.788 49.7555 65.8981 49.7567C65.9711 49.7571 66.0441 49.7575 66.1193 49.7579C66.2993 49.759 66.4792 49.7607 66.6592 49.7624C66.7399 49.5084 66.7399 49.5084 66.7508 49.213C66.593 48.9845 66.593 48.9845 66.3616 48.7953C65.9632 48.4394 65.7077 48.1461 65.5719 47.6221C65.555 47.1328 65.6796 46.8254 65.9964 46.4665C66.1526 46.309 66.3114 46.1567 66.4761 46.0083C62.9135 44.8633 59.1214 45.2385 55.7842 46.9084C52.5396 48.6089 50.0641 51.5948 48.9269 55.0674C47.7305 58.9149 48.1374 62.8445 49.9889 66.4064C50.5977 67.5382 51.4037 68.5172 52.2837 69.4487C52.3473 69.5172 52.4109 69.5857 52.4765 69.6562C53.6742 70.9041 55.1395 71.8132 56.7203 72.4944C57.0786 72.6531 57.314 72.7645 57.5028 73.1113C57.5263 73.3643 57.5349 73.5958 57.5296 73.8481C57.5293 73.9187 57.5289 73.9893 57.5285 74.0621C57.5269 74.287 57.5235 74.5117 57.52 74.7366C57.5186 74.8893 57.5174 75.042 57.5162 75.1948C57.5132 75.5686 57.5085 75.9423 57.5028 76.3161C57.805 76.3161 58.1071 76.3161 58.4185 76.3161C58.4185 74.7146 58.4185 73.1131 58.4185 71.4632C58.1767 71.4329 57.935 71.4027 57.6859 71.3716C57.3861 71.1304 57.1885 70.9028 57.045 70.5475C57.0035 70.1556 57.0111 69.7625 57.0107 69.3686C57.0084 69.2613 57.0062 69.154 57.0039 69.0435C57.0018 68.4512 57.0024 68.0627 57.4113 67.6174C57.9164 67.1735 58.4436 67.2315 59.0823 67.2283C59.1761 67.2264 59.27 67.2245 59.3666 67.2226C60.0437 67.2191 60.5122 67.2502 61.0194 67.7376C61.2954 68.2152 61.2177 68.8254 61.2111 69.3572C61.2133 69.53 61.2133 69.53 61.2154 69.7063C61.211 70.7602 61.211 70.7602 60.7991 71.1885C60.4555 71.4032 60.2928 71.4632 59.8835 71.4632C59.8835 73.0646 59.8835 74.6661 59.8835 76.3161C60.518 76.3161 61.1525 76.3161 61.8063 76.3161C61.8054 76.1409 61.8044 75.9658 61.8034 75.7854C61.8005 75.2061 61.7983 74.6269 61.7968 74.0476C61.7959 73.6965 61.7946 73.3453 61.7925 72.9942C61.7905 72.6552 61.7894 72.3162 61.7889 71.9772C61.7886 71.848 61.7879 71.7188 61.787 71.5896C61.7856 71.4084 61.7855 71.2271 61.7855 71.0459C61.7851 70.9428 61.7847 70.8397 61.7843 70.7335C61.8068 70.4498 61.8627 70.2517 61.9894 69.9981C62.233 69.7997 62.3638 69.8154 62.6819 69.8322C63.0941 69.9296 63.0941 69.9296 63.2713 70.1812C63.3044 70.4472 63.3044 70.4472 63.3025 70.7756C63.3026 70.8355 63.3026 70.8953 63.3026 70.957C63.3024 71.1547 63.3003 71.3524 63.2982 71.5501C63.2976 71.6872 63.2973 71.8244 63.297 71.9615C63.2959 72.3224 63.2932 72.6832 63.2902 73.044C63.2874 73.4122 63.2861 73.7805 63.2847 74.1487C63.2818 74.8712 63.277 75.5936 63.2713 76.3161C63.7246 76.3161 64.1778 76.3161 64.6448 76.3161C64.6515 75.641 64.6546 74.9661 64.6517 74.2909C64.6505 73.9773 64.6507 73.6639 64.6545 73.3503C64.6588 72.9886 64.6564 72.6271 64.6537 72.2654C64.6571 72.099 64.6571 72.099 64.6606 71.9291C64.6458 71.0442 64.3424 70.6144 63.7292 69.9981C63.6498 69.9149 63.5705 69.8317 63.4888 69.746C63.2318 69.4797 62.9704 69.2186 62.7073 68.9584C62.6119 68.8634 62.5166 68.7683 62.4214 68.6732C62.1739 68.4264 61.9258 68.1801 61.6776 67.934C61.4231 67.6814 61.1692 67.4283 60.9152 67.1752C60.4192 66.6811 59.9226 66.1877 59.4257 65.6946C59.339 65.7391 59.2524 65.7836 59.1631 65.8295C58.9136 65.9511 58.7796 66.0088 58.51 66.0094C58.4534 66.0111 58.3967 66.0129 58.3383 66.0147C57.7359 65.8741 57.2953 65.3288 56.879 64.9049C56.8168 64.8425 56.7545 64.7802 56.6904 64.716C56.3089 64.3311 56.1146 64.1337 56.0836 63.5772C56.0908 63.0731 56.2079 62.849 56.5621 62.5006C56.6308 62.4366 56.6995 62.3726 56.7703 62.3067C56.8995 62.1732 57.0286 62.0397 57.1577 61.9061C57.6565 61.3924 57.9361 61.1073 58.6663 61.0742C59.2595 61.1934 59.6569 61.5871 60.038 62.0263C60.0801 62.0732 60.1221 62.1201 60.1655 62.1685C60.9612 63.0618 60.9612 63.0618 60.9822 63.5886C60.8971 64.0002 60.7834 64.27 60.5244 64.5958C60.6175 64.688 60.6175 64.688 60.7125 64.7821C61.2993 65.3632 61.8853 65.9451 62.4705 66.5277C62.7714 66.8272 63.0726 67.1264 63.3743 67.425C63.6658 67.7135 63.9566 68.0027 64.247 68.2924C64.3575 68.4024 64.4683 68.5122 64.5794 68.6218C66.083 70.106 66.083 70.106 66.1208 70.9867C66.1206 71.0851 66.1204 71.1835 66.1202 71.2849C66.1202 71.3967 66.1202 71.5085 66.1202 71.6237C66.1195 71.8041 66.1195 71.8041 66.1188 71.9882C66.1186 72.1129 66.1185 72.2376 66.1184 72.3623C66.118 72.6899 66.1171 73.0174 66.1161 73.345C66.1152 73.6795 66.1147 74.014 66.1143 74.3485C66.1133 75.0044 66.1117 75.6602 66.1098 76.3161C66.412 76.3161 66.7141 76.3161 67.0254 76.3161C67.0254 73.8081 67.0254 71.3002 67.0254 68.7162C66.7535 68.6558 66.4816 68.5954 66.2014 68.5331C65.9084 68.295 65.7711 68.158 65.652 67.8006C65.6256 67.3947 65.6266 66.9883 65.6234 66.5816C65.6207 66.4696 65.6181 66.3575 65.6153 66.242C65.6079 65.1963 65.6079 65.1963 66.0182 64.779C66.5505 64.3972 67.0738 64.4605 67.7065 64.4642C67.8733 64.4615 67.8733 64.4615 68.0436 64.4587C69.0765 64.4592 69.0765 64.4592 69.4977 64.8705C69.7498 65.2214 69.8075 65.4649 69.8088 65.8945C69.8092 66.0021 69.8096 66.1097 69.8099 66.2206C69.8083 66.388 69.8083 66.388 69.8067 66.5587C69.8078 66.67 69.8088 66.7812 69.8099 66.8958C69.8096 67.0035 69.8092 67.1113 69.8088 67.2222C69.8085 67.32 69.8082 67.4178 69.8079 67.5185C69.7548 67.9399 69.6227 68.252 69.2859 68.5159C69.0399 68.6247 69.0399 68.6247 68.4905 68.7162C68.4905 69.8644 68.4905 71.0127 68.4905 72.1957C69.6789 71.5558 70.7015 70.9164 71.6784 69.9988C71.8783 69.815 71.8783 69.815 72.1148 69.6272C73.2416 68.7188 74.0286 67.3103 74.7168 66.0609C75.1202 65.3646 75.1202 65.3646 75.4493 65.1452C75.7577 65.1617 75.9979 65.1783 76.2619 65.3455C76.4134 65.5895 76.4374 65.7733 76.4565 66.0609C76.3667 66.3066 76.2757 66.5138 76.1532 66.7419C76.1202 66.8054 76.0871 66.8689 76.053 66.9344C75.1353 68.6572 73.8665 70.3368 72.3362 71.5547C72.2864 71.5945 72.2366 71.6342 72.1853 71.6752C71.3066 72.3713 70.4015 72.9624 69.4061 73.4776C69.3075 73.5291 69.3075 73.5291 69.2069 73.5816C69.1414 73.6153 69.0759 73.6489 69.0084 73.6836C68.9189 73.7296 68.9189 73.7296 68.8276 73.7766C68.6736 73.8438 68.6736 73.8438 68.4905 73.8438C68.4899 74.2636 68.4953 74.6831 68.5019 75.1028C68.5017 75.222 68.5014 75.3413 68.5012 75.4641C68.5079 75.7874 68.5199 76.0902 68.582 76.4076C68.8284 76.6431 68.8284 76.6431 69.1314 76.7739C69.5977 77.3503 69.5497 77.939 69.5377 78.6567C69.5384 78.7671 69.539 78.8775 69.5397 78.9913C69.5356 79.5557 69.5167 79.9408 69.223 80.4365C68.791 80.8589 68.4162 81.0608 67.8102 81.0953C67.654 81.0921 67.654 81.0921 67.4947 81.0888C67.3892 81.0872 67.2837 81.0855 67.175 81.0838C67.0556 81.0807 67.0556 81.0807 66.9339 81.0774C66.9358 81.154 66.9377 81.2306 66.9397 81.3095C66.946 81.5969 66.9506 81.8842 66.954 82.1717C66.9567 82.356 66.9614 82.5402 66.9661 82.7245C66.973 83.4112 66.9534 83.888 66.5676 84.4653C66.1224 84.8787 65.8324 84.9371 65.2422 84.9393C65.1716 84.9399 65.101 84.9405 65.0283 84.9411C64.7941 84.9429 64.5599 84.944 64.3257 84.9449C64.2458 84.9453 64.1658 84.9457 64.0834 84.9461C63.6601 84.948 63.2368 84.9493 62.8134 84.9501C62.3764 84.9511 61.9394 84.9543 61.5024 84.9579C61.1662 84.9603 60.83 84.9611 60.4938 84.9614C60.3328 84.9619 60.1717 84.9629 60.0106 84.9646C59.7849 84.9669 59.5592 84.9668 59.3335 84.9661C59.2341 84.9679 59.2341 84.9679 59.1328 84.9697C58.6691 84.9649 58.409 84.848 58.0522 84.5568C57.6522 84.038 57.5825 83.6885 57.5854 83.0446C57.5859 82.8729 57.5859 82.8729 57.5863 82.6977C57.5875 82.5188 57.5875 82.5188 57.5887 82.3364C57.5891 82.2158 57.5895 82.0952 57.5899 81.9709C57.591 81.673 57.5925 81.3752 57.5944 81.0774C57.4727 81.0792 57.4727 81.0792 57.3485 81.081C57.2417 81.082 57.135 81.0829 57.025 81.0838C56.9193 81.085 56.8136 81.0862 56.7047 81.0875C56.2487 81.0722 55.8808 80.9943 55.532 80.675C54.9784 80.043 54.9998 79.517 55.002 78.7082C55.0005 78.6009 54.999 78.4936 54.9975 78.3831C54.9971 77.6751 55.0498 77.2374 55.5399 76.6995C55.7631 76.4992 55.7631 76.4992 55.9462 76.4076C55.9764 75.5616 56.0067 74.7155 56.0378 73.8438C55.8565 73.7834 55.6752 73.723 55.4884 73.6607C54.0055 73.017 52.7116 72.0272 51.5512 70.9138C51.465 70.8334 51.3788 70.753 51.2901 70.6702C48.7862 68.2906 47.2458 64.976 46.7899 61.5742C46.7814 61.5117 46.7729 61.4493 46.7641 61.3849C46.4828 59.1351 46.7124 56.7635 47.4308 54.6153C47.4515 54.5531 47.4721 54.4909 47.4934 54.4267C48.3774 51.8159 49.966 49.3277 52.1006 47.5649C52.1692 47.5043 52.2379 47.4438 52.3087 47.3814C54.3491 45.6266 56.9534 44.4258 59.6088 43.9939C59.7222 43.9752 59.8356 43.9566 59.9525 43.9373C62.4138 43.5733 64.8451 43.8328 67.2056 44.5783C67.267 44.597 67.3284 44.6156 67.3917 44.6348C67.4538 44.6552 67.516 44.6756 67.58 44.6966C67.7853 44.7479 67.7853 44.7479 68.0613 44.589C68.4721 44.4219 68.619 44.4006 69.0399 44.5432C69.4166 44.8343 69.797 45.1515 70.08 45.5369C70.246 45.677 70.246 45.677 70.5678 45.6134C70.6679 45.5926 70.768 45.5719 70.8711 45.5504C70.8669 45.4312 70.8626 45.312 70.8583 45.1892C70.8548 45.0311 70.8515 44.873 70.8482 44.7149C70.8452 44.6366 70.8421 44.5582 70.8389 44.4774C70.8311 43.9673 70.8717 43.6495 71.2374 43.2613C71.8543 42.9467 72.4176 42.9416 73.0992 42.9458ZM72.3362 44.4517C72.3267 44.6481 72.3173 44.8445 72.3075 45.0468C72.2677 45.5792 72.2231 45.9947 71.9699 46.4661C71.4266 46.9336 70.7692 47.1638 70.0553 47.1321C69.4009 47.0465 69.0101 46.5572 68.582 46.0998C68.0977 46.5035 67.6492 46.9308 67.2086 47.3817C67.3351 47.6708 67.4805 47.8502 67.7122 48.0627C68.0776 48.4214 68.1929 48.6607 68.2558 49.173C68.2416 49.7078 68.0229 50.2201 67.758 50.6781C67.2833 51.1055 66.9496 51.1565 66.3273 51.1874C65.9477 51.2072 65.9477 51.2072 65.5604 51.2274C65.5604 51.8922 65.5604 52.557 65.5604 53.2419C66.0479 53.2574 66.0479 53.2574 66.5355 53.2691C67.0078 53.2905 67.2978 53.3805 67.6664 53.6997C67.817 53.9261 67.817 53.9261 67.9239 54.1632C67.9786 54.281 67.9786 54.281 68.0344 54.4011C68.2489 54.9129 68.2998 55.3703 68.1242 55.8972C67.867 56.283 67.5461 56.5886 67.2086 56.9044C67.3604 57.3004 67.6546 57.554 67.9525 57.843C68.0299 57.9191 68.0299 57.9191 68.1088 57.9968C68.2356 58.1214 68.363 58.2455 68.4905 58.3695C68.5519 58.3163 68.5519 58.3163 68.6146 58.2622C69.7054 57.3225 69.7054 57.3225 70.419 57.3308C70.9554 57.3935 71.536 57.5827 71.9345 57.9599C72.3508 58.5549 72.2913 59.3252 72.3362 60.0176C72.9707 60.0176 73.6052 60.0176 74.259 60.0176C74.2781 59.5603 74.2781 59.5603 74.2945 59.1028C74.3167 58.6783 74.3905 58.3691 74.6252 58.0032C74.8481 57.8111 75.0979 57.682 75.3578 57.5454C75.4295 57.5057 75.5013 57.4661 75.5752 57.4252C76.0715 57.2952 76.6043 57.261 77.0689 57.5053C77.4283 57.7424 77.7221 58.0546 78.0131 58.3695C78.4975 57.9658 78.946 57.5385 79.3866 57.0876C79.3512 57.0466 79.3157 57.0056 79.2793 56.9634C78.3431 55.8767 78.3431 55.8767 78.354 55.0517C78.4101 54.4921 78.597 53.9732 79.0318 53.6024C79.4361 53.3299 79.7453 53.3071 80.2221 53.2819C80.46 53.2687 80.698 53.2555 80.9431 53.2419C80.9431 52.5771 80.9431 51.9123 80.9431 51.2274C80.4858 51.2119 80.4858 51.2119 80.0284 51.2002C79.5683 51.178 79.293 51.0714 78.9287 50.7696C78.7659 50.5651 78.6797 50.3673 78.5625 50.1287C78.5247 50.0588 78.4869 49.9889 78.448 49.9169C78.3096 49.4209 78.2773 48.8836 78.5224 48.4176C78.7595 48.0581 79.0717 47.7643 79.3866 47.4733C78.9829 46.9889 78.5556 46.5404 78.1047 46.0998C78.0637 46.1352 78.0228 46.1707 77.9806 46.2071C76.8846 47.1512 76.8846 47.1512 76.0817 47.1453C75.5282 47.0657 74.9275 46.7955 74.5534 46.3731C74.3201 45.992 74.3222 45.6002 74.299 45.167C74.2792 44.8129 74.2792 44.8129 74.259 44.4517C73.6245 44.4517 72.9899 44.4517 72.3362 44.4517ZM58.4185 62.7645C58.1767 63.0063 57.935 63.248 57.6859 63.4971C57.769 63.599 57.8521 63.701 57.9377 63.8061C58.0079 63.8921 58.0079 63.8921 58.0794 63.9799C58.2502 64.17 58.2502 64.17 58.6016 64.3211C58.8433 64.0794 59.085 63.8377 59.3341 63.5886C59.2094 63.4357 59.2094 63.4357 59.0823 63.2796C59.0356 63.2222 58.9888 63.1649 58.9407 63.1058C58.7699 62.9156 58.7699 62.9156 58.4185 62.7645ZM67.117 65.9693C67.117 66.3923 67.117 66.8153 67.117 67.2512C67.5098 67.2512 67.9026 67.2512 68.3073 67.2512C68.3073 66.8282 68.3073 66.4051 68.3073 65.9693C67.9145 65.9693 67.5217 65.9693 67.117 65.9693ZM58.51 68.7162C58.51 69.1392 58.51 69.5623 58.51 69.9981C58.9028 69.9981 59.2956 69.9981 59.7003 69.9981C59.7003 69.5751 59.7003 69.1521 59.7003 68.7162C59.3075 68.7162 58.9147 68.7162 58.51 68.7162ZM56.4956 77.7811C56.4956 78.3552 56.4956 78.9293 56.4956 79.5208C56.7228 79.6344 56.8735 79.6239 57.1277 79.624C57.2226 79.6243 57.3175 79.6245 57.4152 79.6248C57.5197 79.6246 57.6243 79.6244 57.7319 79.6242C57.8965 79.6245 57.8965 79.6245 58.0644 79.6247C58.3658 79.625 58.6671 79.625 58.9685 79.6247C59.2834 79.6244 59.5982 79.6247 59.9131 79.6248C60.4419 79.625 60.9706 79.6247 61.4993 79.6243C62.1114 79.6238 62.7235 79.624 63.3355 79.6245C63.8604 79.6249 64.3852 79.625 64.91 79.6247C65.2237 79.6246 65.5375 79.6246 65.8513 79.6249C66.2008 79.6252 66.5503 79.6247 66.8998 79.6242C67.0044 79.6244 67.1091 79.6246 67.217 79.6248C67.3589 79.6244 67.3589 79.6244 67.5037 79.624C67.5865 79.624 67.6692 79.6239 67.7544 79.6239C67.9406 79.6331 67.9406 79.6331 68.0327 79.5208C68.0406 79.3912 68.0425 79.2612 68.0416 79.1313C68.0413 79.0531 68.041 78.9749 68.0407 78.8943C68.0399 78.8121 68.0392 78.7299 68.0384 78.6452C68.038 78.5627 68.0375 78.4801 68.0371 78.395C68.036 78.1904 68.0345 77.9857 68.0327 77.7811C67.8064 77.668 67.6577 77.678 67.4046 77.6779C67.3107 77.6776 67.2167 77.6774 67.1199 77.6771C66.9646 77.6774 66.9646 77.6774 66.8062 77.6777C66.6975 77.6775 66.5888 77.6774 66.4768 77.6772C66.1783 77.6769 65.8798 77.6769 65.5813 77.6772C65.2693 77.6775 64.9572 77.6772 64.6452 77.6771C64.1212 77.6769 63.5971 77.6772 63.0731 77.6776C62.4667 77.6781 61.8604 77.6779 61.254 77.6774C60.734 77.677 60.2139 77.6769 59.6938 77.6772C59.383 77.6773 59.0721 77.6773 58.7613 77.677C58.4149 77.6768 58.0685 77.6772 57.7221 77.6777C57.6186 77.6775 57.515 77.6773 57.4084 77.6771C57.3144 77.6774 57.2204 77.6776 57.1236 77.6779C57.0007 77.6779 57.0007 77.6779 56.8752 77.678C56.674 77.6769 56.674 77.6769 56.4956 77.7811ZM59.0594 81.0774C59.0594 81.1983 59.0594 81.3191 59.0594 81.4437C61.1745 81.4437 63.2896 81.4437 65.4689 81.4437C65.4689 81.3228 65.4689 81.2019 65.4689 81.0774C63.3537 81.0774 61.2386 81.0774 59.0594 81.0774ZM59.0594 82.9087C59.0594 83.09 59.0594 83.2713 59.0594 83.4581C59.3184 83.5876 59.5354 83.5613 59.825 83.5615C59.9146 83.5617 59.9146 83.5617 60.006 83.562C60.2037 83.5624 60.4014 83.5621 60.5992 83.5618C60.7362 83.5619 60.8733 83.562 61.0104 83.5621C61.2977 83.5622 61.585 83.562 61.8724 83.5616C62.2415 83.5611 62.6106 83.5614 62.9796 83.5619C63.2627 83.5622 63.5457 83.5621 63.8287 83.5619C63.9648 83.5618 64.1009 83.5619 64.2371 83.5621C64.4269 83.5624 64.6168 83.562 64.8067 83.5615C64.9149 83.5614 65.0231 83.5613 65.1346 83.5613C65.3702 83.5772 65.3702 83.5772 65.4689 83.4581C65.4689 83.2768 65.4689 83.0955 65.4689 82.9087C63.3537 82.9087 61.2386 82.9087 59.0594 82.9087Z" fill="white"/>
<path d="M75.2714 47.914C75.3885 48.1873 75.4002 48.3693 75.3573 48.6637C75.1724 48.9268 75.0541 49.0144 74.7413 49.0915C74.4113 49.1246 74.1489 49.0857 73.8236 49.0242C72.8819 48.8798 72.1308 49.0615 71.3284 49.5794C70.5646 50.1944 70.1845 50.9046 70.0466 51.8685C69.969 52.8303 70.2537 53.6908 70.8706 54.4323C71.5455 55.142 72.3644 55.4914 73.3428 55.531C74.302 55.4483 75.0379 55.1396 75.7056 54.443C76.23 53.7986 76.568 52.9803 76.5476 52.1432C76.5003 51.8124 76.4457 51.4852 76.3809 51.1574C76.3615 50.8076 76.4297 50.6782 76.6391 50.4034C76.8223 50.2203 76.8223 50.2203 77.0798 50.186C77.4477 50.2292 77.579 50.3152 77.8295 50.5866C78.2498 51.5742 78.1792 52.8397 77.8431 53.8403C77.2539 55.2367 76.2919 56.2149 74.8994 56.8129C73.654 57.268 72.3166 57.1199 71.1249 56.5812C69.856 55.9101 69.0618 54.8228 68.5991 53.4859C68.284 52.3167 68.4654 51.0488 69.005 49.9799C69.6681 48.8426 70.6338 47.9986 71.8778 47.5649C72.8911 47.31 74.4205 47.1663 75.2714 47.914Z" fill="white"/>
<path d="M62.521 56.4295C62.6013 56.4284 62.6817 56.4272 62.7644 56.4261C63.845 56.4237 63.845 56.4237 64.2543 56.7614C64.6948 57.369 64.6668 57.7838 64.6728 58.524C64.6754 58.6314 64.6781 58.7387 64.6808 58.8493C64.6854 59.474 64.6617 59.8811 64.2779 60.3839C63.9354 60.6633 63.7021 60.6687 63.2707 60.6586C63.2717 60.7152 63.2727 60.7717 63.2738 60.83C63.2839 61.4181 63.2908 62.0063 63.2958 62.5945C63.2981 62.8141 63.3013 63.0336 63.3052 63.2532C63.3108 63.5687 63.3134 63.884 63.3154 64.1996C63.3178 64.2978 63.3201 64.3961 63.3226 64.4973C63.3228 65.1755 63.3228 65.1755 63.0597 65.4851C62.7233 65.6459 62.5271 65.6102 62.1719 65.5115C61.9353 65.338 61.9006 65.2471 61.8057 64.9621C61.7977 64.8202 61.7949 64.678 61.7953 64.5359C61.7953 64.4498 61.7953 64.3636 61.7953 64.2749C61.7958 64.1822 61.7962 64.0894 61.7967 63.9939C61.7969 63.8988 61.797 63.8036 61.7971 63.7056C61.7976 63.4015 61.7988 63.0973 61.7999 62.7932C61.8004 62.5871 61.8008 62.381 61.8012 62.175C61.8022 61.6695 61.8037 61.1641 61.8057 60.6586C61.7052 60.6469 61.6048 60.6352 61.5013 60.6232C61.1228 60.5601 60.9752 60.4691 60.7069 60.2008C60.3959 59.7166 60.4938 59.1119 60.4952 58.5584C60.4937 58.4416 60.4922 58.3248 60.4907 58.2044C60.4906 58.0919 60.4906 57.9793 60.4905 57.8634C60.4901 57.7094 60.4901 57.7094 60.4897 57.5522C60.5279 57.2366 60.6106 57.0671 60.7985 56.8129C61.3505 56.4166 61.8655 56.43 62.521 56.4295ZM61.9888 57.9117C61.9888 58.3347 61.9888 58.7577 61.9888 59.1936C62.3816 59.1936 62.7744 59.1936 63.1791 59.1936C63.1791 58.7706 63.1791 58.3475 63.1791 57.9117C62.7863 57.9117 62.3935 57.9117 61.9888 57.9117Z" fill="white"/>
<path d="M74.6397 50.1488C75.2093 50.5342 75.5075 51.0398 75.7227 51.6853C75.8045 52.5781 75.6461 53.1652 75.1619 53.9058C74.659 54.3867 74.0242 54.6743 73.3306 54.7298C72.5429 54.679 71.9811 54.4592 71.4117 53.9029C70.8894 53.2987 70.8031 52.697 70.8294 51.9085C70.9247 51.1663 71.2812 50.6282 71.8613 50.1659C72.7536 49.5881 73.7311 49.6389 74.6397 50.1488ZM72.4378 51.6567C72.2856 51.9696 72.2746 52.2641 72.3348 52.601C72.501 52.8841 72.6358 53.021 72.9186 53.1847C73.2254 53.2577 73.4064 53.2447 73.7083 53.1503C74.0278 52.916 74.1895 52.7179 74.2634 52.332C74.2833 52.0308 74.2477 51.9393 74.1089 51.651C73.8844 51.4029 73.7541 51.3097 73.4336 51.2275C73.0271 51.2275 72.7382 51.3864 72.4378 51.6567Z" fill="white"/>
<path d="M59.4256 49.6308C59.5853 49.6281 59.5853 49.6281 59.7482 49.6253C60.7378 49.6258 60.7378 49.6258 61.1653 50.0371C61.5559 50.5775 61.4836 51.1282 61.48 51.7711C61.4828 51.9446 61.4828 51.9446 61.4856 52.1215C61.4851 53.067 61.4851 53.067 61.2944 53.3968C60.7358 53.9318 60.1625 53.9261 59.4256 53.9172C59.3377 53.9182 59.2499 53.9193 59.1594 53.9204C58.6285 53.9182 58.2444 53.8663 57.7774 53.6082C57.2431 53.0316 57.2971 52.5631 57.291 51.8055C57.2883 51.6981 57.2857 51.5908 57.2829 51.4802C57.2784 50.8608 57.2841 50.4326 57.6858 49.9456C58.1864 49.5533 58.8188 49.6271 59.4256 49.6308ZM58.7846 51.1359C58.7846 51.5589 58.7846 51.982 58.7846 52.4178C59.1774 52.4178 59.5702 52.4178 59.9749 52.4178C59.9749 51.9948 59.9749 51.5718 59.9749 51.1359C59.5821 51.1359 59.1893 51.1359 58.7846 51.1359Z" fill="white"/>
<path d="M56.2543 54.9244C56.3735 54.9215 56.4927 54.9185 56.6155 54.9155C57.5936 54.9145 57.5936 54.9145 57.9918 55.2427C58.4654 55.726 58.3496 56.3933 58.3545 57.0247C58.3572 57.1367 58.3598 57.2488 58.3626 57.3643C58.3699 58.41 58.3699 58.41 57.9596 58.8273C57.4274 59.2091 56.9041 59.1458 56.2714 59.1421C56.1602 59.1439 56.0489 59.1457 55.9343 59.1476C54.9014 59.1471 54.9014 59.1471 54.4802 58.7358C54.2272 58.384 54.1704 58.1394 54.169 57.7085C54.1687 57.6005 54.1683 57.4925 54.168 57.3813C54.169 57.2692 54.1701 57.1572 54.1712 57.0418C54.1701 56.9298 54.1691 56.8178 54.168 56.7024C54.1683 56.5944 54.1687 56.4864 54.169 56.3751C54.1694 56.2769 54.1697 56.1786 54.17 56.0774C54.225 55.6572 54.3929 55.4351 54.6886 55.1396C55.1611 54.8404 55.7107 54.9217 56.2543 54.9244ZM55.6705 56.4467C55.6705 56.8395 55.6705 57.2323 55.6705 57.637C56.0634 57.637 56.4562 57.637 56.8609 57.637C56.8609 57.2442 56.8609 56.8514 56.8609 56.4467C56.4681 56.4467 56.0753 56.4467 55.6705 56.4467Z" fill="white"/>
<path d="M46.0563 68.1669C46.266 68.3116 46.3209 68.4152 46.4111 68.6533C46.4274 69.0048 46.3426 69.1534 46.1478 69.4488C45.8817 69.6441 45.5959 69.7886 45.3008 69.9352C45.2245 69.9757 45.1481 70.0161 45.0694 70.0578C44.0996 70.5549 44.0996 70.5549 43.5554 70.3931C43.3572 70.2389 43.2899 70.1491 43.2178 69.9066C43.2241 69.5498 43.2286 69.3443 43.4896 69.0901C43.8537 68.84 44.2334 68.649 44.6313 68.4588C44.7076 68.4204 44.7839 68.3819 44.8625 68.3424C45.2928 68.1359 45.5801 68.008 46.0563 68.1669Z" fill="white"/>
<path d="M46.8812 45.8252C47.1395 45.9909 47.3599 46.1897 47.5851 46.3974C47.6446 46.45 47.7042 46.5025 47.7655 46.5566C48.0811 46.839 48.3845 47.1193 48.6209 47.4733C48.6154 47.7908 48.5852 48.0125 48.4321 48.2917C48.1176 48.4641 47.8594 48.4849 47.5221 48.389C47.1557 48.1477 46.8385 47.8603 46.5149 47.5649C46.3739 47.4446 46.2327 47.3244 46.0915 47.2043C45.8152 46.9658 45.7006 46.8532 45.668 46.4776C45.6933 46.1604 45.7433 46.0474 45.9656 45.8252C46.3246 45.7055 46.5128 45.7326 46.8812 45.8252Z" fill="white"/>
<path d="M56.7691 38.9579C57.237 39.3242 57.3693 39.7254 57.5303 40.2741C57.5544 40.3496 57.5785 40.4252 57.6034 40.503C57.7379 40.9433 57.8205 41.3313 57.7763 41.7963C57.5932 42.071 57.5932 42.071 57.3185 42.2542C57.0558 42.2833 56.8302 42.2653 56.586 42.1626C56.2499 41.7735 56.1515 41.3378 56.0137 40.8521C55.988 40.7674 55.9623 40.6827 55.9358 40.5955C55.794 40.1017 55.7216 39.7335 55.8535 39.2325C56.1201 38.9264 56.3762 38.8937 56.7691 38.9579Z" fill="white"/>
<path d="M49.1698 72.6535C49.486 72.8803 49.6091 73.0169 49.6845 73.401C49.5997 73.9252 49.2914 74.1617 48.9123 74.5134C48.8447 74.5788 48.7772 74.6443 48.7075 74.7117C48.0037 75.3876 48.0037 75.3876 47.5274 75.4405C47.2264 75.4316 47.1677 75.4103 46.9208 75.2116C46.7417 74.8456 46.7699 74.6947 46.8807 74.3016C47.0944 74.0194 47.344 73.7824 47.6018 73.5405C47.669 73.4751 47.7361 73.4096 47.8053 73.3422C48.6005 72.5738 48.6005 72.5738 49.1698 72.6535Z" fill="white"/>
<path d="M51.276 41.6132C51.6866 41.9679 51.9715 42.391 52.266 42.8436C52.312 42.9112 52.3579 42.9787 52.4053 43.0484C52.6568 43.4334 52.8169 43.7013 52.741 44.177C52.5979 44.4402 52.5979 44.4402 52.3747 44.6348C52.0204 44.6928 51.8243 44.6918 51.5178 44.4989C51.1927 44.1892 50.9761 43.8436 50.7438 43.4617C50.6978 43.3901 50.6518 43.3185 50.6044 43.2447C50.3385 42.8117 50.191 42.5032 50.2688 41.9795C50.5705 41.6334 50.8229 41.5282 51.276 41.6132Z" fill="white"/>
<path d="M43.7942 51.1075C44.0232 51.1948 44.2475 51.2893 44.4719 51.3877C44.5489 51.4196 44.6259 51.4514 44.7053 51.4843C45.4382 51.7981 45.4382 51.7981 45.6908 52.1431C45.7626 52.3965 45.75 52.6197 45.6908 52.8756C45.5077 53.1102 45.5077 53.1102 45.233 53.2419C44.6424 53.2144 44.1806 53.0418 43.6478 52.7955C43.5383 52.7472 43.5383 52.7472 43.4266 52.6979C42.6556 52.349 42.6556 52.349 42.4976 51.9314C42.4822 51.6003 42.5896 51.4149 42.7608 51.1359C43.097 50.9678 43.4392 51.0004 43.7942 51.1075Z" fill="white"/>
<path d="M44.4761 63.045C44.6258 63.3968 44.607 63.5903 44.499 63.9549C44.2533 64.181 44.0439 64.2726 43.7189 64.3365C43.6404 64.3522 43.5618 64.3678 43.4809 64.3839C43.3995 64.3991 43.3181 64.4143 43.2343 64.4299C43.154 64.4461 43.0736 64.4624 42.9909 64.4791C42.5431 64.5658 42.1187 64.6291 41.6605 64.5959C41.4118 64.4191 41.3175 64.2898 41.2084 64.0064C41.2009 63.6968 41.2925 63.5583 41.4774 63.314C42.1407 62.8718 43.8135 62.548 44.4761 63.045Z" fill="white"/>
<path d="M43.0632 57.0704C43.1568 57.08 43.1568 57.08 43.2523 57.0898C43.6368 57.1374 43.9132 57.2217 44.2249 57.4538C44.3665 57.7369 44.3434 57.9661 44.3165 58.2779C44.1963 58.5011 44.1963 58.5011 43.9502 58.6442C43.1089 58.7629 41.8089 58.697 41.1118 58.1864C40.9702 57.9033 40.9933 57.6741 41.0202 57.3623C41.3974 56.6936 42.4185 56.9997 43.0632 57.0704Z" fill="white"/>
<path d="M62.7156 38C62.9941 38.062 63.0942 38.1878 63.2714 38.4085C63.3188 38.6796 63.3188 38.6796 63.3201 38.9922C63.3206 39.105 63.321 39.2179 63.3215 39.3341C63.3201 39.4517 63.3187 39.5692 63.3172 39.6904C63.3186 39.8079 63.3201 39.9255 63.3215 40.0466C63.321 40.1594 63.3206 40.2723 63.3201 40.3885C63.3197 40.4917 63.3193 40.5949 63.3188 40.7011C63.2611 41.0312 63.1711 41.1399 62.9052 41.3385C62.5847 41.3843 62.5847 41.3843 62.2642 41.3385C61.998 41.1354 61.9127 41.0163 61.8064 40.6976C61.7853 40.366 61.7895 40.034 61.7893 39.7018C61.7881 39.6108 61.787 39.5198 61.7859 39.426C61.7857 39.3379 61.7855 39.2497 61.7853 39.1589C61.7849 39.0786 61.7846 38.9984 61.7842 38.9157C61.8466 38.2632 62.0645 38.0272 62.7156 38Z" fill="white"/>
<path d="M61.5 0C45.1892 -1.94504e-07 29.5464 6.47944 18.0129 18.0129C6.47945 29.5464 1.42594e-06 45.1892 0 61.5C-1.42594e-06 77.8108 6.47944 93.4536 18.0129 104.987C29.5464 116.521 45.1892 123 61.5 123L61.5 117.2C46.7274 117.2 32.5599 111.332 22.1141 100.886C11.6683 90.4401 5.79991 76.2726 5.79991 61.5C5.79991 46.7274 11.6683 32.5599 22.1141 22.1141C32.5599 11.6683 46.7274 5.79991 61.5 5.79991L61.5 0Z" fill="#18DEFF"/>
<path d="M107 61C107 85.8528 86.8528 106 62 106C37.1472 106 17 85.8528 17 61C17 36.1472 37.1472 16 62 16C86.8528 16 107 36.1472 107 61ZM23.3365 61C23.3365 82.3533 40.6467 99.6635 62 99.6635C83.3533 99.6635 100.663 82.3533 100.663 61C100.663 39.6467 83.3533 22.3365 62 22.3365C40.6467 22.3365 23.3365 39.6467 23.3365 61Z" fill="#8B9093"/>
</svg>
