<svg width="123" height="123" viewBox="0 0 123 123" fill="none" xmlns="http://www.w3.org/2000/svg">
<path d="M61.5 0C45.1892 -1.94504e-07 29.5464 6.47944 18.0129 18.0129C6.47945 29.5464 1.42594e-06 45.1892 0 61.5C-1.42594e-06 77.8108 6.47944 93.4536 18.0129 104.987C29.5464 116.521 45.1892 123 61.5 123L61.5 117.2C46.7274 117.2 32.5599 111.332 22.1141 100.886C11.6683 90.4401 5.79991 76.2726 5.79991 61.5C5.79991 46.7274 11.6683 32.5599 22.1141 22.1141C32.5599 11.6683 46.7274 5.79991 61.5 5.79991L61.5 0Z" fill="#18DEFF"/>
<path d="M107 61C107 85.8528 86.8528 106 62 106C37.1472 106 17 85.8528 17 61C17 36.1472 37.1472 16 62 16C86.8528 16 107 36.1472 107 61ZM23.3365 61C23.3365 82.3533 40.6467 99.6635 62 99.6635C83.3533 99.6635 100.663 82.3533 100.663 61C100.663 39.6467 83.3533 22.3365 62 22.3365C40.6467 22.3365 23.3365 39.6467 23.3365 61Z" fill="#8B9093"/>
<path d="M67.2453 41.0062C67.3107 41.0054 67.3761 41.0046 67.4434 41.0038C68.8765 40.9897 70.2611 40.9968 71.6583 41.3559C71.7641 41.3824 71.7641 41.3824 71.872 41.4094C74.3394 42.045 76.4368 43.3225 78.3401 44.9855C78.2945 44.8486 78.2476 44.7121 78.1955 44.5775C77.9189 43.8321 77.9343 43.1612 78.2577 42.4282C78.6484 41.7622 79.1658 41.3888 79.8972 41.1599C80.5965 41.0154 81.2771 41.1674 81.8873 41.5208C82.4712 41.9251 82.8272 42.4723 82.9597 43.1707C83.038 43.8715 82.8942 44.5001 82.5053 45.0925C82.1094 45.5823 81.6001 45.9267 80.9799 46.0579C80.867 46.0642 80.7539 46.0668 80.6409 46.0659C80.5787 46.0657 80.5165 46.0654 80.4524 46.0651C80.3883 46.0644 80.3241 46.0637 80.2581 46.063C80.1927 46.0627 80.1273 46.0623 80.0599 46.0619C79.8991 46.0609 79.7383 46.0595 79.5775 46.0579C79.5775 46.3893 79.7426 46.5354 79.9436 46.7797C82.3674 49.8343 83.3289 53.8316 82.8916 57.6748C82.6421 59.5581 82.0372 61.2984 81.1449 62.9687C81.1001 63.0533 81.0553 63.138 81.0092 63.2252C80.3837 64.3513 79.5611 65.344 78.6701 66.2683C78.6164 66.3263 78.5627 66.3842 78.5074 66.4439C78.0079 66.9689 77.4355 67.4045 76.8553 67.8357C76.8091 67.8704 76.7629 67.905 76.7153 67.9408C75.3188 68.9741 73.6683 69.7173 71.9883 70.1454C71.9261 70.1615 71.8639 70.1777 71.7999 70.1943C68.1813 71.1062 64.0671 70.6663 60.8335 68.7411C60.6343 68.6193 60.4369 68.4955 60.2411 68.3681C60.1838 68.331 60.1266 68.2938 60.0676 68.2555C60.0177 68.2223 59.9678 68.189 59.9164 68.1547C59.7687 68.064 59.7687 68.064 59.5321 68.0831C59.3709 68.2041 59.3709 68.2041 59.2073 68.3706C59.1427 68.4334 59.078 68.4962 59.0114 68.561C58.942 68.6298 58.8727 68.6986 58.8012 68.7695C58.73 68.8397 58.6587 68.91 58.5853 68.9823C58.4346 69.1314 58.2843 69.2808 58.1343 69.4305C57.9041 69.6596 57.6717 69.8864 57.4391 70.1132C57.2933 70.2581 57.1475 70.4031 57.0019 70.5482C56.9319 70.616 56.8618 70.6839 56.7897 70.7537C56.7261 70.8181 56.6625 70.8825 56.5969 70.9488C56.5403 71.0049 56.4837 71.0609 56.4254 71.1187C56.2895 71.3015 56.2895 71.3015 56.3374 71.5556C56.3572 71.6347 56.377 71.7138 56.3974 71.7953C56.4508 72.5171 56.3757 73.0314 55.8921 73.5946C55.8189 73.6736 55.8189 73.6736 55.7441 73.7542C55.5746 73.9377 55.4093 74.1244 55.2438 74.3116C54.7911 74.8152 54.3116 75.2897 53.8298 75.7652C53.1795 76.399 53.1795 76.399 52.5673 77.0689C52.0988 77.6178 51.5691 78.1127 51.0562 78.6196C50.3501 79.3179 50.3501 79.3179 49.6849 80.0549C49.4206 80.3589 49.1374 80.6446 48.8545 80.9312C48.7664 81.0229 48.7664 81.0229 48.6765 81.1165C48.231 81.5673 47.8324 81.8904 47.1944 81.9856C46.339 81.9778 45.9071 81.8578 45.3022 81.256C45.2469 81.1968 45.1917 81.1376 45.1347 81.0765C44.9736 80.9126 44.8124 80.7644 44.6384 80.6151C44.2196 80.2522 43.8228 79.8679 43.4288 79.4785C43.344 79.3951 43.2587 79.3121 43.173 79.2295C42.6107 78.6875 42.1424 78.2028 42 77.4073C42.0101 76.5919 42.2293 76.1146 42.812 75.5435C42.9238 75.4387 42.9238 75.4387 43.0379 75.3318C43.2149 75.1645 43.3745 74.9895 43.5322 74.804C44.0139 74.2456 44.5511 73.7381 45.0752 73.2201C45.5406 72.7597 46.001 72.3028 46.4255 71.804C46.844 71.336 47.3037 70.9037 47.7502 70.4626C48.2129 70.0051 48.6723 69.5491 49.0951 69.0537C49.3047 68.8104 49.5267 68.5803 49.7516 68.3512C49.7946 68.3058 49.8377 68.2604 49.882 68.2137C50.2793 67.81 50.68 67.5407 51.2497 67.4677C51.344 67.47 51.4383 67.4724 51.5355 67.4748C51.6773 67.4764 51.6773 67.4764 51.822 67.478C52.1259 67.5075 52.3933 67.5836 52.6852 67.6707C53.1464 67.22 53.6059 66.7677 54.0643 66.3143C54.2205 66.1601 54.3771 66.0063 54.5341 65.8529C54.7593 65.6327 54.9831 65.4113 55.2067 65.1895C55.2775 65.1208 55.3483 65.0522 55.4213 64.9814C55.4857 64.917 55.5501 64.8526 55.6165 64.7863C55.6738 64.7299 55.7311 64.6735 55.7902 64.6153C55.9226 64.4619 55.9226 64.4619 55.8842 64.2776C55.8135 64.1083 55.7325 63.9572 55.6366 63.8007C55.5993 63.7387 55.562 63.6767 55.5235 63.6128C55.4835 63.5466 55.4435 63.4803 55.4023 63.4121C53.382 59.9826 52.7924 55.9032 53.7731 52.0334C54.6863 48.681 56.6469 45.8016 59.4496 43.7481C59.4962 43.7135 59.5428 43.6788 59.5908 43.6431C61.7366 42.0661 64.5697 41.0337 67.2453 41.0062ZM58.4597 46.4703C58.2549 46.6817 58.0664 46.9008 57.8822 47.1303C57.7872 47.2469 57.7872 47.2469 57.6902 47.3658C55.4285 50.1885 54.4431 53.7368 54.7856 57.3286C54.9629 58.8372 55.3976 60.2873 56.0674 61.6488C56.0927 61.7008 56.118 61.7529 56.1441 61.8065C57.7011 64.9738 60.4742 67.323 63.7791 68.5078C66.9953 69.5971 70.6574 69.4974 73.7403 68.0116C74.0116 67.8757 74.2787 67.7327 74.5455 67.5882C74.6201 67.549 74.6201 67.549 74.6963 67.509C76.1037 66.7684 77.4251 65.696 78.4226 64.4535C78.486 64.3758 78.5494 64.298 78.6147 64.218C80.8586 61.4174 81.8939 57.8387 81.5164 54.2677C81.1381 51.3246 79.8834 48.7012 77.8452 46.5528C77.8066 46.5116 77.7681 46.4703 77.7283 46.4278C76.7363 45.3723 75.635 44.5826 74.357 43.9058C74.2395 43.8433 74.1231 43.7786 74.0071 43.7133C68.8674 40.9312 62.4742 42.5508 58.4597 46.4703ZM79.6291 42.9387C79.4559 43.2384 79.3856 43.484 79.4125 43.8306C79.5204 44.1675 79.6818 44.3629 79.9642 44.573C80.3257 44.6822 80.6178 44.6832 80.9799 44.573C81.2407 44.3677 81.4648 44.1543 81.5573 43.8306C81.5508 43.4275 81.516 43.238 81.3047 42.8923C80.7461 42.3931 80.1909 42.4212 79.6291 42.9387ZM56.671 65.6449C56.588 65.7284 56.588 65.7284 56.5033 65.8137C56.4406 65.8764 56.3779 65.9392 56.3132 66.0038C56.2116 66.1067 56.2116 66.1067 56.108 66.2116C56.0387 66.2812 55.9693 66.3508 55.8979 66.4225C55.6756 66.6457 55.4539 66.8695 55.2322 67.0932C55.0819 67.2443 54.9317 67.3953 54.7814 67.5463C54.4122 67.9173 54.0435 68.2888 53.6751 68.6606C54.0427 69.097 54.0427 69.097 54.435 69.511C54.478 69.5538 54.5211 69.5966 54.5655 69.6407C54.6085 69.683 54.6516 69.7254 54.696 69.7691C54.741 69.8137 54.7859 69.8583 54.8323 69.9042C54.9413 70.0123 55.0506 70.1202 55.16 70.2279C55.4225 70.112 55.5983 69.9747 55.8 69.7716C55.8595 69.7122 55.9189 69.6527 55.9801 69.5915C56.0434 69.5274 56.1066 69.4633 56.1718 69.3972C56.2373 69.3315 56.3027 69.2658 56.3701 69.1982C56.579 68.9884 56.7872 68.7781 56.9954 68.5678C57.137 68.4254 57.2785 68.2831 57.4201 68.1408C57.7671 67.7921 58.1135 67.4428 58.4597 67.0932C58.3827 67.0026 58.3055 66.9121 58.2284 66.8216C58.1854 66.7712 58.1425 66.7207 58.0983 66.6688C57.8911 66.4315 57.6717 66.2076 57.4491 65.9848C57.4055 65.9402 57.3619 65.8955 57.317 65.8496C57.2062 65.7384 57.0908 65.6317 56.9748 65.5259C56.8002 65.508 56.8002 65.508 56.671 65.6449ZM50.6233 69.5164C50.5613 69.579 50.4992 69.6415 50.4354 69.7059C50.2372 69.9063 50.0408 70.1083 49.8444 70.3104C49.7126 70.444 49.5806 70.5776 49.4486 70.711C48.9367 71.2301 48.4316 71.7496 47.9546 72.301C47.7501 72.5323 47.533 72.7492 47.313 72.9656C47.2676 73.0107 47.2221 73.0558 47.1753 73.1023C46.9844 73.2919 46.793 73.481 46.6016 73.6701C46.1315 74.1352 45.6666 74.597 45.238 75.1013C45.0668 75.2925 44.8848 75.4691 44.6997 75.6469C44.5969 75.7459 44.5969 75.7459 44.4921 75.8469C44.3505 75.9826 44.208 76.1175 44.0649 76.2516C43.7769 76.5312 43.5608 76.7508 43.4043 77.1234C43.4685 77.5548 43.7163 77.7701 44.0236 78.0646C44.0741 78.114 44.1247 78.1634 44.1767 78.2142C44.3317 78.3625 44.4891 78.5077 44.6475 78.6524C45.1576 79.1237 45.6542 79.6056 46.1402 80.1018C46.461 80.4386 46.461 80.4386 46.8902 80.5703C47.3581 80.5163 47.6028 80.1907 47.8907 79.8485C48.3787 79.2873 48.9187 78.7745 49.4473 78.2521C50.0739 77.6393 50.0739 77.6393 50.6642 76.9922C51.1301 76.4448 51.6586 75.9523 52.1695 75.4474C52.643 74.9789 53.1118 74.5138 53.5434 74.0058C53.6883 73.8428 53.8413 73.693 53.9993 73.5427C54.0529 73.4916 54.1065 73.4405 54.1617 73.3879C54.2716 73.284 54.3823 73.1809 54.4936 73.0786C54.7437 72.8378 54.8965 72.6603 55.0266 72.3344C54.9786 71.8912 54.7306 71.6829 54.4176 71.3828C54.367 71.3334 54.3165 71.2841 54.2645 71.2332C54.1095 71.0849 53.9521 70.9397 53.7937 70.7951C53.2836 70.3238 52.787 69.8418 52.301 69.3456C51.9816 69.0156 51.9816 69.0156 51.5613 68.8649C51.1282 68.9321 50.9195 69.2087 50.6233 69.5164Z" fill="white"/>
<path d="M69.6661 56.0123C70.2169 55.5795 70.6189 54.9861 70.8162 54.3144C71.0135 53.6428 70.9963 52.9265 70.7671 52.2651C70.5378 51.6037 70.1078 51.0301 69.5369 50.6241C68.966 50.2182 68.2827 50 67.5819 50C66.8811 50 66.1977 50.2182 65.6268 50.6241C65.056 51.0301 64.626 51.6037 64.3967 52.2651C64.1674 52.9265 64.1502 53.6428 64.3476 54.3144C64.5449 54.9861 64.9469 55.5795 65.4977 56.0123C64.5539 56.39 63.7305 57.0163 63.1151 57.8246C62.4997 58.6329 62.1155 59.5928 62.0034 60.602C61.9953 60.6757 62.0018 60.7503 62.0225 60.8214C62.0432 60.8926 62.0778 60.959 62.1242 61.0168C62.218 61.1336 62.3544 61.2085 62.5034 61.2248C62.6524 61.2412 62.8018 61.1978 62.9187 61.1041C63.0357 61.0105 63.1106 60.8743 63.127 60.7255C63.2503 59.6286 63.7739 58.6157 64.5978 57.8801C65.4217 57.1445 66.488 56.7378 67.5931 56.7378C68.6982 56.7378 69.7645 57.1445 70.5884 57.8801C71.4123 58.6157 71.9359 59.6286 72.0593 60.7255C72.0746 60.8633 72.1404 60.9907 72.2442 61.0829C72.3479 61.1751 72.4822 61.2257 72.6211 61.2248H72.6829C72.8301 61.2079 72.9647 61.1335 73.0573 61.0179C73.1499 60.9023 73.193 60.7548 73.1772 60.6076C73.0646 59.5955 72.6783 58.6332 72.0598 57.8236C71.4412 57.0141 70.6138 56.388 69.6661 56.0123ZM67.5819 55.614C67.1374 55.614 66.703 55.4823 66.3334 55.2357C65.9639 54.9891 65.6759 54.6386 65.5058 54.2285C65.3357 53.8184 65.2912 53.3671 65.3779 52.9318C65.4646 52.4964 65.6787 52.0965 65.9929 51.7826C66.3072 51.4687 66.7076 51.255 67.1435 51.1684C67.5794 51.0818 68.0312 51.1262 68.4418 51.2961C68.8524 51.466 69.2034 51.7536 69.4503 52.1227C69.6972 52.4918 69.829 52.9257 69.829 53.3696C69.829 53.9648 69.5923 54.5357 69.1708 54.9566C68.7494 55.3775 68.1779 55.614 67.5819 55.614Z" fill="white"/>
</svg>
