<svg width="123" height="123" viewBox="0 0 123 123" fill="none" xmlns="http://www.w3.org/2000/svg">
<path d="M72.446 41.0096C72.5449 41.0081 72.6439 41.0065 72.7458 41.0049C73.1468 41.0051 73.4622 41.0064 73.8321 41.1685C74.2874 41.6312 74.3984 42.102 74.5076 42.7235C74.5211 42.7958 74.5347 42.8681 74.5486 42.9425C74.5816 43.1191 74.6136 43.2959 74.6447 43.4728C74.9164 43.6201 75.1133 43.7067 75.4282 43.7078C75.8164 43.5413 76.1472 43.2681 76.4816 43.0144C76.754 42.8132 76.9602 42.7435 77.2988 42.7382C77.3955 42.7349 77.3955 42.7349 77.4941 42.7315C78.014 42.8225 78.3821 43.2685 78.7385 43.6295C78.7874 43.6778 78.8363 43.726 78.8867 43.7758C78.9335 43.8228 78.9804 43.8699 79.0287 43.9184C79.0708 43.9607 79.113 44.003 79.1564 44.0466C79.4281 44.368 79.4631 44.6577 79.4535 45.0676C79.392 45.5016 79.1492 45.8375 78.876 46.1707C78.8241 46.2354 78.7723 46.3002 78.7189 46.3669C78.6689 46.4241 78.6188 46.4814 78.5671 46.5404C78.4333 46.899 78.5876 47.2006 78.7189 47.547C78.7711 47.5568 78.8232 47.5666 78.8769 47.5768C79.1151 47.6225 79.3528 47.6704 79.5906 47.7184C79.6726 47.7338 79.7546 47.7492 79.8391 47.7651C80.3292 47.8659 80.6476 47.9594 80.9911 48.3305C81.2544 48.7443 81.1799 49.2533 81.1821 49.7261C81.1847 49.8248 81.1872 49.9234 81.1899 50.025C81.1952 50.9308 81.1952 50.9308 80.8755 51.2881C80.42 51.6622 79.8066 51.7077 79.242 51.7865C78.8879 51.8414 78.8879 51.8414 78.6187 52.0569C78.491 52.3283 78.4656 52.5186 78.5622 52.7965C78.6406 52.9388 78.6406 52.9388 78.7385 53.0759C78.7733 53.1269 78.808 53.1778 78.8438 53.2303C78.8984 53.3089 78.8984 53.3089 78.954 53.389C79.0261 53.4934 79.0979 53.598 79.1695 53.7027C79.2173 53.7718 79.2173 53.7718 79.2662 53.8422C79.4149 54.0844 79.4405 54.3061 79.4486 54.5839C79.4515 54.649 79.4544 54.7142 79.4575 54.7813C79.3746 55.3005 78.9252 55.6723 78.5671 56.0285C78.5195 56.0774 78.4719 56.1262 78.4228 56.1766C78.0857 56.5141 77.7948 56.7288 77.3037 56.7581C76.7892 56.7495 76.3939 56.4377 75.9767 56.1656C75.8464 56.0867 75.7159 56.0082 75.5849 55.9305C75.5704 55.9758 75.5558 56.021 75.5408 56.0676C75.3288 56.3995 75.0153 56.5271 74.6429 56.6102C74.4616 56.6407 74.2802 56.6706 74.0987 56.6999C73.2399 56.8175 73.2399 56.8175 72.4974 57.2209C72.3663 57.4474 72.2974 57.6051 72.3216 57.8689C72.5145 58.5391 73.0115 59.1319 73.4248 59.681C73.624 59.9515 73.6427 60.1208 73.6506 60.4553C73.655 60.5759 73.655 60.5759 73.6595 60.6989C73.5796 61.2887 73.0632 61.6933 72.6615 62.0958C72.6039 62.1552 72.5464 62.2146 72.4872 62.2759C72.0806 62.6846 71.7601 62.9243 71.1826 63.0262C70.4313 62.9153 69.8051 62.44 69.2235 61.9764C68.9705 61.7732 68.9705 61.7732 68.6605 61.7526C68.5927 61.7705 68.5249 61.7884 68.455 61.8068C68.3889 61.8194 68.3228 61.8319 68.2547 61.8448C68.0232 61.9095 67.8636 61.9742 67.6715 62.1202C67.5117 62.4702 67.4618 62.8285 67.4071 63.2074C67.1865 64.5541 67.1865 64.5541 66.6529 64.9654C66.1711 65.2364 65.6859 65.193 65.1447 65.1955C65.0146 65.1979 65.0146 65.1979 64.8818 65.2004C64.2623 65.2033 63.7434 65.1626 63.2643 64.7303C62.9165 64.2862 62.8458 63.6795 62.7354 63.1388C62.7176 63.0581 62.6999 62.9774 62.6815 62.8943C62.6182 62.5982 62.5787 62.3468 62.5787 62.0419C62.5254 62.0338 62.472 62.0257 62.4171 62.0174C62.187 61.9635 62.187 61.9635 61.9127 61.8362C61.6159 61.7196 61.5414 61.7175 61.2467 61.8068C61.0591 61.914 61.0591 61.914 60.8761 62.0517C60.8067 62.1006 60.7372 62.1495 60.6657 62.1998C60.5219 62.3027 60.3787 62.4064 60.236 62.5108C59.7138 62.8757 59.2961 63.0561 58.6552 62.9569C58.1519 62.8113 57.8166 62.4275 57.4614 62.0615C57.3677 61.9691 57.3677 61.9691 57.2721 61.8748C56.8421 61.4393 56.5877 61.1084 56.5065 60.4896C56.5347 59.9424 56.8423 59.4995 57.1636 59.0741C57.2036 59.02 57.2436 58.966 57.2847 58.9103C57.3654 58.8026 57.4482 58.6965 57.5333 58.5923C57.7564 58.2995 57.7564 58.2995 57.7739 57.945C57.7122 57.7653 57.6391 57.5938 57.5643 57.4192C57.5342 57.2632 57.5061 57.1067 57.4859 56.9491C57.426 56.9405 57.3661 56.9319 57.3044 56.9231C55.0128 56.5839 55.0128 56.5839 54.5576 56.0089C54.2844 55.5046 54.3319 54.9844 54.3274 54.4223C54.3251 54.3281 54.3229 54.2338 54.3205 54.1367C54.3155 53.4403 54.4019 53.03 54.8501 52.4993C55.2449 52.203 55.7795 52.1573 56.2519 52.0669C56.3531 52.0462 56.4543 52.0256 56.5586 52.0043C57.2919 51.8563 57.2919 51.8563 57.4859 51.8563C57.494 51.7884 57.5021 51.7206 57.5104 51.6506C57.5643 51.3862 57.5643 51.3862 57.6965 51.1462C57.8249 50.9265 57.8249 50.9265 57.7421 50.7291C57.6428 50.5247 57.5332 50.3407 57.4073 50.1516C57.3622 50.0832 57.3171 50.0148 57.2706 49.9444C57.2237 49.874 57.1768 49.8036 57.1284 49.731C57.0351 49.5906 56.9419 49.45 56.849 49.3093C56.8077 49.2474 56.7665 49.1854 56.724 49.1216C56.5774 48.8806 56.5305 48.6716 56.5212 48.3942C56.5183 48.3381 56.5154 48.2821 56.5123 48.2243C56.6108 47.6129 57.002 47.1999 57.432 46.7831C57.4821 46.7325 57.5321 46.6819 57.5837 46.6298C57.992 46.2268 58.4092 45.8627 59.0089 45.8331C59.748 45.8545 60.3569 46.3715 60.9285 46.7986C61.2065 47.0186 61.2065 47.0186 61.5455 47.0769C61.6691 47.0381 61.6691 47.0381 61.7952 46.9986C61.8624 46.9791 61.9295 46.9596 61.9987 46.9395C62.1928 46.883 62.3859 46.8241 62.5787 46.7635C62.5887 46.6628 62.5987 46.5621 62.609 46.4584C62.6527 46.0674 62.7203 45.6846 62.7991 45.2993C62.811 45.2354 62.823 45.1716 62.8353 45.1057C62.9547 44.522 63.1816 44.1372 63.6756 43.7862C63.8993 43.6743 64.0873 43.7035 64.337 43.7078C64.4946 43.7077 64.6521 43.7075 64.8097 43.7072C64.9178 43.7076 65.0259 43.7091 65.134 43.7118C65.8065 43.7351 65.8065 43.7351 66.4047 43.4728C66.592 43.2872 66.592 43.2872 66.7457 43.0911C66.9336 42.8709 67.0952 42.785 67.3786 42.7385C68.1794 42.7166 68.6785 43.1327 69.2887 43.6093C69.4674 43.7256 69.4674 43.7256 69.6682 43.6937C69.7333 43.6725 69.7983 43.6513 69.8653 43.6295C69.9317 43.61 69.9981 43.5906 70.0665 43.5706C70.2699 43.4913 70.2699 43.4913 70.3325 43.3042C70.3449 43.2358 70.3573 43.1674 70.37 43.0969C70.385 43.0218 70.4 42.9467 70.4155 42.8692C70.4294 42.7905 70.4434 42.7117 70.4578 42.6305C70.6673 41.4938 70.6673 41.4938 71.1373 41.1514C71.5454 40.9489 71.999 41.0071 72.446 41.0096ZM71.9808 42.4542C71.8095 42.921 71.7245 43.3986 71.6351 43.8861C71.6224 43.9504 71.6097 44.0147 71.5967 44.0809C71.5803 44.1681 71.5803 44.1681 71.5636 44.2571C71.5004 44.4434 71.4279 44.525 71.2756 44.648C71.1001 44.7195 70.9217 44.7842 70.7419 44.8439C70.4586 44.9386 70.2025 45.0262 69.9428 45.1745C69.6304 45.3084 69.4872 45.2904 69.1602 45.1965C68.901 45.0555 68.6617 44.8914 68.4207 44.7215C68.3559 44.677 68.2911 44.6325 68.2244 44.5867C68.0656 44.4774 67.9074 44.3673 67.7498 44.2563C67.4872 44.365 67.3381 44.4741 67.2014 44.7264C67.2062 45.0607 67.2894 45.3841 67.3581 45.7107C67.3828 45.8457 67.3828 45.8457 67.408 45.9835C67.4255 46.0697 67.4429 46.1559 67.4609 46.2447C67.4768 46.3236 67.4926 46.4024 67.509 46.4836C67.6168 46.7419 67.738 46.7989 67.9849 46.9202C68.0414 46.9595 68.0978 46.9988 68.156 47.0393C68.3746 47.1647 68.5147 47.2215 68.7684 47.2336C69.0748 47.0754 69.3266 46.8889 69.5917 46.6708C70.1385 46.2225 70.6042 45.9945 71.305 45.8772C71.3741 45.864 71.4432 45.8508 71.5144 45.8372C72.7 45.6243 73.8692 45.7541 74.8798 46.4501C75.7874 47.1378 76.3434 48.0621 76.5251 49.1924C76.6201 50.537 76.2297 51.579 75.4282 52.6398C75.4783 52.7077 75.5284 52.7755 75.58 52.8455C75.7639 53.1479 75.7349 53.3651 75.7122 53.7122C75.7204 54.0169 75.7415 54.2061 75.9607 54.427C76.3567 54.7358 76.7885 54.988 77.2303 55.2254C77.319 55.1542 77.407 55.0822 77.4947 55.0099C77.5438 54.9699 77.5929 54.9299 77.6435 54.8887C77.7853 54.7489 77.8572 54.6237 77.9354 54.4419C77.9074 54.402 77.8793 54.3622 77.8504 54.3211C77.7226 54.1385 77.5964 53.9548 77.4702 53.771C77.426 53.7083 77.3819 53.6457 77.3363 53.5811C77.0894 53.2188 76.91 52.9363 76.9169 52.4831C77.0038 52.2089 77.0038 52.2089 77.1323 51.9347C77.174 51.8442 77.2156 51.7537 77.2584 51.6604C77.3009 51.5699 77.3433 51.4794 77.387 51.3862C77.4284 51.2867 77.4697 51.1872 77.5106 51.0875C77.622 50.8377 77.622 50.8377 77.7787 50.681C77.9679 50.6285 77.9679 50.6285 78.2026 50.5828C78.2866 50.566 78.3706 50.5492 78.4571 50.5318C78.5891 50.5063 78.5891 50.5063 78.7238 50.4803C78.8978 50.4461 79.0718 50.4118 79.2457 50.3771C79.323 50.3621 79.4004 50.3471 79.4801 50.3317C79.6554 50.3067 79.6554 50.3067 79.7375 50.2109C79.7432 50.0527 79.7441 49.8943 79.7424 49.7359C79.7417 49.6494 79.741 49.5628 79.7403 49.4736C79.7394 49.4067 79.7384 49.3397 79.7375 49.2707C79.2879 49.1081 78.8309 49.0169 78.363 48.925C77.7501 48.7966 77.7501 48.7966 77.5437 48.5656C77.4356 48.3192 77.4356 48.3192 77.3429 48.0318C77.2501 47.7479 77.1655 47.4926 77.0176 47.2327C76.8832 46.9203 76.9013 46.7773 76.9952 46.4501C77.1362 46.1909 77.3003 45.9516 77.4702 45.7107C77.5147 45.6459 77.5592 45.5811 77.6051 45.5143C77.7143 45.3555 77.8244 45.1974 77.9354 45.0398C77.8252 44.8094 77.7191 44.6489 77.5339 44.4717C77.4596 44.4006 77.3852 44.3295 77.3086 44.2563C76.8839 44.3987 76.5476 44.6585 76.1885 44.9187C75.8593 45.1475 75.6064 45.2725 75.1932 45.2748C74.9189 45.1879 74.9189 45.1879 74.6447 45.0594C74.5542 45.0178 74.4637 44.9762 74.3705 44.9333C74.28 44.8909 74.1895 44.8484 74.0963 44.8047C73.9968 44.7633 73.8972 44.7221 73.7975 44.6811C73.5478 44.5697 73.5478 44.5697 73.3911 44.413C73.3386 44.2238 73.3386 44.2238 73.2929 43.9891C73.276 43.9051 73.2592 43.8211 73.2419 43.7346C73.2164 43.6026 73.2164 43.6026 73.1903 43.4679C73.1562 43.2939 73.1218 43.1199 73.0872 42.9461C73.0722 42.8687 73.0572 42.7913 73.0417 42.7116C73.0168 42.5363 73.0168 42.5363 72.921 42.4542C72.7628 42.4485 72.6043 42.4477 72.446 42.4493C72.3594 42.45 72.2729 42.4507 72.1837 42.4515C72.0833 42.4528 72.0833 42.4528 71.9808 42.4542ZM64.3024 45.1181C64.2712 45.2833 64.24 45.4484 64.2078 45.6185C64.1769 45.7794 64.1457 45.9401 64.1145 46.1009C64.093 46.2121 64.0718 46.3235 64.0509 46.4349C64.0207 46.5955 63.9895 46.7558 63.9581 46.9162C63.9396 47.0126 63.9212 47.1091 63.9022 47.2084C63.8177 47.5232 63.7353 47.7758 63.4486 47.9515C63.3937 47.9709 63.3389 47.9904 63.2823 48.0104C63.2216 48.0328 63.1608 48.0552 63.0982 48.0783C63.0351 48.1001 62.9719 48.122 62.9068 48.1444C62.7822 48.1893 62.6576 48.2344 62.5331 48.2797C62.4733 48.301 62.4136 48.3224 62.352 48.3444C62.1694 48.4117 62.1694 48.4117 61.9412 48.5429C61.6547 48.6719 61.4803 48.6847 61.1684 48.6439C60.9487 48.5468 60.755 48.4207 60.5563 48.2864C60.5019 48.2511 60.4475 48.2157 60.3915 48.1792C59.9649 47.8999 59.5439 47.6115 59.1313 47.312C58.8325 47.4365 58.632 47.626 58.4016 47.8506C58.3308 47.9183 58.26 47.986 58.1871 48.0557C58.0159 48.2297 58.0159 48.2297 58.0476 48.3949C58.1308 48.613 58.2456 48.7903 58.3747 48.9849C58.4271 49.0645 58.4795 49.144 58.5335 49.226C58.6161 49.35 58.6161 49.35 58.7003 49.4764C58.809 49.6406 58.9175 49.8049 59.026 49.9691C59.0743 50.0418 59.1226 50.1145 59.1724 50.1894C59.3618 50.4815 59.3944 50.6431 59.3663 50.9944C59.2881 51.1923 59.2077 51.3739 59.1117 51.5625C58.9109 51.9682 58.7375 52.3651 58.6073 52.8002C58.274 53.2962 57.3591 53.3288 56.8248 53.438C56.7216 53.4595 56.6184 53.4811 56.5152 53.5027C56.2643 53.5551 56.0133 53.6068 55.7622 53.6584C55.7622 54.1496 55.7622 54.6409 55.7622 55.147C56.1028 55.2606 56.4013 55.3432 56.7498 55.4081C56.8944 55.4365 56.8944 55.4365 57.042 55.4655C57.244 55.5047 57.4462 55.5428 57.6486 55.5799C57.7447 55.5992 57.8408 55.6184 57.9398 55.6383C58.0275 55.6549 58.1152 55.6715 58.2055 55.6887C58.4829 55.7958 58.5391 55.8995 58.6612 56.1656C58.7035 56.2629 58.743 56.3616 58.7787 56.4615C58.7981 56.5147 58.8175 56.5679 58.8375 56.6227C58.8665 56.7043 58.8665 56.7043 58.8962 56.7875C58.9351 56.896 58.9743 57.0045 59.0137 57.1128C59.0327 57.1651 59.0517 57.2174 59.0713 57.2713C59.1354 57.4388 59.1354 57.4388 59.2684 57.6595C59.3961 57.9592 59.3572 58.1213 59.288 58.4378C59.1628 58.6677 59.1628 58.6677 59.0033 58.8916C58.9467 58.9733 58.89 59.055 58.8316 59.1391C58.7411 59.2665 58.6505 59.3939 58.5597 59.5213C58.4718 59.6455 58.385 59.7705 58.2982 59.8955C58.2195 60.006 58.2195 60.006 58.1393 60.1187C58.0189 60.3057 58.0189 60.3057 58.0448 60.4876C58.1592 60.7302 58.3568 60.8997 58.5485 61.0821C58.5893 61.1218 58.63 61.1615 58.672 61.2024C58.7724 61.2999 58.8734 61.3968 58.9746 61.4934C59.2747 61.3852 59.5175 61.2457 59.7795 61.0643C59.8571 61.0118 59.9346 60.9593 60.0146 60.9052C60.1764 60.7947 60.3378 60.6835 60.4987 60.5716C61.0891 60.1744 61.0891 60.1744 61.4717 60.1119C61.7362 60.1654 61.9276 60.2446 62.1625 60.3769C62.5668 60.5944 62.9588 60.7365 63.4017 60.8547C63.6581 60.9731 63.706 61.0857 63.8323 61.3367C63.9009 61.5957 63.9009 61.5957 63.9554 61.8864C63.9653 61.9378 63.9752 61.9893 63.9854 62.0423C64.0167 62.2052 64.047 62.3684 64.0772 62.5316C64.1081 62.6959 64.1392 62.8601 64.1706 63.0243C64.1989 63.1724 64.2265 63.3206 64.2541 63.4688C64.28 63.6789 64.28 63.6789 64.3808 63.7656C64.4917 63.7724 64.6029 63.774 64.7141 63.7733C64.8144 63.7729 64.8144 63.7729 64.9168 63.7725C64.9872 63.7718 65.0575 63.7712 65.13 63.7705C65.2006 63.7701 65.2713 63.7698 65.3441 63.7694C65.5192 63.7685 65.6943 63.7672 65.8694 63.7656C65.884 63.6889 65.8986 63.6122 65.9136 63.5332C65.9682 63.2479 66.0249 62.963 66.0822 62.6781C66.1067 62.555 66.1307 62.4317 66.154 62.3084C66.1877 62.1306 66.2235 61.9535 66.2597 61.7762C66.2696 61.7213 66.2796 61.6664 66.2899 61.6098C66.3481 61.3349 66.4058 61.1919 66.6076 60.9926C66.846 60.844 67.0765 60.7579 67.3434 60.6708C67.6628 60.563 67.9634 60.4556 68.2591 60.2937C68.5583 60.1494 68.6777 60.1225 69.0035 60.1615C69.2197 60.2602 69.4132 60.3872 69.6107 60.5189C69.6654 60.5543 69.7202 60.5897 69.7766 60.6262C70.205 60.9049 70.627 61.1932 71.0406 61.4934C71.3598 61.3673 71.5706 61.1379 71.8045 60.896C71.8442 60.8556 71.8839 60.8152 71.9248 60.7736C72.0222 60.6744 72.119 60.5747 72.2158 60.4749C72.1409 60.3556 72.0658 60.2365 71.9906 60.1174C71.9168 60 71.9168 60 71.8415 59.8802C71.7189 59.6886 71.5898 59.5032 71.4565 59.3189C71.4031 59.2435 71.4031 59.2435 71.3486 59.1665C71.2786 59.0681 71.2074 58.9705 71.1347 58.874C70.8715 58.4992 70.8091 58.186 70.8839 57.7326C70.9499 57.5226 71.0406 57.3343 71.1434 57.1401C71.3008 56.8264 71.4546 56.5193 71.5645 56.1852C71.6776 55.9051 71.7276 55.8458 71.9808 55.6955C72.2309 55.6269 72.2309 55.6269 72.5228 55.5724C72.5744 55.5625 72.6259 55.5526 72.679 55.5424C72.8428 55.511 73.0067 55.4808 73.1707 55.4506C73.3355 55.4198 73.5003 55.3886 73.665 55.3572C73.8138 55.3289 73.9627 55.3013 74.1116 55.2737C74.3228 55.2479 74.3228 55.2479 74.4097 55.147C74.4164 55.0361 74.418 54.9249 74.4173 54.8137C74.4171 54.7468 74.4168 54.6799 74.4165 54.611C74.4159 54.5406 74.4152 54.4703 74.4146 54.3978C74.414 54.2918 74.414 54.2918 74.4135 54.1837C74.4126 54.0086 74.4113 53.8335 74.4097 53.6584C74.2788 53.6299 74.2788 53.6299 74.1452 53.6008C73.8949 53.5462 73.6451 53.4899 73.3954 53.4328C73.1435 53.3756 72.8918 53.3245 72.6376 53.2792C71.8339 53.1262 71.8339 53.1262 71.612 52.888C71.5281 52.7026 71.4811 52.524 71.4323 52.3264C71.366 52.1606 71.2973 51.9958 71.2267 51.8318C71.1949 51.7546 71.1632 51.6773 71.1306 51.5977C71.0496 51.3925 71.0496 51.3925 70.9506 51.2408C70.8383 50.9581 70.8132 50.7384 70.8839 50.446C71.0773 50.0737 71.3117 49.7326 71.5499 49.3883C71.6142 49.2931 71.6783 49.1978 71.7424 49.1024C71.8987 48.8702 72.0568 48.6392 72.2158 48.4089C71.9667 48.1138 71.7182 47.8225 71.4421 47.5519C71.3605 47.4719 71.2789 47.3919 71.1973 47.312C70.8302 47.5059 70.4763 47.7082 70.1368 47.9476C70.0783 47.9888 70.0197 48.03 69.9594 48.0724C69.8403 48.157 69.7217 48.2425 69.6038 48.3288C69.1962 48.6124 68.9524 48.7155 68.455 48.6439C68.25 48.5754 68.0633 48.4849 67.8723 48.3844C67.4899 48.1918 67.1336 48.0314 66.7105 47.9461C66.4134 47.7587 66.3571 47.3826 66.2772 47.0615C66.2115 46.7685 66.1499 46.4749 66.0898 46.1808C66.0683 46.0776 66.0467 45.9744 66.0251 45.8712C65.9727 45.6203 65.921 45.3692 65.8694 45.1181C65.3523 45.1181 64.8352 45.1181 64.3024 45.1181ZM73.156 47.2336C73.1843 47.2745 73.2126 47.3154 73.2417 47.3576C73.5431 47.8355 73.6659 48.239 73.5478 48.8006C73.3578 49.2389 73.0988 49.6261 72.7921 49.9909C72.5919 50.2361 72.4206 50.466 72.2942 50.7594C72.3526 51.2096 72.5192 51.6112 72.8426 51.9347C73.2231 52.0682 73.6041 52.1687 73.9852 52.0038C74.6424 51.5179 75.0377 50.851 75.1932 50.0542C75.2908 49.3397 75.0296 48.6738 74.619 48.0985C74.3013 47.711 73.9375 47.4208 73.4694 47.2336C73.366 47.2336 73.2626 47.2336 73.156 47.2336Z" fill="white"/>
<path d="M62.026 41.0194C62.0968 41.0187 62.1675 41.0179 62.2404 41.0171C62.4439 41.0152 62.6474 41.0151 62.8509 41.0154C62.9124 41.0147 62.974 41.014 63.0374 41.0133C63.3951 41.0162 63.6289 41.0541 63.9114 41.279C64.1073 41.5728 64.1101 41.7145 64.0681 42.0625C63.8527 42.351 63.7375 42.4446 63.378 42.5009C63.2607 42.502 63.1435 42.5011 63.0262 42.4986C62.9307 42.4991 62.9307 42.4991 62.8331 42.4995C62.696 42.5002 62.5589 42.5001 62.4217 42.4993C62.0572 42.4976 61.6927 42.5033 61.3282 42.5096C61.218 42.5115 61.218 42.5115 61.1055 42.5134C60.0195 42.5365 58.9509 42.6824 57.8784 42.846C57.7331 42.8678 57.7331 42.8678 57.5849 42.8901C54.115 43.4225 50.4621 44.1475 48.2125 47.0839C47.1497 48.5715 46.5317 50.1017 46.0908 51.8694C45.8825 52.6969 45.6041 53.4683 45.2667 54.2512C45.2281 54.3418 45.2281 54.3418 45.1888 54.4342C45.139 54.5504 45.0883 54.6661 45.0363 54.7813C44.9401 55.0044 44.8724 55.1916 44.8706 55.4359C44.9831 55.6912 45.1478 55.8171 45.3618 55.9942C45.9227 56.4776 46.3118 56.9773 46.3743 57.7402C46.3616 58.3752 46.0382 58.9035 45.7438 59.4478C45.6599 59.6051 45.5801 59.7637 45.5014 59.9237C44.8546 61.2204 44.0202 62.4298 43.1359 63.5755C42.9168 63.8644 42.7179 64.166 42.5216 64.4708C42.6316 64.7429 42.7387 64.8438 42.9972 64.9785C43.0608 65.0128 43.1243 65.047 43.1898 65.0823C43.2905 65.1359 43.2905 65.1359 43.3933 65.1906C44.578 65.8513 44.578 65.8513 44.8672 66.5213C45.141 67.4863 44.7334 68.3193 44.3237 69.1718C44.3925 69.2048 44.3925 69.2048 44.4626 69.2385C44.7764 69.4004 45.0858 69.5859 45.2982 69.8721C45.4348 70.373 45.2732 70.7008 45.0288 71.1306C45.0806 71.1451 45.1323 71.1597 45.1855 71.1746C45.6972 71.4198 46.1067 71.7938 46.3125 72.3291C46.4563 72.9591 46.3886 73.6074 46.2678 74.2352C46.1626 74.8393 46.2333 75.4569 46.5888 75.9687C46.8242 76.2221 47.04 76.3404 47.3794 76.3801C48.1553 76.2794 48.9176 76.0573 49.6662 75.8365C49.7174 75.8215 49.7685 75.8065 49.8212 75.7911C51.0288 75.4365 52.222 75.0402 53.4127 74.6331C53.687 74.5394 53.9615 74.4465 54.2362 74.3542C54.6117 74.228 54.9867 74.1006 55.3614 73.9724C55.5055 73.9233 55.6498 73.8745 55.7942 73.8261C57.818 73.1611 57.818 73.1611 59.3621 71.7672C59.4576 71.4863 59.5099 71.2098 59.5531 70.9166C59.6101 70.7098 59.6663 70.6316 59.8371 70.5038C60.0711 70.4472 60.2303 70.409 60.4639 70.4254C60.688 70.5637 60.8163 70.6601 60.934 70.8955C61.0134 71.645 60.8433 72.2435 60.415 72.8592C59.4155 74.0845 58.0356 74.6233 56.5856 75.1362C56.5038 75.1652 56.5038 75.1652 56.4204 75.1947C55.4991 75.5182 55.4991 75.5182 55.2144 75.5182C55.242 75.5552 55.2696 75.5922 55.298 75.6303C56.2781 76.9505 56.881 78.0812 57.4866 79.6708C62.425 79.6708 67.3635 79.6708 72.4516 79.6708C72.2965 79.4122 72.1413 79.1537 71.9815 78.8873C71.123 77.2153 70.7267 75.4005 70.4145 73.5594C70.4041 73.5026 70.3937 73.4458 70.3829 73.3873C69.7779 70.0653 70.5827 66.5899 72.4859 63.8244C72.7528 63.4422 73.0315 63.0704 73.3183 62.703C74.2747 61.4767 75.0057 60.212 75.4733 58.7237C75.6733 58.1061 75.6733 58.1061 75.9774 57.8893C76.3639 57.8341 76.5136 57.8289 76.8392 58.046C77.0354 58.3403 77.0303 58.5675 76.9959 58.9079C76.9474 59.1363 76.8772 59.3535 76.8 59.5738C76.7685 59.6655 76.7685 59.6655 76.7363 59.759C76.2369 61.1615 75.4454 62.4281 74.5282 63.5933C73.2612 65.2039 72.3445 66.9279 71.9031 68.9367C71.8837 69.0238 71.8643 69.1109 71.8444 69.2006C71.2039 72.7677 72.3377 76.6367 74.1753 79.6708C74.3858 80.0287 74.4635 80.2719 74.4104 80.6894C74.2697 80.9051 74.1712 81.044 73.9402 81.1595C73.7151 81.1678 73.4919 81.1714 73.2667 81.1715C73.1961 81.1719 73.1255 81.1722 73.0528 81.1726C72.8149 81.1736 72.5771 81.1741 72.3392 81.1746C72.1692 81.1752 71.9992 81.1758 71.8292 81.1765C71.2698 81.1786 70.7104 81.1798 70.151 81.1809C69.9586 81.1813 69.7663 81.1817 69.574 81.1821C68.7742 81.1838 67.9745 81.1853 67.1747 81.1862C66.0271 81.1875 64.8796 81.1901 63.7321 81.1945C62.9259 81.1976 62.1198 81.1991 61.3137 81.1995C60.8318 81.1998 60.35 81.2007 59.8681 81.2033C59.4149 81.2056 58.9618 81.2061 58.5086 81.2052C58.3421 81.2052 58.1756 81.2058 58.0091 81.2072C57.7821 81.209 57.5552 81.2083 57.3282 81.2071C57.262 81.2082 57.1959 81.2093 57.1278 81.2104C56.7893 81.2058 56.6637 81.1907 56.3902 80.9716C56.2421 80.7795 56.1631 80.6443 56.0968 80.4136C56.0765 80.347 56.0563 80.2805 56.0354 80.2119C56.015 80.1416 55.9945 80.0713 55.9735 79.9989C55.7378 79.2445 55.4451 78.5569 55.0577 77.8687C55.0126 77.7882 54.9674 77.7077 54.9209 77.6248C54.6226 77.1266 54.209 76.4409 53.6343 76.2433C53.3367 76.2166 53.0991 76.302 52.8226 76.3993C52.7651 76.4186 52.7076 76.438 52.6484 76.4578C52.5248 76.4994 52.4012 76.5413 52.2778 76.5836C51.9525 76.6948 51.6262 76.8027 51.2997 76.9102C51.2337 76.9319 51.1678 76.9535 51.0999 76.9759C50.4661 77.1826 49.8264 77.3623 49.1814 77.5308C49.084 77.5564 48.9865 77.5819 48.8861 77.6083C47.9225 77.857 47.0238 78.0682 46.1101 77.5327C45.9489 77.4178 45.8022 77.2965 45.6557 77.1636C45.6129 77.126 45.5702 77.0884 45.5262 77.0497C44.9271 76.4461 44.7088 75.4595 44.7008 74.6319C44.703 74.3674 44.7379 74.1263 44.7938 73.8679C44.8693 73.5129 44.9152 73.217 44.8721 72.8543C44.6275 72.5229 44.2834 72.3221 43.9387 72.1044C43.6836 71.9296 43.5608 71.8194 43.4618 71.5223C43.4507 71.1874 43.4493 70.9401 43.5402 70.6164C43.5697 70.3482 43.5697 70.3482 43.4113 70.1992C43.2999 70.1035 43.1856 70.011 43.0685 69.9223C42.9134 69.7986 42.9134 69.7986 42.7567 69.5636C42.696 68.9769 42.8776 68.5756 43.1607 68.0697C43.3722 67.6837 43.4759 67.4187 43.3835 66.978C43.1768 66.7723 42.9339 66.645 42.6783 66.5079C41.9975 66.1376 41.3373 65.773 41.033 65.0192C40.922 64.3013 41.0942 63.8016 41.5031 63.2171C41.6713 62.9974 41.8421 62.7804 42.0159 62.5651C42.9611 61.3864 43.7241 60.0628 44.4412 58.7365C44.4668 58.6895 44.4924 58.6425 44.5187 58.5941C44.6676 58.3139 44.8062 58.0439 44.8721 57.7326C44.7927 57.5604 44.7927 57.5604 44.642 57.4241C44.5906 57.3706 44.5392 57.317 44.4862 57.2619C44.3849 57.1646 44.2824 57.0685 44.1783 56.9742C43.7044 56.5369 43.4326 56.0337 43.3394 55.3919C43.3925 54.7015 43.6906 54.0474 43.9711 53.4233C44.2695 52.759 44.4774 52.0879 44.6628 51.3837C45.3043 48.9567 46.2598 46.9992 47.9278 45.1181C47.9733 45.066 48.0187 45.0139 48.0655 44.9602C50.6796 42.1491 55.2413 41.6941 58.8186 41.2006C58.9254 41.1848 58.9254 41.1848 59.0343 41.1687C60.0261 41.0235 61.0258 41.0259 62.026 41.0194Z" fill="white"/>
<path d="M68.2721 50.8601C69.1405 51.6841 69.7658 52.7296 69.8039 53.9479C69.8259 55.4574 69.5257 56.6781 68.4561 57.811C67.5377 58.6931 66.3526 59.1387 65.087 59.1723C63.7657 59.1358 62.6191 58.6493 61.6885 57.7185C60.7271 56.6856 60.3243 55.4774 60.3618 54.0829C60.4291 52.8019 61.031 51.7097 61.953 50.8377C63.8065 49.2996 66.4379 49.2798 68.2721 50.8601ZM62.5651 52.2676C61.9637 53.0099 61.6975 53.8873 61.7962 54.8336C61.9334 55.4872 62.1585 56.0382 62.5798 56.5573C62.619 56.6063 62.6583 56.6553 62.6988 56.7058C63.2437 57.3143 64.0709 57.6749 64.8773 57.7494C65.8388 57.7872 66.7502 57.4244 67.4614 56.7811C68.1993 55.9735 68.4409 55.1331 68.4049 54.0633C68.3595 53.3436 68.0637 52.7824 67.5942 52.2481C67.5549 52.2006 67.5156 52.1531 67.4751 52.1042C66.9691 51.5403 66.2402 51.1825 65.4861 51.1297C64.306 51.0929 63.3861 51.3822 62.5651 52.2676Z" fill="white"/>
<path d="M55.8415 44.7313C56.0388 45.0212 56.0535 45.1654 55.9982 45.5099C55.8261 45.799 55.714 45.8908 55.3952 46.0091C55.2798 46.0382 55.1641 46.066 55.0482 46.0926C54.9209 46.1252 54.7937 46.1581 54.6665 46.1912C54.6015 46.2079 54.5364 46.2246 54.4694 46.2418C52.4227 46.7838 50.9076 47.6905 49.8036 49.5492C49.2055 50.6128 48.8725 51.7003 48.5548 52.8749C48.0736 52.829 47.6141 52.7541 47.1445 52.6398C47.5455 50.6841 48.1835 48.9275 49.4951 47.3903C49.5444 47.3274 49.5938 47.2645 49.6447 47.1996C50.5903 46.0413 54.3816 43.7276 55.8415 44.7313Z" fill="white"/>
<path d="M47.4577 54.4419C47.6095 54.5251 47.6095 54.5251 47.6928 54.6769C47.8241 55.1774 47.8241 55.1774 47.7102 55.4491C47.5808 55.6326 47.4456 55.7553 47.2273 55.8164C46.9209 55.8379 46.7768 55.79 46.5175 55.6171C46.3447 55.3578 46.2968 55.2138 46.3183 54.9074C46.3793 54.689 46.5021 54.5538 46.6856 54.4244C46.966 54.3069 47.167 54.3656 47.4577 54.4419Z" fill="white"/>
<path d="M65.4 53.7367C65.6345 53.8931 65.7633 54.0017 65.8263 54.283C65.8416 54.5468 65.8119 54.7237 65.6693 54.9462C65.4113 55.1116 65.2364 55.147 64.9298 55.147C64.6654 55.0344 64.6654 55.0344 64.4597 54.8336C64.3418 54.5174 64.347 54.2838 64.4842 53.9766C64.7288 53.6777 65.0353 53.6767 65.4 53.7367Z" fill="white"/>
<path d="M61.5 0C45.1892 -1.94504e-07 29.5464 6.47944 18.0129 18.0129C6.47945 29.5464 1.42594e-06 45.1892 0 61.5C-1.42594e-06 77.8108 6.47944 93.4536 18.0129 104.987C29.5464 116.521 45.1892 123 61.5 123L61.5 117.2C46.7274 117.2 32.5599 111.332 22.1141 100.886C11.6683 90.4401 5.79991 76.2726 5.79991 61.5C5.79991 46.7274 11.6683 32.5599 22.1141 22.1141C32.5599 11.6683 46.7274 5.79991 61.5 5.79991L61.5 0Z" fill="#18DEFF"/>
<path d="M107 61C107 85.8528 86.8528 106 62 106C37.1472 106 17 85.8528 17 61C17 36.1472 37.1472 16 62 16C86.8528 16 107 36.1472 107 61ZM23.3365 61C23.3365 82.3533 40.6467 99.6635 62 99.6635C83.3533 99.6635 100.663 82.3533 100.663 61C100.663 39.6467 83.3533 22.3365 62 22.3365C40.6467 22.3365 23.3365 39.6467 23.3365 61Z" fill="#8B9093"/>
</svg>
