<svg width="123" height="123" viewBox="0 0 123 123" fill="none" xmlns="http://www.w3.org/2000/svg">
<path d="M61.5 0C45.1892 -1.94504e-07 29.5464 6.47944 18.0129 18.0129C6.47945 29.5464 1.42594e-06 45.1892 0 61.5C-1.42594e-06 77.8108 6.47944 93.4536 18.0129 104.987C29.5464 116.521 45.1892 123 61.5 123L61.5 117.2C46.7274 117.2 32.5599 111.332 22.1141 100.886C11.6683 90.4401 5.79991 76.2726 5.79991 61.5C5.79991 46.7274 11.6683 32.5599 22.1141 22.1141C32.5599 11.6683 46.7274 5.79991 61.5 5.79991L61.5 0Z" fill="#18DEFF"/>
<path d="M107 61C107 85.8528 86.8528 106 62 106C37.1472 106 17 85.8528 17 61C17 36.1472 37.1472 16 62 16C86.8528 16 107 36.1472 107 61ZM23.3365 61C23.3365 82.3533 40.6467 99.6635 62 99.6635C83.3533 99.6635 100.663 82.3533 100.663 61C100.663 39.6467 83.3533 22.3365 62 22.3365C40.6467 22.3365 23.3365 39.6467 23.3365 61Z" fill="#8B9093"/>
<path d="M62.8572 39.0395C63.57 39.3839 63.7444 39.8269 63.9968 40.5325C64.0347 40.6327 64.0725 40.7329 64.1115 40.8362C64.1918 41.0492 64.2712 41.2626 64.3497 41.4762C64.4755 41.8162 64.6056 42.1542 64.737 42.492C65.0858 43.3918 65.0858 43.3918 65.2266 43.761C65.2758 43.8894 65.2758 43.8894 65.326 44.0205C65.3961 44.2325 65.3961 44.2325 65.3961 44.4633C65.4817 44.4624 65.5673 44.4615 65.6555 44.4605C66.6384 44.4547 67.6171 44.4791 68.5985 44.5302C68.7681 44.5386 68.9379 44.5458 69.1076 44.552C69.3575 44.5611 69.6069 44.5738 69.8566 44.5873C70.003 44.5939 70.1493 44.6006 70.3001 44.6074C70.8227 44.7194 71.0194 44.8988 71.3969 45.2711C71.5296 45.5364 71.5352 45.7044 71.5412 45.9996C71.5442 46.0872 71.5471 46.1748 71.5502 46.2651C71.4877 46.7198 71.2772 47.0144 70.9448 47.3231C70.8584 47.3886 70.7719 47.454 70.6829 47.5214C70.0573 48.0044 69.4452 48.5018 68.8348 49.0036C68.3551 49.3954 67.8655 49.7631 67.3579 50.118C67.4178 50.3608 67.4779 50.6037 67.5382 50.8464C67.5576 50.9258 67.5771 51.0052 67.5971 51.0869C67.7348 51.6435 67.8832 52.1962 68.0381 52.7483C68.0757 52.8853 68.1134 53.0224 68.1521 53.1636C68.2275 53.4377 68.3047 53.7114 68.3837 53.9845C68.5906 54.7459 68.6967 55.2615 68.3965 56.0034C68.0972 56.2953 67.8046 56.5749 67.3712 56.586C66.6599 56.5274 66.2118 56.317 65.6341 55.9097C65.5103 55.8266 65.5103 55.8266 65.384 55.7419C65.0213 55.4978 64.6628 55.2481 64.3053 54.9964C64.1167 54.8635 63.9275 54.7314 63.7378 54.6001C63.5574 54.4749 63.3783 54.3478 63.2008 54.2186C62.7475 53.8823 62.7475 53.8823 62.2117 53.8568C62.1201 53.9178 62.0284 53.9788 61.934 54.0416C61.8132 54.1176 61.6924 54.1936 61.568 54.272C61.4301 54.3655 61.2924 54.4594 61.1551 54.5537C61.0015 54.6568 60.848 54.7599 60.6944 54.8629C60.4446 55.0314 60.1956 55.2007 59.9477 55.372C59.6926 55.5482 59.4358 55.7218 59.1788 55.8952C59.1008 55.9503 59.0227 56.0053 58.9423 56.062C58.388 56.4325 57.8775 56.6144 57.2026 56.5804C56.7518 56.3801 56.5581 56.1856 56.2722 55.7871C55.8902 54.7357 56.7032 52.9589 56.9934 51.9355C57.0772 51.6393 57.1605 51.343 57.2436 51.0466C57.2801 50.9179 57.3165 50.7892 57.3541 50.6565C57.443 50.3645 57.443 50.3645 57.4334 50.118C57.1947 49.9141 56.9549 49.7229 56.7049 49.5338C56.5558 49.4189 56.4067 49.304 56.2577 49.1889C56.1832 49.1315 56.1087 49.0742 56.0319 49.0151C55.6284 48.7013 55.2361 48.3741 54.8423 48.0484C54.4747 47.7502 54.0967 47.4671 53.7148 47.1874C53.42 46.9211 53.3034 46.6822 53.2361 46.2926C53.2215 45.8041 53.2358 45.4854 53.553 45.098C54.0074 44.6653 54.2696 44.6701 54.8896 44.6324C54.9702 44.6274 55.0509 44.6224 55.134 44.6173C55.3056 44.6069 55.4772 44.5967 55.6488 44.5868C55.9061 44.5718 56.1634 44.5558 56.4207 44.5397C57.4133 44.4795 58.4003 44.4487 59.3952 44.4633C59.4123 44.4012 59.4294 44.339 59.4471 44.275C59.6958 43.4084 60.005 42.5668 60.3275 41.7255C60.389 41.5641 60.4499 41.4024 60.51 41.2404C60.5982 41.0031 60.6884 40.7666 60.7791 40.5302C60.8319 40.3907 60.8847 40.2512 60.9391 40.1074C61.351 39.2808 61.926 38.8644 62.8572 39.0395ZM62.2802 42.2707C62.2209 42.4305 62.2209 42.4305 62.1604 42.5936C62.0131 42.9897 61.8638 43.385 61.7139 43.7801C61.6494 43.9511 61.5854 44.1222 61.5219 44.2936C61.4304 44.5402 61.3371 44.786 61.2434 45.0317C61.2155 45.1082 61.1876 45.1847 61.1588 45.2635C60.9903 45.6992 60.8458 45.9634 60.4338 46.1943C60.0282 46.3295 59.6438 46.3484 59.2207 46.3715C59.1367 46.3764 59.0527 46.3814 58.9661 46.3865C58.698 46.4022 58.4299 46.4173 58.1618 46.4323C57.98 46.4429 57.7981 46.4535 57.6162 46.4641C57.1706 46.4901 56.725 46.5155 56.2794 46.5405C56.6142 46.8815 56.9499 47.2067 57.3216 47.507C57.4056 47.5754 57.4897 47.6439 57.5763 47.7144C57.6624 47.784 57.7485 47.8536 57.8373 47.9253C59.36 49.1562 59.36 49.1562 59.4797 49.6803C59.5134 50.157 59.4474 50.4881 59.3159 50.9461C59.2949 51.0212 59.274 51.0964 59.2524 51.1738C59.1861 51.4113 59.1177 51.6482 59.049 51.8851C58.9805 52.124 58.9126 52.3631 58.8455 52.6025C58.785 52.8182 58.723 53.0335 58.6609 53.2488C58.5528 53.5714 58.5528 53.5714 58.7028 53.8108C58.8103 53.7382 58.9179 53.6656 59.0287 53.5908C59.4167 53.3297 59.8065 53.0713 60.1969 52.8138C60.3478 52.7138 60.4983 52.6131 60.6482 52.5115C60.8423 52.3801 61.0383 52.2515 61.2344 52.1231C61.3473 52.0478 61.4602 51.9725 61.5766 51.895C62.0201 51.6947 62.384 51.6371 62.8572 51.7336C63.2217 51.8918 63.5438 52.0983 63.8742 52.3178C63.9643 52.3753 64.0545 52.4329 64.1473 52.4922C64.3272 52.6073 64.5066 52.7233 64.6853 52.8402C64.9062 52.9845 65.1282 53.1266 65.3514 53.2672C65.6366 53.4469 65.9207 53.628 66.2039 53.8108C66.1369 53.5198 66.0695 53.2289 66.0019 52.9381C65.9714 52.8054 65.9714 52.8054 65.9403 52.6701C65.8384 52.2327 65.731 51.7997 65.6007 51.3698C65.5785 51.2948 65.5563 51.2199 65.5334 51.1426C65.4717 50.9376 65.4074 50.7333 65.3429 50.5291C65.2616 49.992 65.2849 49.5773 65.5115 49.0794C65.7859 48.755 66.1021 48.5101 66.4419 48.2571C66.5303 48.1879 66.6187 48.1187 66.7098 48.0474C66.9625 47.8504 67.2175 47.6567 67.4733 47.4637C67.6874 47.2981 67.9014 47.1322 68.1152 46.9661C68.1939 46.907 68.2726 46.848 68.3537 46.7871C68.4059 46.7438 68.4581 46.7005 68.5119 46.6559C68.5119 46.6179 68.5119 46.5798 68.5119 46.5405C68.4002 46.5354 68.2884 46.5302 68.1733 46.5248C67.7564 46.5051 67.3396 46.4833 66.9229 46.4609C66.7429 46.4516 66.5629 46.4427 66.3829 46.4345C66.1233 46.4224 65.8638 46.4084 65.6043 46.394C65.5246 46.3908 65.4449 46.3875 65.3627 46.3841C64.8379 46.3525 64.4564 46.2444 64.0112 45.9635C63.5632 45.2291 63.2972 44.4032 63.0015 43.5978C62.9303 43.4059 62.9303 43.4059 62.8577 43.2101C62.7417 42.8971 62.6261 42.584 62.511 42.2707C62.4349 42.2707 62.3587 42.2707 62.2802 42.2707Z" fill="white"/>
<path d="M46.3626 41.5027C46.6249 41.2415 46.793 41.1819 47.1564 41.1133C47.9648 41.2998 48.4828 42.0924 48.9766 42.7193C49.2427 43.0526 49.5194 43.3764 49.7967 43.7004C49.8486 43.7617 49.9006 43.8231 49.9541 43.8863C50.1934 44.1688 50.4345 44.4472 50.6844 44.7204C51.3415 45.4558 51.3415 45.4558 51.423 45.9904C51.3783 46.4218 51.3783 46.4218 51.1928 46.7542C50.8061 47.05 50.5684 47.0849 50.0843 47.0671C49.5859 46.859 49.3091 46.4608 48.9846 46.046C48.6932 45.6799 48.3885 45.3266 48.0827 44.9726C47.5936 44.4045 47.11 43.8334 46.6449 43.2453C46.5584 43.1373 46.4719 43.0293 46.3827 42.9181C46.0272 42.3857 46.0803 42.0768 46.3626 41.5027Z" fill="white"/>
<path d="M78.5429 40.8103C78.2935 40.5492 78.1336 40.4895 77.7882 40.4209C77.0195 40.6074 76.5269 41.4 76.0575 42.0269C75.8044 42.3602 75.5413 42.684 75.2777 43.008C75.2283 43.0694 75.1789 43.1307 75.128 43.194C74.9005 43.4764 74.6713 43.7548 74.4337 44.0281C73.8088 44.7634 73.8088 44.7634 73.7313 45.298C73.7739 45.7294 73.7739 45.7294 73.9502 46.0618C74.3179 46.3576 74.5439 46.3925 75.0042 46.3747C75.4781 46.1666 75.7413 45.7684 76.0498 45.3536C76.327 44.9876 76.6166 44.6342 76.9074 44.2802C77.3724 43.7121 77.8322 43.141 78.2744 42.5529C78.3567 42.4449 78.439 42.3369 78.5238 42.2257C78.8618 41.6933 78.8113 41.3845 78.5429 40.8103Z" fill="white"/>
<path d="M46.565 49.9113C46.7965 49.9043 47.0279 49.8972 47.2593 49.8899C47.4225 49.8848 47.5857 49.8798 47.7489 49.875C48.5557 49.8512 49.3599 49.8182 50.163 49.737C50.7547 49.707 50.7547 49.707 51.0537 49.8859C51.3816 50.2343 51.5262 50.4371 51.5662 50.9175C51.4338 51.3092 51.2812 51.5109 50.9358 51.7419C50.5732 51.8947 50.2505 51.8696 49.8628 51.8445C49.5679 51.8262 49.2886 51.8348 48.994 51.8544C48.3807 51.8921 47.7672 51.9108 47.153 51.9278C46.5872 51.9442 46.0233 51.9725 45.4587 52.0122C45.1213 52.0185 44.9995 51.9402 44.7367 51.7245C44.4499 51.3663 44.4212 51.1553 44.4333 50.7007C44.7332 49.8373 45.8184 49.9258 46.565 49.9113Z" fill="white"/>
<path d="M78.3512 49.2189C78.1311 49.2119 77.911 49.2048 77.691 49.1975C77.5358 49.1924 77.3807 49.1874 77.2255 49.1827C76.4584 49.1588 75.6938 49.1258 74.9301 49.0446C74.3675 49.0146 74.3675 49.0146 74.0832 49.1935C73.7715 49.5419 73.634 49.7447 73.596 50.2251C73.7218 50.6169 73.8669 50.8185 74.1953 51.0495C74.5401 51.2023 74.8469 51.1772 75.2156 51.1521C75.496 51.1338 75.7615 51.1424 76.0416 51.162C76.6248 51.1997 77.2081 51.2184 77.7921 51.2355C78.33 51.2518 78.8663 51.2801 79.4031 51.3198C79.7239 51.3261 79.8397 51.2478 80.0895 51.0322C80.3623 50.6739 80.3895 50.4629 80.378 50.0083C80.0929 49.1449 79.061 49.2334 78.3512 49.2189Z" fill="white"/>
<path d="M47.265 57.0949C47.439 56.9421 47.6129 56.7893 47.7867 56.6363C47.9093 56.5284 48.0319 56.4207 48.1547 56.3131C48.7616 55.7809 49.3607 55.2434 49.9282 54.6693C50.3653 54.2694 50.3653 54.2694 50.7098 54.2169C51.1844 54.2768 51.425 54.3411 51.7618 54.686C51.9092 55.0723 51.92 55.325 51.8008 55.7231C51.6184 56.0718 51.3537 56.2579 51.0388 56.4855C50.7997 56.6592 50.5899 56.8436 50.3752 57.0463C49.9263 57.466 49.4652 57.871 49.0025 58.2753C48.5767 58.6482 48.1599 59.0291 47.7499 59.4193C47.4937 59.639 47.35 59.6562 47.01 59.6572C46.5607 59.5637 46.4043 59.4192 46.1241 59.061C45.8055 58.2044 46.6986 57.5815 47.265 57.0949Z" fill="white"/>
<path d="M77.6849 56.4025C77.5194 56.2497 77.354 56.0969 77.1888 55.9439C77.0723 55.836 76.9556 55.7283 76.8389 55.6206C76.2619 55.0885 75.6923 54.551 75.1526 53.9769C74.737 53.5769 74.737 53.5769 74.4095 53.5245C73.9582 53.5843 73.7294 53.6486 73.4092 53.9935C73.269 54.3799 73.2588 54.6325 73.3722 55.0306C73.5455 55.3793 73.7972 55.5655 74.0967 55.793C74.324 55.9667 74.5235 56.1512 74.7276 56.3539C75.1545 56.7735 75.5928 57.1786 76.0328 57.5829C76.4377 57.9558 76.834 58.3367 77.2239 58.7269C77.4674 58.9465 77.6041 58.9638 77.9273 58.9648C78.3545 58.8712 78.5033 58.7268 78.7697 58.3686C79.0726 57.5119 78.2234 56.8891 77.6849 56.4025Z" fill="white"/>
<path d="M67.3566 71.2933C68.6869 70.2479 69.6578 68.8145 70.1344 67.1924C70.611 65.5703 70.5695 63.8401 70.0158 62.2426C69.462 60.6451 68.4234 59.2598 67.0446 58.2792C65.6658 57.2987 64.0153 56.7718 62.3226 56.7718C60.63 56.7718 58.9795 57.2987 57.6007 58.2792C56.2218 59.2598 55.1833 60.6451 54.6295 62.2426C54.0757 63.8401 54.0343 65.5703 54.5109 67.1924C54.9875 68.8145 55.9584 70.2479 57.2887 71.2933C55.0093 72.2053 53.0204 73.7181 51.5341 75.6704C50.0478 77.6226 49.1198 79.9411 48.849 82.3786C48.8294 82.5566 48.8451 82.7367 48.8952 82.9086C48.9453 83.0805 49.0287 83.2409 49.1409 83.3806C49.3674 83.6627 49.6967 83.8434 50.0566 83.8829C50.4165 83.9224 50.7773 83.8176 51.0598 83.5914C51.3422 83.3652 51.5231 83.0362 51.5627 82.6768C51.8607 80.0277 53.1254 77.581 55.1153 75.8044C57.1052 74.0277 59.6807 73.0455 62.3498 73.0455C65.0189 73.0455 67.5944 74.0277 69.5843 75.8044C71.5741 77.581 72.8389 80.0277 73.1368 82.6768C73.1737 83.0098 73.3328 83.3173 73.5834 83.5401C73.834 83.7628 74.1583 83.8849 74.4937 83.8829H74.6429C74.9986 83.842 75.3237 83.6624 75.5474 83.3832C75.771 83.104 75.8751 82.7477 75.837 82.3922C75.5649 79.9477 74.6319 77.6233 73.138 75.6681C71.644 73.7128 69.6455 72.2005 67.3566 71.2933ZM62.3226 70.3311C61.2492 70.3311 60.1999 70.0131 59.3073 69.4175C58.4148 68.8219 57.7191 67.9753 57.3083 66.9848C56.8975 65.9943 56.7901 64.9043 56.9995 63.8528C57.2089 62.8013 57.7258 61.8354 58.4849 61.0773C59.2439 60.3192 60.211 59.8029 61.2638 59.5938C62.3166 59.3846 63.4079 59.492 64.3996 59.9022C65.3914 60.3125 66.239 61.0073 66.8354 61.8987C67.4318 62.7902 67.7501 63.8382 67.7501 64.9103C67.7501 66.348 67.1783 67.7268 66.1604 68.7434C65.1426 69.76 63.7621 70.3311 62.3226 70.3311Z" fill="white"/>
</svg>
