<svg width="123" height="123" viewBox="0 0 123 123" fill="none" xmlns="http://www.w3.org/2000/svg">
<path d="M61.5 0C45.1892 -1.94504e-07 29.5464 6.47944 18.0129 18.0129C6.47945 29.5464 1.42594e-06 45.1892 0 61.5C-1.42594e-06 77.8108 6.47944 93.4536 18.0129 104.987C29.5464 116.521 45.1892 123 61.5 123L61.5 117.2C46.7274 117.2 32.5599 111.332 22.1141 100.886C11.6683 90.4401 5.79991 76.2726 5.79991 61.5C5.79991 46.7274 11.6683 32.5599 22.1141 22.1141C32.5599 11.6683 46.7274 5.79991 61.5 5.79991L61.5 0Z" fill="#18DEFF"/>
<path d="M107 61C107 85.8528 86.8528 106 62 106C37.1472 106 17 85.8528 17 61C17 36.1472 37.1472 16 62 16C86.8528 16 107 36.1472 107 61ZM23.3365 61C23.3365 82.3533 40.6467 99.6635 62 99.6635C83.3533 99.6635 100.663 82.3533 100.663 61C100.663 39.6467 83.3533 22.3365 62 22.3365C40.6467 22.3365 23.3365 39.6467 23.3365 61Z" fill="#8B9093"/>
<path d="M67.5471 48.8451C67.9425 49.1794 68.1684 49.521 68.2208 50.046C68.2468 50.6538 68.1147 51.0355 67.7184 51.4927C67.526 51.657 67.526 51.657 67.3354 51.7426C67.073 51.9408 67.0576 52.1705 67.0052 52.4781C66.8308 53.3363 66.511 54.1693 65.7857 54.7061C64.8475 55.3101 63.8918 55.4235 62.8008 55.4155C62.5019 55.414 62.2031 55.4124 61.8952 55.4108C61.8952 56.5257 61.8952 57.6407 61.8952 58.7893C62.0934 58.7646 62.2916 58.7398 62.4958 58.7143C62.5997 58.7077 62.7037 58.7029 62.8078 58.7012C62.8881 58.6997 62.8881 58.6997 62.97 58.6981C63.0259 58.6974 63.0819 58.6966 63.1395 58.6958C63.2629 58.6934 63.3863 58.6911 63.5097 58.6887C63.5733 58.6875 63.6369 58.6864 63.7025 58.6852C67.1382 58.7074 67.1382 58.7074 70.0599 57.1517C70.3795 56.6989 70.5962 56.2159 70.6367 55.6572C70.5936 55.4302 70.5143 55.3775 70.3273 55.2466C70.272 55.2126 70.2166 55.1787 70.1596 55.1437C69.9155 54.9744 69.8306 54.7747 69.7033 54.5099C69.6785 54.4604 69.6537 54.4108 69.6282 54.3598C69.5785 53.7851 69.561 53.2534 69.9285 52.7831C70.3192 52.378 70.6845 52.1603 71.2473 52.1104C71.7909 52.1016 72.2349 52.2593 72.6313 52.633C72.9915 53.0808 73.14 53.5619 73.0818 54.1345C72.937 54.7016 72.6779 55.0934 72.1808 55.4108C72.0119 55.4622 72.0119 55.4622 71.8805 55.4859C71.8867 55.5649 71.8929 55.6439 71.8993 55.7252C71.8993 56.6855 71.4191 57.5614 70.7802 58.2397C69.6577 59.3509 68.0001 59.6993 66.4749 59.8404C66.4139 59.8466 66.3528 59.8527 66.2899 59.859C65.4074 59.9385 64.5214 59.9418 63.636 59.9577C63.4669 59.961 63.2977 59.9643 63.1285 59.9676C62.7174 59.9756 62.3063 59.9831 61.8952 59.9906C61.8952 61.1055 61.8952 62.2204 61.8952 63.3691C62.2583 63.3733 62.2583 63.3733 62.6287 63.3776C69.0496 63.4636 69.0496 63.4636 70.8435 65.1522C71.4777 65.8204 71.896 66.7041 71.8993 67.6391C71.8931 67.7165 71.8869 67.794 71.8805 67.8737C71.944 67.8861 72.0075 67.8985 72.0729 67.9113C72.5208 68.1067 72.8163 68.4803 73.002 68.9295C73.1653 69.4509 73.0993 69.9424 72.8565 70.4264C72.5191 70.8678 72.1403 71.1218 71.5943 71.2382C71.1491 71.279 70.7605 71.1818 70.3649 70.9801C70.038 70.704 69.7646 70.3851 69.6282 69.9759C69.5802 69.4013 69.5598 68.8695 69.9285 68.3993C70.1335 68.1911 70.3419 68.0049 70.6042 67.8737C70.6011 67.1752 70.3829 66.5795 69.9276 66.0446C68.4009 64.5892 65.8067 64.7208 63.8358 64.679C63.6547 64.6751 63.4737 64.6708 63.2926 64.6665C63.2388 64.6655 63.185 64.6645 63.1295 64.6634C62.7122 64.6534 62.314 64.6122 61.8952 64.5703C61.8952 65.7348 61.8952 66.8992 61.8952 68.099C61.9447 68.0742 61.9943 68.0494 62.0453 68.0239C63.4072 67.9564 64.8508 68.026 65.9494 68.9248C66.6585 69.5882 66.9293 70.3832 67.0755 71.3273C67.0755 71.4264 67.0755 71.5255 67.0755 71.6276C67.139 71.64 67.2025 71.6524 67.2679 71.6652C67.6907 71.8496 67.9516 72.1829 68.1595 72.5896C68.2681 73.2053 68.267 73.7302 67.9014 74.2553C67.5804 74.6477 67.2123 74.8928 66.7075 74.9601C66.2171 74.978 65.819 74.935 65.4238 74.6307C64.9907 74.2276 64.7546 73.8592 64.72 73.2606C64.7333 72.7975 64.8673 72.3608 65.1748 72.0083C65.4001 71.8058 65.5739 71.6863 65.8743 71.6276C65.5824 70.4457 65.5824 70.4457 64.7343 69.6196C63.8386 69.2208 62.8541 69.3002 61.8952 69.3002C61.8952 71.6291 61.8952 73.958 61.8952 76.3575C61.9943 76.4071 62.0934 76.4566 62.1955 76.5077C62.3324 76.7121 62.3324 76.7121 62.4723 76.9628C63.109 78.0442 64.0751 78.6987 65.2722 79.0624C66.7644 79.4466 68.311 79.2951 69.6563 78.511C70.6489 77.8744 71.2869 77.0574 71.6212 75.9174C71.659 75.7393 71.666 75.5753 71.6685 75.3932C71.6703 75.3244 71.6721 75.2556 71.6739 75.1847C71.6771 75.0406 71.6795 74.8965 71.6809 74.7524C71.6965 74.2384 71.6965 74.2384 71.8412 73.9899C72.1188 73.8288 72.3969 73.7866 72.7111 73.7345C73.1441 73.6551 73.526 73.5703 73.9217 73.3685C74.2853 73.1853 74.4912 73.1602 74.8836 73.2793C75.0803 73.4453 75.1034 73.5475 75.1464 73.8002C75.1071 74.0408 75.052 74.1533 74.8684 74.3137C74.307 74.6956 73.6626 74.8653 73.0067 75.0061C72.997 75.1273 72.997 75.1273 72.987 75.251C72.8465 76.7876 72.2272 78.1163 71.0297 79.1188C69.4949 80.3468 67.7207 80.6314 65.7992 80.4868C65.3816 80.4335 64.9952 80.3271 64.598 80.1865C64.5203 80.1602 64.4425 80.1338 64.3625 80.1067C63.1143 79.6368 62.0377 78.7919 61.3696 77.6338C61.3201 77.6338 61.2705 77.6338 61.2195 77.6338C61.1315 77.7557 61.1315 77.7557 61.0412 77.9154C60.3164 79.0298 59.2369 79.7554 57.9911 80.1865C57.9079 80.216 57.8247 80.2455 57.7389 80.2759C55.997 80.8033 54.1014 80.5657 52.4976 79.7475C52.112 79.5388 51.785 79.277 51.4594 78.9852C51.3456 78.9016 51.3456 78.9016 51.2295 78.8163C50.3725 78.088 49.8278 76.929 49.6575 75.832C49.6423 75.5553 49.6428 75.2828 49.6575 75.0061C49.583 74.9905 49.5085 74.975 49.4317 74.9589C47.9908 74.6398 46.6209 73.9101 45.7535 72.6787C45.6192 72.4505 45.6032 72.3708 45.5986 72.0922C45.6784 71.8529 45.6784 71.8529 45.8004 71.7074C46.0553 71.5934 46.2268 71.5948 46.5043 71.6276C46.6679 71.7745 46.7881 71.9032 46.9219 72.0734C47.6667 72.9444 48.669 73.5292 49.8077 73.7298C49.8395 73.6609 49.8714 73.592 49.9042 73.521C50.5034 72.2558 50.5034 72.2558 51.0089 72.003C51.2623 71.9749 51.2623 71.9749 51.5345 72.003C51.7516 72.1923 51.8264 72.3063 51.8597 72.5931C51.829 72.8836 51.7394 72.9915 51.5532 73.2136C50.9608 73.9941 50.84 74.8013 50.9338 75.7569C51.1628 76.8556 51.8196 77.757 52.7357 78.3846C54.1101 79.2047 55.5977 79.4829 57.1662 79.0984C58.4912 78.7346 59.4694 77.9931 60.2153 76.8455C60.2757 76.7526 60.2757 76.7526 60.3373 76.6578C60.3733 76.6005 60.4093 76.5432 60.4464 76.4842C60.4785 76.4424 60.5107 76.4006 60.5438 76.3575C60.5933 76.3575 60.6429 76.3575 60.6939 76.3575C60.6938 76.3052 60.6937 76.253 60.6935 76.1991C60.6851 73.102 60.6787 70.005 60.6748 66.9079C60.6743 66.5362 60.6738 66.1645 60.6733 65.7928C60.6732 65.6819 60.6732 65.6819 60.673 65.5686C60.6714 64.3697 60.6684 63.1708 60.665 61.9719C60.6615 60.7421 60.6594 59.5124 60.6586 58.2827C60.6581 57.5235 60.6565 56.7644 60.6534 56.0053C60.6514 55.4851 60.6508 54.9649 60.6513 54.4447C60.6516 54.1443 60.6512 53.844 60.6492 53.5437C60.6474 53.2688 60.6473 52.994 60.6486 52.7191C60.6488 52.5723 60.6472 52.4255 60.6455 52.2788C60.6516 51.5687 60.6516 51.5687 60.8704 51.3355C61.1176 51.1752 61.2308 51.1463 61.5198 51.2065C61.7924 51.4148 61.8862 51.5221 61.9378 51.8657C61.9377 51.9749 61.9356 52.0842 61.9318 52.1934C61.931 52.28 61.931 52.28 61.9302 52.3685C61.9281 52.5521 61.9234 52.7356 61.9186 52.9192C61.9168 53.0441 61.915 53.169 61.9135 53.2939C61.9094 53.5992 61.9029 53.9044 61.8952 54.2096C63.6534 54.2481 63.6534 54.2481 65.1986 53.5339C65.5822 53.1021 65.7992 52.4585 65.7992 51.8822C65.6924 51.8135 65.5855 51.7449 65.4784 51.6766C65.1094 51.407 64.8383 51.0569 64.7481 50.6059C64.6875 50.0152 64.8054 49.5722 65.1423 49.0856C65.8017 48.4262 66.77 48.2909 67.5471 48.8451ZM66.0245 49.9302C65.9304 50.1444 65.9304 50.1444 65.9494 50.3806C66.0551 50.6051 66.0551 50.6051 66.2497 50.756C66.5258 50.8078 66.6465 50.7904 66.8832 50.6387C67.0245 50.4544 67.0245 50.4544 67.0005 50.1883C66.9471 49.93 66.9471 49.93 66.7846 49.7847C66.474 49.6294 66.2821 49.7267 66.0245 49.9302ZM70.9045 53.5339C70.8108 53.7896 70.8108 53.7896 70.8294 54.0594C70.9358 54.2534 70.9358 54.2534 71.1297 54.3598C71.355 54.4161 71.355 54.4161 71.5802 54.3598C71.7733 54.2045 71.7733 54.2045 71.8805 53.9844C71.8752 53.7632 71.8391 53.6539 71.7069 53.4776C71.398 53.2488 71.1957 53.282 70.9045 53.5339ZM70.9467 69.1172C70.806 69.3015 70.806 69.3015 70.8247 69.5677C70.8826 69.8318 70.8826 69.8318 71.0734 69.9806C71.2761 70.0695 71.2761 70.0695 71.477 70.0088C71.675 69.8889 71.7745 69.8066 71.8805 69.6005C71.8702 69.3889 71.8321 69.2659 71.7163 69.0891C71.4457 68.9118 71.2104 68.9482 70.9467 69.1172ZM66.1136 72.8383C65.9257 73.04 65.9257 73.04 65.9494 73.2887C66.0398 73.5579 66.0398 73.5579 66.2497 73.7298C66.5212 73.7702 66.6507 73.7615 66.8832 73.6125C67.0245 73.4282 67.0245 73.4282 67.0005 73.162C66.9467 72.9048 66.9467 72.9048 66.7893 72.7585C66.503 72.6194 66.3625 72.6502 66.1136 72.8383Z" fill="white"/>
<path d="M59.8334 42.9998C60.3058 43.3521 60.8148 43.7714 61.1156 44.2823C61.1495 44.3375 61.1833 44.3927 61.2182 44.4495C61.2678 44.4495 61.3173 44.4495 61.3684 44.4495C61.4641 44.3377 61.4641 44.3377 61.5608 44.1914C62.4008 43.0464 63.5974 42.3408 64.9899 42.0768C66.663 41.8365 68.2219 42.1557 69.6231 43.0966C70.554 43.8108 71.2274 44.7263 71.5039 45.876C71.5115 46.0903 71.5115 46.0903 71.5039 46.2514C71.5613 46.2479 71.6187 46.2444 71.6778 46.2408C72.8573 46.2011 74.0104 46.5471 74.9058 47.3306C75.0246 47.4448 75.142 47.5605 75.2578 47.6778C75.3064 47.7257 75.3551 47.7736 75.4053 47.823C76.101 48.5553 76.4128 49.4655 76.4027 50.4604C76.4033 50.5177 76.4039 50.5751 76.4045 50.6342C76.4032 51.0027 76.3508 51.3074 76.2338 51.6569C76.3641 51.7041 76.3641 51.7041 76.4971 51.7523C77.7711 52.2312 78.8838 52.8853 79.5049 54.1492C79.9352 55.1499 79.9997 56.2581 79.634 57.2933C79.4825 57.6371 79.2972 57.953 79.0867 58.2638C79.1231 58.2986 79.1595 58.3335 79.197 58.3694C79.5419 58.7249 79.7899 59.0912 80.0111 59.5307C80.0355 59.5784 80.0599 59.626 80.085 59.6752C80.4201 60.3667 80.5543 61.0503 80.5461 61.8159C80.5454 61.8913 80.5448 61.9667 80.5442 62.0443C80.5136 63.3951 79.9731 64.5241 79.0117 65.4712C78.9234 65.5594 78.9234 65.5594 78.8333 65.6493C78.2923 66.1634 77.6845 66.5587 76.9846 66.8226C77.0375 66.9302 77.0375 66.9302 77.0916 67.04C77.7456 68.3894 78.0464 69.7357 77.5799 71.205C77.1347 72.4159 77.1347 72.4159 76.7593 72.6036C76.2179 72.638 76.2179 72.638 76.0132 72.5192C75.8999 72.3192 75.8768 72.1573 75.8584 71.9279C75.9417 71.7047 75.9417 71.7047 76.0649 71.4728C76.566 70.4424 76.6577 69.483 76.3042 68.3852C76.1076 67.8757 75.8248 67.4698 75.483 67.0479C75.2623 66.7743 75.2623 66.7743 75.2202 66.527C75.2715 66.2133 75.3921 66.1256 75.6332 65.9217C75.8243 65.8384 76.0038 65.7694 76.2009 65.7059C77.4846 65.2536 78.4105 64.538 79.0117 63.294C79.3964 62.4791 79.3619 61.3979 79.0867 60.5537C78.8934 60.0823 78.5877 59.4032 78.1107 59.1647C77.9502 59.2308 77.7926 59.304 77.6368 59.3806C77.1644 59.6122 76.7652 59.7472 76.2338 59.6903C75.9799 59.5066 75.8757 59.398 75.8115 59.0896C75.8777 58.7719 75.9701 58.6803 76.2338 58.489C76.4361 58.4262 76.6399 58.3782 76.8458 58.3286C77.4904 58.1332 77.9722 57.6669 78.2967 57.091C78.6006 56.4517 78.6868 55.8088 78.5034 55.1181C78.1462 54.1703 77.545 53.6081 76.6417 53.1916C76.2719 53.0364 75.9298 52.9475 75.5302 52.9218C75.2191 52.9009 75.0657 52.8812 74.8026 52.6986C74.6113 52.4147 74.6017 52.2957 74.6571 51.9573C74.7431 51.759 74.8386 51.5707 74.9431 51.3816C75.197 50.8846 75.1909 50.2466 75.051 49.7152C74.9111 49.3535 74.7302 49.0444 74.507 48.7289C74.4822 48.6546 74.4574 48.5803 74.4319 48.5037C74.2937 48.424 74.2937 48.424 74.1316 48.3535C74.0276 48.2827 73.9244 48.2107 73.8219 48.1377C73.0837 47.6472 72.3685 47.5341 71.5039 47.4526C71.4991 47.4946 71.4944 47.5366 71.4895 47.5799C71.3899 48.232 71.126 48.9714 70.6399 49.4334C70.3849 49.5988 70.2253 49.5981 69.9273 49.5548C69.7443 49.4375 69.7443 49.4375 69.6269 49.2545C69.5537 48.8313 69.6773 48.6207 69.9041 48.2846C70.28 47.6866 70.3817 46.9073 70.2557 46.2209C70.1071 45.6909 69.8899 45.2575 69.5519 44.8249C69.5069 44.7637 69.4619 44.7025 69.4155 44.6395C68.6711 43.7766 67.5098 43.3544 66.4021 43.26C65.1439 43.19 63.9731 43.6091 63.026 44.4234C62.7109 44.7196 62.4703 45.0566 62.2303 45.4152C62.1192 45.5757 62.1192 45.5757 61.969 45.7258C61.9463 45.887 61.9463 45.887 61.9498 46.0746C61.9493 46.147 61.9488 46.2195 61.9483 46.2941C61.9484 46.4119 61.9484 46.4119 61.9485 46.532C61.947 46.6975 61.9454 46.8629 61.9438 47.0284C61.9421 47.2899 61.9409 47.5513 61.9404 47.8128C61.9397 48.0647 61.9372 48.3166 61.9344 48.5685C61.9348 48.6466 61.9352 48.7246 61.9356 48.805C61.9282 49.348 61.9282 49.348 61.7506 49.6415C61.582 49.7903 61.5153 49.8313 61.2933 49.8269C61.2438 49.8279 61.1942 49.8289 61.1432 49.8299C60.8957 49.7477 60.8274 49.6275 60.6927 49.4046C60.6512 49.1302 60.658 48.8587 60.6628 48.5817C60.6624 48.4177 60.662 48.2536 60.6616 48.0896C60.6627 47.8319 60.6646 47.5743 60.6672 47.3166C60.6692 47.0672 60.6685 46.818 60.6675 46.5687C60.6691 46.4921 60.6707 46.4155 60.6724 46.3366C60.6698 45.9557 60.6497 45.7161 60.3967 45.4205C60.3211 45.3461 60.2447 45.2726 60.1672 45.2003C60.0954 45.1027 60.0247 45.0044 59.956 44.9046C59.2505 43.9676 58.2384 43.4788 57.0981 43.287C55.7818 43.1567 54.5466 43.4812 53.5131 44.3027C52.685 45.003 52.3542 45.863 52.2605 46.9194C52.199 47.1969 52.143 47.2928 51.9086 47.4526C51.6652 47.4898 51.6652 47.4898 51.3925 47.4854C51.258 47.4853 51.258 47.4853 51.1209 47.4851C50.8363 47.45 50.6508 47.3762 50.4071 47.2274C50.291 46.9952 50.3099 46.8074 50.332 46.5517C50.454 46.3687 50.454 46.3687 50.6323 46.2514C50.8763 46.2326 50.8763 46.2326 51.0828 46.2514C51.0874 46.1584 51.092 46.0655 51.0968 45.9698C51.2252 44.8765 51.9331 43.9519 52.7509 43.2553C54.814 41.7021 57.6692 41.567 59.8334 42.9998Z" fill="white"/>
<path d="M48.6808 47.0021C48.9054 47.193 48.9693 47.3143 49.0234 47.6027C48.9667 47.9052 48.8357 48.0047 48.6057 48.2034C48.5244 48.2893 48.5244 48.2893 48.4415 48.377C48.3054 48.5037 48.3054 48.5037 48.1553 48.5037C48.1344 48.5473 48.1135 48.591 48.0919 48.6359C48.0093 48.7958 47.9173 48.9407 47.8174 49.0902C47.4555 49.6731 47.4357 50.2344 47.4796 50.9062C47.4833 50.9722 47.4869 51.0382 47.4907 51.1062C47.528 51.3163 47.5634 51.4203 47.7048 51.5819C47.9783 51.7062 48.2504 51.7885 48.5392 51.8687C49.0401 52.0106 49.5232 52.2595 49.807 52.708C49.8445 52.9286 49.8445 52.9286 49.807 53.1585C49.6322 53.395 49.5168 53.5121 49.2298 53.5855C48.9098 53.5191 48.6877 53.3668 48.4134 53.1937C47.8048 52.827 47.1005 52.8704 46.4285 53.0177C45.5732 53.2567 44.826 53.7153 44.3539 54.4844C44.001 55.169 43.8922 55.8691 44.0888 56.6297C44.2758 57.1141 44.531 57.4825 44.8838 57.862C45.0366 58.0902 45.0406 58.2192 45.002 58.489C44.9055 58.6433 44.9055 58.6433 44.7721 58.7799C44.7241 58.8312 44.6761 58.8825 44.6266 58.9354C44.5771 58.9863 44.5275 59.0372 44.4765 59.0896C43.6682 59.9223 43.3178 60.8481 43.323 61.9971C43.3454 63.0325 43.7852 63.8665 44.4812 64.6219C45.1146 65.2211 45.8902 65.5743 46.7106 65.8408C46.9227 65.9124 47.0852 65.9793 47.2511 66.1317C47.3587 66.3589 47.3654 66.4983 47.3294 66.7476C47.1948 66.9622 47.1948 66.9622 47.015 67.1792C46.3885 67.9714 46.1438 68.7325 46.0173 69.7336C45.978 69.9759 45.978 69.9759 45.856 70.1589C45.6073 70.3225 45.4442 70.3127 45.1522 70.2762C44.913 70.1441 44.8644 70.0886 44.7768 69.8257C44.7693 68.7285 45.0787 67.7761 45.6026 66.8226C45.5355 66.7917 45.4683 66.7607 45.3991 66.7288C44.8034 66.4472 44.2925 66.1419 43.8008 65.6965C43.7375 65.641 43.6742 65.5856 43.609 65.5284C43.0941 65.0503 42.7471 64.5233 42.4494 63.8946C42.3897 63.7687 42.3897 63.7687 42.3288 63.6403C41.8739 62.5023 41.8928 61.0431 42.3743 59.9155C42.6617 59.2795 43.0082 58.7585 43.5005 58.2638C43.4714 58.2209 43.4424 58.178 43.4125 58.1339C42.7708 57.1347 42.5828 56.0706 42.8019 54.9087C43.12 53.7751 43.7886 52.9512 44.7768 52.3326C45.2856 52.0669 45.8124 51.8479 46.3534 51.6569C46.3292 51.5836 46.305 51.5102 46.2801 51.4346C46.0149 50.5002 46.1819 49.4538 46.6053 48.5984C47.0269 47.8536 47.7187 46.8257 48.6808 47.0021Z" fill="white"/>
<path d="M52.9562 56.842C53.085 57.0768 53.0984 57.3318 53.036 57.588C52.814 57.8782 52.5814 57.9574 52.2383 58.062C51.266 58.3938 50.5641 58.9952 50.0845 59.9061C49.8644 60.3742 49.7345 60.8494 49.6214 61.3522C49.57 61.5619 49.5219 61.7012 49.3759 61.8628C49.1518 61.9686 49.0019 61.9732 48.7565 61.9426C48.5829 61.8675 48.5829 61.8675 48.4562 61.7173C48.2582 60.676 48.7294 59.5867 49.2821 58.7142C49.488 58.44 49.7104 58.2003 49.9578 57.9634C50.002 57.9169 50.0462 57.8703 50.0918 57.8224C50.7091 57.2159 52.1107 56.3783 52.9562 56.842Z" fill="white"/>
<path d="M54.9873 68.1741C55.1332 68.2898 55.2027 68.359 55.2471 68.5415C55.2503 68.5944 55.2535 68.6472 55.2568 68.7017C55.2613 68.7607 55.2657 68.8198 55.2703 68.8806C55.2745 68.9432 55.2786 69.0058 55.2829 69.0703C55.373 70.0961 55.6432 71.0878 56.4419 71.8013C56.6986 72.0021 56.9714 72.1805 57.2458 72.3561C57.3897 72.4535 57.3897 72.4535 57.5399 72.6037C57.5725 72.8968 57.5869 73.0631 57.4132 73.3075C57.216 73.4461 57.1033 73.4818 56.8642 73.5046C55.9339 73.2184 55.1279 72.4497 54.6465 71.623C54.1932 70.7116 53.8127 69.5119 54.0629 68.4885C54.2923 68.1061 54.5756 68.0488 54.9873 68.1741Z" fill="white"/>
<path d="M57.3896 48.2784C57.5773 48.3863 57.5773 48.3863 57.6899 48.5787C57.8297 49.3676 57.4494 50.1955 57.0142 50.8311C56.538 51.3938 56.0074 51.8278 55.3625 52.1825C55.313 52.2103 55.2634 52.2382 55.2124 52.2669C54.8923 52.427 54.6534 52.4247 54.3114 52.3326C54.166 52.2528 54.166 52.2528 54.0862 52.1074C54.0295 51.597 54.0295 51.597 54.1894 51.3425C54.369 51.2186 54.5367 51.1339 54.7337 51.0422C55.3755 50.7332 55.9794 50.2211 56.2634 49.5547C56.347 49.2828 56.4217 49.0108 56.4893 48.7345C56.6422 48.2605 56.9131 48.196 57.3896 48.2784Z" fill="white"/>
<path d="M56.9387 60.3941C57.164 60.441 57.164 60.441 57.3798 60.5724C57.6671 61.0118 57.5906 61.4713 57.4869 61.9693C57.2303 62.8927 56.7882 63.4984 55.9589 63.9849C55.7208 64.0823 55.5317 64.0275 55.287 63.9697C55.0883 63.8438 55.0652 63.7556 54.9961 63.5286C54.9843 63.2341 55.0217 63.1435 55.212 62.9186C55.3076 62.8601 55.4048 62.804 55.5029 62.7497C55.8708 62.5299 56.0486 62.2712 56.188 61.8675C56.2317 61.5977 56.2624 61.3318 56.2818 61.0592C56.3679 60.688 56.5631 60.4724 56.9387 60.3941Z" fill="white"/>
<path d="M66.6313 45.6196C66.7744 45.6507 66.7744 45.6507 66.9621 45.768C67.1174 46.0204 67.1111 46.1852 67.0747 46.4766C66.9949 46.6549 66.9949 46.6549 66.8495 46.7769C66.5649 46.8559 66.3898 46.8734 66.1081 46.7816C65.9069 46.5863 65.8756 46.4521 65.8594 46.1768C65.8735 46.0261 65.8735 46.0261 65.9814 45.8009C66.213 45.6201 66.3437 45.5992 66.6313 45.6196Z" fill="white"/>
<path d="M66.7749 76.6578C66.9626 76.7751 66.9626 76.7751 67.0752 76.9581C67.1093 77.2307 67.108 77.4104 66.9954 77.662C66.7803 77.8425 66.6007 77.8494 66.3244 77.8591C66.1256 77.8 66.052 77.7447 65.9256 77.5822C65.85 77.3282 65.8886 77.1386 65.949 76.8831C66.1204 76.5705 66.4575 76.6016 66.7749 76.6578Z" fill="white"/>
<path d="M73.456 61.1918C73.6679 61.3232 73.6842 61.427 73.7564 61.6704C73.7564 61.9425 73.7564 61.9425 73.6062 62.1631C73.327 62.3551 73.1879 62.3723 72.8554 62.3179C72.6724 62.2006 72.6724 62.2006 72.5551 62.0176C72.5199 61.7358 72.5152 61.5643 72.6537 61.3138C72.9084 61.0685 73.134 61.1113 73.456 61.1918Z" fill="white"/>
<path d="M69.6269 61.1918C69.8388 61.3232 69.8551 61.427 69.9273 61.6704C69.9273 61.9425 69.9273 61.9425 69.7771 62.1631C69.4979 62.3551 69.3588 62.3723 69.0263 62.3179C68.8433 62.2006 68.8433 62.2006 68.726 62.0176C68.6908 61.7358 68.6861 61.5643 68.8245 61.3138C69.0793 61.0685 69.3049 61.1113 69.6269 61.1918Z" fill="white"/>
</svg>
