<svg width="150" height="28" viewBox="0 0 150 28" fill="none" xmlns="http://www.w3.org/2000/svg">
<mask id="mask0_68_13767" style="mask-type:luminance" maskUnits="userSpaceOnUse" x="12" y="0" width="13" height="28">
<path d="M24.6616 6.71635L12.8555 0V27.6L17.5779 24.8715V17.1057L21.146 19.1521L21.0935 13.8525L17.5779 11.8061V8.71027L24.6616 12.8555V6.71635Z" fill="white"/>
</mask>
<g mask="url(#mask0_68_13767)">
<path d="M-1.10156 -0.10498H27.8627V27.6524H-1.10156V-0.10498Z" fill="url(#paint0_linear_68_13767)"/>
</g>
<mask id="mask1_68_13767" style="mask-type:luminance" maskUnits="userSpaceOnUse" x="0" y="0" width="12" height="28">
<path d="M0 6.71635L11.8061 0V27.6L7.08365 24.8715V8.71027L0 12.8555V6.71635Z" fill="white"/>
</mask>
<g mask="url(#mask1_68_13767)">
<path d="M-1.25879 -0.10498H27.7055V27.6524H-1.25879V-0.10498Z" fill="url(#paint1_linear_68_13767)"/>
</g>
<path d="M46.0177 8.55287H40.7705V23.0875H37.8321V8.55287H32.585V6.19165H46.0177V8.55287Z" fill="white"/>
<path d="M49.5332 23.2973C47.7492 23.2973 46.28 22.7201 45.1781 21.6182C44.0762 20.5163 43.499 18.9947 43.499 17.1057V16.7384C43.499 15.584 43.7089 14.4297 44.2336 13.3802C44.7059 12.4357 45.388 11.6487 46.28 11.0715C47.172 10.4943 48.169 10.2319 49.2184 10.2319C50.95 10.2319 52.2618 10.7567 53.2062 11.8586C54.1507 12.9605 54.623 14.4821 54.623 16.476V17.6304H46.385C46.4374 18.5749 46.8047 19.4144 47.4344 20.0966C48.064 20.7262 48.8511 21.0411 49.7431 20.9886C51.0024 21.0411 52.1568 20.4114 52.8914 19.4144L54.4131 20.8836C53.8884 21.6182 53.2062 22.2479 52.4192 22.6152C51.4747 23.1399 50.5302 23.3498 49.5332 23.2973ZM49.2184 12.5407C48.4838 12.4882 47.8017 12.803 47.3294 13.3278C46.8047 13.9574 46.4899 14.7445 46.4374 15.584H51.842V15.3741C51.7895 14.4297 51.5272 13.6951 51.1074 13.2228C50.5827 12.803 49.9005 12.4882 49.2184 12.5407ZM59.3979 10.4943L59.5028 11.9635C60.3948 10.8616 61.7591 10.2319 63.1758 10.2844C65.7994 10.2844 67.1112 11.8061 67.1637 14.797V23.0875H64.3302V14.9544C64.3302 14.1673 64.1728 13.5901 63.8055 13.1703C63.4382 12.803 62.9135 12.5932 62.1264 12.5932C61.0245 12.5407 60.0275 13.1703 59.5553 14.1148V23.035H56.7218V10.4418L59.3979 10.4943ZM76.2937 19.6768C76.2937 19.2046 76.0838 18.7848 75.664 18.5224C75.0344 18.1551 74.2998 17.9452 73.6177 17.8403C72.7781 17.6829 71.991 17.4205 71.204 17.0532C69.7872 16.3711 69.1051 15.3741 69.1051 14.1148C69.1051 13.0654 69.6298 12.016 70.4694 11.3863C71.3614 10.6517 72.5682 10.2844 73.9325 10.2844C75.4542 10.2844 76.661 10.6517 77.553 11.3863C78.445 12.0684 78.9697 13.1703 78.9173 14.2722H76.0838C76.0838 13.7475 75.8739 13.2753 75.4542 12.908C74.9819 12.5407 74.4572 12.3308 73.8275 12.3833C73.3028 12.3833 72.7781 12.4882 72.3059 12.803C71.9386 13.0654 71.7287 13.4852 71.7287 13.9574C71.7287 14.3772 71.9386 14.7445 72.2534 14.9544C72.6207 15.2167 73.3553 15.4266 74.4572 15.689C75.3492 15.8464 76.2412 16.1612 77.0808 16.581C77.658 16.8433 78.1302 17.2631 78.4975 17.7878C78.8123 18.3125 78.9697 18.8897 78.9697 19.5194C78.9697 20.6213 78.445 21.6182 77.553 22.2479C76.6085 22.93 75.4017 23.2973 73.88 23.2973C72.9355 23.2973 71.991 23.1399 71.1515 22.7201C70.4169 22.4053 69.7348 21.8806 69.2625 21.1985C68.8427 20.5688 68.5804 19.8342 68.5804 19.0996H71.3089C71.3089 19.6768 71.5713 20.254 72.0435 20.6213C72.5682 20.9886 73.2504 21.1985 73.88 21.146C74.6146 21.146 75.1918 20.9886 75.5591 20.7262C76.0838 20.5163 76.2937 20.0966 76.2937 19.6768ZM80.5439 16.6859C80.5439 15.5316 80.7538 14.3772 81.2785 13.3802C81.7507 12.4357 82.4329 11.6487 83.3249 11.124C84.2694 10.5992 85.3188 10.2844 86.3682 10.3369C88.0473 10.3369 89.464 10.8616 90.5135 11.9635C91.5629 13.0654 92.1401 14.4821 92.245 16.3186V17.0008C92.245 18.1551 92.0351 19.257 91.5104 20.3065C91.0907 21.2509 90.3561 22.038 89.464 22.5627C88.5196 23.0875 87.4701 23.4023 86.3682 23.3498C84.5842 23.3498 83.1675 22.7726 82.118 21.5658C81.0686 20.4114 80.5439 18.8373 80.4914 16.8433L80.5439 16.6859ZM83.3249 16.9483C83.3249 18.2601 83.5872 19.257 84.112 19.9916C85.0564 21.1985 86.788 21.4608 88.0473 20.5163C88.2572 20.3589 88.4146 20.2015 88.572 19.9916C89.0967 19.257 89.3591 18.1551 89.3591 16.7384C89.3591 15.4791 89.0967 14.4821 88.5196 13.6951C87.6275 12.4882 85.896 12.2259 84.6367 13.1179C84.4268 13.2753 84.2169 13.4852 84.0595 13.6426C83.6397 14.3772 83.3249 15.4791 83.3249 16.9483ZM100.693 13.1179C100.326 13.0654 99.9059 13.0129 99.5386 13.0129C98.2268 13.0129 97.3872 13.4852 96.915 14.4821V23.0875H94.0815V10.4943H96.7576L96.8101 11.911C97.4922 10.8091 98.4367 10.2844 99.6435 10.2844C99.9583 10.2844 100.326 10.3369 100.64 10.4418L100.693 13.1179ZM112.499 15.8989H105.678V23.0875H102.739V6.19163H113.496V8.55285H105.678V13.5901H112.499V15.8989ZM118.113 23.0875H115.28V6.13916H118.113V23.0875ZM120.16 16.6859C120.16 15.5316 120.37 14.3772 120.894 13.3802C121.367 12.4357 122.049 11.6487 122.941 11.124C123.885 10.5992 124.935 10.2844 125.984 10.3369C127.663 10.3369 129.08 10.8616 130.129 11.9635C131.179 13.0654 131.756 14.4821 131.861 16.3186V17.0008C131.861 18.1551 131.651 19.257 131.179 20.3065C130.759 21.2509 130.025 22.038 129.132 22.5627C128.188 23.0875 127.139 23.4023 126.037 23.3498C124.253 23.3498 122.836 22.7726 121.786 21.5658C120.737 20.4114 120.16 18.8373 120.16 16.8433V16.6859ZM122.993 16.9483C122.993 18.2601 123.256 19.257 123.78 19.9916C124.305 20.7262 125.145 21.146 126.037 21.0935C126.929 21.146 127.768 20.7262 128.24 19.9916C128.765 19.257 129.028 18.1551 129.028 16.7384C129.028 15.4791 128.765 14.4821 128.188 13.6951C127.296 12.4882 125.564 12.2259 124.305 13.1179C124.095 13.2753 123.885 13.4852 123.728 13.6426C123.256 14.3772 122.993 15.4791 122.993 16.9483ZM144.612 19.2046L146.605 10.5468H149.334L145.923 23.1399H143.615L140.939 14.4821L138.263 23.1399H135.954L132.491 10.5468H135.272L137.318 19.1521L139.889 10.5468H142.04L144.612 19.2046Z" fill="white"/>
<defs>
<linearGradient id="paint0_linear_68_13767" x1="-1.10156" y1="13.7737" x2="27.8627" y2="13.7737" gradientUnits="userSpaceOnUse">
<stop stop-color="#FF6F00"/>
<stop offset="1" stop-color="#FFA800"/>
</linearGradient>
<linearGradient id="paint1_linear_68_13767" x1="-1.25879" y1="13.7737" x2="27.7055" y2="13.7737" gradientUnits="userSpaceOnUse">
<stop stop-color="#FF6F00"/>
<stop offset="1" stop-color="#FFA800"/>
</linearGradient>
</defs>
</svg>
