<svg version="1.2" xmlns="http://www.w3.org/2000/svg" viewBox="0 0 41 46" width="41" height="46"><style>.a{fill:#fff}</style><path class="a" d="m21.8 12.2l5.3 3c0.2 0.1 0.2 0.5 0 0.6l-6.4 3.6c-0.1 0.1-0.4 0.1-0.6 0l-6.3-3.6c-0.2-0.1-0.2-0.5 0-0.6l5.3-3v-6.1l-13.7 7.9v15.7l5.3-3v-6.1c0-0.3 0.2-0.4 0.4-0.3l6.4 3.7c0.2 0.1 0.3 0.3 0.3 0.5v7.3c0 0.2-0.2 0.4-0.4 0.3l-5.4-3.1-5.3 3 13.7 7.9 13.7-7.9-5.2-3-5.4 3.1c-0.2 0.1-0.4-0.1-0.4-0.3v-7.3c0-0.2 0.1-0.4 0.3-0.5l6.4-3.7c0.1-0.1 0.4 0 0.4 0.3v6.1l5.3 3v-15.7l-13.7-7.9z"/></svg>