<svg version="1.2" xmlns="http://www.w3.org/2000/svg" viewBox="0 0 32 32" width="32" height="32"><style>.a{fill:#fff}</style><path fill-rule="evenodd" class="a" d="m16 28c-6.6 0-12-5.4-12-12 0-6.6 5.4-12 12-12 6.6 0 12 5.4 12 12 0 6.6-5.4 12-12 12zm3.1-5.3c2.9-1.4 3.8-4 4-5-1.1 1.1-2.2 2.2-3 1.5 0 0-0.1-4.1-0.1-5.8 0-2.3 2.2-4 2.2-4-1.2 0.2-2.6 0.7-4.1 2.1q-0.2 0.2-0.4 0.5c-0.7-0.5-1.5-0.4-1.5-0.4 0.4 0.3 0.9 1 0.9 1.6v5.9c0 0-1 0.8-1.7 0.8q-0.3 0-0.5-0.1-0.3-0.1-0.4-0.3-0.1-0.1-0.2-0.3v-7.2c-0.2 0.1-1 0.3-1-1 0-0.7 0.6-1.7 1.6-2.2-1.4 0.2-2.7 0.8-3.7 1.7-0.8 0.7-1.4 1.5-1.9 2.5-0.4 0.9-0.6 2-0.6 3.1 0 0 0.7-2.3 1.6-2.5q0.2-0.1 0.4-0.1 0.2 0.1 0.4 0.2 0.2 0.1 0.3 0.3 0 0.2 0 0.4v5.4c0 0.6-0.3 0.7-0.6 0.7q-0.4 0-0.7-0.1c0.7 0.9 1.6 1.6 2.6 2.1 1 0.5 2.1 0.8 3.2 0.8l2-2 1.2 1.4z"/></svg>