<svg version="1.2" xmlns="http://www.w3.org/2000/svg" viewBox="0 0 145 42" width="145" height="42"><defs><linearGradient id="P" gradientUnits="userSpaceOnUse"/><linearGradient id="g1" x2="1" href="#P" gradientTransform="matrix(-6.422,35.445,-20.928,-3.792,27.952,5.389)"><stop stop-color="#f00"/><stop offset="1" stop-color="#900"/></linearGradient><linearGradient id="g2" x2="1" href="#P" gradientTransform="matrix(-14.972,-28.685,19.895,-10.384,33.4,35.531)"><stop stop-color="#f00"/><stop offset="1" stop-color="#900"/></linearGradient><linearGradient id="g3" x2="1" href="#P" gradientTransform="matrix(17.979,30.908,-35.389,20.586,17.519,4.996)"><stop stop-color="#900" stop-opacity=".65"/><stop offset="1" stop-color="#fe0000" stop-opacity=".65"/></linearGradient><linearGradient id="g4" x2="1" href="#P" gradientTransform="matrix(-6.422,35.445,-39.367,-7.133,27.952,5.389)"><stop stop-color="#f00" stop-opacity=".65"/><stop offset="1" stop-color="#900" stop-opacity=".65"/></linearGradient></defs><style>.a{fill:#fff}.b{fill:url(#g1)}.c{fill:url(#g2)}.d{fill:url(#g3)}.e{fill:url(#g4)}</style><path class="a" d="m69.8 14.7l-4.7 17.5h-2.1l-3.5-11.8q-0.2-0.5-0.2-1-0.2-0.5-0.4-0.9 0-0.5-0.1-0.9-0.1-0.3-0.2-0.5 0 0.2-0.1 0.5 0 0.4-0.1 0.8-0.1 0.5-0.3 1 0 0.5-0.2 1l-3.4 11.8h-2l-4.8-17.5h2.2l2.8 11q0.2 0.5 0.2 1.1 0.2 0.5 0.3 1 0.1 0.5 0.2 1 0.1 0.5 0.2 1 0-0.5 0.1-1 0.1-0.6 0.2-1 0.2-0.6 0.2-1.2 0.2-0.5 0.4-1l3.2-10.9h2l3.3 11q0.2 0.5 0.3 1.1 0.2 0.6 0.3 1 0.1 0.6 0.2 1.1 0.1 0.5 0.2 0.9 0.1-0.7 0.1-1.3 0.2-0.7 0.4-1.4 0.1-0.7 0.3-1.4l2.8-11zm7.6 4.1q1.7 0 2.9 0.8 1.2 0.7 1.8 2.1 0.7 1.3 0.7 3.1v1.2h-9.2q0.1 2.3 1.2 3.6 1.1 1.2 3.2 1.2 1.2 0 2.1-0.2 1-0.3 2-0.8v1.8q-0.9 0.5-1.9 0.6-1 0.3-2.3 0.3-1.9 0-3.4-0.8-1.3-0.7-2.1-2.3-0.8-1.5-0.8-3.6 0-2.2 0.7-3.7 0.7-1.6 2-2.4 1.3-0.9 3.1-0.9zm-0.1 1.7q-1.6 0-2.5 1-0.9 1.1-1.1 2.9h7q-0.1-1.1-0.4-2-0.3-1-1.1-1.4-0.7-0.5-1.9-0.5zm10.8-7v4.7q0 0.8-0.1 1.6 0 0.8 0 1.2h0.1q0.6-0.9 1.5-1.6 1.1-0.5 2.7-0.5 2.5 0 3.9 1.7 1.5 1.6 1.5 5.1 0 2.1-0.7 3.7-0.6 1.5-1.8 2.3-1.3 0.8-3 0.8-1.5 0-2.6-0.6-0.9-0.6-1.5-1.4h-0.1l-0.4 1.7h-1.5v-18.7zm3.9 7q-1.5 0-2.3 0.6-0.9 0.5-1.2 1.7-0.4 1.1-0.4 2.8v0.1q0 2.5 0.8 3.8 0.9 1.3 3.1 1.3 1.8 0 2.7-1.4 0.9-1.2 0.9-3.8 0-2.5-0.8-3.8-1-1.3-2.8-1.3zm21.2 11.7h-2.3l-4.8-7.7-4.8 7.7h-2.1l5.8-9.1-5.4-8.4h2.2l4.4 7 4.4-7h2.2l-5.4 8.3zm7.2-17.5q2.2 0 3.6 0.5 1.4 0.6 2.1 1.7 0.7 1 0.7 2.8 0 1.3-0.6 2.3-0.4 0.9-1.2 1.4-0.8 0.7-1.8 1l4.8 7.8h-2.3l-4.3-7.2h-3.7v7.2h-2v-17.5zm-0.2 1.8h-2.5v6.7h2.8q2.1 0 3.1-0.9 1-0.9 1-2.5 0-1.9-1-2.6-1.1-0.7-3.4-0.7z"/><path fill-rule="evenodd" class="b" d="m20.9 34.2c-0.5-1.1-5.6-13.4-5.6-13.4 0 0-1.2-2.9 3.1-4.9 4.3-2.1 9.6-4.5 9.6-4.5v19.3c0 0-3.1 3.1-4.4 4.3-1.1 1.2-2.3 0.3-2.7-0.8z"/><path fill-rule="evenodd" class="c" d="m35 34.2c0.5-1.1 5.6-13.4 5.6-13.4 0 0 1.2-2.9-3.1-4.9-4.3-2.1-9.5-4.5-9.5-4.5v19.3c0 0 3 3.1 4.3 4.3 1.1 1.2 2.3 0.3 2.7-0.8z"/><path fill-rule="evenodd" class="d" d="m28 11.4l-9-4.4c0 0-1.9-0.8-1.4 1.8l1.2 6.9z"/><path fill-rule="evenodd" class="e" d="m28 11.4l8.9-4.4c0 0 1.9-0.8 1.4 1.8l-1.2 6.9z"/></svg>