<svg version="1.2" xmlns="http://www.w3.org/2000/svg" viewBox="0 0 29 29" width="29" height="29"><defs><linearGradient id="P" gradientUnits="userSpaceOnUse"/><radialGradient id="g1" cx="0" cy="0" r="1" href="#P" gradientTransform="matrix(11.342,0,0,11.342,14.5,14.5)"><stop stop-color="#dc001f"/><stop offset=".64" stop-color="#d5001d"/><stop offset=".82" stop-color="#ae0017"/><stop offset="1" stop-color="#590e0a"/></radialGradient></defs><style>.a{fill:url(#g1)}.b{fill:#fff}</style><path fill-rule="evenodd" class="a" d="m14.5 25.8c-6.3 0-11.3-5-11.3-11.3 0-6.3 5-11.3 11.3-11.3 6.3 0 11.3 5 11.3 11.3 0 6.3-5 11.3-11.3 11.3z"/><path class="b" d="m10.9 21.3c0 0 2.6-2.9 5.7-5.9 3-3 5.6-5.6 5.6-5.6-0.1-2.1-1.6-3.1-3-3.3-0.9-0.2-7.3-0.4-11 0.2q-1 0.1-2.1 0.2c0 0.1-0.3 0.3-0.5 0.6-0.3 0.3-0.5 0.6-0.5 0.6q3.2-0.4 6.3-0.6 3.3-0.1 6.5 0.1c0 0-2.4 2.7-5.4 5.7-3 2.9-5.8 5.7-6 6 0 2.2 1.8 3 2.8 3.2 4.6 0.4 9.2 0.3 13.8-0.5 0 0 0.4-0.4 0.4-0.5 0.1-0.1 0.4-0.6 0.4-0.6q-6.6 0.9-13.1 0.6c0.1-0.1 0.1-0.1 0.1-0.2z"/></svg>