<svg width="97" height="32" viewBox="0 0 97 32" fill="none" xmlns="http://www.w3.org/2000/svg">
<path d="M7.06091 31.674C6.81258 31.674 6.57024 31.6709 6.32386 31.6653C5.81345 31.6587 5.30424 31.6142 4.80039 31.5324C4.33058 31.4514 3.87546 31.3009 3.45005 31.0857C3.02853 30.8723 2.64407 30.5925 2.3114 30.257C1.97392 29.9255 1.69295 29.541 1.47962 29.1187C1.26395 28.6936 1.11469 28.238 1.03704 27.7678C0.953195 27.2625 0.907828 26.7515 0.901337 26.2393C0.896169 26.0674 0.889404 25.495 0.889404 25.495V6.66417C0.889404 6.66417 0.896609 6.10056 0.901378 5.93498C0.907593 5.42361 0.952696 4.91345 1.03629 4.40893C1.11408 3.93737 1.26346 3.48046 1.47925 3.05404C1.69179 2.63203 1.9712 2.24721 2.30665 1.91447C2.64173 1.57858 3.02741 1.29733 3.44965 1.08099C3.87409 0.866504 4.32835 0.717034 4.79721 0.637586C5.30271 0.5549 5.81369 0.510197 6.32586 0.50385L7.06131 0.493896H90.8241L91.5683 0.504249C92.0759 0.510281 92.5822 0.554586 93.0831 0.636787C93.5567 0.717232 94.0157 0.867745 94.4449 1.08338C95.2908 1.51937 95.9791 2.20914 96.4133 3.05602C96.6257 3.47951 96.7727 3.93269 96.8495 4.40017C96.9341 4.90884 96.9815 5.423 96.9912 5.93856C96.9936 6.16942 96.9936 6.41739 96.9936 6.66417C97 6.96986 97 7.26082 97 7.55417V24.6145C97 24.9107 97 25.1997 96.9936 25.491C96.9936 25.7561 96.9936 25.9989 96.9904 26.2489C96.9809 26.7552 96.9343 27.2602 96.8511 27.7598C96.775 28.2334 96.6266 28.6926 96.411 29.1211C96.1961 29.5388 95.9168 29.92 95.5832 30.2507C95.2502 30.588 94.8651 30.8694 94.4426 31.0842C94.0145 31.301 93.5562 31.4521 93.0831 31.5324C92.5792 31.6147 92.07 31.6591 91.5595 31.6653C91.3208 31.6709 91.0708 31.674 90.8281 31.674L89.9446 31.6757L7.06091 31.674Z" fill="black"/>
<path d="M20.3681 16.329C20.3769 15.6486 20.5576 14.9815 20.8934 14.3897C21.2292 13.798 21.7093 13.3008 22.2889 12.9444C21.9207 12.4185 21.4349 11.9857 20.8702 11.6803C20.3055 11.375 19.6774 11.2056 19.0358 11.1855C17.6671 11.0418 16.3402 12.0046 15.6428 12.0046C14.9318 12.0046 13.858 11.1998 12.7016 11.2236C11.9537 11.2477 11.2247 11.4653 10.5858 11.855C9.9469 12.2447 9.41982 12.7932 9.05592 13.4472C7.47959 16.1768 8.65539 20.1882 10.1654 22.3946C10.9209 23.475 11.8038 24.6818 12.9591 24.639C14.0897 24.5921 14.5119 23.918 15.8766 23.918C17.2285 23.918 17.6247 24.639 18.8034 24.6118C20.0166 24.5921 20.7809 23.5266 21.5099 22.436C22.0527 21.6662 22.4704 20.8154 22.7475 19.9151C22.0427 19.6169 21.4412 19.1179 21.0181 18.4802C20.595 17.8425 20.3689 17.0943 20.3681 16.329Z" fill="white"/>
<path d="M18.1414 9.7346C18.8029 8.94046 19.1288 7.91972 19.0499 6.88916C18.0392 6.99531 17.1056 7.47835 16.4352 8.24202C16.1074 8.61509 15.8563 9.04912 15.6963 9.51928C15.5363 9.98945 15.4706 10.4865 15.5029 10.9821C16.0084 10.9873 16.5085 10.8778 16.9655 10.6617C17.4225 10.4456 17.8246 10.1286 18.1414 9.7346Z" fill="white"/>
<path d="M34.6565 21.9043H30.7985L29.872 24.6403H28.2379L31.8922 14.5176H33.5899L37.2442 24.6403H35.5822L34.6565 21.9043ZM31.1981 20.6417H34.2562L32.7487 16.2013H32.7065L31.1981 20.6417Z" fill="white"/>
<path d="M45.1372 20.9503C45.1372 23.2437 43.9097 24.7172 42.0573 24.7172C41.588 24.7418 41.1213 24.6337 40.7106 24.4053C40.3 24.177 39.9619 23.8376 39.7351 23.426H39.7001V27.0815H38.1852V17.2597H39.6516V18.4873H39.6794C39.9166 18.0777 40.2604 17.74 40.6742 17.5103C41.088 17.2805 41.5563 17.1673 42.0294 17.1825C43.9025 17.1825 45.1372 18.6632 45.1372 20.9503ZM43.5801 20.9503C43.5801 19.4561 42.8079 18.4737 41.6298 18.4737C40.4723 18.4737 39.6937 19.4768 39.6937 20.9503C39.6937 22.4373 40.4723 23.4332 41.6298 23.4332C42.8079 23.4332 43.5801 22.458 43.5801 20.9503Z" fill="white"/>
<path d="M53.2593 20.9503C53.2593 23.2437 52.0318 24.7172 50.1793 24.7172C49.7101 24.7418 49.2434 24.6337 48.8327 24.4053C48.422 24.177 48.084 23.8376 47.8572 23.426H47.8222V27.0815H46.3073V17.2597H47.7736V18.4873H47.8015C48.0386 18.0777 48.3824 17.74 48.7962 17.5103C49.21 17.2805 49.6784 17.1673 50.1514 17.1825C52.0246 17.1825 53.2593 18.6632 53.2593 20.9503ZM51.7022 20.9503C51.7022 19.4561 50.93 18.4737 49.7518 18.4737C48.5944 18.4737 47.8158 19.4768 47.8158 20.9503C47.8158 22.4373 48.5944 23.4332 49.7518 23.4332C50.93 23.4332 51.7022 22.458 51.7022 20.9503Z" fill="white"/>
<path d="M58.6264 21.8197C58.7386 22.8236 59.7137 23.4827 61.0461 23.4827C62.3228 23.4827 63.2413 22.8235 63.2413 21.9184C63.2413 21.1327 62.6873 20.6622 61.3756 20.3398L60.0639 20.0238C58.2053 19.5748 57.3425 18.7055 57.3425 17.2949C57.3425 15.5483 58.8644 14.3486 61.0254 14.3486C63.1641 14.3486 64.6303 15.5483 64.6796 17.2949H63.1506C63.059 16.2847 62.2241 15.6749 61.0039 15.6749C59.7837 15.6749 58.9487 16.2918 58.9487 17.1898C58.9487 17.9054 59.482 18.3266 60.7866 18.6489L61.9017 18.9228C63.9784 19.414 64.8412 20.2482 64.8412 21.7289C64.8412 23.6227 63.3328 24.8089 60.9338 24.8089C58.6892 24.8089 57.1737 23.6506 57.0758 21.8196L58.6264 21.8197Z" fill="white"/>
<path d="M68.1096 15.5132V17.2597H69.513V18.4594H68.1096V22.5281C68.1096 23.1602 68.3906 23.4547 69.0075 23.4547C69.1741 23.4518 69.3405 23.4401 69.5059 23.4196V24.6121C69.2285 24.664 68.9465 24.6874 68.6644 24.6822C67.1702 24.6822 66.5875 24.121 66.5875 22.6897V18.4594H65.5144V17.2597H66.5875V15.5132H68.1096Z" fill="white"/>
<path d="M70.3248 20.9505C70.3248 18.6284 71.6925 17.1692 73.8251 17.1692C75.9649 17.1692 77.3262 18.6283 77.3262 20.9505C77.3262 23.279 75.9721 24.7318 73.8251 24.7318C71.6789 24.7318 70.3248 23.279 70.3248 20.9505ZM75.7826 20.9505C75.7826 19.3576 75.0526 18.4174 73.8251 18.4174C72.5976 18.4174 71.8684 19.3647 71.8684 20.9505C71.8684 22.5498 72.5976 23.4828 73.8251 23.4828C75.0526 23.4828 75.7826 22.5498 75.7826 20.9505Z" fill="white"/>
<path d="M78.5759 17.2599H80.0208V18.5161H80.0558C80.1536 18.1238 80.3834 17.777 80.7067 17.5342C81.03 17.2914 81.427 17.1673 81.8311 17.1827C82.0056 17.1821 82.1797 17.201 82.3501 17.2392V18.6562C82.1297 18.5888 81.8998 18.5579 81.6694 18.5646C81.4493 18.5557 81.2299 18.5945 81.0263 18.6784C80.8226 18.7623 80.6395 18.8892 80.4895 19.0505C80.3396 19.2118 80.2263 19.4037 80.1575 19.6129C80.0886 19.8222 80.0659 20.0438 80.0908 20.2626V24.6402H78.5759L78.5759 17.2599Z" fill="white"/>
<path d="M89.3336 22.4726C89.1298 23.8123 87.8251 24.7318 86.1557 24.7318C84.0088 24.7318 82.6761 23.2933 82.6761 20.9855C82.6761 18.6706 84.0159 17.1692 86.092 17.1692C88.1339 17.1692 89.418 18.5718 89.418 20.8096V21.3286H84.2054V21.4202C84.1813 21.6918 84.2153 21.9654 84.3051 22.2229C84.395 22.4803 84.5385 22.7157 84.7263 22.9134C84.9141 23.1112 85.1418 23.2667 85.3943 23.3696C85.6468 23.4726 85.9183 23.5206 86.1908 23.5106C86.5488 23.5442 86.908 23.4612 87.2151 23.2742C87.5222 23.0872 87.7607 22.806 87.8951 22.4725L89.3336 22.4726ZM84.2125 20.2698H87.9023C87.9159 20.0256 87.8789 19.7812 87.7935 19.552C87.7082 19.3228 87.5764 19.1136 87.4064 18.9378C87.2365 18.7619 87.032 18.623 86.8058 18.5299C86.5796 18.4368 86.3366 18.3915 86.092 18.3967C85.8454 18.3952 85.6008 18.4426 85.3725 18.5362C85.1442 18.6297 84.9367 18.7675 84.762 18.9417C84.5873 19.1158 84.4488 19.3229 84.3544 19.5508C84.2601 19.7788 84.2119 20.0231 84.2125 20.2698Z" fill="white"/>
<path d="M31.0101 6.89761C31.3277 6.87482 31.6464 6.9228 31.9432 7.03809C32.24 7.15338 32.5075 7.33311 32.7265 7.56431C32.9454 7.79551 33.1103 8.07242 33.2093 8.37507C33.3082 8.67772 33.3388 8.99856 33.2988 9.31445C33.2988 10.8684 32.4589 11.7616 31.0101 11.7616H29.2532V6.89761H31.0101ZM30.0086 11.0737H30.9257C31.1526 11.0873 31.3798 11.0501 31.5905 10.9648C31.8013 10.8795 31.9903 10.7483 32.144 10.5807C32.2977 10.4132 32.412 10.2134 32.4787 9.99611C32.5455 9.77877 32.5629 9.54929 32.5298 9.32436C32.5605 9.10033 32.5413 8.87227 32.4735 8.65652C32.4058 8.44078 32.2912 8.24269 32.1378 8.07645C31.9845 7.91021 31.7964 7.77994 31.5868 7.69497C31.3772 7.61 31.1515 7.57244 30.9257 7.58497H30.0086V11.0737Z" fill="white"/>
<path d="M34.1517 9.92456C34.1287 9.68334 34.1563 9.43995 34.2328 9.21002C34.3093 8.98009 34.433 8.76868 34.5959 8.58936C34.7589 8.41003 34.9576 8.26676 35.1792 8.16871C35.4008 8.07067 35.6405 8.02002 35.8828 8.02002C36.1251 8.02002 36.3648 8.07067 36.5864 8.16871C36.808 8.26676 37.0066 8.41003 37.1696 8.58936C37.3326 8.76868 37.4563 8.98009 37.5328 9.21002C37.6093 9.43995 37.6369 9.68334 37.6138 9.92456C37.6373 10.166 37.6101 10.4097 37.5338 10.6401C37.4575 10.8704 37.3338 11.0822 37.1708 11.2618C37.0078 11.4415 36.809 11.5851 36.5871 11.6833C36.3653 11.7816 36.1254 11.8324 35.8828 11.8324C35.6402 11.8324 35.4002 11.7816 35.1784 11.6833C34.9566 11.5851 34.7578 11.4415 34.5947 11.2618C34.4317 11.0822 34.3081 10.8704 34.2318 10.6401C34.1555 10.4097 34.1282 10.166 34.1517 9.92456ZM36.8687 9.92456C36.8687 9.1289 36.5113 8.6636 35.884 8.6636C35.2543 8.6636 34.9001 9.1289 34.9001 9.92457C34.9001 10.7266 35.2543 11.1883 35.884 11.1883C36.5113 11.1883 36.8687 10.7234 36.8687 9.92456Z" fill="white"/>
<path d="M42.2157 11.7615H41.4643L40.7056 9.05803H40.6483L39.8928 11.7615H39.1485L38.1367 8.09082H38.8715L39.529 10.8917H39.5832L40.3378 8.09082H41.0328L41.7875 10.8917H41.8448L42.4991 8.09082H43.2236L42.2157 11.7615Z" fill="white"/>
<path d="M44.073 8.09083H44.7703V8.67394H44.8245C44.9163 8.46451 45.0712 8.28894 45.2676 8.17172C45.4639 8.05449 45.6919 8.00144 45.9199 8.01997C46.0985 8.00654 46.2778 8.03347 46.4446 8.09876C46.6114 8.16406 46.7613 8.26604 46.8833 8.39715C47.0054 8.52827 47.0963 8.68515 47.1495 8.85619C47.2026 9.02723 47.2166 9.20804 47.1904 9.38521V11.7614H46.466V9.56713C46.466 8.97725 46.2096 8.68389 45.6739 8.68389C45.5526 8.67824 45.4316 8.69888 45.319 8.74439C45.2065 8.7899 45.1051 8.85921 45.0219 8.94756C44.9386 9.03592 44.8755 9.14122 44.8367 9.25627C44.798 9.37131 44.7846 9.49338 44.7974 9.61409V11.7615H44.073L44.073 8.09083Z" fill="white"/>
<path d="M48.3438 6.65796H49.0682V11.7615H48.3438V6.65796Z" fill="white"/>
<path d="M50.0756 9.92463C50.0525 9.68339 50.0801 9.43999 50.1566 9.21005C50.2331 8.98011 50.3569 8.76869 50.5199 8.58937C50.6829 8.41004 50.8815 8.26676 51.1032 8.16871C51.3248 8.07067 51.5645 8.02002 51.8068 8.02002C52.0491 8.02002 52.2888 8.07067 52.5104 8.16871C52.732 8.26676 52.9307 8.41004 53.0937 8.58937C53.2567 8.76869 53.3804 8.98011 53.457 9.21005C53.5335 9.43999 53.5611 9.68339 53.538 9.92463C53.5615 10.1661 53.5342 10.4098 53.4579 10.6401C53.3816 10.8704 53.2579 11.0822 53.0949 11.2619C52.9318 11.4416 52.733 11.5851 52.5112 11.6834C52.2893 11.7816 52.0494 11.8324 51.8068 11.8324C51.5642 11.8324 51.3242 11.7816 51.1024 11.6834C50.8806 11.5851 50.6817 11.4416 50.5187 11.2619C50.3556 11.0822 50.232 10.8704 50.1557 10.6401C50.0794 10.4098 50.0521 10.1661 50.0756 9.92463ZM52.7925 9.92463C52.7925 9.12897 52.4351 8.66367 51.8078 8.66367C51.1781 8.66367 50.8239 9.12897 50.8239 9.92464C50.8239 10.7267 51.1781 11.1884 51.8078 11.1884C52.4351 11.1884 52.7925 10.7235 52.7925 9.92463Z" fill="white"/>
<path d="M54.2998 10.7234C54.2998 10.0627 54.7918 9.6818 55.665 9.62766L56.6593 9.57035V9.25352C56.6593 8.86583 56.403 8.64692 55.9078 8.64692C55.5035 8.64692 55.2232 8.79538 55.1428 9.0549H54.4415C54.5155 8.42442 55.1086 8.02002 55.9413 8.02002C56.8615 8.02002 57.3806 8.47814 57.3806 9.25352V11.7615H56.6832V11.2457H56.6259C56.5096 11.4307 56.3462 11.5815 56.1525 11.6828C55.9588 11.784 55.7417 11.8321 55.5234 11.822C55.3693 11.838 55.2135 11.8216 55.0662 11.7737C54.9188 11.7259 54.7831 11.6477 54.6678 11.5442C54.5526 11.4407 54.4603 11.3142 54.3969 11.1728C54.3335 11.0314 54.3004 10.8784 54.2998 10.7234ZM56.6593 10.4098V10.1029L55.763 10.1602C55.2575 10.1941 55.0282 10.366 55.0282 10.6896C55.0282 11.02 55.3148 11.2122 55.7089 11.2122C55.8243 11.2239 55.941 11.2122 56.0518 11.1779C56.1627 11.1436 56.2655 11.0874 56.3542 11.0125C56.4429 10.9376 56.5156 10.8457 56.568 10.7421C56.6204 10.6386 56.6515 10.5256 56.6593 10.4098Z" fill="white"/>
<path d="M58.3319 9.92461C58.3319 8.76475 58.9282 8.02998 59.8556 8.02998C60.085 8.01941 60.3126 8.07436 60.512 8.1884C60.7113 8.30243 60.8741 8.47085 60.9812 8.67397H61.0353V6.65796H61.7598V11.7615H61.0656V11.1816H61.0083C60.8928 11.3833 60.7244 11.5496 60.5212 11.6625C60.3181 11.7754 60.0879 11.8306 59.8556 11.822C58.9218 11.822 58.3319 11.0873 58.3319 9.92461ZM59.0802 9.92461C59.0802 10.7032 59.4472 11.1716 60.061 11.1716C60.6715 11.1716 61.0489 10.6964 61.0489 9.9278C61.0489 9.16278 60.6676 8.68076 60.061 8.68076C59.4512 8.68076 59.0802 9.15243 59.0802 9.92461Z" fill="white"/>
<path d="M64.7571 9.92456C64.734 9.68334 64.7616 9.43995 64.8381 9.21002C64.9146 8.98009 65.0383 8.76868 65.2013 8.58936C65.3643 8.41003 65.5629 8.26676 65.7845 8.16871C66.0061 8.07067 66.2458 8.02002 66.4881 8.02002C66.7305 8.02002 66.9701 8.07067 67.1917 8.16871C67.4133 8.26676 67.612 8.41003 67.775 8.58936C67.9379 8.76868 68.0616 8.98009 68.1381 9.21002C68.2146 9.43995 68.2422 9.68334 68.2192 9.92456C68.2427 10.166 68.2154 10.4097 68.1391 10.6401C68.0628 10.8704 67.9392 11.0822 67.7762 11.2618C67.6131 11.4415 67.4143 11.5851 67.1925 11.6833C66.9707 11.7816 66.7307 11.8324 66.4881 11.8324C66.2455 11.8324 66.0056 11.7816 65.7838 11.6833C65.5619 11.5851 65.3631 11.4415 65.2001 11.2618C65.0371 11.0822 64.9134 10.8704 64.8371 10.6401C64.7608 10.4097 64.7336 10.166 64.7571 9.92456ZM67.474 9.92456C67.474 9.1289 67.1166 8.6636 66.4893 8.6636C65.8596 8.6636 65.5054 9.1289 65.5054 9.92457C65.5054 10.7266 65.8597 11.1883 66.4893 11.1883C67.1166 11.1883 67.474 10.7234 67.474 9.92456Z" fill="white"/>
<path d="M69.1904 8.09107H69.8878V8.67418H69.9419C70.0338 8.46475 70.1886 8.28919 70.385 8.17196C70.5813 8.05473 70.8094 8.00169 71.0373 8.02021C71.2159 8.00679 71.3952 8.03372 71.562 8.09901C71.7288 8.1643 71.8788 8.26628 72.0008 8.39739C72.1228 8.52851 72.2137 8.6854 72.2669 8.85644C72.32 9.02747 72.334 9.20828 72.3078 9.38546V11.7617H71.5834V9.56737C71.5834 8.97749 71.3271 8.68414 70.7913 8.68414C70.6701 8.67849 70.549 8.69913 70.4365 8.74464C70.3239 8.79015 70.2226 8.85946 70.1393 8.94781C70.0561 9.03616 69.9929 9.14147 69.9542 9.25651C69.9154 9.37156 69.902 9.49362 69.9148 9.61433V11.7617H69.1904V8.09107Z" fill="white"/>
<path d="M76.4007 7.177V8.1076H77.196V8.71778H76.4007V10.6052C76.4007 10.9897 76.5591 11.1581 76.9197 11.1581C77.0121 11.1578 77.1043 11.1522 77.196 11.1414V11.7448C77.0659 11.7681 76.9341 11.7805 76.8019 11.7818C75.9963 11.7818 75.6755 11.4984 75.6755 10.7907V8.71775H75.0928V8.10756H75.6755V7.177H76.4007Z" fill="white"/>
<path d="M78.1838 6.65796H78.9019V8.68076H78.9592C79.0555 8.46937 79.2146 8.29281 79.4149 8.17514C79.6152 8.05747 79.8469 8.00442 80.0784 8.02321C80.2561 8.01354 80.4337 8.0432 80.5986 8.11008C80.7635 8.17696 80.9116 8.2794 81.0323 8.41011C81.1531 8.54081 81.2435 8.69655 81.2971 8.86621C81.3507 9.03588 81.3663 9.21529 81.3426 9.39164V11.7615H80.6174V9.57035C80.6174 8.98405 80.3443 8.68711 79.8325 8.68711C79.708 8.6769 79.5828 8.69402 79.4656 8.73727C79.3484 8.78051 79.242 8.84885 79.154 8.93749C79.066 9.02613 78.9984 9.13293 78.9559 9.25043C78.9135 9.36792 78.8972 9.49327 78.9083 9.61771V11.7615H78.1839L78.1838 6.65796Z" fill="white"/>
<path d="M85.5663 10.7705C85.4679 11.1059 85.2547 11.3961 84.9639 11.5903C84.6731 11.7844 84.3234 11.8701 83.9758 11.8324C83.734 11.8388 83.4936 11.7925 83.2715 11.6967C83.0494 11.6009 82.8507 11.4579 82.6894 11.2776C82.5281 11.0973 82.4079 10.8841 82.3372 10.6528C82.2666 10.4214 82.2471 10.1774 82.2802 9.93779C82.248 9.69741 82.2678 9.45292 82.3383 9.22086C82.4088 8.98881 82.5283 8.77461 82.6888 8.59277C82.8493 8.41092 83.047 8.26568 83.2685 8.16688C83.49 8.06808 83.7301 8.01801 83.9726 8.02008C84.9939 8.02008 85.6101 8.71786 85.6101 9.87051V10.1233H83.0181V10.1639C83.0068 10.2986 83.0237 10.4342 83.0678 10.5619C83.112 10.6897 83.1823 10.8069 83.2743 10.9059C83.3664 11.0049 83.4781 11.0836 83.6023 11.1369C83.7265 11.1902 83.8605 11.2169 83.9957 11.2154C84.169 11.2362 84.3445 11.205 84.5 11.1258C84.6555 11.0466 84.784 10.9229 84.869 10.7704L85.5663 10.7705ZM83.0181 9.58753H84.8721C84.8813 9.46433 84.8645 9.34059 84.823 9.22425C84.7814 9.10791 84.716 9.00155 84.6309 8.912C84.5458 8.82244 84.443 8.75168 84.3289 8.70426C84.2148 8.65684 84.0921 8.6338 83.9686 8.63663C83.8433 8.63506 83.719 8.65858 83.6029 8.70582C83.4869 8.75305 83.3814 8.82304 83.2929 8.91166C83.2043 9.00028 83.1343 9.10574 83.0872 9.22181C83.04 9.33789 83.0165 9.46224 83.0181 9.58753Z" fill="white"/>
</svg>
