<svg width="45" height="44" viewBox="0 0 45 44" fill="none" xmlns="http://www.w3.org/2000/svg">
<g clip-path="url(#clip0_234_3991)">
<mask id="mask0_234_3991" style="mask-type:luminance" maskUnits="userSpaceOnUse" x="3" y="7" width="37" height="29">
<path d="M39.9953 7.67407H3.66968V35.8136H39.9953V7.67407Z" fill="white"/>
</mask>
<g mask="url(#mask0_234_3991)">
<path d="M34.4208 10.18C32.1055 9.11761 29.6228 8.33492 27.0269 7.88665C26.9796 7.87799 26.9324 7.89962 26.908 7.94286C26.5887 8.51077 26.235 9.25166 25.9873 9.83399C23.1953 9.41599 20.4176 9.41599 17.6828 9.83399C17.435 9.23871 17.0685 8.51077 16.7478 7.94286C16.7234 7.90106 16.6762 7.87944 16.6289 7.88665C14.0344 8.33349 11.5517 9.11618 9.23496 10.18C9.21491 10.1886 9.19772 10.203 9.18631 10.2218C4.477 17.2574 3.18693 24.12 3.81979 30.8976C3.82266 30.9308 3.84127 30.9625 3.86704 30.9826C6.97411 33.2644 9.98383 34.6496 12.9377 35.5678C12.9849 35.5822 13.035 35.5649 13.0651 35.526C13.7638 34.5718 14.3867 33.5657 14.9207 32.5077C14.9522 32.4457 14.9222 32.3722 14.8578 32.3477C13.8698 31.9729 12.9291 31.516 12.0242 30.9971C11.9526 30.9553 11.9468 30.8529 12.0127 30.8039C12.2031 30.6612 12.3936 30.5127 12.5754 30.3628C12.6083 30.3354 12.6542 30.3297 12.6929 30.3469C18.6378 33.0612 25.0738 33.0612 30.9486 30.3469C30.9873 30.3282 31.0331 30.334 31.0675 30.3614C31.2493 30.5113 31.4398 30.6612 31.6316 30.8039C31.6975 30.8529 31.6932 30.9553 31.6216 30.9971C30.7167 31.526 29.776 31.9729 28.7866 32.3462C28.7222 32.3707 28.6935 32.4457 28.725 32.5077C29.2705 33.5642 29.8934 34.5703 30.5792 35.5246C30.6079 35.5649 30.6594 35.5822 30.7067 35.5678C33.6748 34.6496 36.6845 33.2644 39.7916 30.9826C39.8188 30.9625 39.836 30.9322 39.8389 30.899C40.5963 23.0634 38.5702 16.257 34.468 10.2232C34.458 10.203 34.4409 10.1886 34.4208 10.18ZM15.8085 26.7708C14.0187 26.7708 12.5439 25.1276 12.5439 23.1096C12.5439 21.0915 13.9901 19.4484 15.8085 19.4484C17.6412 19.4484 19.1017 21.106 19.0731 23.1096C19.0731 25.1276 17.6269 26.7708 15.8085 26.7708ZM27.8788 26.7708C26.089 26.7708 24.6142 25.1276 24.6142 23.1096C24.6142 21.0915 26.0604 19.4484 27.8788 19.4484C29.7115 19.4484 31.172 21.106 31.1434 23.1096C31.1434 25.1276 29.7115 26.7708 27.8788 26.7708Z" fill="white"/>
</g>
</g>
<defs>
<clipPath id="clip0_234_3991">
<rect width="44" height="44" fill="white" transform="translate(0.0905762)"/>
</clipPath>
</defs>
</svg>
