<svg width="17" height="16" viewBox="0 0 17 16" fill="none" xmlns="http://www.w3.org/2000/svg">
<path d="M12.5 13.8333H4.5C2.888 13.8333 2 12.9453 2 11.3333V5.33325C2 3.72125 2.888 2.83325 4.5 2.83325H12.5C14.112 2.83325 15 3.72125 15 5.33325V11.3333C15 12.9453 14.112 13.8333 12.5 13.8333ZM4.5 3.83325C3.44867 3.83325 3 4.28192 3 5.33325V11.3333C3 12.3846 3.44867 12.8333 4.5 12.8333H12.5C13.5513 12.8333 14 12.3846 14 11.3333V5.33325C14 4.28192 13.5513 3.83325 12.5 3.83325H4.5ZM9.18604 8.78592L12.4606 6.40458C12.6839 6.24258 12.7333 5.92926 12.5706 5.70592C12.4086 5.48326 12.0967 5.43258 11.8721 5.59592L8.59733 7.97725C8.53866 8.01992 8.46069 8.01992 8.40202 7.97725L5.12728 5.59592C4.90195 5.43258 4.59071 5.48392 4.42871 5.70592C4.26604 5.92926 4.3154 6.24192 4.53874 6.40458L7.81331 8.78658C8.01865 8.93591 8.25935 9.00992 8.49935 9.00992C8.73935 9.00992 8.98137 8.93525 9.18604 8.78592Z" fill="white"/>
</svg>
