<svg width="16" height="16" viewBox="0 0 16 16" fill="none" xmlns="http://www.w3.org/2000/svg">
<path d="M12 13.8333H4C2.388 13.8333 1.5 12.9453 1.5 11.3333V5.33334C1.5 3.72134 2.388 2.83334 4 2.83334H12C13.612 2.83334 14.5 3.72134 14.5 5.33334V11.3333C14.5 12.9453 13.612 13.8333 12 13.8333ZM4 3.83334C2.94867 3.83334 2.5 4.28201 2.5 5.33334V11.3333C2.5 12.3847 2.94867 12.8333 4 12.8333H12C13.0513 12.8333 13.5 12.3847 13.5 11.3333V5.33334C13.5 4.28201 13.0513 3.83334 12 3.83334H4ZM8.68604 8.78601L11.9606 6.40467C12.1839 6.24267 12.2333 5.92935 12.0706 5.70601C11.9086 5.48335 11.5967 5.43268 11.3721 5.59601L8.09733 7.97735C8.03866 8.02001 7.96069 8.02001 7.90202 7.97735L4.62728 5.59601C4.40195 5.43268 4.09071 5.48401 3.92871 5.70601C3.76604 5.92935 3.8154 6.24201 4.03874 6.40467L7.31331 8.78667C7.51865 8.93601 7.75935 9.01001 7.99935 9.01001C8.23935 9.01001 8.48137 8.93534 8.68604 8.78601Z" fill="#232526"/>
</svg>
