<svg width="44" height="44" viewBox="0 0 44 44" fill="none" xmlns="http://www.w3.org/2000/svg">
<g clip-path="url(#clip0_234_3998)">
<path d="M24.6756 21.5906C24.6756 28.2972 19.2239 33.7353 12.4957 33.7353C10.8987 33.7374 9.31696 33.425 7.84071 32.8158C6.36446 32.2066 5.02266 31.3126 3.89191 30.1849C2.76116 29.0572 1.8636 27.7177 1.25049 26.2431C0.637385 24.7685 0.320729 23.1876 0.318604 21.5906C0.318604 14.8813 5.77024 9.44582 12.4957 9.44582C14.093 9.44333 15.675 9.75552 17.1516 10.3645C18.6281 10.9736 19.9703 11.8675 21.1013 12.9953C22.2323 14.123 23.1301 15.4626 23.7434 16.9374C24.3567 18.4122 24.6734 19.9933 24.6756 21.5906ZM38.0348 21.5906C38.0348 27.9058 35.309 33.0228 31.9462 33.0228C28.5835 33.0228 25.8577 27.9031 25.8577 21.5906C25.8577 15.2753 28.5835 10.1583 31.9462 10.1583C35.309 10.1583 38.0348 15.278 38.0348 21.5906ZM43.4999 21.5906C43.4999 27.2473 42.5418 31.8326 41.357 31.8326C40.175 31.8326 39.2169 27.2446 39.2169 21.5906C39.2169 15.9338 40.175 11.3485 41.3597 11.3485C42.5418 11.3485 43.4999 15.9338 43.4999 21.5906Z" fill="white"/>
</g>
<defs>
<clipPath id="clip0_234_3998">
<rect width="43.1813" height="43.1813" fill="white" transform="translate(0.318604)"/>
</clipPath>
</defs>
</svg>
