<svg width="93" height="34" viewBox="0 0 93 34" fill="none" xmlns="http://www.w3.org/2000/svg">
<path d="M9.40882 6.95591C6.31384 7.30761 3.65849 8.93131 1.99963 11.4811C1.36657 12.4483 0.821432 13.7965 0.575241 15.0099C0.422836 15.766 0.422836 18.0052 0.575241 18.7614C1.20244 21.8622 3.15439 24.4179 5.92111 25.7896C7.08173 26.364 8.15442 26.6747 9.47916 26.8153C9.84845 26.8564 12.4921 26.8798 16.9646 26.8798C22.8028 26.8798 23.9869 26.8681 24.573 26.7919C27.0056 26.4754 28.9869 25.4965 30.6282 23.7907C31.3785 23.0111 31.8591 22.3429 32.3281 21.4284C33.0842 19.9454 33.4008 18.6031 33.4008 16.8856C33.4008 15.1682 33.0842 13.8258 32.3281 12.3428C31.8591 11.4284 31.3785 10.7602 30.6282 9.98055C28.9869 8.27479 27.0056 7.29589 24.573 6.97936C23.9869 6.90316 22.8263 6.89143 16.8649 6.8973C13.0079 6.90316 9.64915 6.9266 9.40882 6.95591ZM24.1744 13.7086C25.3585 14.031 26.3257 14.963 26.6129 16.065C26.7243 16.5105 26.7243 17.2608 26.6129 17.7063C26.3198 18.8259 25.3468 19.7579 24.1451 20.0627C23.77 20.1623 23.2483 20.1682 16.9118 20.1682C10.5401 20.1682 10.0595 20.1623 9.70191 20.0627C8.53543 19.7461 7.73237 19.0486 7.31619 17.9935C7.17551 17.6301 7.15793 17.5128 7.15793 16.8856C7.15793 16.2584 7.17551 16.1412 7.31619 15.7778C7.77927 14.5996 8.7699 13.8317 10.0829 13.6382C10.2764 13.6089 13.4417 13.5914 17.117 13.5972C23.2483 13.6089 23.8286 13.6148 24.1744 13.7086ZM71.4842 14.7168V21.3112H73.5358V8.12239H71.4842V14.7168ZM88.4245 12.4366C87.4691 12.6476 86.707 13.2045 86.326 13.9782C86.115 14.4003 86.1092 14.4413 86.1092 15.0333C86.1092 15.5843 86.1267 15.6898 86.2674 15.9947C86.6133 16.7274 87.3342 17.1904 88.6062 17.5011C90.2475 17.8997 90.6168 18.0462 90.8337 18.3979C91.203 19.0076 90.6227 19.5996 89.591 19.6582C88.7704 19.7051 87.8677 19.4531 87.1467 18.9841C86.965 18.861 86.7832 18.7438 86.7422 18.7145C86.6953 18.6852 86.496 18.9079 86.1443 19.371C85.8512 19.7579 85.605 20.0978 85.5992 20.1272C85.5464 20.3264 87.0529 21.1529 87.8677 21.3816C88.5007 21.5515 90.0072 21.5691 90.5934 21.4109C91.5488 21.1529 92.2581 20.6137 92.6274 19.8575C92.8442 19.4179 92.8501 19.4003 92.8501 18.7321C92.8501 18.0873 92.8442 18.0404 92.6567 17.6652C92.2463 16.827 91.4785 16.3639 89.8196 15.9478C89.251 15.8071 88.6824 15.6371 88.5535 15.5726C88.0552 15.3147 87.9321 14.9102 88.2487 14.5468C88.4773 14.2889 88.8583 14.1599 89.3976 14.1599C89.9837 14.1599 90.353 14.2479 90.9626 14.5292C91.2616 14.664 91.4961 14.7402 91.5254 14.7109C91.6895 14.5234 92.4691 13.4038 92.4691 13.351C92.4691 13.2514 91.836 12.8821 91.3554 12.7004C90.4527 12.3487 89.2979 12.249 88.4245 12.4366ZM55.4056 12.6125C53.7115 12.9876 52.592 14.072 52.1347 15.7719C52.0292 16.1412 52.0058 16.405 52.0058 17.0322C51.9999 17.9525 52.0937 18.3921 52.4337 19.1131C52.8616 20.0334 53.4595 20.6488 54.3387 21.0767C55.0832 21.4402 55.4407 21.5105 56.4196 21.5164C57.422 21.5164 57.7737 21.4402 58.5592 21.0533C59.075 20.7954 59.7022 20.3147 59.7022 20.1799C59.7022 20.1389 59.3915 19.7989 59.0105 19.4179L58.313 18.7203L57.973 18.9607C56.8417 19.752 55.2063 19.5293 54.5029 18.48C54.1922 18.0169 54.0632 17.5949 54.0574 17.0322C54.0457 15.895 54.6025 15.0685 55.599 14.7402C56.2966 14.5058 57.252 14.6113 57.8616 14.9864C57.9613 15.0451 58.0726 15.0978 58.102 15.0978C58.1664 15.0978 59.3505 13.6031 59.3505 13.5269C59.3505 13.3862 58.2544 12.8176 57.6799 12.6593C57.1758 12.5245 55.9155 12.4952 55.4056 12.6125ZM45.0011 12.6887C44.7666 12.7473 44.3445 12.9114 44.0632 13.0462C43.647 13.2514 43.4536 13.3979 43.0257 13.8317C42.6857 14.1717 42.4278 14.4999 42.3047 14.7344C41.5309 16.1998 41.5309 17.8645 42.3047 19.33C42.4278 19.5644 42.6857 19.8927 43.0257 20.2327C43.4536 20.6664 43.647 20.8071 44.0515 21.0064C44.749 21.3522 45.3293 21.4871 46.1148 21.4871C46.9237 21.4871 47.4512 21.3698 48.1253 21.0474C48.9929 20.6313 49.6318 19.9923 50.0597 19.1131C50.4231 18.3804 50.5228 17.9232 50.5228 17.0322C50.5228 16.1412 50.4231 15.684 50.0597 14.9513C49.6318 14.0662 49.0046 13.439 48.1253 13.0169C47.8381 12.8762 47.4102 12.7238 47.1757 12.6711C46.6013 12.5421 45.5579 12.5538 45.0011 12.6887ZM47.1992 14.8633C48.9518 15.6781 48.9284 18.3862 47.1699 19.2186C46.8006 19.3944 46.7361 19.4062 46.1324 19.4062C45.5345 19.4062 45.4583 19.3944 45.1066 19.2244C43.8991 18.65 43.4184 17.1201 44.0456 15.8716C44.6142 14.7461 46.0034 14.3006 47.1992 14.8633ZM60.9507 15.5492C60.9683 17.9642 60.9859 18.4097 61.0738 18.7614C61.4197 20.1447 62.3869 21.1061 63.7233 21.405C64.3329 21.5398 65.3763 21.4929 65.9156 21.3112C66.3611 21.1588 66.748 20.9712 67.0235 20.7602C67.1348 20.6782 67.2462 20.6254 67.2697 20.643C67.299 20.6606 67.3224 20.8188 67.3224 20.9947V21.3112H69.1395V12.7531H67.0879V15.0802C67.0879 16.3757 67.0586 17.5832 67.0293 17.7942C66.8476 18.9314 66.0856 19.5879 64.9601 19.5762C64.5615 19.5703 64.456 19.5468 64.1161 19.371C63.4713 19.0427 63.1547 18.5035 63.0434 17.5128C63.0141 17.2315 62.9847 16.0474 62.9847 14.8751V12.7531H60.9214L60.9507 15.5492ZM75.7222 15.344C75.7398 16.7977 75.7867 18.1283 75.8219 18.3745C76.0622 19.9454 76.9825 21.0005 78.4362 21.3698C79.5675 21.6629 80.9743 21.4109 81.8125 20.7661L82.088 20.5551L82.1232 20.9361L82.1642 21.3112H83.9696V12.7531H81.918V14.8751C81.918 17.8997 81.8536 18.3511 81.3436 18.9138C80.8395 19.4765 80.0599 19.711 79.3389 19.5293C78.6589 19.3534 78.2134 18.9255 77.979 18.2162C77.8559 17.8411 77.85 17.718 77.8266 15.2854L77.809 12.7531H75.687L75.7222 15.344Z" fill="white"/>
</svg>
