<svg width="44" height="44" viewBox="0 0 44 44" fill="none" xmlns="http://www.w3.org/2000/svg">
<path fill-rule="evenodd" clip-rule="evenodd" d="M33.9363 35.6068V35.6032L33.9687 35.5258L39.3646 8.32157V8.2352C39.3646 7.5569 39.1127 6.96495 38.5693 6.61051C38.0925 6.29924 37.5438 6.27765 37.1587 6.30644C36.8003 6.33885 36.4467 6.41127 36.1044 6.52235C35.9584 6.5694 35.8144 6.62222 35.6726 6.68068L35.6492 6.68967L5.5662 18.4908L5.55721 18.4944C5.46575 18.5256 5.37623 18.5622 5.28912 18.6041C5.07517 18.7002 4.8699 18.8146 4.67559 18.946C4.28876 19.2123 3.55287 19.8384 3.67702 20.8316C3.77958 21.6556 4.34633 22.1774 4.72956 22.4491C4.95577 22.6076 5.19897 22.7403 5.45465 22.8449L5.51223 22.8701L5.53022 22.8755L5.54281 22.8809L10.8073 24.6531C10.7893 24.9824 10.8217 25.3188 10.9099 25.6517L13.5458 35.6535C13.6897 36.1987 14.0009 36.6851 14.4355 37.0444C14.8701 37.4037 15.4063 37.6179 15.9689 37.6568C16.5314 37.6957 17.0921 37.5574 17.572 37.2613C18.0519 36.9653 18.4271 36.5264 18.6447 36.0062L22.7614 31.6053L29.8305 37.0245L29.9313 37.0677C30.5736 37.3484 31.1727 37.4366 31.7215 37.3628C32.2703 37.2872 32.7057 37.0569 33.0331 36.796C33.4119 36.489 33.7137 36.0978 33.9147 35.6535L33.9291 35.623L33.9345 35.6122L33.9363 35.6068ZM13.5188 24.9644C13.4896 24.8534 13.4965 24.736 13.5386 24.6292C13.5806 24.5225 13.6556 24.4319 13.7527 24.3706L31.6027 13.0355C31.6027 13.0355 32.6535 12.3968 32.6157 13.0355C32.6157 13.0355 32.8028 13.1471 32.2397 13.6707C31.7071 14.169 19.5174 25.9377 18.2831 27.1288C18.2145 27.1955 18.1664 27.2804 18.1446 27.3735L16.1546 34.9662L13.5188 24.9626V24.9644Z" fill="white"/>
</svg>
