<svg width="45" height="44" viewBox="0 0 45 44" fill="none" xmlns="http://www.w3.org/2000/svg">
<g clip-path="url(#clip0_234_3119)">
<g clip-path="url(#clip1_234_3119)">
<path d="M39.2836 18.0966C36.0002 18.1044 32.7974 17.0804 30.1275 15.1693V28.4981C30.1266 30.9667 29.3721 33.3763 27.9648 35.4045C26.5575 37.4327 24.5645 38.983 22.2524 39.848C19.9403 40.7129 17.4192 40.8514 15.0262 40.2449C12.6332 39.6384 10.4825 38.3158 8.86148 36.4539C7.2405 34.592 6.22657 32.2796 5.95528 29.8259C5.68398 27.3722 6.16824 24.8942 7.34331 22.7232C8.51838 20.5522 10.3283 18.7916 12.5309 17.677C14.7336 16.5623 17.224 16.1467 19.6693 16.4856V23.1896C18.5503 22.8376 17.3488 22.8482 16.2362 23.2199C15.1236 23.5915 14.157 24.3052 13.4742 25.259C12.7915 26.2129 12.4276 27.358 12.4345 28.531C12.4414 29.704 12.8187 30.8448 13.5127 31.7905C14.2066 32.7362 15.1816 33.4385 16.2985 33.797C17.4154 34.1555 18.617 34.152 19.7317 33.7869C20.8464 33.4217 21.8173 32.7137 22.5056 31.7639C23.194 30.8141 23.5646 29.6711 23.5646 28.4981V2.44165H30.1275C30.123 2.99588 30.1694 3.54935 30.2662 4.09507C30.4943 5.31331 30.9685 6.47221 31.6598 7.5009C32.3511 8.52959 33.245 9.40644 34.2868 10.0778C35.769 11.0578 37.5067 11.5802 39.2836 11.5798V18.0966Z" fill="white"/>
</g>
</g>
<defs>
<clipPath id="clip0_234_3119">
<rect width="44" height="44" fill="white" transform="translate(0.728027)"/>
</clipPath>
<clipPath id="clip1_234_3119">
<rect width="33.4115" height="38.1845" fill="white" transform="translate(5.87231 2.44165)"/>
</clipPath>
</defs>
</svg>
