<svg width="45" height="44" viewBox="0 0 45 44" fill="none" xmlns="http://www.w3.org/2000/svg">
<g clip-path="url(#clip0_234_3116)">
<path d="M41.316 11.0002C39.9043 11.6418 38.3826 12.0635 36.806 12.2652C38.4193 11.2935 39.666 9.7535 40.2526 7.90183C38.731 8.8185 37.0443 9.46016 35.266 9.82683C33.8176 8.25016 31.7826 7.3335 29.4726 7.3335C25.1643 7.3335 21.6443 10.8535 21.6443 15.1985C21.6443 15.8218 21.7176 16.4268 21.846 16.9952C15.3193 16.6652 9.50765 13.5302 5.63931 8.78183C4.96098 9.93683 4.57598 11.2935 4.57598 12.7235C4.57598 15.4552 5.95098 17.8752 8.07765 19.2502C6.77598 19.2502 5.56598 18.8835 4.50265 18.3335V18.3885C4.50265 22.2018 7.21598 25.3918 10.8093 26.1068C9.65565 26.4225 8.44449 26.4665 7.27098 26.2352C7.76893 27.798 8.74413 29.1656 10.0595 30.1455C11.3749 31.1255 12.9643 31.6686 14.6043 31.6985C11.8243 33.8993 8.37831 35.0889 4.83265 35.0718C4.20931 35.0718 3.58598 35.0352 2.96265 34.9618C6.44598 37.1985 10.5893 38.5002 15.026 38.5002C29.4726 38.5002 37.411 26.5102 37.411 16.1152C37.411 15.7668 37.411 15.4368 37.3926 15.0885C38.9326 13.9885 40.2526 12.5952 41.316 11.0002Z" fill="white"/>
</g>
<defs>
<clipPath id="clip0_234_3116">
<rect width="44" height="44" fill="white" transform="translate(0.137329)"/>
</clipPath>
</defs>
</svg>
